<svg id="complexity" xmlns="http://www.w3.org/2000/svg" viewBox="0 0 100 100">
  <defs>
    <style>
      .cls-1 {
        fill: #17bcbc;
      }

      .cls-2 {
        fill: none;
      }

      .cls-3 {
        fill: #fff;
      }
    </style>
  </defs>
  <circle id="Oval_6" data-name="Oval 6" class="cls-1" cx="50" cy="50" r="50"/>
  <g id="noun_complex_249372_546ae8" transform="translate(24 26)">
    <path id="Shape" class="cls-2" d="M21,3.268A3.264,3.264,0,0,0,17.735,0H14.018a3.269,3.269,0,0,0-3.265,3.265V5.311A6.37,6.37,0,0,1,4.39,11.674H2.625A3.262,3.262,0,0,0,0,13H20.988Z" transform="translate(15 3)"/>
    <path id="Shape-2" data-name="Shape" class="cls-2" d="M8,7V0H3.1A3.323,3.323,0,0,0,0,3.5,3.323,3.323,0,0,0,3.1,7H8Z" transform="translate(3 19)"/>
    <path id="Shape-3" data-name="Shape" class="cls-2" d="M11.047,12.076V15l15.786,0h0a3.206,3.206,0,0,0,2.239-.9A2.987,2.987,0,0,0,30,11.942V3.058A3.117,3.117,0,0,0,26.834,0H23.973l-.005,4.615.659-1.374a1.68,1.68,0,0,1,2.2-.78,1.577,1.577,0,0,1,.807,2.124l-3.616,7.547a1.661,1.661,0,0,1-1.5.928h0a1.662,1.662,0,0,1-1.5-.921L17.288,4.457a1.577,1.577,0,0,1,.8-2.127,1.682,1.682,0,0,1,2.2.77l.676,1.394L20.969,0H0V6.118H4.878A6.072,6.072,0,0,1,11.047,12.076Z" transform="translate(14 19)"/>
    <path id="Shape-4" data-name="Shape" class="cls-2" d="M3.149,7H8V3.581A3.389,3.389,0,0,0,4.851,0H0V3.418A3.39,3.39,0,0,0,3.149,7Z" transform="translate(14 28)"/>
    <path id="Shape-5" data-name="Shape" class="cls-3" d="M44.319,48H28.281a6.175,6.175,0,0,1-6.147-6.188V37.253H17.273a6.176,6.176,0,0,1-6.145-6.188v-3.03H6.147a6.189,6.189,0,0,1,0-12.378h5.27a6.138,6.138,0,0,1,5.855-4.3h1.705a3.168,3.168,0,0,0,3.154-3.175V6.188A6.175,6.175,0,0,1,28.28,0h3.591a6.079,6.079,0,0,1,4.348,1.815,6.165,6.165,0,0,1,1.8,4.38l-.011,9.46h2.847A6.175,6.175,0,0,1,47,21.844v9.224a6.174,6.174,0,0,1-1.8,4.377,6.091,6.091,0,0,1-4.347,1.812l-15.728,0v4.558a3.168,3.168,0,0,0,3.154,3.175H44.319a1.507,1.507,0,0,1,0,3.013ZM14.12,18.669v6.35h4.859a6.175,6.175,0,0,1,6.147,6.188v3.032l15.727,0a3.125,3.125,0,0,0,2.231-.93,3.164,3.164,0,0,0,.923-2.246V21.843a3.168,3.168,0,0,0-3.154-3.175H38L38,23.459l.656-1.427a1.654,1.654,0,0,1,1.5-.963,1.63,1.63,0,0,1,.692.154,1.668,1.668,0,0,1,.8,2.2l-3.6,7.836a1.645,1.645,0,0,1-2.992.007l-3.711-7.977a1.669,1.669,0,0,1,.795-2.209,1.624,1.624,0,0,1,.7-.157,1.656,1.656,0,0,1,1.5.957l.674,1.447.005-4.665Zm0,9.364v3.031a3.168,3.168,0,0,0,3.155,3.175h4.859V31.208a3.168,3.168,0,0,0-3.155-3.175ZM6.149,18.669a3.176,3.176,0,0,0,0,6.351h4.979V18.669Zm11.126-4.3a3.163,3.163,0,0,0-2.536,1.289H35.014l.011-9.464A3.157,3.157,0,0,0,34.1,3.945a3.123,3.123,0,0,0-2.231-.931H28.281a3.168,3.168,0,0,0-3.154,3.175v1.99a6.175,6.175,0,0,1-6.147,6.188Z"/>
  </g>
</svg>
