<?xml version="1.0" encoding="UTF-8"?>
<svg width="1246px" height="701px" viewBox="0 0 1246 701" version="1.1" xmlns="http://www.w3.org/2000/svg" xmlns:xlink="http://www.w3.org/1999/xlink">
    <!-- Generator: Sketch 51.2 (57519) - http://www.bohemiancoding.com/sketch -->
    <title>Group</title>
    <desc>Created with Sketch.</desc>
    <defs></defs>
    <g id="Page-1" stroke="none" stroke-width="1" fill="none" fill-rule="evenodd">
        <g id="Desktop-HD-Copy-3" transform="translate(-70.000000, -62.000000)">
            <g id="AHN-Know-Where-to-Go--(1)" transform="translate(70.000000, 62.000000)">
                <g id="Group">
                    <polygon id="Shape" fill="#FFFFFF" points="0 0 1246 0 1246 701 0 701"></polygon>
                    <polygon id="Shape" fill="#FBE834" points="1165.14784 609.044183 1139.43477 623.354476 1125.12702 597.636818 1150.8401 583.326525"></polygon>
                    <polygon id="Shape" fill="#FFD1C9" points="707.675824 215.908026 682.126258 228.950833 668.881392 202.946986 694.430958 189.904179"></polygon>
                    <polygon id="Shape" fill="#17BCBC" points="1008.26541 69.8705328 980.426583 79.3562143 970.942617 51.5124657 998.781362 42.0267843"></polygon>
                    <polygon id="Shape" fill="#FFD1C9" points="202.943859 154.652608 168.15561 183.2323 139.581005 148.437846 174.369254 119.858144"></polygon>
                    <polygon id="Shape" fill="#4F54FF" points="349.433302 260.250222 322.493867 247.207415 335.534368 220.263175 362.473783 233.305983"></polygon>
                    <polygon id="Shape" fill="#17BCBC" points="1050.1186 469.828452 1024.60991 455.191048 1039.24474 429.677849 1064.75335 444.315253"></polygon>
                    <polygon id="Shape" fill="#FF9695" points="1204.52331 259.045826 1178.81024 247.188717 1190.66521 221.471078 1216.37828 233.328188"></polygon>
                    <polygon id="Shape" fill="#FFD1C9" points="316.417754 429.165766 300.433947 445.152384 284.450159 429.165766 300.433947 413.179108"></polygon>
                    <polygon id="Shape" fill="#FBE834" points="942.407817 251.560497 919.801617 251.560497 919.801617 228.950244 942.407817 228.950244"></polygon>
                    <polygon id="Shape" fill="#FF9695" points="453.274942 585.722718 426.049349 594.717766 416.892398 567.037554 444.117991 558.042506"></polygon>
                    <polygon id="Shape" fill="#17BCBC" points="139.582449 628.850289 113.869386 643.160582 99.5616443 617.442963 125.274708 603.13267"></polygon>
                    <polygon id="Shape" fill="#FF9695" points="522.657751 97.0349696 501.686701 87.385747 511.334213 66.4109417 532.305263 76.060169"></polygon>
                    <polygon id="Shape" fill="#FBE834" points="667.491753 683.79032 644.803798 682.400183 646.193688 659.299223 668.881642 660.689399"></polygon>
                </g>
            </g>
        </g>
    </g>
</svg>