<svg id="Group_8" data-name="Group 8" xmlns="http://www.w3.org/2000/svg" viewBox="0 0 100 100">
  <defs>
    <style>
      .cls-1 {
        fill: #4f54ff;
      }

      .cls-2 {
        fill: #fff;
      }
    </style>
  </defs>
  <circle id="Oval_2" data-name="Oval 2" class="cls-1" cx="50" cy="50" r="50"/>
  <g id="noun_celebrate_1102428_546ae8" transform="translate(27 28)">
    <path id="Shape" class="cls-2" d="M.835,27a.834.834,0,0,1-.752-1.2L12.454.468A.83.83,0,0,1,13.192,0h.013a.827.827,0,0,1,.589.244L26.754,13.2a.834.834,0,0,1-.221,1.341L1.2,26.916A.828.828,0,0,1,.835,27ZM13.44,2.251,2.646,24.356l22.1-10.8Z" transform="translate(0 18)"/>
    <path id="Shape-2" data-name="Shape" class="cls-2" d="M0,0V7H2V0Z" transform="translate(21 27)"/>
    <path id="Shape-3" data-name="Shape" class="cls-2" d="M0,0V13H2V0Z" transform="translate(17 23)"/>
    <path id="Shape-4" data-name="Shape" class="cls-2" d="M0,0V18H2V0Z" transform="translate(13 20)"/>
    <path id="Shape-5" data-name="Shape" class="cls-2" d="M0,0V15H2V0Z" transform="translate(10 25)"/>
    <path id="Shape-6" data-name="Shape" class="cls-2" d="M0,0V10H2V0Z" transform="translate(6 32)"/>
    <path id="Shape-7" data-name="Shape" class="cls-2" d="M12.135,0a.842.842,0,0,0-.579.253l-11.3,11.3a.842.842,0,1,0,1.19,1.19l11.3-11.3A.842.842,0,0,0,12.135,0Z" transform="translate(22 10)"/>
    <path id="Shape-8" data-name="Shape" class="cls-2" d="M7.215,0A9.673,9.673,0,0,0,.252,2.952a.859.859,0,0,0-.225.821.833.833,0,0,0,.587.6.807.807,0,0,0,.8-.231,8.041,8.041,0,0,1,11.611.017l.571.59a.807.807,0,0,0,.8.22.834.834,0,0,0,.582-.6.86.86,0,0,0-.217-.817l-.571-.586A9.705,9.705,0,0,0,7.215.007Z" transform="translate(25 22)"/>
    <path id="Shape-9" data-name="Shape" class="cls-2" d="M.9,0A.9.9,0,0,0,.066.513a.772.772,0,0,0,.208.9L.48,1.6A1.982,1.982,0,0,1,.588,4.588a.776.776,0,0,0-.246.8.862.862,0,0,0,.641.587.953.953,0,0,0,.873-.225A3.545,3.545,0,0,0,1.748.439L1.542.25A.94.94,0,0,0,.9,0Z" transform="translate(26 7)"/>
    <path id="Shape-10" data-name="Shape" class="cls-2" d="M2.9,0A3.444,3.444,0,0,0,.252,1.141a.95.95,0,0,0-.225.871.861.861,0,0,0,.587.64.776.776,0,0,0,.8-.245A1.983,1.983,0,0,1,4.4,2.516l.189.21a.776.776,0,0,0,.8.245.861.861,0,0,0,.587-.64.95.95,0,0,0-.225-.871L5.56,1.25A3.748,3.748,0,0,0,2.9,0Z" transform="translate(32 17)"/>
    <path id="Shape-11" data-name="Shape" class="cls-2" d="M2.668.014a5.381,5.381,0,0,0-2.2.639A.88.88,0,1,0,1.306,2.2,4.54,4.54,0,0,1,7.124,4.167l.247.409a.879.879,0,1,0,1.5-.918l-.247-.409A6.589,6.589,0,0,0,2.668.014Z" transform="translate(27 27)"/>
    <path id="Shape-12" data-name="Shape" class="cls-2" d="M.843,0A.878.878,0,0,0,.431,1.633l.409.25A4.536,4.536,0,0,1,2.8,7.7a.879.879,0,1,0,1.545.84C5.862,5.752,4.639,2.144,1.756.385L1.347.134A.88.88,0,0,0,.843,0Z" transform="translate(14 10)"/>
    <path id="Shape-13" data-name="Shape" class="cls-2" d="M2.115,0a.862.862,0,0,0-.592.259L.264,1.518A.861.861,0,1,0,1.482,2.736L2.741,1.478A.861.861,0,0,0,2.115,0Z" transform="translate(36 6)"/>
    <path id="Shape-14" data-name="Shape" class="cls-2" d="M.764,0A.861.861,0,0,0,.019.792,1.136,1.136,0,0,0,.43,1.925l1.439.964a.625.625,0,0,0,.776-.052A1.134,1.134,0,0,0,3,1.932a1.07,1.07,0,0,0-.423-.852L1.137.116A.634.634,0,0,0,.764,0Z" transform="translate(36 7)"/>
    <path id="Shape-15" data-name="Shape" class="cls-2" d="M1.171,0A.835.835,0,0,0,.286.635L.011,2.146a.688.688,0,0,0,.309.69.977.977,0,0,0,.852.114.773.773,0,0,0,.54-.577L1.988.863a.664.664,0,0,0-.18-.59A.918.918,0,0,0,1.171,0Z" transform="translate(36 7)"/>
    <path id="Shape-16" data-name="Shape" class="cls-2" d="M2.257,0a.633.633,0,0,0-.126.017L.627.289A.77.77,0,0,0,.05.828a.979.979,0,0,0,.114.853.684.684,0,0,0,.69.308l1.5-.272A.836.836,0,0,0,3,.8.793.793,0,0,0,2.257,0Z" transform="translate(35 7)"/>
    <path id="Shape-17" data-name="Shape" class="cls-2" d="M1.027,0A1.115,1.115,0,0,0,.148.373a.622.622,0,0,0-.03.768l.96,1.437A1.073,1.073,0,0,0,1.933,3a1.135,1.135,0,0,0,.9-.355.624.624,0,0,0,.05-.776L1.928.434A1.077,1.077,0,0,0,1.027,0Z" transform="translate(36 6)"/>
    <path id="Shape-18" data-name="Shape" class="cls-2" d="M.841,0A.844.844,0,0,0,.062.512a.8.8,0,0,0,.192.9l.587.574a8.034,8.034,0,0,1,.01,11.6.806.806,0,0,0-.234.8.833.833,0,0,0,.6.588.86.86,0,0,0,.822-.227A9.667,9.667,0,0,0,2.034.821L1.447.247A.856.856,0,0,0,.841,0Z" transform="translate(19 5)"/>
    <path id="Shape-19" data-name="Shape" class="cls-2" d="M2.113,0a.86.86,0,0,0-.591.262L.266,1.519A.86.86,0,1,0,1.482,2.734L2.738,1.478A.86.86,0,0,0,2.113,0Z" transform="translate(15 1)"/>
    <path id="Shape-20" data-name="Shape" class="cls-2" d="M.769,0a.859.859,0,0,0-.75.791A1.134,1.134,0,0,0,.435,1.929l1.434.96a.7.7,0,0,0,1.045-.442A1.181,1.181,0,0,0,2.577,1.08L1.142.12A.635.635,0,0,0,.769,0Z" transform="translate(15 2)"/>
    <path id="Shape-21" data-name="Shape" class="cls-2" d="M1.085,0a.82.82,0,0,0-.8.634L.011,2.147a.688.688,0,0,0,.31.69.98.98,0,0,0,.853.114.774.774,0,0,0,.541-.576L1.987.863A.668.668,0,0,0,1.78.245.939.939,0,0,0,1.085,0Z" transform="translate(15 2)"/>
    <path id="Shape-22" data-name="Shape" class="cls-2" d="M2.254,0A.634.634,0,0,0,2.13.017L.627.292A.769.769,0,0,0,.05.83a.976.976,0,0,0,.114.852.683.683,0,0,0,.69.307l1.5-.275A.834.834,0,0,0,3,.8.791.791,0,0,0,2.254,0Z" transform="translate(13 2)"/>
    <path id="Shape-23" data-name="Shape" class="cls-2" d="M1.03,0A1.115,1.115,0,0,0,.149.371a.622.622,0,0,0-.031.769l.963,1.437a1.18,1.18,0,0,0,1.365.338A.7.7,0,0,0,2.889,1.87L1.926.434A1.074,1.074,0,0,0,1.03,0Z" transform="translate(15 0)"/>
    <path id="Shape-24" data-name="Shape" class="cls-2" d="M2.112,0a.864.864,0,0,0-.594.26L.253,1.525A.865.865,0,0,0,1.478,2.746L2.74,1.481A.864.864,0,0,0,2.112,0Z" transform="translate(42 27)"/>
    <path id="Shape-25" data-name="Shape" class="cls-2" d="M1.022,0A1.109,1.109,0,0,0,.148.366a.611.611,0,0,0-.03.759l.955,1.418A1.036,1.036,0,0,0,1.923,3a1.125,1.125,0,0,0,.926-.361.613.613,0,0,0,.012-.791L1.91.428A1.068,1.068,0,0,0,1.022,0Z" transform="translate(42 27)"/>
    <path id="Shape-26" data-name="Shape" class="cls-2" d="M2.257,0a.63.63,0,0,0-.123.017L.634.289A.765.765,0,0,0,.051.824a.98.98,0,0,0,.113.858.68.68,0,0,0,.693.3l1.5-.272A.835.835,0,0,0,3,.8.791.791,0,0,0,2.257,0Z" transform="translate(41 29)"/>
    <path id="Shape-27" data-name="Shape" class="cls-2" d="M1.086,0a.82.82,0,0,0-.8.632L.013,2.139a.683.683,0,0,0,.306.7.982.982,0,0,0,.86.113.768.768,0,0,0,.537-.585L1.988.858A.665.665,0,0,0,1.779.244.94.94,0,0,0,1.086,0Z" transform="translate(42 29)"/>
    <path id="Shape-28" data-name="Shape" class="cls-2" d="M.77,0A.86.86,0,0,0,.019.793,1.136,1.136,0,0,0,.436,1.932l1.44.961a.7.7,0,0,0,1.039-.448,1.186,1.186,0,0,0-.331-1.364L1.147.12A.636.636,0,0,0,.77,0Z" transform="translate(42 29)"/>
    <path id="Shape-29" data-name="Shape" class="cls-2" d="M.293.293A1,1,0,1,0,1,0,1,1,0,0,0,.293.293Z" transform="translate(39 20)"/>
    <path id="Shape-30" data-name="Shape" class="cls-2" d="M.293.293A1,1,0,1,0,1,0,1,1,0,0,0,.293.293Z" transform="translate(24 5)"/>
    <path id="Shape-31" data-name="Shape" class="cls-2" d="M.293.293A1,1,0,1,0,1,0,1,1,0,0,0,.293.293Z" transform="translate(36 32)"/>
    <path id="Shape-32" data-name="Shape" class="cls-2" d="M.293.293A1,1,0,1,0,1,0,1,1,0,0,0,.293.293Z" transform="translate(12 8)"/>
    <path id="Shape-33" data-name="Shape" class="cls-2" d="M.293.293A1,1,0,1,0,1,0,1,1,0,0,0,.293.293Z" transform="translate(38 13)"/>
    <path id="Shape-34" data-name="Shape" class="cls-2" d="M.293.293A1,1,0,1,0,1,0,1,1,0,0,0,.293.293Z" transform="translate(31 6)"/>
    <path id="Shape-35" data-name="Shape" class="cls-2" d="M.293.293a1,1,0,1,0,1.414,0,1,1,0,0,0-1.414,0Z" transform="translate(44 23)"/>
    <path id="Shape-36" data-name="Shape" class="cls-2" d="M.293.293A1,1,0,1,0,1,0,1,1,0,0,0,.293.293Z" transform="translate(22)"/>
  </g>
</svg>
