<svg xmlns="http://www.w3.org/2000/svg" viewBox="0 0 898.112 447.194">
  <defs>
    <style>
      .cls-1 {
        fill: #4f54ff;
      }

      .cls-2 {
        fill: #ff9695;
      }

      .cls-3 {
        fill: #17bcbc;
      }

      .cls-4 {
        fill: #f9cd17;
      }

      .cls-5 {
        fill: #b4fcdd;
      }
    </style>
  </defs>
  <g id="evaluative-research-bg" transform="translate(-0.888 -0.96)">
    <g id="noun_success_1473712_546ae8" transform="matrix(0.951, 0.309, -0.309, 0.951, 355.739, 108.198)">
      <path id="Shape" class="cls-1" d="M30,60A30.008,30.008,0,0,1,18.323,2.358,30.008,30.008,0,0,1,41.677,57.643,29.813,29.813,0,0,1,30,60ZM30,2A28,28,0,1,0,58,30,28.032,28.032,0,0,0,30,2Z" transform="translate(0)"/>
      <path id="Shape-2" data-name="Shape" class="cls-1" d="M31,42H9a1,1,0,0,1-1-1V39a3,3,0,0,1,3-3h6V26.64A13,13,0,0,1,7.64,18H4.07A4.088,4.088,0,0,1,0,13.93V5.07A4.079,4.079,0,0,1,6.33,1.68L7,2.13V1A1,1,0,0,1,8,0H32a1,1,0,0,1,1,1V2.13l.67-.45A4.075,4.075,0,0,1,40,5.07v8.86A4.088,4.088,0,0,1,35.93,18H32.36A13,13,0,0,1,23,26.64V36h6a3,3,0,0,1,3,3v2A1,1,0,0,1,31,42ZM11,38a1,1,0,0,0-1,1v1H30V39a1,1,0,0,0-1-1Zm8-11v9h2V27ZM9,2V14a11,11,0,0,0,22,0V2ZM35.912,3a2,2,0,0,0-1.133.35L33,4.54V14a13.339,13.339,0,0,1-.17,2h3.1A2.07,2.07,0,0,0,38,13.93V5.07A2.072,2.072,0,0,0,35.93,3ZM4.07,3A2.072,2.072,0,0,0,2,5.07v8.86A2.071,2.071,0,0,0,4.07,16h3.1A13.039,13.039,0,0,1,7,14V4.54L5.22,3.35A2,2,0,0,0,4.088,3Z" transform="translate(10 11)"/>
      <path id="Shape-3" data-name="Shape" class="cls-1" d="M3.287,14.02a1,1,0,0,1-.949-1.3L3.547,8.8.387,6.39A1,1,0,0,1,1,4.6h3.85L6.037.72a1,1,0,0,1,1.92,0L9.147,4.6H13a1,1,0,0,1,.61,1.79L10.447,8.8l1.2,3.92a1,1,0,0,1-1.56,1.09L7,11.44,3.9,13.81A1,1,0,0,1,3.287,14.02ZM7,9.142a1,1,0,0,1,.61.208l1.22.93L8.337,8.69A1.006,1.006,0,0,1,8.687,7.6l1.4-1H8.424a1,1,0,0,1-.956-.711L7.007,4.4,6.547,5.89A1,1,0,0,1,5.59,6.6H3.957l1.36,1a1.008,1.008,0,0,1,.34,1.091l-.49,1.589,1.22-.93A1,1,0,0,1,7,9.142Z" transform="translate(22.913 16.4)"/>
    </g>
    <g id="noun_testing_823143_546ae8" transform="translate(0.888 11.754) rotate(-9)">
      <path id="Shape-4" data-name="Shape" class="cls-2" d="M56.336,58H0V16.463H22.683L27.055,0,69,11.343,61.734,38.712l-5.4-1.46V58ZM2.845,19.335V55.129H53.49V19.335Zm53.491,11.7v4.355l4.136,1.119,6.344-23.89L28.317,2.206,24.531,16.463h3.278a2.381,2.381,0,0,1-.073-1.382l.006-.041a2.4,2.4,0,0,1,2.2-1.778c.162.01.256.013.319.016a.99.99,0,0,1,.262.036l.13.028a2.408,2.408,0,0,1,1.683,2.941l-.032.1-.026.08h3.276l.123-.457,1.66.457H56.336V21.7l3.217.886-.471,1.737-2.747-.757v5.6l1.37.377-.47,1.738Z"/>
      <path id="Shape-5" data-name="Shape" class="cls-2" d="M.483,0,25,6.329,24.517,8,0,1.671Z" transform="translate(38 8)"/>
      <path id="Shape-6" data-name="Shape" class="cls-2" d="M1.853,4.914A2.5,2.5,0,1,1,4.914,3.147,2.5,2.5,0,0,1,1.853,4.914Z" transform="translate(30 6)"/>
      <path id="Shape-7" data-name="Shape" class="cls-2" d="M17.916,0,20,1.984,18.067,4.151,14.224,8.459,9.563,13.684,7.631,15.85,6.6,17,5.561,15.867,2.781,12.846C.695,10.581.695,10.581,0,9.825L2.054,7.808l2.781,3.02,1.738,1.888L7.479,11.7l3.843-4.309,4.661-5.224Z" transform="translate(6 23)"/>
      <path id="Shape-8" data-name="Shape" class="cls-2" d="M12.837,0,15,2,12.994,4.19,9.006,8.539,4.169,13.813,2.163,16,0,14l2.006-2.187L5.994,7.461l4.837-5.274Z" transform="translate(34 37)"/>
      <path id="Shape-9" data-name="Shape" class="cls-2" d="M2.163,0,4.169,2.188,8.157,6.536l4.837,5.274L15,14l-2.163,2-2.006-2.187L6.843,9.464,2.006,4.19,0,2Z" transform="translate(34 37)"/>
      <path id="Shape-10" data-name="Shape" class="cls-2" d="M14.642,0,17,1.44,14.713,5.746,9.679,15.22c-2.745,5.168-2.745,5.168-5.033,9.473L2.358,29,0,27.56l2.288-4.307L7.321,13.78l5.033-9.473Z" transform="translate(20 24)"/>
    </g>
    <g id="noun_iterative_935848_546ae8" transform="translate(144 385.822) rotate(-9)">
      <path id="Shape-11" data-name="Shape" class="cls-3" d="M13,14H1a1,1,0,0,1-1-1V1A1,1,0,0,1,1,0H13a1,1,0,0,1,1,1V13A1,1,0,0,1,13,14ZM2,2V12H12V2Z"/>
      <path id="Shape-12" data-name="Shape" class="cls-3" d="M13,14H1a1,1,0,0,1-1-1V1A1,1,0,0,1,1,0H13a1,1,0,0,1,1,1V13A1,1,0,0,1,13,14ZM2,2V12H12V2Z" transform="translate(36)"/>
      <path id="Shape-13" data-name="Shape" class="cls-3" d="M7.707.293A1,1,0,0,0,6.293,1.707L6.586,2H1A1,1,0,1,0,1,4H6.586l-.293.293A1,1,0,1,0,7.707,5.707l2-2a1,1,0,0,0,0-1.414Z" transform="translate(20 4)"/>
      <path id="Shape-14" data-name="Shape" class="cls-3" d="M3,0A1,1,0,0,0,2,1V6.586l-.293-.293A1,1,0,0,0,.293,7.707l2,2a1,1,0,0,0,1.414,0l2-2A1,1,0,0,0,4.293,6.293L4,6.586V1A1,1,0,0,0,3,0Z" transform="translate(40 20)"/>
      <path id="Shape-15" data-name="Shape" class="cls-3" d="M13,14H1a1,1,0,0,1-1-1V1A1,1,0,0,1,1,0H13a1,1,0,0,1,1,1V13A1,1,0,0,1,13,14ZM2,2V12H12V2Z" transform="translate(36 36)"/>
      <path id="Shape-16" data-name="Shape" class="cls-3" d="M9,2H3.414l.293-.293A1,1,0,1,0,2.293.293l-2,2a1,1,0,0,0,0,1.414l2,2A1,1,0,0,0,3.707,4.293L3.414,4H9A1,1,0,1,0,9,2Z" transform="translate(20 40)"/>
      <path id="Shape-17" data-name="Shape" class="cls-3" d="M13,14H1a1,1,0,0,1-1-1V1A1,1,0,0,1,1,0H13a1,1,0,0,1,1,1V13A1,1,0,0,1,13,14ZM2,2V12H12V2Z" transform="translate(0 36)"/>
      <path id="Shape-18" data-name="Shape" class="cls-3" d="M3,10A1,1,0,0,0,4,9V3.414l.293.293A1,1,0,1,0,5.707,2.293l-2-2a1,1,0,0,0-1.414,0l-2,2A1,1,0,0,0,1.707,3.707L2,3.414V9A1,1,0,0,0,3,10Z" transform="translate(4 20)"/>
    </g>
    <g id="noun_test_1477500_546ae8" transform="translate(587.508 386.918) rotate(-9)">
      <path id="Shape-19" data-name="Shape" class="cls-4" d="M51.857,62H11.773a1.282,1.282,0,0,1-1.016-.5,1.267,1.267,0,0,1-.209-1.111l3.708-13L6.979,41.077H1.273a1.269,1.269,0,1,1,0-2.539H5.32a4.425,4.425,0,0,1,.688-3.627l9.686-13.536a4.384,4.384,0,0,1,2.516-1.7c.1.176.206.35.3.5l.015.023.014.023.023.037.038.059.042.067,0,0a14.907,14.907,0,0,0,2.4,2.98,15.676,15.676,0,0,0,2.49,1.954,15.435,15.435,0,0,0,21.449-4.933,12.068,12.068,0,0,1,5.208,9.9v8.016c0,.028,0,.056,0,.083v.017l0,.018,0,.015,0,.014,0,.012,0,.013v.007c0,.009,0,.018,0,.027l0,.016v.005h6.559a1.269,1.269,0,1,1,0,2.539H20.56l1.824,1.58h24.68a1.275,1.275,0,0,1,1.224.922l4.793,16.8a1.261,1.261,0,0,1-.209,1.111A1.278,1.278,0,0,1,51.857,62ZM16.377,49.222l-2.92,10.239H50.172L46.1,45.2H24.573a4.44,4.44,0,0,1,.321,2.182h7.72a1.078,1.078,0,1,1,0,2.156H24.021c-.017.022-.036.05-.059.085l-.008.012,0,.006,0,.006-.005.008a1.317,1.317,0,0,1-.108.148,4.407,4.407,0,0,1-2.615,1.451h7.236a1.078,1.078,0,1,1,0,2.156H19.967a1.069,1.069,0,0,1-.12-2.133,4.441,4.441,0,0,1-2.3-1.035ZM45.416,57.28H41.653a1.079,1.079,0,1,1,0-2.157h3.763a1.079,1.079,0,1,1,0,2.157Zm-8.7,0H32.95a1.079,1.079,0,1,1,0-2.157h3.763a1.079,1.079,0,1,1,0,2.157Zm-8.757,0H18.213a1.079,1.079,0,1,1,0-2.157h9.743a1.079,1.079,0,1,1,0,2.157Zm15.7-3.873H32.914a1.078,1.078,0,1,1,0-2.156H43.661a1.078,1.078,0,1,1,0,2.156Zm-3.693-3.873H35.492a1.078,1.078,0,1,1,0-2.156h4.477a1.078,1.078,0,1,1,0,2.156ZM31.814,24.567a12.229,12.229,0,0,1-7.352-2.446,12.517,12.517,0,0,1-2.983-3.174,12.315,12.315,0,1,1,20.672,0,12.518,12.518,0,0,1-2.984,3.173A12.225,12.225,0,0,1,31.814,24.567Z"/>
    </g>
    <g id="noun_Gift_Card_182235_546ae8" data-name="noun_Gift Card_182235_546ae8" transform="translate(832 17)">
      <path id="Shape-20" data-name="Shape" class="cls-5" d="M12.419,49A4.955,4.955,0,0,1,7.7,45.406L.2,19.249a5,5,0,0,1,3.348-6.178L47.211.2A4.812,4.812,0,0,1,48.582,0a4.954,4.954,0,0,1,4.723,3.594L60.8,29.75a5,5,0,0,1-3.348,6.179L13.789,48.8A4.837,4.837,0,0,1,12.419,49Zm3.109-23.332L5.111,28.74,9.718,44.81a2.83,2.83,0,0,0,2.7,2.053,2.759,2.759,0,0,0,.783-.113l10.622-3.131L19.343,27.994c-1.362,4.631-2.864,9.031-2.878,9.071l-3.145-5.8C14.213,29.272,14.956,27.389,15.528,25.669Zm7.8-.992h0l5.046,17.6,28.493-8.4a2.857,2.857,0,0,0,1.913-3.53l-4.608-16.07L27.166,22.238c1.488,1.175,3.221,2.43,5.149,3.728l1.22,6.5c-.005,0-.034-.023-.085-.06-1.372-1-6.156-4.522-10.122-7.729ZM14.755,11.992,4.132,15.123a2.857,2.857,0,0,0-1.913,3.531l1.568,5.471,6.466-1.906a17.719,17.719,0,0,1-.985-2.8C9.634,19.166,12.926,17,15.824,17c.118,0,.242,0,.369.013Zm12.63-.108h0A21.9,21.9,0,0,1,29.323,16.6L52.85,9.661,51.281,4.19a2.829,2.829,0,0,0-2.7-2.054,2.741,2.741,0,0,0-.783.113l-28.494,8.4,1.354,4.719c2-2.375,6.532-3.441,6.725-3.485Z" transform="translate(1 15)"/>
      <path id="Shape-21" data-name="Shape" class="cls-5" d="M5.388,6a1.566,1.566,0,0,1-.91-.292L.7,3.03A1.694,1.694,0,0,1,.283.721,1.579,1.579,0,0,1,2.522.292L6.3,2.97a1.694,1.694,0,0,1,.416,2.309A1.6,1.6,0,0,1,5.388,6Z" transform="translate(0 15)"/>
      <path id="Shape-22" data-name="Shape" class="cls-5" d="M6.232,10a1.773,1.773,0,0,1-1.465-.767L.307,2.74A1.743,1.743,0,0,1,.774.3,1.78,1.78,0,0,1,3.233.767L7.693,7.26A1.743,1.743,0,0,1,7.226,9.7,1.775,1.775,0,0,1,6.232,10Z" transform="translate(11 3)"/>
      <path id="Shape-23" data-name="Shape" class="cls-5" d="M2,10A1.889,1.889,0,0,1,0,8.246V1.754A1.889,1.889,0,0,1,2,0,1.889,1.889,0,0,1,4,1.754V8.246A1.889,1.889,0,0,1,2,10Z" transform="translate(31)"/>
      <path id="Shape-24" data-name="Shape" class="cls-5" d="M1.612,6A1.6,1.6,0,0,1,.283,5.279,1.694,1.694,0,0,1,.7,2.97L4.479.292A1.579,1.579,0,0,1,6.717.721,1.694,1.694,0,0,1,6.3,3.03L2.521,5.708A1.568,1.568,0,0,1,1.612,6Z" transform="translate(60 15)"/>
      <path id="Shape-25" data-name="Shape" class="cls-5" d="M1.768,10a1.774,1.774,0,0,1-.994-.3A1.743,1.743,0,0,1,.307,7.261L4.767.767A1.78,1.78,0,0,1,7.226.3,1.743,1.743,0,0,1,7.693,2.74L3.233,9.233A1.773,1.773,0,0,1,1.768,10Z" transform="translate(49 3)"/>
    </g>
  </g>
</svg>
