<svg xmlns="http://www.w3.org/2000/svg" xmlns:xlink="http://www.w3.org/1999/xlink" viewBox="0 0 380 554">
  <defs>
    <style>
      .cls-1 {
        fill: #fff;
      }

      .cls-2 {
        fill: #f9cd17;
      }

      .cls-3 {
        fill: #b4fcdd;
      }

      .cls-4 {
        fill: #4f54ff;
      }

      .cls-5 {
        fill: #17bcbc;
      }

      .cls-6 {
        fill: #ff9695;
      }

      .cls-7 {
        filter: url(#Rectangle_6);
      }
    </style>
    <filter id="Rectangle_6" x="0" y="0" width="380" height="554" filterUnits="userSpaceOnUse">
      <feOffset input="SourceAlpha"/>
      <feGaussianBlur stdDeviation="10" result="blur"/>
      <feFlood flood-opacity="0.075"/>
      <feComposite operator="in" in2="blur"/>
      <feComposite in="SourceGraphic"/>
    </filter>
  </defs>
  <g id="Group_3" data-name="Group 3" transform="translate(30 30)">
    <g class="cls-7" transform="matrix(1, 0, 0, 1, -30, -30)">
      <rect id="Rectangle_6-2" data-name="Rectangle 6" class="cls-1" width="320" height="494" transform="translate(30 30)"/>
    </g>
    <g id="noun_test_1477500_546ae8" transform="translate(46.242 408.972) rotate(-9)">
      <path id="Shape" class="cls-2" d="M30.642,36.635H6.956a.757.757,0,0,1-.6-.3.748.748,0,0,1-.123-.657L8.424,28l-4.3-3.727H.752a.75.75,0,1,1,0-1.5H3.143a2.615,2.615,0,0,1,.406-2.143l5.723-8a2.591,2.591,0,0,1,1.486-1.005c.057.1.122.207.179.3l.009.014.009.013.014.022.022.035.025.04,0,0a8.808,8.808,0,0,0,1.416,1.761,9.263,9.263,0,0,0,1.471,1.155A9.12,9.12,0,0,0,26.579,12.05,7.131,7.131,0,0,1,29.657,17.9v4.737c0,.016,0,.033,0,.049v.057c0,.005,0,.011,0,.016v.012h3.876a.75.75,0,1,1,0,1.5H12.148l1.078.934H27.809a.754.754,0,0,1,.723.545l2.832,9.929a.745.745,0,0,1-.123.657A.755.755,0,0,1,30.642,36.635ZM9.677,29.085l-1.725,6.05H29.646l-2.4-8.429H14.52a2.623,2.623,0,0,1,.19,1.289h4.562a.637.637,0,1,1,0,1.274H14.194c-.01.013-.021.029-.035.05l0,.007,0,0,0,0,0,0a.778.778,0,0,1-.064.088,2.6,2.6,0,0,1-1.545.857h4.276a.637.637,0,1,1,0,1.274H11.8a.632.632,0,0,1-.071-1.26,2.624,2.624,0,0,1-1.358-.612Zm17.158,4.761H24.612a.637.637,0,1,1,0-1.275h2.223a.637.637,0,1,1,0,1.275Zm-5.142,0H19.47a.637.637,0,1,1,0-1.275h2.223a.637.637,0,1,1,0,1.275Zm-5.174,0H10.762a.637.637,0,1,1,0-1.275h5.757a.637.637,0,1,1,0,1.275Zm9.28-2.288h-6.35a.637.637,0,1,1,0-1.274H25.8a.637.637,0,1,1,0,1.274Zm-2.182-2.288H20.971a.637.637,0,1,1,0-1.274h2.645a.637.637,0,1,1,0,1.274ZM18.8,14.516a7.226,7.226,0,0,1-4.344-1.445A7.4,7.4,0,0,1,12.691,11.2a7.277,7.277,0,1,1,12.215,0,7.4,7.4,0,0,1-1.763,1.875A7.223,7.223,0,0,1,18.8,14.516Z" transform="translate(0 0)"/>
    </g>
    <g id="noun_Gift_Card_182235_546ae8" data-name="noun_Gift Card_182235_546ae8" transform="translate(120.832 303.568)">
      <path id="Shape-2" data-name="Shape" class="cls-3" d="M7.338,28.954A2.928,2.928,0,0,1,4.547,26.83L.116,11.374a2.954,2.954,0,0,1,1.978-3.65L27.9.118A2.843,2.843,0,0,1,28.706,0,2.927,2.927,0,0,1,31.5,2.123l4.431,15.456A2.955,2.955,0,0,1,33.95,21.23l-25.8,7.606A2.858,2.858,0,0,1,7.338,28.954ZM9.175,15.167,3.02,16.982l2.722,9.5a1.672,1.672,0,0,0,1.595,1.213,1.63,1.63,0,0,0,.463-.067l6.276-1.85-2.647-9.232c-.8,2.736-1.693,5.336-1.7,5.36L7.871,18.476C8.4,17.3,8.837,16.184,9.175,15.167Zm4.609-.586h0l2.982,10.4L33.6,20.017a1.688,1.688,0,0,0,1.131-2.086l-2.723-9.5-15.958,4.7c.879.694,1.9,1.436,3.042,2.2l.721,3.841s-.02-.013-.05-.035c-.811-.592-3.638-2.672-5.981-4.567Zm-5.066-7.5L2.441,8.936a1.688,1.688,0,0,0-1.13,2.086l.926,3.233,3.82-1.126a10.47,10.47,0,0,1-.582-1.657A8.289,8.289,0,0,1,9.35,10.043c.069,0,.143,0,.218.007Zm7.463-.064h0a12.939,12.939,0,0,1,1.145,2.785l13.9-4.1L30.3,2.476a1.672,1.672,0,0,0-1.594-1.214,1.62,1.62,0,0,0-.463.067L11.407,6.293l.8,2.788c1.179-1.4,3.86-2.033,3.974-2.059Z" transform="translate(0.591 8.863)"/>
      <path id="Shape-3" data-name="Shape" class="cls-3" d="M3.184,3.545a.925.925,0,0,1-.538-.172L.413,1.791A1,1,0,0,1,.167.426.933.933,0,0,1,1.49.173L3.723,1.755a1,1,0,0,1,.246,1.365A.943.943,0,0,1,3.184,3.545Z" transform="translate(0 8.863)"/>
      <path id="Shape-4" data-name="Shape" class="cls-3" d="M3.682,5.909a1.047,1.047,0,0,1-.865-.453L.181,1.619A1.03,1.03,0,0,1,.457.18,1.052,1.052,0,0,1,1.91.453L4.546,4.29A1.03,1.03,0,0,1,4.27,5.729,1.049,1.049,0,0,1,3.682,5.909Z" transform="translate(6.5 1.773)"/>
      <path id="Shape-5" data-name="Shape" class="cls-3" d="M1.182,5.909A1.116,1.116,0,0,1,0,4.872V1.037A1.116,1.116,0,0,1,1.182,0,1.116,1.116,0,0,1,2.364,1.037V4.872A1.116,1.116,0,0,1,1.182,5.909Z" transform="translate(18.317)"/>
      <path id="Shape-6" data-name="Shape" class="cls-3" d="M.952,3.545a.942.942,0,0,1-.785-.426A1,1,0,0,1,.413,1.755L2.646.172A.933.933,0,0,1,3.969.426a1,1,0,0,1-.246,1.365L1.49,3.373A.927.927,0,0,1,.952,3.545Z" transform="translate(35.453 8.863)"/>
      <path id="Shape-7" data-name="Shape" class="cls-3" d="M1.045,5.909a1.048,1.048,0,0,1-.587-.18A1.03,1.03,0,0,1,.181,4.29L2.817.453A1.052,1.052,0,0,1,4.27.18a1.03,1.03,0,0,1,.276,1.439L1.91,5.456A1.048,1.048,0,0,1,1.045,5.909Z" transform="translate(28.953 1.773)"/>
    </g>
    <g id="noun_success_1473712_546ae8" transform="matrix(0.951, 0.309, -0.309, 0.951, 76.774, 57.661)">
      <path id="Shape-8" data-name="Shape" class="cls-4" d="M17.726,35.453a17.731,17.731,0,0,1-6.9-34.06,17.731,17.731,0,0,1,13.8,32.667A17.616,17.616,0,0,1,17.726,35.453Zm0-34.272A16.545,16.545,0,1,0,34.271,17.726,16.563,16.563,0,0,0,17.726,1.182Z" transform="translate(0 0)"/>
      <path id="Shape-9" data-name="Shape" class="cls-4" d="M18.317,24.817h-13a.591.591,0,0,1-.591-.591V23.044A1.774,1.774,0,0,1,6.5,21.272h3.545V15.741a7.683,7.683,0,0,1-5.531-5.105H2.4A2.416,2.416,0,0,1,0,8.231V3a2.41,2.41,0,0,1,3.74-2l.4.266V.591A.591.591,0,0,1,4.727,0H18.909A.591.591,0,0,1,19.5.591v.668l.4-.266a2.408,2.408,0,0,1,3.74,2V8.231a2.416,2.416,0,0,1-2.4,2.4H19.121a7.683,7.683,0,0,1-5.531,5.105v5.531h3.545a1.775,1.775,0,0,1,1.773,1.772v1.182A.592.592,0,0,1,18.317,24.817ZM6.5,22.454a.591.591,0,0,0-.591.591v.591H17.726v-.591a.591.591,0,0,0-.591-.591Zm4.727-6.5v5.318h1.182V15.954ZM5.318,1.182V8.273a6.5,6.5,0,1,0,13,0V1.182Zm15.9.591a1.181,1.181,0,0,0-.669.207l-1.051.7v5.59a7.882,7.882,0,0,1-.1,1.182H21.23a1.223,1.223,0,0,0,1.223-1.223V3A1.225,1.225,0,0,0,21.23,1.772ZM2.4,1.772A1.225,1.225,0,0,0,1.182,3V8.231A1.224,1.224,0,0,0,2.4,9.454H4.237a7.7,7.7,0,0,1-.1-1.182V2.682l-1.052-.7a1.184,1.184,0,0,0-.669-.207Z" transform="translate(5.909 6.5)"/>
      <path id="Shape-10" data-name="Shape" class="cls-4" d="M1.942,8.284a.591.591,0,0,1-.561-.768L2.1,5.2.229,3.776A.591.591,0,0,1,.589,2.718H2.864l.7-2.293A.591.591,0,0,1,4.7.425l.7,2.293H7.68A.591.591,0,0,1,8.04,3.776L6.173,5.2l.709,2.316a.591.591,0,0,1-.922.644L4.134,6.76,2.3,8.16A.594.594,0,0,1,1.942,8.284ZM4.135,5.4a.593.593,0,0,1,.36.123l.721.549-.29-.939a.594.594,0,0,1,.207-.645L5.961,3.9H4.978a.594.594,0,0,1-.565-.42L4.141,2.6l-.272.88A.594.594,0,0,1,3.3,3.9H2.338l.8.591a.6.6,0,0,1,.2.645l-.29.939.721-.549A.593.593,0,0,1,4.135,5.4Z" transform="translate(13.539 9.691)"/>
    </g>
    <g id="noun_iterative_935848_546ae8" transform="translate(263.198 126.687) rotate(-9)">
      <path id="Shape-11" data-name="Shape" class="cls-5" d="M7.681,8.273H.591A.592.592,0,0,1,0,7.681V.591A.591.591,0,0,1,.591,0h7.09a.592.592,0,0,1,.591.591v7.09A.592.592,0,0,1,7.681,8.273Zm-6.5-7.091V7.09H7.09V1.182Z" transform="translate(0 0)"/>
      <path id="Shape-12" data-name="Shape" class="cls-5" d="M7.681,8.273H.591A.592.592,0,0,1,0,7.681V.591A.591.591,0,0,1,.591,0h7.09a.592.592,0,0,1,.591.591v7.09A.592.592,0,0,1,7.681,8.273Zm-6.5-7.091V7.09H7.09V1.182Z" transform="translate(21.272 0)"/>
      <path id="Shape-13" data-name="Shape" class="cls-5" d="M4.554.173a.591.591,0,0,0-.836.836l.173.173H.591a.591.591,0,0,0,0,1.182h3.3l-.173.173a.591.591,0,1,0,.836.836L5.736,2.191a.59.59,0,0,0,0-.836Z" transform="translate(11.818 2.363)"/>
      <path id="Shape-14" data-name="Shape" class="cls-5" d="M1.773,0a.591.591,0,0,0-.591.591v3.3l-.173-.173a.591.591,0,0,0-.836.836L1.355,5.736a.591.591,0,0,0,.836,0L3.372,4.554a.591.591,0,1,0-.836-.836l-.173.173V.591A.591.591,0,0,0,1.773,0Z" transform="translate(23.635 11.818)"/>
      <path id="Shape-15" data-name="Shape" class="cls-5" d="M7.681,8.273H.591A.592.592,0,0,1,0,7.681V.591A.591.591,0,0,1,.591,0h7.09a.592.592,0,0,1,.591.591v7.09A.592.592,0,0,1,7.681,8.273Zm-6.5-7.091V7.09H7.09V1.182Z" transform="translate(21.272 21.272)"/>
      <path id="Shape-16" data-name="Shape" class="cls-5" d="M5.318,1.182h-3.3l.173-.173A.591.591,0,1,0,1.355.173L.173,1.355a.59.59,0,0,0,0,.836L1.355,3.372a.591.591,0,1,0,.836-.836l-.173-.173h3.3a.591.591,0,0,0,0-1.182Z" transform="translate(11.818 23.635)"/>
      <path id="Shape-17" data-name="Shape" class="cls-5" d="M7.681,8.273H.591A.592.592,0,0,1,0,7.681V.591A.591.591,0,0,1,.591,0h7.09a.592.592,0,0,1,.591.591v7.09A.592.592,0,0,1,7.681,8.273Zm-6.5-7.091V7.09H7.09V1.182Z" transform="translate(0 21.272)"/>
      <path id="Shape-18" data-name="Shape" class="cls-5" d="M1.773,5.908a.591.591,0,0,0,.591-.591v-3.3l.173.173a.591.591,0,0,0,.836-.836L2.191.173a.59.59,0,0,0-.836,0L.173,1.355a.591.591,0,1,0,.836.836l.173-.173v3.3A.591.591,0,0,0,1.773,5.908Z" transform="translate(2.363 11.818)"/>
    </g>
    <g id="noun_testing_823143_546ae8" transform="translate(234.701 365.977) rotate(-9)">
      <path id="Shape-19" data-name="Shape" class="cls-6" d="M33.288,34.271H0V9.728H13.4L15.986,0,40.771,6.7,36.478,22.874l-3.19-.863V34.271ZM1.681,11.425v21.15H31.606V11.425Zm31.607,6.912V20.91l2.444.661L39.48,7.454,16.732,1.3,14.5,9.728h1.937a1.407,1.407,0,0,1-.043-.816l0-.024a1.416,1.416,0,0,1,1.3-1.051c.1.006.152.008.188.009a.585.585,0,0,1,.155.021l.077.017a1.423,1.423,0,0,1,.994,1.738l-.019.059-.015.047H21.01l.073-.27.981.27H33.288v3.093l1.9.524-.278,1.026-1.623-.447v3.309l.809.223-.278,1.027Z" transform="translate(0 0)"/>
      <path id="Shape-20" data-name="Shape" class="cls-6" d="M.285,0,14.772,3.74l-.285.987L0,.987Z" transform="translate(22.454 4.727)"/>
      <path id="Shape-21" data-name="Shape" class="cls-6" d="M1.095,2.9A1.477,1.477,0,1,1,2.9,1.859,1.477,1.477,0,0,1,1.095,2.9Z" transform="translate(17.727 3.545)"/>
      <path id="Shape-22" data-name="Shape" class="cls-6" d="M10.586,0l1.232,1.172L10.676,2.453,8.4,5,5.651,8.086,4.509,9.366l-.606.679-.616-.669L1.643,7.591,0,5.805,1.213,4.614,2.856,6.4,3.883,7.514l.536-.6L6.69,4.368,9.444,1.281Z" transform="translate(3.545 13.59)"/>
      <path id="Shape-23" data-name="Shape" class="cls-6" d="M7.585,0,8.863,1.183,7.678,2.476,5.321,5.046,2.463,8.162,1.278,9.454,0,8.271,1.185,6.979l2.357-2.57L6.4,1.293Z" transform="translate(20.09 21.863)"/>
      <path id="Shape-24" data-name="Shape" class="cls-6" d="M1.278,0,2.463,1.293,4.82,3.862,7.678,6.979,8.863,8.271,7.585,9.454,6.4,8.162,4.043,5.592,1.185,2.476,0,1.183Z" transform="translate(20.09 21.863)"/>
      <path id="Shape-25" data-name="Shape" class="cls-6" d="M8.652,0l1.393.851L8.693,3.4l-2.974,5.6-2.974,5.6L1.393,17.136,0,16.285,1.352,13.74l2.974-5.6L7.3,2.545Z" transform="translate(11.818 14.181)"/>
    </g>
  </g>
</svg>
