<svg id="generalizability" xmlns="http://www.w3.org/2000/svg" viewBox="0 0 100 100">
  <defs>
    <style>
      .cls-1 {
        fill: #ff9695;
      }

      .cls-2 {
        fill: #fff;
      }
    </style>
  </defs>
  <circle id="Oval_6" data-name="Oval 6" class="cls-1" cx="50" cy="50" r="50"/>
  <g id="noun_Generalization_204136_546ae8" transform="translate(26 26)">
    <path id="Shape" class="cls-2" d="M47.639,13H1.361A1.317,1.317,0,0,1,0,11.7V1.3A1.317,1.317,0,0,1,1.361,0H47.639A1.317,1.317,0,0,1,49,1.3V11.7A1.317,1.317,0,0,1,47.639,13ZM2.722,2.6v7.8H46.278V2.6Z" transform="translate(0 36)"/>
    <path id="Shape-2" data-name="Shape" class="cls-2" d="M11.7,13H1.3A1.286,1.286,0,0,1,0,11.7V1.3A1.286,1.286,0,0,1,1.3,0H11.7A1.286,1.286,0,0,1,13,1.3V11.7A1.286,1.286,0,0,1,11.7,13ZM2.6,2.6v7.8h7.8V2.6Z" transform="translate(17)"/>
    <path id="Shape-3" data-name="Shape" class="cls-2" d="M11.7,13H1.3A1.286,1.286,0,0,1,0,11.7V1.3A1.286,1.286,0,0,1,1.3,0H11.7A1.286,1.286,0,0,1,13,1.3V11.7A1.286,1.286,0,0,1,11.7,13ZM2.6,2.6v7.8h7.8V2.6Z" transform="translate(36)"/>
    <path id="Shape-4" data-name="Shape" class="cls-2" d="M11.7,13H1.3A1.286,1.286,0,0,1,0,11.7V1.3A1.286,1.286,0,0,1,1.3,0H11.7A1.286,1.286,0,0,1,13,1.3V11.7A1.286,1.286,0,0,1,11.7,13ZM2.6,2.6v7.8h7.8V2.6Z"/>
    <path id="Shape-5" data-name="Shape" class="cls-2" d="M5.472,0A1.325,1.325,0,0,0,4.1,1.3V8.563L2.338,6.9a1.384,1.384,0,0,0-1.925,0,1.206,1.206,0,0,0,0,1.816l4.125,3.892a1.384,1.384,0,0,0,1.925,0l4.125-3.892a1.206,1.206,0,0,0,0-1.816,1.384,1.384,0,0,0-1.925,0L6.847,8.563V1.3A1.325,1.325,0,0,0,5.472,0Z" transform="translate(2 17)"/>
    <path id="Shape-6" data-name="Shape" class="cls-2" d="M5.472,0A1.325,1.325,0,0,0,4.1,1.3V8.563L2.338,6.9a1.384,1.384,0,0,0-1.925,0,1.206,1.206,0,0,0,0,1.816l4.125,3.892a1.384,1.384,0,0,0,1.925,0l4.125-3.892a1.206,1.206,0,0,0,0-1.816,1.384,1.384,0,0,0-1.925,0L6.847,8.563V1.3A1.325,1.325,0,0,0,5.472,0Z" transform="translate(19 17)"/>
    <path id="Shape-7" data-name="Shape" class="cls-2" d="M5.472,0A1.325,1.325,0,0,0,4.1,1.3V8.563L2.338,6.9a1.384,1.384,0,0,0-1.925,0,1.206,1.206,0,0,0,0,1.816l4.125,3.892a1.384,1.384,0,0,0,1.925,0l4.125-3.892a1.206,1.206,0,0,0,0-1.816,1.384,1.384,0,0,0-1.925,0L6.847,8.563V1.3A1.325,1.325,0,0,0,5.472,0Z" transform="translate(37 17)"/>
  </g>
</svg>
