<?xml version="1.0" encoding="utf-8"?>
<!-- Generator: Adobe Illustrator 22.1.0, SVG Export Plug-In . SVG Version: 6.00 Build 0)  -->
<svg version="1.1" id="Layer_1" xmlns="http://www.w3.org/2000/svg" xmlns:xlink="http://www.w3.org/1999/xlink" x="0px" y="0px"
	 viewBox="0 0 1440 808.5" style="enable-background:new 0 0 1440 808.5;" xml:space="preserve">
<style type="text/css">
	.st0{fill:#FFFFFF;}
	.st1{fill:#FF9695;}
	.st2{fill:#17BCBC;}
	.st3{fill:#4F54FF;}
	.st4{fill:#F9CD17;}
</style>
<g id="generative-bg" transform="translate(30 30)">
	<g id="Group_24">
		<g transform="matrix(1, 0, 0, 1, -30, -30)">
			<rect id="Rectangle-4" class="st0" width="1440" height="807"/>
		</g>
	</g>
	<g id="noun_Research_1764589_ffffff" transform="matrix(0.996, 0.087, -0.087, 0.996, 452.774, 520.458)">
		<path id="Shape" class="st1" d="M12.6,33.7h-29.2c-0.7,0-1.3-0.6-1.3-1.3s0.6-1.3,1.3-1.3c0,0,0,0,0,0c0.6,0,5.7-0.2,6.3-6.4
			h-18.4c-2.1,0-3.8-1.7-3.8-3.8v-35.6c0-2.1,1.7-3.8,3.8-3.8h5.1v2.5h-5.1c-0.7,0-1.3,0.6-1.3,1.3V21c0,0.7,0.6,1.3,1.3,1.3h46.6
			l-3.8-3.8C7.3,22.3-1.4,19.9-5.3,13c-0.4-0.7-0.7-1.4-1-2.2h-17.4V8.3h2.5v-25.4c0-0.3,0.1-0.7,0.4-0.9l8.9-8.9
			c0.1-0.1,0.2-0.2,0.4-0.3c0,0,0.1,0,0.1,0l0,0c0.1,0,0.2-0.1,0.3-0.1c0,0,0,0,0,0h0h0h0h0c0,0,0,0,0,0h26.7c0.7,0,1.3,0.6,1.3,1.3
			v21.8c0,0,0.1,0.1,0.1,0.1s0.1,0.1,0.1,0.1c4.5,4.5,5.5,11.5,2.4,17.1l6.3,6.3v-33.9c0-0.7-0.6-1.3-1.3-1.3h-5.1v-2.5h5.1
			c2.1,0,3.8,1.7,3.8,3.8v38.1h0c0,2.1-1.8,3.8-3.9,3.8c-1,0-2-0.4-2.7-1.1l-1.4-1.4H6.3c0.6,6.3,6.1,6.4,6.3,6.4
			c0.7,0,1.3,0.6,1.3,1.3C13.9,33.1,13.3,33.7,12.6,33.7C12.6,33.7,12.6,33.7,12.6,33.7L12.6,33.7z M-7.8,24.8
			c-0.1,2.4-1.1,4.7-2.7,6.4h17c-1.7-1.7-2.6-4-2.7-6.4H-7.8z M21.9,18.9L21.9,18.9L20,20.7l3.7,3.7c0.5,0.5,1.4,0.5,1.9,0h0
			c0.5-0.5,0.5-1.4,0-1.9L21.9,18.9L21.9,18.9z M18.2,15.2L18.2,15.2l-1.9,1.9l1.9,1.9l1.9-1.9L18.2,15.2z M7.2-5.7
			C0.7-5.7-4.6-0.5-4.6,6S0.7,17.7,7.1,17.8h0c6.5,0,11.7-5.2,11.7-11.7S13.6-5.7,7.2-5.7L7.2-5.7z M-12.2-22.9l-6.4,6.4V8.3h11.6
			C-7,7.6-7.1,6.8-7.1,6c0-1.4,0.2-2.8,0.6-4.1h-8.2v-2.5h9.3C-4.8-1.9-3.9-3-2.9-4c0.1-0.1,0.1-0.1,0.2-0.2s0.1-0.1,0.2-0.2h-12.2
			v-2.5h16c4.3-1.9,9.2-1.6,13.2,0.8v-18.6H-9.6v7.6c0,0.7-0.6,1.3-1.3,1.3c0,0,0,0,0,0h-3.8v-2.5h2.5V-22.9z"/>
		<path id="Shape-2" class="st1" d="M0.5-0.9l1.8,1.6C5-1.6,9-1.6,11.7,0.7l1.8-1.6C9.7-4.1,4.2-4.1,0.5-0.9z"/>
		<path id="Shape-3" class="st1" d="M-27.5,12.7v5.6c0,0.8,0.6,1.4,1.4,1.4l0,0h5.6v-2.8h-4.2v-4.2H-27.5z"/>
		
			<rect id="Rectangle-path" x="-18.5" y="17.7" transform="matrix(2.536970e-06 1 -1 2.536970e-06 1.2152 36.2221)" class="st1" width="2" height="2"/>
		
			<rect id="Rectangle-path-2" x="-2.5" y="-25.3" transform="matrix(2.536970e-06 1 -1 2.536970e-06 -13.7848 -10.7778)" class="st1" width="2" height="26"/>
	</g>
	<g id="noun_interview_229056_ffffff" transform="translate(1174 568)">
		<path id="Shape-4" class="st2" d="M-7,4.5c-0.3,0-0.7-0.1-0.9-0.4c-0.2-0.3-0.4-0.6-0.3-1C-8.1,2.6-8.1,2-8,1.3
			c0.2-1.6,0.4-3.7,0.6-5h-5.4c-5.1,0-9.2-4.2-9.2-9.3v-7.5c0-5.1,4.1-9.2,9.2-9.2c0,0,0,0,0,0h23.5c5.1,0,9.2,4.1,9.2,9.2
			c0,0,0,0,0,0v7.5c0,2.5-1,4.8-2.7,6.6c-1.7,1.7-4.1,2.7-6.5,2.7H3.6C3-2,2-0.4,0.7,0.9c-1,1-2.2,1.8-3.5,2.5C-4.1,4-5.5,4.4-7,4.5
			z M-12.8-27.3c-3.7,0-6.7,3.1-6.7,6.8v7.5c0,3.7,3,6.8,6.7,6.8H-6c0.3,0,0.7,0.1,0.9,0.4c0.2,0.3,0.3,0.6,0.3,1
			c0,0.2-0.3,3.9-0.7,6.6c3.4-1,6-3.7,7-7.1c0.2-0.5,0.7-0.9,1.2-0.9h8c3.8,0,6.8-3,6.8-6.8v-7.5c0-3.8-3-6.8-6.8-6.8L-12.8-27.3z"
			/>
		<path id="Shape-5" class="st2" d="M11.9-12.8c0-0.7-0.5-1.2-1.2-1.2h-23.2c-0.7,0-1.2,0.5-1.2,1.2c0,0.6,0.6,1.2,1.2,1.2h23.1
			C11.3-11.6,11.9-12.1,11.9-12.8C11.9-12.8,11.9-12.8,11.9-12.8z"/>
		<path id="Shape-6" class="st2" d="M-12.5-18.6H3.8c0.7,0,1.2-0.5,1.2-1.2C5-20.5,4.5-21,3.8-21h-16.3c-0.7,0-1.2,0.5-1.2,1.2
			C-13.7-19.2-13.2-18.6-12.5-18.6C-12.6-18.6-12.5-18.6-12.5-18.6z"/>
		<path id="Shape-7" class="st2" d="M18.5,16.1c-3.8,0-7-3.1-7-6.9c0,0,0-0.1,0-0.1c0-3.9,3.1-7,7-7s7,3.1,7,7
			C25.5,12.9,22.4,16.1,18.5,16.1C18.6,16.1,18.5,16.1,18.5,16.1z M18.5,4.6c-2.5,0-4.5,2-4.5,4.5s2,4.5,4.5,4.5s4.5-2,4.5-4.5
			C23,6.6,21,4.6,18.5,4.6z"/>
		<path id="Shape-8" class="st2" d="M29.1,44.9c-0.7,0-1.2-0.5-1.2-1.2v-7c-0.1,0.1-0.2,0.2-0.2,0.3c-0.1,0.1-0.2,0.2-0.3,0.4
			c-1.8,2.1-4.1,3.8-6.7,4.8c-2.1,0.9-4.3,1.5-6.6,1.7h-0.8c-2.3,0-4.5-0.6-6.4-1.8c-1.8-1.2-3.3-2.7-4.5-4.5
			c-2.2-3.3-3.6-7-4.2-10.9C-2.1,25.4-2,24-1.3,22.8c0.3-0.5,0.8-0.9,1.3-1.2l-0.8-2.3h0c-0.4,0.1-0.8,0.2-1.2,0.2
			c-1.5,0-2.9-1-3.4-2.4l-1.2-3.2C-7.2,12-6.3,10-4.4,9.3L-2,8.4h0c0.4-0.1,0.8-0.2,1.2-0.2c1.5,0,2.9,1,3.4,2.4l1.2,3.2
			c0.4,0.9,0.3,1.9-0.1,2.7c-0.4,0.8-1.1,1.5-2,1.8H1.6l0.9,2.6c1.1,0,2.2,0.4,3.1,1.1c0.7,0.5,1.2,1.2,1.5,2
			c0.2,0.4,0.4,0.9,0.6,1.4l0,0C8,26.1,8.5,27.2,9,28.1c0.6-5.5,5.2-9.6,10.7-9.6c2.9,0,5.7,1.1,7.7,3.2c1.9,2,3,4.7,2.9,7.5v14.5
			C30.3,44.4,29.8,44.9,29.1,44.9z M2.5,23.2c-0.2,0-0.4,0-0.6,0.1c-0.6,0.2-0.8,0.4-0.9,0.6c-0.3,0.7-0.4,1.4-0.2,2.1v0.1
			c0.4,2,0.9,3.9,1.7,5.7c1.1,2.8,3.1,6.5,6.4,8.3c0.7,0.3,1.4,0.6,2.2,0.8c0.7,0.2,1.4,0.3,2.2,0.3c0.3,0,0.5,0,0.7,0
			c0,0,0.5-0.1,1.3-0.2c2.1-0.3,7.3-1.6,10.3-5.4c1.9-2.6,2.6-5.9,1.9-9v-0.2c-1.5-4.3-6.2-6.6-10.5-5.2c-3.4,1.1-5.6,4.3-5.6,7.9
			v2.5c0.3,0.3,0.6,0.5,1,0.6h0.1h0h0.1c0.2,0,0.6-0.1,1.3-0.7c1.3-1.3,1.9-3.9,2.1-4.9l0-0.1c0.1-0.6,0.6-1,1.2-1
			c0.1,0,0.1,0,0.2,0c0.6,0.1,1,0.6,1,1.2v0.2c-0.4,2.3-1.3,4.5-2.7,6.3c-0.7,0.9-1.8,1.5-3,1.6c-0.2,0-0.4,0-0.6-0.1
			c-0.1,0-0.2-0.1-0.3-0.1c-0.1,0-0.2-0.1-0.3-0.1h0c-0.4-0.2-0.8-0.4-1.2-0.7C9.7,33.5,9.3,33,9,32.6c-1.5-1.9-2.7-4.1-3.5-6.4l0,0
			c-0.2-0.4-0.4-0.9-0.6-1.3v-0.1c0,0,0,0,0-0.1l0,0C4.4,23.8,3.5,23.2,2.5,23.2z M-0.5,10.5c-0.1,0-0.2,0-0.3,0.1c0,0-0.1,0-0.1,0
			l-2.4,0.9c-0.6,0.2-0.9,0.8-0.7,1.3c0,0,0,0,0,0.1l1.1,3.2c0.2,0.4,0.6,0.7,1,0.7c0.2,0,0.4,0,0.6-0.1l2.4-0.9
			c0.3-0.1,0.5-0.3,0.6-0.6c0.1-0.3,0.1-0.5,0-0.8l-1.2-3.2C0.4,10.8,0,10.5-0.5,10.5z"/>
		<path id="Shape-9" class="st2" d="M-17.7,14.4c-3.8,0-7-3.1-7-6.9c0,0,0-0.1,0-0.1c0-3.8,3.1-7,6.9-7c0,0,0.1,0,0.1,0
			c3.8,0,7,3.1,7,6.9c0,0,0,0.1,0,0.1C-10.8,11.2-13.9,14.3-17.7,14.4z M-17.7,2.9c-2.5,0-4.5,2-4.5,4.5s2,4.5,4.5,4.5
			s4.5-2,4.5-4.5C-13.2,4.9-15.2,2.9-17.7,2.9z"/>
		<path id="Shape-10" class="st2" d="M-18.7,16.6c-6,0-10.8,4.8-10.8,10.8v10.9c0,0.7,0.5,1.2,1.2,1.2c0.7,0,1.2-0.5,1.2-1.2V27.4
			c0-4.6,3.7-8.3,8.3-8.3s8.3,3.7,8.3,8.3c0,0,0,0,0,0v10.9c0,0.7,0.5,1.2,1.2,1.2c0.6,0,1.2-0.6,1.2-1.2V27.4
			c0.2-5.8-4.4-10.6-10.2-10.8C-18.5,16.6-18.6,16.6-18.7,16.6z"/>
	</g>
	<g id="noun_design_1171265_546ae8" transform="translate(550.065 229.729) rotate(-8)">
		<circle id="Oval" class="st3" cx="-18.3" cy="-8.3" r="2"/>
		<path id="Shape-11" class="st3" d="M34.8,17l-56.9,0c-1.6-0.2-2.8-1.6-2.7-3.3l0-44.1c-0.1-1.6,1.1-3.1,2.7-3.3l62.8,0
			c1.6,0.2,2.8,1.6,2.7,3.3l0,43.9l-3.8-3.8l0-39.9l-50.7,0l0,43.7l42.4,0L34.8,17z M-20.4,5.5c-0.5,0-0.9,0.6-0.9,1.3
			s0.4,1.3,0.9,1.3h4.2c0.5,0,0.9-0.6,0.9-1.3s-0.4-1.3-0.9-1.3L-20.4,5.5z M-20.4-0.3c-0.5,0-0.9,0.6-0.9,1.3s0.4,1.3,0.9,1.3
			l4.2,0c0.5,0,0.9-0.6,0.9-1.3s-0.4-1.3-0.9-1.3L-20.4-0.3z M-18.4-12.9c-2.6,0-4.6,2.1-4.6,4.6s2.1,4.6,4.6,4.6
			c2.5,0,4.6-2.1,4.6-4.6C-13.8-10.9-15.8-12.9-18.4-12.9z M-20.4-19c-0.5,0-0.9,0.6-0.9,1.3s0.4,1.3,0.9,1.3h4.2
			c0.5,0,0.9-0.6,0.9-1.3c0-0.7-0.4-1.3-0.9-1.3L-20.4-19z M-20.4-24.8c-0.5,0-0.9,0.6-0.9,1.3s0.4,1.3,0.9,1.3h4.2
			c0.5,0,0.9-0.6,0.9-1.3c0-0.7-0.4-1.3-0.9-1.3H-20.4z"/>
		<path id="Shape-12" class="st3" d="M26.1-1.9L26.1-1.9l-6.3-2.2l2.2,6.3l0,0l25.7,25.7l4.1-4.1L26.1-1.9z"/>
		<path id="Shape-13" class="st3" d="M16.1-7.1c-0.9,1.7,1.9,2.9,2.7,1.2s2.5-5-0.6-5.5c-1.6-0.1-3.3-0.2-4.9-0.1
			c-2.2-0.1,0.3-4,0.6-5.2c0.9-3.7-2.1-4.8-5.2-4.7c-3.9,0.1-8.3,2.2-10.1,5.7c-0.9,1.7,1.8,2.9,2.7,1.2c1-2,3-2.8,4.9-3.5
			c0.6-0.2,5.1-1.3,4.9,0.2c-0.3,2.4-2.3,4.1-1.8,6.7c0.3,2,2.7,2.5,4.4,2.5c0.9,0,1.8,0,2.7,0c0.2,0,0.4,0,0.6-0.1
			c0,0-0.1,0.1-0.1,0.1C16.7-8.1,16.4-7.6,16.1-7.1z"/>
	</g>
	<g id="noun_Research_741951_ffffff" transform="translate(968.914 239.729) rotate(8)">
		
			<rect id="Rectangle-path-3" x="17.1" y="-19.5" transform="matrix(2.438033e-06 1 -1 2.438033e-06 -0.4161 -36.6496)" class="st4" width="2" height="2"/>
		
			<rect id="Rectangle-path-4" x="21.1" y="-15.5" transform="matrix(2.438033e-06 1 -1 2.438033e-06 7.5839 -36.6496)" class="st4" width="2" height="2"/>
		
			<rect id="Rectangle-path-5" x="17.1" y="-11.5" transform="matrix(2.438033e-06 1 -1 2.438033e-06 7.5839 -28.6496)" class="st4" width="2" height="2"/>
		
			<rect id="Rectangle-path-6" x="17.1" y="-15.5" transform="matrix(2.438033e-06 1 -1 2.438033e-06 3.5839 -32.6496)" class="st4" width="2" height="2"/>
		<path id="Shape-14" class="st4" d="M15.6,40.5l-37.2,0c-3.4,0-6.2-2.8-6.2-6.2l0-50.8c0-0.6,0.5-1,1-1l37.2,0c0.6,0,1,0.5,1,1
			l0,21.7l14.5,0c3.4,0,6.2,2.8,6.2,6.2v13.5c0,0.6-0.5,1-1,1l-9.3,0l0,8.3C21.8,37.7,19,40.5,15.6,40.5z M11.4,7.3l0,26.9
			c0,2.3,1.9,4.1,4.1,4.1s4.1-1.9,4.1-4.1l0-22.8c0-1.5,0.6-3,1.6-4.1L11.4,7.3z M-25.8-15.5l0,49.7c0,2.3,1.9,4.1,4.1,4.1l32.6,0
			c-1-1.1-1.6-2.6-1.6-4.1l0-49.7L-25.8-15.5z M25.9,7.3c-2.3,0-4.1,1.9-4.1,4.1v12.4l8.3,0l0-12.4C30,9.2,28.2,7.3,25.9,7.3z"/>
		<path id="Shape-15" class="st4" d="M3.9,25c-0.3,0-0.5-0.1-0.7-0.3l-9.3-9.3c-0.4-0.4-0.4-1.1,0-1.5c0,0,0,0,0,0l1.3-1.3l-2.9-2.9
			c-1.6,1.2-3.5,1.8-5.5,1.8c-5.2,0-9.4-4.1-9.4-9.3c0-5.2,4.1-9.4,9.3-9.4c5.2,0,9.4,4.1,9.4,9.3c0,2.3-0.8,4.4-2.3,6.1l2.8,2.8
			L-2,9.7c0.4-0.4,1.1-0.4,1.5,0c0,0,0,0,0,0l9.3,9.3c0.4,0.4,0.4,1.1,0,1.5l-4.1,4.1C4.4,24.8,4.1,25,3.9,25z M-1.3,11.9L-1.3,11.9
			L-4,14.6l7.8,7.8l2.7-2.7L-1.3,11.9z M-13.2-5c-4,0-7.2,3.2-7.2,7.2s3.2,7.2,7.2,7.2c4,0,7.2-3.2,7.2-7.2C-6-1.8-9.2-5-13.2-5z"/>
		<path id="Shape-16" class="st4" d="M-10.9-2.5l-4,0c-0.6,0-1,0.4-1,1l0,3l2,0l0-2l2,0v1.6l-1.7,1.7c-0.2,0.2-0.3,0.4-0.3,0.7v2h2
			V3.9l1.7-1.7C-10,2-9.9,1.7-9.9,1.5v-3C-9.9-2.1-10.3-2.5-10.9-2.5z"/>
		
			<rect id="Rectangle-path-7" x="-13.9" y="6.5" transform="matrix(2.438033e-06 1 -1 2.438033e-06 -5.4161 20.3504)" class="st4" width="2" height="2"/>
		
			<rect id="Rectangle-path-8" x="1.6" y="-9" transform="matrix(2.438033e-06 1 -1 2.438033e-06 -1.9161 -7.1496)" class="st4" width="2" height="9"/>
		
			<rect id="Rectangle-path-9" x="0.6" y="-18" transform="matrix(2.438033e-06 1 -1 2.438033e-06 -10.9161 -14.1496)" class="st4" width="2" height="11"/>
		
			<rect id="Rectangle-path-10" x="1.6" y="-4" transform="matrix(2.438033e-06 1 -1 2.438033e-06 3.0839 -2.1496)" class="st4" width="2" height="9"/>
		
			<rect id="Rectangle-path-11" x="1.6" y="0" transform="matrix(2.438033e-06 1 -1 2.438033e-06 7.0839 1.8504)" class="st4" width="2" height="9"/>
		
			<rect id="Rectangle-path-12" x="-19.4" y="11" transform="matrix(2.438033e-06 1 -1 2.438033e-06 -2.916 33.8503)" class="st4" width="2" height="9"/>
		
			<rect id="Rectangle-path-13" x="-14.9" y="10.5" transform="matrix(2.438033e-06 1 -1 2.438033e-06 5.5839 33.3503)" class="st4" width="2" height="18"/>
		
			<rect id="Rectangle-path-14" x="-1.4" y="-17" transform="matrix(2.438033e-06 1 -1 2.438033e-06 -8.9161 -8.1496)" class="st4" width="2" height="17"/>
		
			<rect id="Rectangle-path-15" x="-19.4" y="19" transform="matrix(2.438033e-06 1 -1 2.438033e-06 5.084 41.8503)" class="st4" width="2" height="9"/>
		
			<rect id="Rectangle-path-16" x="-7.4" y="19" transform="matrix(2.438033e-06 1 -1 2.438033e-06 17.0839 29.8503)" class="st4" width="2" height="9"/>
		
			<rect id="Rectangle-path-17" x="-21.9" y="26.5" transform="matrix(2.438033e-06 1 -1 2.438033e-06 7.584 49.3503)" class="st4" width="2" height="4"/>
		
			<rect id="Rectangle-path-18" x="0.1" y="22.5" transform="matrix(2.438033e-06 1 -1 2.438033e-06 29.5839 27.3503)" class="st4" width="2" height="12"/>
		
			<rect id="Rectangle-path-19" x="2.6" y="29" transform="matrix(2.438033e-06 1 -1 2.438033e-06 36.0839 28.8503)" class="st4" width="2" height="7"/>
		
			<rect id="Rectangle-path-20" x="-19.4" y="28" transform="matrix(2.438033e-06 1 -1 2.438033e-06 14.084 50.8503)" class="st4" width="2" height="9"/>
		
			<rect id="Rectangle-path-21" x="-12.4" y="24" transform="matrix(2.438033e-06 1 -1 2.438033e-06 17.0839 39.8503)" class="st4" width="2" height="9"/>
		
			<rect id="Rectangle-path-22" x="-8.9" y="-14.5" transform="matrix(2.438033e-06 1 -1 2.438033e-06 -20.4161 -4.6496)" class="st4" width="2" height="4"/>
		
			<rect id="Rectangle-path-23" x="-22.9" y="-10.5" transform="matrix(2.438033e-06 1 -1 2.438033e-06 -30.416 13.3504)" class="st4" width="2" height="4"/>
		
			<rect id="Rectangle-path-24" x="-19.4" y="-18" transform="matrix(2.438033e-06 1 -1 2.438033e-06 -30.916 5.8504)" class="st4" width="2" height="11"/>
		
			<rect id="Rectangle-path-25" x="-7.4" y="28" transform="matrix(2.438033e-06 1 -1 2.438033e-06 26.0839 38.8503)" class="st4" width="2" height="9"/>
		<path id="Shape-17" class="st4" d="M-27.9-21.5l0-2h-2l0-2h-2v2h-2v2h2v2h2v-2H-27.9z"/>
	</g>
</g>
</svg>
