<svg id="Group_4" data-name="Group 4" xmlns="http://www.w3.org/2000/svg" viewBox="0 0 100 100">
  <defs>
    <style>
      .cls-1 {
        fill: #4f54ff;
      }

      .cls-2 {
        fill: #fff;
      }
    </style>
  </defs>
  <path id="Oval_2" data-name="Oval 2" class="cls-1" d="M50,0A50,50,0,1,1,0,50,50,50,0,0,1,50,0Z" transform="translate(0)"/>
  <g id="noun_opportunity_1320365_2731ff" transform="translate(25 25)">
    <path id="Shape" class="cls-2" d="M27.5,38.335a.842.842,0,0,1-.458-.137l-5.829-3.826-4.869,3.786a.045.045,0,0,1-.013.007l-.009,0-.01.006a.66.66,0,0,1-.094.052l-.006,0-.022.011-.006,0a.74.74,0,0,1-.122.052l-.013.006-.023.009a.858.858,0,0,1-.192.023.826.826,0,0,1-.328-.076l-.017,0a.055.055,0,0,1-.021-.005l-.008-.005-.008-.006a.079.079,0,0,0-.015-.011.681.681,0,0,1-.1-.068l-.021-.015-.008-.006-.009-.007a.578.578,0,0,1-.047-.041.623.623,0,0,1-.057-.066l-.006-.007-.005-.007L15.178,38a.62.62,0,0,1-.067-.1.081.081,0,0,0-.01-.014l0-.005a.044.044,0,0,1-.009-.014L9.491,26.68.376,20.7a.834.834,0,0,1,.149-1.472L48.859.059A.818.818,0,0,1,49.167,0a.835.835,0,0,1,.717,1.258L28.218,37.925a.834.834,0,0,1-.529.387A.8.8,0,0,1,27.5,38.335Zm14.452-32.3h0L43.05,7.3,17.311,29.817l4.32,2.835,5.6,3.673L47.211,2.507,2.632,20.184l7.252,4.759L28.757,14.276l.82,1.45L11.451,25.971l4.413,2.9L41.952,6.04ZM16.667,31.388V35.8l3.074-2.39Zm-4.4-2.889L15,33.97V30.294Z" transform="translate(0 11.666)"/>
    <path id="Shape-2" data-name="Shape" class="cls-2" d="M0,0C0,.576.021,1.158.063,1.726L1.725,1.6C1.686,1.076,1.667.537,1.667,0Z" transform="translate(1.667 25.002)"/>
    <path id="Shape-3" data-name="Shape" class="cls-2" d="M2.036.487.442,0C.275.546.127,1.107,0,1.67l1.626.366C1.743,1.514,1.881.993,2.036.487Z" transform="translate(2.235 18.191)"/>
    <path id="Shape-4" data-name="Shape" class="cls-2" d="M2.19.719.686,0C.439.517.208,1.052,0,1.588l1.553.6C1.747,1.693,1.961,1.2,2.19.719Z" transform="translate(3.242 14.967)"/>
    <path id="Shape-5" data-name="Shape" class="cls-2" d="M0,1.247c.4.352.787.724,1.162,1.109L2.356,1.192C1.952.779,1.533.377,1.106,0Z" transform="translate(39.365 7.532)"/>
    <path id="Shape-6" data-name="Shape" class="cls-2" d="M2.348,1.127,1.119,0C.734.421.357.864,0,1.318l1.31,1.03C1.642,1.928,1.991,1.517,2.348,1.127Z" transform="translate(6.66 9.254)"/>
    <path id="Shape-7" data-name="Shape" class="cls-2" d="M2.3.931.913,0C.59.479.283.973,0,1.468L1.447,2.3C1.71,1.835,2,1.377,2.3.931Z" transform="translate(4.729 11.968)"/>
    <path id="Shape-8" data-name="Shape" class="cls-2" d="M2.351,1.293,1.3,0C.854.362.417.745,0,1.138L1.144,2.35C1.532,1.985,1.938,1.63,2.351,1.293Z" transform="translate(8.99 6.887)"/>
    <path id="Shape-9" data-name="Shape" class="cls-2" d="M.189,0C.1.567.042,1.144,0,1.716l1.663.122C1.7,1.306,1.76.77,1.837.243Z" transform="translate(1.729 21.561)"/>
    <path id="Shape-10" data-name="Shape" class="cls-2" d="M1.524,2.1,2.1.539C1.568.341,1.015.158.46,0L0,1.6C.515,1.75,1.028,1.918,1.524,2.1Z" transform="translate(30.998 2.572)"/>
    <path id="Shape-11" data-name="Shape" class="cls-2" d="M0,1.653c.522.069,1.055.159,1.584.268L1.921.288C1.352.171.779.074.218,0Z" transform="translate(27.858 1.867)"/>
    <path id="Shape-12" data-name="Shape" class="cls-2" d="M2.193,1.163Q1.753.568,1.277,0L0,1.071Q.442,1.6.853,2.155Z" transform="translate(41.603 10.007)"/>
    <path id="Shape-13" data-name="Shape" class="cls-2" d="M1.434,2.237l.8-1.46C1.737.5,1.218.24.694,0L0,1.515C.487,1.738.969,1.981,1.434,2.237Z" transform="translate(34.005 3.772)"/>
    <path id="Shape-14" data-name="Shape" class="cls-2" d="M1.311,2.322,2.322,1C1.865.648,1.39.313.91,0L0,1.4C.446,1.687.887,2,1.311,2.322Z" transform="translate(36.816 5.439)"/>
    <path id="Shape-15" data-name="Shape" class="cls-2" d="M.954,2.3C1.393,2,1.847,1.7,2.3,1.434L1.452,0C.962.291.472.606,0,.935Z" transform="translate(11.668 4.912)"/>
    <path id="Shape-16" data-name="Shape" class="cls-2" d="M1.713,0C1.142.052.565.124,0,.218L.27,1.862c.525-.087,1.06-.154,1.592-.2Z" transform="translate(21.192 1.759)"/>
    <path id="Shape-17" data-name="Shape" class="cls-2" d="M2.054,1.619,1.663,0C1.105.134.546.292,0,.468L.51,2.054C1.017,1.89,1.537,1.744,2.054,1.619Z" transform="translate(17.836 2.321)"/>
    <path id="Shape-18" data-name="Shape" class="cls-2" d="M.023,1.669l.346,0q.634,0,1.26.036l.1-1.663Q1.051,0,.368,0L0,0Z" transform="translate(24.632 1.667)"/>
    <path id="Shape-19" data-name="Shape" class="cls-2" d="M2.2,1.543,1.572,0C1.044.215.515.454,0,.71L.741,2.2C1.218,1.966,1.711,1.744,2.2,1.543Z" transform="translate(14.638 3.378)"/>
    <path id="Shape-20" data-name="Shape" class="cls-2" d="M0,1.144,1.143,2.357c.416-.392.823-.806,1.212-1.232L1.125,0C.764.4.386.781,0,1.144Z" transform="translate(39.868 39.618)"/>
    <path id="Shape-21" data-name="Shape" class="cls-2" d="M0,1.295,1.308,2.328c.353-.448.7-.918,1.019-1.4L.945,0C.646.445.327.88,0,1.295Z" transform="translate(42.032 37.098)"/>
    <path id="Shape-22" data-name="Shape" class="cls-2" d="M0,1.577l1.626.366c.126-.559.232-1.13.316-1.7L.292,0C.215.529.116,1.059,0,1.577Z" transform="translate(46.139 28.198)"/>
    <path id="Shape-23" data-name="Shape" class="cls-2" d="M0,.767.743,2.259C1.259,2,1.769,1.724,2.26,1.434L1.411,0C.954.27.48.528,0,.767Z" transform="translate(34.619 43.653)"/>
    <path id="Shape-24" data-name="Shape" class="cls-2" d="M0,.966.954,2.333c.471-.329.935-.678,1.379-1.039L1.282,0C.868.336.438.661,0,.966Z" transform="translate(37.378 41.819)"/>
    <path id="Shape-25" data-name="Shape" class="cls-2" d="M0,1.6l1.663.122C1.7,1.157,1.725.576,1.725,0H.058C.058.536.039,1.075,0,1.6Z" transform="translate(46.608 25)"/>
    <path id="Shape-26" data-name="Shape" class="cls-2" d="M0,1.517l1.553.6c.208-.536.4-1.085.565-1.632L.524,0C.369.508.193,1.018,0,1.517Z" transform="translate(45.204 31.326)"/>
    <path id="Shape-27" data-name="Shape" class="cls-2" d="M0,1.422l1.447.827c.286-.5.556-1.017.8-1.531L.743,0C.515.478.266.957,0,1.422Z" transform="translate(43.825 34.315)"/>
    <path id="Shape-28" data-name="Shape" class="cls-2" d="M4.167,8.333A.834.834,0,0,1,3.334,7.5,2.5,2.5,0,0,0,.833,5a.833.833,0,0,1,0-1.667,2.5,2.5,0,0,0,2.5-2.5A.833.833,0,0,1,5,.833a2.5,2.5,0,0,0,2.5,2.5A.833.833,0,1,1,7.5,5,2.5,2.5,0,0,0,5,7.5.834.834,0,0,1,4.167,8.333Zm0-5a4.2,4.2,0,0,1-.836.836A4.2,4.2,0,0,1,4.167,5,4.2,4.2,0,0,1,5,4.167,4.2,4.2,0,0,1,4.167,3.331Z" transform="translate(41.667)"/>
    <path id="Shape-29" data-name="Shape" class="cls-2" d="M4.167,8.333A.834.834,0,0,1,3.334,7.5,2.5,2.5,0,0,0,.833,5a.833.833,0,0,1,0-1.667,2.5,2.5,0,0,0,2.5-2.5A.833.833,0,0,1,5,.833a2.5,2.5,0,0,0,2.5,2.5A.833.833,0,1,1,7.5,5,2.5,2.5,0,0,0,5,7.5.834.834,0,0,1,4.167,8.333Zm0-5a4.2,4.2,0,0,1-.836.836A4.2,4.2,0,0,1,4.167,5,4.2,4.2,0,0,1,5,4.167,4.2,4.2,0,0,1,4.167,3.331Z" transform="translate(14.167 13.333)"/>
  </g>
</svg>
