<svg id="Group_4" data-name="Group 4" xmlns="http://www.w3.org/2000/svg" viewBox="0 0 100 100">
  <defs>
    <style>
      .cls-1 {
        fill: #4f54ff;
      }

      .cls-2 {
        fill: #fff;
      }
    </style>
  </defs>
  <circle id="Oval_2" data-name="Oval 2" class="cls-1" cx="50" cy="50" r="50" transform="translate(0)"/>
  <g id="noun_decision_802417_2731ff" transform="translate(26.667 26.667)">
    <path id="Shape" class="cls-2" d="M38.95,47.5H8.55A8.56,8.56,0,0,1,0,38.95V8.55A8.56,8.56,0,0,1,8.55,0h30.4A8.56,8.56,0,0,1,47.5,8.55v30.4A8.56,8.56,0,0,1,38.95,47.5ZM8.55,1.9A6.658,6.658,0,0,0,1.9,8.55v30.4A6.658,6.658,0,0,0,8.55,45.6h30.4a6.658,6.658,0,0,0,6.65-6.65V8.55A6.658,6.658,0,0,0,38.95,1.9Z"/>
    <path id="Shape-2" data-name="Shape" class="cls-2" d="M28.4.277a.963.963,0,0,0-1.352,0,.935.935,0,0,0,0,1.335l2.192,2.166H23.9A8.617,8.617,0,0,0,16.25,8.4,8.617,8.617,0,0,0,8.6,3.778H3.264L5.455,1.612a.935.935,0,0,0,0-1.335A.963.963,0,0,0,4.1.277L.28,4.055a.935.935,0,0,0,0,1.335L4.1,9.168a.964.964,0,0,0,1.352,0,.935.935,0,0,0,0-1.335L3.264,5.667H8.6a6.659,6.659,0,0,1,6.691,6.611V27.389a.956.956,0,0,0,1.912,0V12.278A6.659,6.659,0,0,1,23.9,5.667h5.339L27.045,7.832a.935.935,0,0,0,0,1.335.964.964,0,0,0,1.352,0L32.22,5.39a.935.935,0,0,0,0-1.335Z" transform="translate(8.333 9.167)"/>
  </g>
</svg>
