<svg id="Group_4" data-name="Group 4" xmlns="http://www.w3.org/2000/svg" viewBox="0 0 100 100">
  <defs>
    <style>
      .cls-1 {
        fill: #4f54ff;
      }

      .cls-2 {
        fill: #fff;
      }
    </style>
  </defs>
  <circle id="Oval_2" data-name="Oval 2" class="cls-1" cx="50" cy="50" r="50" transform="translate(0)"/>
  <g id="noun_system_1298351_2731ff" transform="translate(26.667 23.333)">
    <path id="Shape" class="cls-2" d="M23.094,53.333h0l-4.3-2.484V45.876l3.343-1.931V40.033L11.948,34.154,8.609,36.075V40l-4.3,2.484L0,40V35.029l4.306-2.485,3.3,1.909,3.432-1.976V20.766L7.694,18.833,4.306,20.79,0,18.3V13.334l4.3-2.485,4.3,2.486v3.827l3.426,1.978,10.094-5.828V9.387L18.789,7.457V2.486L23.094,0l4.3,2.485V7.456L24.039,9.4v3.9l10.148,5.858,3.391-1.951V13.334l4.3-2.486,4.306,2.486V18.3L41.882,20.79l-3.347-1.933-3.388,1.949V32.481l3.422,1.975,3.314-1.913,4.306,2.486V40l-4.3,2.485L37.58,40V36.086l-3.344-1.931-10.2,5.888v3.893L27.4,45.876v4.972l-4.3,2.485Zm0-7.739h0l-2.4,1.383v2.771l2.4,1.383,2.4-1.384v-2.77l-2.4-1.383ZM4.306,34.747h0l-2.4,1.383V38.9l2.4,1.386L6.7,38.9V36.131l-2.4-1.383Zm37.578,0h0l-2.4,1.383V38.9l2.4,1.386,2.4-1.386V36.131l-2.4-1.384ZM24.039,28.269v9.573l8.291-4.787Zm-1.908.026-8.272,4.759,8.272,4.779ZM33.24,21.9l-8.222,4.73L33.24,31.38Zm-20.291-.037V31.38L21.2,26.631ZM24.039,15.5V25l8.239-4.74Zm-1.908.01L13.943,20.24l8.188,4.728ZM41.883,13.05h0l-2.4,1.385V17.2l2.4,1.384,2.4-1.385V14.435l-2.4-1.385Zm-37.578,0h0l-2.4,1.385V17.2l2.4,1.385L6.7,17.2V14.435l-2.4-1.386ZM23.094,2.2h0L20.7,3.586V6.357l2.4,1.384,2.4-1.385V3.586L23.094,2.2Z" transform="translate(0.239)"/>
  </g>
</svg>
