<svg id="Group_4" data-name="Group 4" xmlns="http://www.w3.org/2000/svg" viewBox="0 0 100 100">
  <defs>
    <style>
      .cls-1 {
        fill: #4f54ff;
      }

      .cls-2 {
        fill: #fff;
      }
    </style>
  </defs>
  <path id="Oval_2" data-name="Oval 2" class="cls-1" d="M50,0A50,50,0,1,1,0,50,50,50,0,0,1,50,0Z" transform="translate(0)"/>
  <g id="noun_Healthcare_1243844_2731ff" transform="translate(26.667 26.667)">
    <path id="Shape" class="cls-2" d="M25.536,47.5H1.965A1.974,1.974,0,0,1,0,45.521V1.979A1.974,1.974,0,0,1,1.965,0H25.536A1.974,1.974,0,0,1,27.5,1.979V45.521A1.974,1.974,0,0,1,25.536,47.5Zm-13.75-3.958a.99.99,0,0,0,0,1.979h3.929a.99.99,0,0,0,0-1.979ZM1.965,3.958v37.6H25.536V3.958Z"/>
    <g id="Group" transform="translate(4.167 1.667)">
      <path id="Shape-2" data-name="Shape" class="cls-2" d="M0,12.865V18.8a4.924,4.924,0,1,0,9.848,0V4.948a2.955,2.955,0,1,1,5.909,0v5.938a8.864,8.864,0,1,0,17.727,0V8.906a.985.985,0,1,0-1.97,0v1.979a6.894,6.894,0,1,1-13.788,0V4.948a4.924,4.924,0,1,0-9.848,0V18.8a2.955,2.955,0,1,1-5.909,0V12.865a.985.985,0,1,0-1.97,0Z" transform="translate(1.97 7.917)"/>
      <path id="Shape-3" data-name="Shape" class="cls-2" d="M1.97,7.271a2.976,2.976,0,0,0,.884,2.118c3.025,2.986,5.137,4.482,5.99,4.465.876-.018,2.989-1.519,6.016-4.467a2.976,2.976,0,0,0,.9-2.132V1.979H11.818V0h4.924a.987.987,0,0,1,.985.99V7.256a4.96,4.96,0,0,1-1.5,3.553c-3.418,3.329-5.76,4.993-7.347,5.025-1.615.033-3.969-1.636-7.41-5.032A4.96,4.96,0,0,1,0,7.271V.99A.987.987,0,0,1,.985,0H5.909V1.979H1.97Z" transform="translate(25.606 1.979)"/>
      <path id="Shape-4" data-name="Shape" class="cls-2" d="M.985,0A.987.987,0,0,1,1.97.99V4.948a.985.985,0,1,1-1.97,0V.99A.987.987,0,0,1,.985,0Z" transform="translate(29.545)"/>
      <path id="Shape-5" data-name="Shape" class="cls-2" d="M.985,0A.987.987,0,0,0,0,.99V4.948a.985.985,0,1,0,1.97,0V.99A.987.987,0,0,0,.985,0Z" transform="translate(37.424)"/>
      <path id="Shape-6" data-name="Shape" class="cls-2" d="M2.955,5.938A2.969,2.969,0,1,1,5.909,2.969,2.962,2.962,0,0,1,2.955,5.938Z" transform="translate(0 15.833)"/>
    </g>
  </g>
</svg>
