<?xml version="1.0" encoding="UTF-8"?>
<svg width="1168px" height="992px" viewBox="0 0 1168 992" version="1.1" xmlns="http://www.w3.org/2000/svg" xmlns:xlink="http://www.w3.org/1999/xlink">
    <!-- Generator: Sketch 51.2 (57519) - http://www.bohemiancoding.com/sketch -->
    <title>Group 2</title>
    <desc>Created with Sketch.</desc>
    <defs></defs>
    <g id="presentation" stroke="none" stroke-width="1" fill="none" fill-rule="evenodd">
        <g id="Desktop-HD" transform="translate(-101.000000, -41.000000)">
            <g id="Group-2" transform="translate(101.000000, 42.000000)">
                <g id="Group-4" transform="translate(579.000000, 0.000000)" fill="#4F54FF">
                    <path id="Line" d="M-3.061617e-17,990.5 L9.5,971.5 L-9.5,971.5 L-3.061617e-17,990.5 Z M3.061617e-17,-0.5 L-9.5,18.5 L9.5,18.5 L3.061617e-17,-0.5 Z M1.5,973 L1.5,17 L1.5,15.5 L-1.5,15.5 L-1.5,17 L-1.5,973 L-1.5,974.5 L1.5,974.5 L1.5,973 Z" fill-rule="nonzero"></path>
                    <text id="dIGITAL" font-family="LuloCleanOne-Bold, Lulo Clean" font-size="28" font-weight="bold">
                        <tspan x="31" y="24">dIGITAL</tspan>
                    </text>
                    <text id="PHYSICAL" font-family="LuloCleanOne-Bold, Lulo Clean" font-size="28" font-weight="bold">
                        <tspan x="31" y="981">PHYSICAL</tspan>
                    </text>
                </g>
                <g id="Group-3" transform="translate(0.000000, 481.000000)" fill="#4F54FF">
                    <path id="Line" d="M84,0.25 L103,9.75 L103,-9.25 L84,0.25 Z M1075,0.25 L1056,-9.25 L1056,9.75 L1075,0.25 Z M101.5,1.75 L1057.5,1.75 L1059,1.75 L1059,-1.25 L1057.5,-1.25 L101.5,-1.25 L100,-1.25 L100,1.75 L101.5,1.75 Z" fill-rule="nonzero"></path>
                    <text id="Seconds" font-family="LuloCleanOne-Bold, Lulo Clean" font-size="28" font-weight="bold">
                        <tspan x="0" y="47">Seconds</tspan>
                    </text>
                    <text id="Minutes" font-family="LuloCleanOne-Bold, Lulo Clean" font-size="28" font-weight="bold">
                        <tspan x="989" y="47">Minutes</tspan>
                    </text>
                </g>
                <g id="Group" transform="translate(345.000000, 180.000000)">
                    <circle id="Oval" fill="#F9CD17" cx="38" cy="29" r="29"></circle>
                    <text id="Slider" font-family="Avenir-Heavy, Avenir" font-size="28" font-weight="600" fill="#000000">
                        <tspan x="0" y="96">Slider</tspan>
                    </text>
                </g>
                <g id="Group" transform="translate(179.000000, 180.000000)">
                    <circle id="Oval" fill="#F9CD17" cx="55" cy="29" r="29"></circle>
                    <text id="Flu-Monster" font-family="Avenir-Heavy, Avenir" font-size="28" font-weight="600" fill="#000000">
                        <tspan x="35.288" y="96">Flu </tspan>
                        <tspan x="0.316" y="134">Monster</tspan>
                    </text>
                </g>
                <g id="Group" transform="translate(247.000000, 355.000000)">
                    <circle id="Oval" fill="#F9CD17" cx="116" cy="29" r="29"></circle>
                    <text id="Conditional-Trivia" font-family="Avenir-Heavy, Avenir" font-size="28" font-weight="600" fill="#000000">
                        <tspan x="0" y="96">Conditional Trivia</tspan>
                    </text>
                </g>
                <g id="Group" transform="translate(635.000000, 91.000000)">
                    <circle id="Oval" fill="#F9CD17" cx="76" cy="29" r="29"></circle>
                    <text id="Remember-That-Time" font-family="Avenir-Heavy, Avenir" font-size="28" font-weight="600" fill="#000000">
                        <tspan x="4.446" y="96">Remember </tspan>
                        <tspan x="10.928" y="134">That Time</tspan>
                    </text>
                </g>
                <g id="Group" transform="translate(860.000000, 91.000000)">
                    <circle id="Oval" fill="#F9CD17" cx="53" cy="29" r="29"></circle>
                    <text id="Defend-The-ER" font-family="Avenir-Heavy, Avenir" font-size="28" font-weight="600" fill="#000000">
                        <tspan x="4.518" y="96">Defend </tspan>
                        <tspan x="7.374" y="134">The ER</tspan>
                    </text>
                </g>
                <g id="Group" transform="translate(237.000000, 664.000000)">
                    <circle id="Oval" fill="#F9CD17" cx="50" cy="29" r="29"></circle>
                    <text id="Live-Gif" font-family="Avenir-Heavy, Avenir" font-size="28" font-weight="600" fill="#000000">
                        <tspan x="0.188" y="96">Live Gif</tspan>
                    </text>
                </g>
                <g id="Group" transform="translate(524.000000, 706.000000)">
                    <circle id="Oval" fill="#F9CD17" cx="55" cy="29" r="29"></circle>
                    <text id="The-Sneeze" font-family="Avenir-Heavy, Avenir" font-size="28" font-weight="600" fill="#000000">
                        <tspan x="0.32" y="96">The Sneeze</tspan>
                    </text>
                </g>
            </g>
        </g>
    </g>
</svg>