<?xml version="1.0" encoding="UTF-8"?>
<svg width="100px" height="100px" viewBox="0 0 100 100" version="1.1" xmlns="http://www.w3.org/2000/svg" xmlns:xlink="http://www.w3.org/1999/xlink">
    <!-- Generator: Sketch 51.2 (57519) - http://www.bohemiancoding.com/sketch -->
    <title>Group 4</title>
    <desc>Created with Sketch.</desc>
    <defs></defs>
    <g id="Page-1" stroke="none" stroke-width="1" fill="none" fill-rule="evenodd">
        <g id="Desktop-HD-Copy-3" transform="translate(-103.000000, -1058.000000)">
            <g id="Group-2" transform="translate(100.000000, 1058.000000)">
                <g id="Group-4" transform="translate(3.000000, 0.000000)">
                    <circle id="Oval-2" fill="#4F54FF" cx="50" cy="50" r="50"></circle>
                    <g id="noun_mix_1458863_546ae8" transform="translate(26.000000, 28.000000)" fill="#FFFFFF" fill-rule="nonzero">
                        <path d="M39.6555629,16.1992388 C40.418984,16.9095779 41.6133262,16.8812819 42.3419075,16.1355947 L48.4181631,9.77118947 C49.1086649,9.03707495 49.1086649,7.89589783 48.4181631,7.16178331 L42.3419075,0.79737804 C41.905169,0.190824334 41.1533531,-0.106995154 40.4171635,0.0349223897 C39.6809739,0.176839933 39.095324,0.732486833 38.9178254,1.45744891 C38.7403269,2.18241098 39.003508,2.94383237 39.5916023,3.4067842 L42.5977498,6.58898683 C38.4766279,6.74745706 34.5498159,8.37364934 31.5325686,11.1713586 L22.0664019,19.8905938 L12.6002353,11.1713586 C9.41968966,8.22869736 5.2384271,6.59175177 0.895448195,6.58898683 L0,6.58898683 L0,10.40763 L0.895448195,10.40763 C4.28830789,10.3976271 7.55804778,11.6717478 10.0418119,13.9716969 L19.2521362,22.5 L9.97785131,31.0283031 C7.51025103,33.3132662 4.26622448,34.5862693 0.895448195,34.59237 L0,34.59237 L0,38.4110132 L0.895448195,38.4110132 C5.26050617,38.4243598 9.46748609,36.7862972 12.6641959,33.8286414 L22.0664019,25.1094062 L31.5325686,33.8286414 C34.5662785,36.6404403 38.5183185,38.2676742 42.6617104,38.4110132 L39.6555629,41.5932158 C39.0674685,42.0561676 38.8042875,42.817589 38.981786,43.5425511 C39.1592846,44.2675132 39.7449345,44.8231601 40.4811241,44.9650776 C41.2173137,45.1069952 41.9691296,44.8091757 42.4058681,44.202622 L48.4821237,37.8382167 C49.1726254,37.1041022 49.1726254,35.9629251 48.4821237,35.2288105 L42.4058681,28.8644053 C41.9691296,28.2578516 41.2173137,27.9600321 40.4811241,28.1019496 C39.7449345,28.2438672 39.1592846,28.7995141 38.981786,29.5244761 C38.8042875,30.2494382 39.0674685,31.0108596 39.6555629,31.4738114 L42.5977498,34.59237 C39.4491641,34.4321799 36.458796,33.1698172 34.1549526,31.0283031 L24.8806677,22.5 L34.1549526,13.9716969 C36.458796,11.8301828 39.4491641,10.5678201 42.5977498,10.40763 L39.6555629,13.5261886 C38.9242193,14.2686159 38.9242193,15.4568115 39.6555629,16.1992388 Z" id="Shape"></path>
                    </g>
                </g>
            </g>
        </g>
    </g>
</svg>