<svg id="Group_8" data-name="Group 8" xmlns="http://www.w3.org/2000/svg" viewBox="0 0 100 100">
  <defs>
    <style>
      .cls-1 {
        fill: #4f54ff;
      }

      .cls-2 {
        fill: #fff;
      }
    </style>
  </defs>
  <circle id="Oval_2" data-name="Oval 2" class="cls-1" cx="50" cy="50" r="50"/>
  <g id="noun_interactive_574985_546ae8" transform="translate(27 25)">
    <path id="Shape" class="cls-2" d="M3.87,4.617,1.485.421A.753.753,0,0,0,.375.144.968.968,0,0,0,.128,1.389l2.385,4.2a.788.788,0,0,0,.7.415.86.86,0,0,0,.452-.138A1,1,0,0,0,3.87,4.617Z" transform="translate(5 2)"/>
    <path id="Shape-2" data-name="Shape" class="cls-2" d="M4.577.111l-4.16,2.4A.764.764,0,0,0,.143,3.628.927.927,0,0,0,.92,4a1.127,1.127,0,0,0,.5-.124l4.16-2.4A.764.764,0,0,0,5.857.359,1.051,1.051,0,0,0,4.577.111Z" transform="translate(2 16)"/>
    <path id="Shape-3" data-name="Shape" class="cls-2" d="M.881,5a.967.967,0,0,0,.507-.154L5.58,1.86A1.078,1.078,0,0,0,5.856.47.846.846,0,0,0,4.612.161L.42,3.147a1.078,1.078,0,0,0-.276,1.39A.77.77,0,0,0,.881,5Z" transform="translate(18 6)"/>
    <path id="Shape-4" data-name="Shape" class="cls-2" d="M.769,7H.958a.907.907,0,0,0,.895-.765l1.13-5.069A.974.974,0,0,0,2.276.018a.958.958,0,0,0-1.13.717L.016,5.8A1.031,1.031,0,0,0,.769,7Z" transform="translate(14)"/>
    <path id="Shape-5" data-name="Shape" class="cls-2" d="M6.929,3a1.032,1.032,0,0,0,1.05-.769A.983.983,0,0,0,7.15,1.076L1.347.018A1.14,1.14,0,0,0,.021.74.983.983,0,0,0,.85,1.894L6.708,3Z" transform="translate(0 10)"/>
    <path id="Shape-6" data-name="Shape" class="cls-2" d="M32.966,28.681a14.8,14.8,0,0,1-.148-2.811c0-3.732.049-9.4-4.332-16.19h0l-2.658-4.12a3.246,3.246,0,0,0-4.479-.969.048.048,0,0,0-.049.048A3.076,3.076,0,0,0,20.266,5.7a3.382,3.382,0,0,0-1.28-.582,3.249,3.249,0,0,0-2.51.436c-.049,0-.049.048-.1.048a3.363,3.363,0,0,0-1.231,1.5,3.4,3.4,0,0,0-3.052.145c-.049,0-.1.048-.148.048a3.11,3.11,0,0,0-.985.969L6.729,1.633A3.575,3.575,0,0,0,4.464.082,3.539,3.539,0,0,0,1.757.567L1.708.615H1.658A3.521,3.521,0,0,0,.083,2.845,3.4,3.4,0,0,0,.576,5.511l7.187,11.1a5.912,5.912,0,0,0-1.034.63,5.2,5.2,0,0,1-.541.339h0a3.867,3.867,0,0,0-1.674,2.327,3.75,3.75,0,0,0,.492,2.811L7.516,26.6c.049.048.1.145.148.194a15.5,15.5,0,0,0,9.3,5.914,13.886,13.886,0,0,1,1.723.582.45.45,0,0,0,.246.048h0c1.181.242,1.526.824,2.166,1.89l.246.339a.971.971,0,0,0,.837.436,1.135,1.135,0,0,0,.541-.145.939.939,0,0,0,.3-1.309l-.2-.339a5,5,0,0,0-3.4-2.763h0a12.177,12.177,0,0,0-1.871-.582C15,30.135,11.5,29.117,8.8,24.9h0L6.679,21.652a1.846,1.846,0,0,1-.246-1.357,1.7,1.7,0,0,1,.788-1.115h0a5.154,5.154,0,0,0,.541-.388,5.068,5.068,0,0,1,.935-.582l.2.194,2.954,4.556a.971.971,0,0,0,.837.436,1.135,1.135,0,0,0,.541-.145.939.939,0,0,0,.3-1.309l-2.9-4.556h0L2.249,4.445a1.509,1.509,0,0,1-.2-1.212,1.56,1.56,0,0,1,.738-1.018l.049-.048h.049A1.573,1.573,0,0,1,4.12,1.972,1.582,1.582,0,0,1,5.153,2.7l5.907,9.161h0l2.757,4.314a.971.971,0,0,0,.837.436,1.135,1.135,0,0,0,.541-.145.939.939,0,0,0,.3-1.309l-2.757-4.314a1.383,1.383,0,0,1,.443-1.89h0a1.43,1.43,0,0,1,1.92.436L17.854,13.7a.971.971,0,0,0,.837.436,1.135,1.135,0,0,0,.541-.145.939.939,0,0,0,.3-1.309L17.214,9.1h0a1.475,1.475,0,0,1-.2-1.018,1.559,1.559,0,0,1,.591-.873h0a1.537,1.537,0,0,1,1.034-.194,1.586,1.586,0,0,1,.886.582L20.463,9h0l1.871,2.86a.971.971,0,0,0,.837.436,1.135,1.135,0,0,0,.541-.145.939.939,0,0,0,.3-1.309L21.988,7.935h0a1.127,1.127,0,0,1-.148-.969,1.324,1.324,0,0,1,.541-.776h0a1.175,1.175,0,0,1,.985-.145,1.345,1.345,0,0,1,.788.533l2.658,4.12C30.9,17,30.849,22.331,30.849,25.869a15.978,15.978,0,0,0,.2,3.3.946.946,0,0,0,.935.727.45.45,0,0,0,.246-.048A.971.971,0,0,0,32.966,28.681Z" transform="translate(11 11)"/>
  </g>
</svg>
