<svg xmlns="http://www.w3.org/2000/svg" viewBox="0 0 1082 202">
  <defs>
    <style>
      .cls-1, .cls-5 {
        fill: none;
      }

      .cls-2, .cls-4 {
        fill: #fff;
      }

      .cls-3 {
        fill: #cc7877;
      }

      .cls-4 {
        font-size: 24px;
        font-family: Avenir-Heavy, Avenir;
        font-weight: 800;
      }

      .cls-5 {
        stroke: #cc7877;
        stroke-miterlimit: 10;
        stroke-width: 2px;
      }
    </style>
  </defs>
  <g id="Group_9" data-name="Group 9" transform="translate(61 14)">
    <rect id="Rectangle_1" data-name="Rectangle 1" class="cls-1" width="1082" height="202" transform="translate(-61 -14)"/>
    <g id="Group_6" data-name="Group 6" transform="translate(3)">
      <g id="Group_4" data-name="Group 4" transform="translate(4)">
        <circle id="Oval_2" data-name="Oval 2" class="cls-2" cx="60" cy="60" r="60" transform="translate(0)"/>
        <g id="noun_knowledge_1345095_2731ff" transform="translate(32 30)">
          <path id="Shape" class="cls-3" d="M28.141,39.971a.66.66,0,0,1-.422-.152A11.387,11.387,0,0,0,22.83,37.65a29.88,29.88,0,0,0-6.368-.578c-3.453,0-7.124.354-10.675.7H5.78l-.061.006c-1.746.168-3.395.327-5,.444l-.052,0a.655.655,0,0,1-.454-.182.687.687,0,0,1-.213-.5V9.379A.675.675,0,0,1,.671,8.7a.675.675,0,0,1,.671.679V36.811c1.419-.113,2.889-.256,4.311-.393,3.573-.345,7.267-.7,10.777-.7a31.777,31.777,0,0,1,6.5.573,13.317,13.317,0,0,1,5.21,2.149,13.327,13.327,0,0,1,5.212-2.149,31.812,31.812,0,0,1,6.507-.573c3.519,0,7.213.357,10.785.7l.274.026c1.407.135,2.736.263,4.035.366V9.379a.671.671,0,1,1,1.341,0V37.543a.684.684,0,0,1-.213.5.655.655,0,0,1-.453.182l-.051,0c-1.679-.123-3.474-.3-5.058-.45h-.006c-3.554-.343-7.23-.7-10.685-.7a29.926,29.926,0,0,0-6.373.578,11.394,11.394,0,0,0-4.892,2.169A.666.666,0,0,1,28.141,39.971Zm.015-2.146a.662.662,0,0,1-.366-.11,19.532,19.532,0,0,0-11.4-3.11c-1.349,0-2.66.066-4.048.136H12.32l-.074,0c-1.317.065-2.678.133-4.043.133a26.7,26.7,0,0,1-5.534-.508.68.68,0,0,1-.536-.664V6.16a.671.671,0,1,1,1.342,0V33.144a26.347,26.347,0,0,0,4.739.374c1.366,0,2.719-.068,4.028-.133h.021c1.323-.066,2.691-.135,4.069-.135a25.514,25.514,0,0,1,5.823.585,19.139,19.139,0,0,1,6,2.507,19.125,19.125,0,0,1,6-2.507,25.471,25.471,0,0,1,5.818-.586c1.358,0,2.72.068,4.036.135h.031c1.314.066,2.673.135,4.044.135a26.4,26.4,0,0,0,4.741-.375V6.16a.671.671,0,1,1,1.342,0V33.707a.68.68,0,0,1-.536.664,26.678,26.678,0,0,1-5.532.508c-1.363,0-2.722-.068-4.037-.133l-.076,0h-.038c-1.387-.069-2.7-.134-4.029-.134a19.5,19.5,0,0,0-11.393,3.11A.662.662,0,0,1,28.157,37.825Zm-.015-2.273a.661.661,0,0,1-.442-.167,12.147,12.147,0,0,0-5.757-2.694,33.222,33.222,0,0,0-6.634-.524c-.641,0-1.282.007-1.938.014H13.3c-.52.006-1.2.014-1.82.014-2.454,0-4.977-.114-6.8-.938a.679.679,0,0,1-.4-.619V.68a.675.675,0,0,1,.367-.6A.647.647,0,0,1,4.952,0a.658.658,0,0,1,.4.13,24.2,24.2,0,0,0,6.859,3.114,37.251,37.251,0,0,0,4.265.888l.042.007.014,0,.011,0c4.012.683,8.559,1.457,11.6,4.484,3.044-3.026,7.59-3.8,11.6-4.484l.011,0,.013,0a37.747,37.747,0,0,0,4.309-.9A24.236,24.236,0,0,0,50.935.131a.649.649,0,0,1,.4-.131.671.671,0,0,1,.3.073A.681.681,0,0,1,52,.68V30.7a.676.676,0,0,1-.316.577c-2.023,1.277-4.739,1.449-7.129,1.449-.975,0-1.958-.031-3-.065h-.024c-1.028-.033-2.089-.067-3.16-.067-6,0-8.311,1.4-9.78,2.776A.664.664,0,0,1,28.141,35.552ZM15.359,30.81a36.138,36.138,0,0,1,6.326.445,14.528,14.528,0,0,1,5.786,2.24V9.888c-2.746-2.974-7.215-3.734-11.159-4.4a38.068,38.068,0,0,1-4.489-.938,28.86,28.86,0,0,1-6.2-2.634V30.181a18.241,18.241,0,0,0,5.838.659c.642,0,1.3-.008,1.873-.015h.045C14.062,30.816,14.7,30.81,15.359,30.81Zm35.3-28.9h0a28.853,28.853,0,0,1-6.2,2.634,37.877,37.877,0,0,1-4.466.934l-.02,0c-3.945.67-8.417,1.43-11.163,4.4V33.473c2.863-1.967,6.478-2.232,9.636-2.232,1.1,0,2.227.037,3.131.067l.068,0c.858.028,1.926.063,2.9.063a13.291,13.291,0,0,0,6.112-1.06V1.912ZM32.873,28.022a.671.671,0,0,1-.635-.463.682.682,0,0,1,.422-.86,33.788,33.788,0,0,1,9.374-1.267h.005l.135-.005c.8-.032,1.553-.063,2.306-.111.95-.066,1.7-.134,2.3-.208a.647.647,0,0,1,.08,0,.679.679,0,0,1,.078,1.353c-.73.088-1.507.158-2.377.213-.749.047-1.475.077-2.243.109l-.116,0-.1,0h-.021a32.341,32.341,0,0,0-9,1.2A.693.693,0,0,1,32.873,28.022Zm-9.01,0a.693.693,0,0,1-.213-.036,32.365,32.365,0,0,0-9-1.2h-.02l-.1,0-.1,0h-.012c-.945-.038-1.57-.064-2.243-.108-.98-.067-1.758-.137-2.379-.213A.679.679,0,0,1,9.873,25.1c.021,0,.047,0,.079,0,.576.072,1.33.14,2.306.208.674.043,1.365.072,2.033.1h.01l.124.005.117,0h.02l.135.005H14.7A33.815,33.815,0,0,1,24.077,26.7a.682.682,0,0,1,.422.86A.671.671,0,0,1,23.864,28.022Zm0-5.158a.569.569,0,0,1-.222-.039A32.33,32.33,0,0,0,15.4,21.454l-.051,0h-.043l-.036,0-.024,0c-.941-.075-2.111-.168-3.166-.3-.971-.132-1.737-.257-2.34-.382a.68.68,0,0,1,.131-1.345.65.65,0,0,1,.132.014c.668.135,1.4.255,2.249.366.983.127,2.021.209,3.025.289h.006l.044,0,.04,0,.031,0,.031,0,.031,0,.022,0h.007a33.887,33.887,0,0,1,8.6,1.443.681.681,0,0,1-.224,1.32Zm9.025,0h-.015a.672.672,0,0,1-.632-.454.682.682,0,0,1,.41-.865A33.866,33.866,0,0,1,41.24,20.1h.03l.024,0h.011l.066-.005h.019c.985-.078,2.1-.167,3.093-.3.939-.127,1.674-.247,2.247-.365a.562.562,0,0,1,.137-.014.68.68,0,0,1,.127,1.345c-.679.139-1.444.263-2.338.381-1.022.132-2.123.221-3.1.3l-.038,0-.044,0-.049,0-.06,0h-.044a32.471,32.471,0,0,0-8.23,1.37A.653.653,0,0,1,32.888,22.861ZM23.864,17.7a.711.711,0,0,1-.233-.042,32.545,32.545,0,0,0-7.792-1.523l-.021,0-.033,0-.03,0-.02,0-.053-.006-.043,0-.04,0h-.013c-1.148-.13-2.449-.277-3.594-.5-.73-.14-1.5-.313-2.282-.512a.68.68,0,0,1-.484-.825.67.67,0,0,1,.648-.512.66.66,0,0,1,.167.022c.715.182,1.455.348,2.2.494,1.16.22,2.414.359,3.626.493l.042.005.016,0,.035,0a34.227,34.227,0,0,1,8.138,1.6.68.68,0,0,1-.233,1.316Zm9.017,0h-.007a.673.673,0,0,1-.629-.443.681.681,0,0,1,.4-.872,34.2,34.2,0,0,1,8.126-1.6l.01,0h.006l.02,0,.054-.006h.007l.045-.005h.012c1.216-.137,2.473-.279,3.58-.489.745-.145,1.484-.31,2.2-.492a.66.66,0,0,1,.167-.022.67.67,0,0,1,.648.511.68.68,0,0,1-.484.825c-.73.188-1.5.361-2.28.512-1.175.223-2.462.368-3.707.508h-.007l-.053.006-.02,0-.039,0-.013,0a32.663,32.663,0,0,0-7.8,1.524A.6.6,0,0,1,32.881,17.7Zm-.006-5.171a.666.666,0,0,1-.625-.431.681.681,0,0,1,.379-.88,34.585,34.585,0,0,1,7.806-1.749h.033l.01,0,.037-.005h.005l.01,0,.037-.005c1.426-.2,2.772-.4,3.945-.682.757-.189,1.479-.394,2.145-.61a.678.678,0,0,1,.207-.032.666.666,0,0,1,.637.469.682.682,0,0,1-.431.855c-.681.224-1.435.438-2.24.637-1.229.3-2.612.5-4.076.709l-.026,0-.036.005-.028,0h-.041a33.051,33.051,0,0,0-7.5,1.669A.651.651,0,0,1,32.874,12.524Zm-9.01,0a.627.627,0,0,1-.245-.047,32.942,32.942,0,0,0-7.482-1.667h-.065l-.058-.008-.034,0-.029,0h-.014l-.041-.006c-1.423-.2-2.766-.4-3.989-.7-.815-.2-1.569-.419-2.241-.638a.682.682,0,0,1-.432-.855.671.671,0,0,1,.64-.47.661.661,0,0,1,.2.032c.616.2,1.338.41,2.147.611,1.164.285,2.5.476,3.906.678l.012,0,.012,0,.012,0h.008l.036.005.014,0,.033,0h.005a34.487,34.487,0,0,1,7.844,1.754.682.682,0,0,1,.379.879A.665.665,0,0,1,23.864,12.524Z" transform="translate(0 20.83)"/>
          <path id="Shape-2" data-name="Shape" class="cls-3" d="M17.42,24.207a.668.668,0,0,1-.432-.161L7.2,15.578a.675.675,0,0,1-.082-.931l4.054-5a.656.656,0,0,1,.514-.246H23.154a.656.656,0,0,1,.514.246l4.055,5a.668.668,0,0,1-.083.931l-9.787,8.468A.676.676,0,0,1,17.42,24.207ZM14.2,15.547l3.225,6.439,3.226-6.439Zm7.937,0L19.453,20.9l6.187-5.352H22.133Zm-12.93,0L15.389,20.9l-2.68-5.352H9.2Zm14.2-4.114-.817,2.776h3.067ZM17.42,11.2l-2.655,3.014h5.311Zm-6,.256L9.187,14.209h3.062Zm1.173-.716h0l.877,2.928,2.579-2.928H12.6Zm6.194,0,2.576,2.923.86-2.923Zm12.476.239a.666.666,0,0,1-.483-.21.674.674,0,0,1,.027-.946l2.63-2.5a.66.66,0,0,1,.939.027.672.672,0,0,1-.027.946l-2.63,2.5A.656.656,0,0,1,31.265,10.975Zm-27.971,0a.657.657,0,0,1-.456-.182l-2.63-2.5a.673.673,0,0,1-.027-.946.66.66,0,0,1,.939-.027l2.63,2.5a.674.674,0,0,1,.027.946A.665.665,0,0,1,3.294,10.975Zm21.64-4.44a.687.687,0,0,1-.262-.055.67.67,0,0,1-.347-.879l1.433-3.346a.661.661,0,0,1,.608-.4.682.682,0,0,1,.263.055.67.67,0,0,1,.346.879L25.544,6.131A.662.662,0,0,1,24.934,6.535Zm-15.311,0a.664.664,0,0,1-.609-.4L7.582,2.786a.671.671,0,0,1,.346-.879.653.653,0,0,1,.262-.055.661.661,0,0,1,.609.4L10.232,5.6a.667.667,0,0,1-.609.933Zm7.754-1.553a.667.667,0,0,1-.663-.669V.669a.664.664,0,1,1,1.327,0V4.313A.667.667,0,0,1,17.377,4.982Z" transform="translate(10.59)"/>
        </g>
      </g>
      <text id="Knowledge" class="cls-4" transform="translate(64 178)"><tspan x="-63.996" y="0">Knowledge</tspan></text>
    </g>
    <g id="Group_7" data-name="Group 7" transform="translate(420)">
      <text id="Skills" class="cls-4" transform="translate(60.5 178)"><tspan x="-28.032" y="0">Skills</tspan></text>
      <g id="Group_10" data-name="Group 10">
        <circle id="Oval_2-2" data-name="Oval 2" class="cls-2" cx="60" cy="60" r="60" transform="translate(0 0)"/>
      </g>
      <g id="noun_Visualization_skill_1598310_2731ff" data-name="noun_Visualization skill_1598310_2731ff" transform="translate(34 30)">
        <g id="Group">
          <g id="Group-2" data-name="Group" transform="translate(13.401 1.475)">
            <path id="Shape-3" data-name="Shape" class="cls-5" d="M0,6.836,12.16,0V23.41L.844,30.541" transform="translate(24.767 1.426)"/>
            <path id="Shape-4" data-name="Shape" class="cls-5" d="M0,.05V0" transform="translate(25.114 31.721)"/>
            <path id="Shape-5" data-name="Shape" class="cls-5" d="M38.217.1C29.928.049,21.193,0,12.9,0,8.636,2.607,4.268,5.115,0,7.672" transform="translate(0 0.246)"/>
            <rect id="Rectangle-path" class="cls-5" width="24.518" height="23.656" transform="translate(0.596 8.115)"/>
            <path id="Shape-6" data-name="Shape" class="cls-5" d="M12.607,0V23.9L0,30.836" transform="translate(0.596 0.934)"/>
            <path id="Shape-7" data-name="Shape" class="cls-5" d="M23.724,0H0" transform="translate(13.202 24.836)"/>
          </g>
          <path id="Shape-8" data-name="Shape" class="cls-5" d="M22.186,0a19.3,19.3,0,0,0-7.792,2.459A20.751,20.751,0,0,0,6.75,10.918a26.523,26.523,0,0,0-3.276,13.82v.049L0,34.426c0,.049,0,.1.1.148l3.921.639a.106.106,0,0,1,.1.1,24.848,24.848,0,0,0-.645,7.918c.2,2.508.347,4.082,1.539,5.41,2.382,2.7,7,1.967,7.991,1.77a.106.106,0,0,1,.1.1l.2,8.9a.106.106,0,0,0,.1.1H43.329a.106.106,0,0,0,.1-.1v-.049c-.05-.148-3.722-11.508-4.119-12.836-.695-2.41-.844-6,1.787-11.164" transform="translate(0 0.295)"/>
        </g>
      </g>
    </g>
    <g id="noun_add_1147201_2731ff" transform="translate(245 40)">
      <path id="Shape-9" data-name="Shape" class="cls-3" d="M27.111,27.111H3.389a3.389,3.389,0,0,0,0,6.778H27.111V57.611a3.389,3.389,0,0,0,6.778,0V33.889H57.611a3.389,3.389,0,0,0,0-6.778H33.889V3.389a3.389,3.389,0,0,0-6.778,0Z"/>
    </g>
    <g id="Group_8" data-name="Group 8" transform="translate(748 1)">
      <text id="Better_Decision_Maki" data-name="Better Decision Maki" class="cls-4" transform="translate(141 178)"><tspan x="-131.796" y="0">Better Decision Making</tspan></text>
      <g id="Group_11" data-name="Group 11" transform="translate(81)">
        <circle id="Oval_2-3" data-name="Oval 2" class="cls-2" cx="60" cy="60" r="60" transform="translate(0 0)"/>
        <g id="noun_decision_802417_2731ff" transform="translate(34 34)">
          <path id="Shape-10" data-name="Shape" class="cls-3" d="M42.816,52.214H9.4a9.409,9.409,0,0,1-9.4-9.4V9.4A9.409,9.409,0,0,1,9.4,0H42.816a9.409,9.409,0,0,1,9.4,9.4V42.816A9.408,9.408,0,0,1,42.816,52.214ZM9.4,2.089A7.318,7.318,0,0,0,2.089,9.4V42.816a7.318,7.318,0,0,0,7.31,7.31H42.816a7.318,7.318,0,0,0,7.31-7.31V9.4a7.318,7.318,0,0,0-7.31-7.31Z"/>
          <path id="Shape-11" data-name="Shape" class="cls-3" d="M31.022.306a1.044,1.044,0,0,0-1.477,1.477L31.94,4.177H26.107A9.4,9.4,0,0,0,17.753,9.29,9.4,9.4,0,0,0,9.4,4.177H3.565L5.96,1.783A1.044,1.044,0,0,0,4.483.306L.306,4.483a1.043,1.043,0,0,0,0,1.477l4.177,4.177A1.044,1.044,0,1,0,5.96,8.66L3.565,6.266H9.4a7.318,7.318,0,0,1,7.31,7.31V30.284a1.044,1.044,0,1,0,2.089,0V13.576a7.319,7.319,0,0,1,7.31-7.31H31.94L29.546,8.66a1.044,1.044,0,1,0,1.477,1.477L35.2,5.96a1.043,1.043,0,0,0,0-1.477Z" transform="translate(8.876 10.443)"/>
        </g>
      </g>
    </g>
    <g id="noun_Equal_638152_2731ff" transform="translate(654 57)">
      <path id="Shape-12" data-name="Shape" class="cls-3" d="M57.34,27H3.66a3.682,3.682,0,0,1,0-7.364H57.34a3.682,3.682,0,0,1,0,7.364Zm0-19.636H3.66A3.682,3.682,0,0,1,3.66,0H57.34a3.682,3.682,0,0,1,0,7.364Z"/>
    </g>
  </g>
</svg>
