<?xml version="1.0" encoding="utf-8"?>
<!-- Generator: Adobe Illustrator 22.1.0, SVG Export Plug-In . SVG Version: 6.00 Build 0)  -->
<svg version="1.1" id="Group_25" xmlns="http://www.w3.org/2000/svg" xmlns:xlink="http://www.w3.org/1999/xlink" x="0px" y="0px"
	 viewBox="0 0 1440 922" style="enable-background:new 0 0 1440 922;" xml:space="preserve">
<style type="text/css">
	.st0{fill:#FFFFFF;}
	.st1{fill:#FFD1C9;}
	.st2{fill:#17BCBC;}
	.st3{fill:#4F54FF;}
	.st4{fill:#FF9695;}
	.st5{fill:#FBE834;}
	.st6{fill:#FFEFEF;}
	.st7{fill:none;stroke:#FFD1C9;stroke-width:2.12;stroke-linecap:round;stroke-miterlimit:10;}
</style>
<rect id="Rectangle_28" x="1.6" class="st0" width="1436.9" height="920"/>
<g id="Group_4" transform="translate(17365.941 5119.003) rotate(-90)">
	<path id="Shape" class="st1" d="M4856-16810.5l-29.2,14.9l-15.1-29.7l29.2-14.9L4856-16810.5z"/>
	<path id="Shape-2" class="st2" d="M4894.4-17313.2l-24.9,8.5l-8.5-24.9l24.9-8.5L4894.4-17313.2z"/>
	<path id="Shape-3" class="st3" d="M4909.3-16989.8l-31.9-15.4l15.4-31.9l31.9,15.4L4909.3-16989.8z"/>
	<path id="Shape-4" class="st4" d="M4795.7-15950.7l-30.4-14l14-30.4l30.4,14L4795.7-15950.7z"/>
	<path id="Shape-5" class="st1" d="M4972.9-17189.8l-18.9,18.9l-18.9-18.9l18.9-18.9L4972.9-17189.8z"/>
	<path id="Shape-6" class="st5" d="M4749.3-17096.7l-16.5-21.1l21.1-16.5l16.5,21.1L4749.3-17096.7z"/>
	<path id="Shape-7" class="st2" d="M4837.9-16500.8l-30.4,16.9l-16.9-30.4l30.4-16.9L4837.9-16500.8z"/>
	<path id="Shape-8" class="st4" d="M4931.8-16609.8l-24.8-11.4l11.4-24.8l24.8,11.4L4931.8-16609.8z"/>
	<path id="Shape-9" class="st5" d="M5016.4-16755.7l-26.9-1.6l1.6-27.3l26.9,1.6L5016.4-16755.7z"/>
	<path id="Shape-10" class="st5" d="M4949.4-16109.7l-26.9-1.6l1.6-27.3l26.9,1.6L4949.4-16109.7z"/>
	<path id="Shape-11" class="st3" d="M4956-16378.5l-20.6-10l10-20.7l20.6,10L4956-16378.5z"/>
	<path id="Shape-12" class="st1" d="M4551.8-17052.4l23.1-11.8l12,23.5l-23.1,11.8L4551.8-17052.4z"/>
	<path id="Shape-13" class="st3" d="M4374.6-16320l31.9,15.4l-15.4,31.9l-31.9-15.4L4374.6-16320z"/>
	<path id="Shape-14" class="st4" d="M4585-17327.1l24.7,11.4l-11.4,24.7l-24.7-11.4L4585-17327.1z"/>
	<path id="Shape-15" class="st1" d="M4370.9-16645l18.9-18.9l18.9,18.9l-18.9,18.9L4370.9-16645z"/>
	<path id="Shape-16" class="st5" d="M4584.6-16204l16.5,21.1l-21.1,16.5l-16.5-21.1L4584.6-16204z"/>
	<path id="Shape-17" class="st4" d="M4308.1-16132.9l24.8,11.4l-11.4,24.8l-24.8-11.4L4308.1-16132.9z"/>
	<path id="Shape-18" class="st5" d="M4284.4-16554.1l26.9,1.6l-1.6,27.3l-26.9-1.6L4284.4-16554.1z"/>
	<path id="Shape-19" class="st5" d="M4334.4-17200.1l26.9,1.6l-1.6,27.3l-26.9-1.6L4334.4-17200.1z"/>
	<path id="Shape-20" class="st3" d="M4510.8-16812.3l20.6,10l-10,20.7l-20.6-10L4510.8-16812.3z"/>
	<path id="Shape-21" class="st5" d="M4775.4-16326.7l-26.9-1.6l1.6-27.3l26.9,1.6L4775.4-16326.7z"/>
	<path id="Shape-22" class="st3" d="M4780-16143.5l-20.6-10l10-20.7l20.6,10L4780-16143.5z"/>
	<path id="Shape-23" class="st1" d="M4638.9-16380.8l-18.9,18.9l-18.9-18.9l18.9-18.9L4638.9-16380.8z"/>
</g>
<rect id="Rectangle_14" x="-1" y="678" class="st5" width="1440" height="244"/>
<g id="Know_Where_To_Go_-_logo" transform="translate(921.959 236.669)">
	<g id="Layer_01">
		<g id="_Group_">
			<path id="Path_1" class="st1" d="M417.5,142.2L181,298.9L-24.7,156.8L211.7,0L417.5,142.2z"/>
			<path id="Path_2" class="st3" d="M406.3,280.9v16.6L394,289L406.3,280.9z"/>
			<path id="Path_3" class="st2" d="M406.3,297.5l-40,26.5l-12.3-8.5l40-26.5L406.3,297.5z"/>
			<path id="Path_4" class="st3" d="M405.7,356.4V373l-12.3-8.5L405.7,356.4z"/>
			<path id="Path_5" class="st2" d="M405.7,373.1l-61.3,40.6v-46.3l21.9,15.2l27.1-17.9L405.7,373.1z"/>
			<path id="Path_6" class="st3" d="M399.9,321.8v16.6l-12.3-8.5L399.9,321.8z"/>
			<path id="Path_7" class="st2" d="M399.9,338.4l-33.6,22.2l-21.9-15.1v-16.6l21.9,15.1l21.3-14.1L399.9,338.4z"/>
			<path id="Path_8" class="st3" d="M383,189.6l-18.7,104.1l-32.1-22.2l-2.1-7.7l-13.5-9.3l1.7-9l33.1,22.9l10.3-64.6L383,189.6z"/>
			<path id="Path_9" class="st1" d="M366.3,360.6v21.9l-21.9-15.2v-21.9L366.3,360.6z"/>
			<path id="Path_10" class="st1" d="M366.3,324.1V344l-21.9-15.2V322l9.7-6.4L366.3,324.1z"/>
			<path id="Path_11" class="st2" d="M364.3,293.7l-21.9,14.5l-10.1-36.7L364.3,293.7z"/>
			<path id="Path_12" class="st1" d="M339.1,218.7l12.3,49.7l-33.1-22.9l2.8-14.9L339.1,218.7z"/>
			<path id="Path_13" class="st4" d="M334.7,419.4v0.7L298.4,395l0,0c2.8-1.8,5.3-4.1,7.3-6.9l10.3,7.2L334.7,419.4z"/>
			<path id="Path_14" class="st0" d="M332.2,481.1v4c0,8-0.8,15.6-3.9,23.2c-2.1,5.4-5.6,10.2-10.2,13.9c-4.1,3.2-10.3,7.4-15.6,3.2
				c-3.8-4.3-4.5-12.6-4.5-17.6v-6.6c0.4-9.8,1.9-18.3,7.5-26.8c2.5-4,5.9-7.3,9.8-9.9c3.3-2.2,7.9-4.2,11.8-2.1
				c0.4,0.2,0.9,0.5,1.3,0.8C332,467.2,332.2,476.4,332.2,481.1z"/>
			<path id="Path_15" class="st0" d="M227.7,291.6c-5.9,4.7-11.1,10-15.6,16c-6,7.4-10.6,15.9-13.5,24.9c-1.9,5.3-3.3,10.7-3.9,16.3
				c-0.4,3.3-0.6,6.6-0.6,9.9v5.3c0,16.4,6.8,30.4,25.2,24.8c12.8-3.9,26.1-15.9,34.1-25.6c5.7-7.6,10.3-16,13.5-24.9
				c3-8.6,4.6-17.7,4.5-26.9v-4c0-7.5-0.3-14.2-4.5-20.9c-3.4-4.3-8.7-6.7-14.2-6.5C244.1,280.8,235.3,285.6,227.7,291.6z
				 M235.4,430.8l-21.3,14.1V425l40-26.5v-16.6l-12.3,8.1l-40,26.5l-9.7,6.4v91.7l48.2-32l10.5-7l2.5-1.7v-16.6l-12.3,8.1l0,0
				l-27.1,17.9v-21.9l33.5-22.2v-16.6L235.4,430.8z M241.2,497.3c-5.3,2.5-10.4,5.5-15.1,9.1c-6.1,4.6-11.6,10-16.3,16.1
				c-9.4,13.4-15.5,26.3-17,42c-0.3,2.9-0.4,5.8-0.4,8.7v8c0.4,7.6,1.7,19.9,11,23.3c15.7,7.2,40.7-16.3,49-24.5
				c5.4-5.8,10.4-11.6,14.2-18.7v-37.9l-28,18.5l-4.1,2.7l-4,2.7v14.6l14.8-9.8v14.6c-3,4.7-7,8.7-11.7,11.8
				c-3.4,2.2-10.7,7.1-15.4,3.5c-4.8-5.5-4.5-11.2-4.5-17.6v-5.3c0-7.9,1.5-15.7,4.5-22.9c3.1-6.5,6.7-11.7,12.9-15.8
				c4.4-2.9,8.4-4.5,11.1-3.1c1.8,0.9,3.1,3.2,3.7,7.2l20.6-13.7c-0.4-6.5-2.7-14.5-10.3-16.4c-1.1-0.2-2.2-0.2-3.4-0.2
				c-1.2,0.1-2.5,0.2-3.7,0.5c-0.7,0.1-1.3,0.3-2,0.5s-1.5,0.5-2.2,0.7s-1.4,0.5-2.1,0.8C242.2,496.8,241.7,497.1,241.2,497.3
				L241.2,497.3z M387.6,329.9L366.3,344v-19.9l40-26.5V281l-12.2,8l-40,26.5l-9.7,6.4v91.7l61.3-40.6v-16.6l-12.3,8.1l-27.1,18
				v-21.9l33.5-22.2v-16.6L387.6,329.9z M291.8,356.9l-20.1,13.3l-8.5,5.6v91.7l21.3-14.1v-31.9l11.6-7.7l15.1,21.2l0,0l0.3,0.5
				l12.7-8.4l10.5-7v-0.7L316,395.3c4.9-5.4,8.8-11.6,11.6-18.3c2.6-5.8,3.9-12.2,3.9-18.6c0-6.1-1.1-14.1-9-14.5
				c-8-1.1-18.7,5.1-24.5,8.9L291.8,356.9z M332.2,271.6l10.1,36.7l21.9-14.5l18.7-104.1l-21.3,14.1l-10.3,64.7L339,218.8l-18.1,12
				l-2.8,14.9l-1.7,9l-7.8,42l-10.3-51L277,259.8l4.4,18.1l6.1,25l8.8,35.8l21.9-14.5l11.6-60.2L332.2,271.6z M417.5,142.2v341.9
				L181,640.9v-342L417.5,142.2z M349.6,497.4c3-8.7,4.6-17.8,4.5-26.9v-4c0-7.5-0.3-14.2-4.5-20.9c-3.4-4.3-8.7-6.7-14.2-6.5
				c-9.8,0.9-16.9,5.3-24.3,11l-0.7,0.6l0,0c-0.2,0.1-0.4,0.3-0.5,0.4c-2.7,2.2-5.3,4.6-7.7,7.1c-0.3,0.3-0.5,0.5-0.8,0.8
				c-2.3,2.5-4.5,5-6.6,7.7c-6,7.4-10.6,15.9-13.5,24.9c-1.9,5.3-3.3,10.7-3.9,16.3c-0.4,3.3-0.6,6.6-0.6,9.9v5.3
				c0,16.4,6.8,30.4,25.2,24.8c12.8-3.9,26.1-15.9,34.1-25.6C341.8,514.7,346.4,506.3,349.6,497.4L349.6,497.4z"/>
			<path id="Path_16" class="st3" d="M331.5,358.4c0.1,6.4-1.2,12.7-3.9,18.6c-2.8,6.7-6.8,12.9-11.6,18.3l-10.3-7.2
				c1.2-1.7,2.2-3.5,2.9-5.4c1.7-4.3,3.3-11.9-1.6-15.4l-15.2-10.5l6.2-4.1c5.9-3.9,16.5-10.1,24.5-8.9
				C330.4,344.3,331.5,352.3,331.5,358.4z"/>
			<path id="Path_17" class="st4" d="M330.1,263.9l-11.6,60.2l-30.7-21.2l-6.1-25l27.2,18.8l7.8-42L330.1,263.9z"/>
			<path id="Path_18" class="st2" d="M318.5,324.1l-21.9,14.5l-8.8-35.8L318.5,324.1z"/>
			<path id="Path_19" class="st3" d="M311.2,450.1c7.4-5.7,14.5-10.1,24.3-11c5.5-0.2,10.7,2.3,14.2,6.5c4.2,6.8,4.5,13.5,4.5,20.9
				v4c0,9.2-1.5,18.3-4.5,26.9c-3.3,8.9-7.8,17.3-13.5,24.9c-8,9.8-21.4,21.8-34.1,25.6c-18.4,5.6-25.2-8.5-25.2-24.8v-5.3
				c0-3.3,0.2-6.6,0.6-9.9l0,0l25.2,17.4c5.4,4.2,11.6,0,15.6-3.2c4.5-3.7,8-8.5,10.2-13.9c3.1-7.6,3.9-15.1,3.9-23.2v-4
				c0-4.7-0.2-13.9-3.9-18c-0.4-0.3-0.8-0.6-1.3-0.8v-0.1l-16.7-11.5l0,0L311.2,450.1z"/>
			<path id="Path_20" class="st1" d="M310.5,450.6l16.7,11.5v0.1c-3.9-2-8.5-0.1-11.8,2.1c-3.9,2.6-7.3,6-9.8,9.9
				c-5.5,8.5-7.1,17-7.5,26.8v6.6c0,5,0.8,13.3,4.5,17.6l-25.2-17.4l0,0c0.7-5.6,2-11,3.9-16.3c3-9.1,7.6-17.5,13.5-24.9
				c2.1-2.7,4.3-5.2,6.6-7.7c0.3-0.3,0.5-0.5,0.8-0.8c2.4-2.5,5-4.9,7.7-7.1C310.1,450.9,310.2,450.8,310.5,450.6L310.5,450.6
				L310.5,450.6z"/>
			<path id="Path_21" class="st1" d="M298.5,245.6l10.3,51l-27.2-18.8l-4.4-18.1L298.5,245.6z"/>
			<path id="Path_22" class="st2" d="M307,367.4c-2.8-1-7,1.3-9,2.7l-13.5,9l-12.8-8.8l20.1-13.3L307,367.4z"/>
			<path id="Path_23" class="st0" d="M307,367.4c4.9,3.4,3.3,11.1,1.6,15.4c-0.7,1.9-1.7,3.7-2.9,5.4c-2,2.7-4.4,5-7.3,6.9
				c-0.1,0.1-0.3,0.2-0.4,0.3l-13.5,9V379l13.5-9C300,368.7,304.2,366.3,307,367.4z"/>
			<path id="Path_24" class="st4" d="M296,413.8l-11.6,7.7l-21.3-14.7v-15.7L296,413.8z"/>
			<path id="Path_25" class="st1" d="M284.4,421.5v31.9l-21.3-14.7v-31.9L284.4,421.5z"/>
			<path id="Path_26" class="st1" d="M284.4,379v25.3l-21.3-14.7v-13.7l8.5-5.6L284.4,379z"/>
			<path id="Path_27" class="st2" d="M284.4,404.3l13.5-9c0.1-0.1,0.3-0.2,0.4-0.3l0,0l36.3,25.1l-10.5,7l-12.7,8.4l-0.3-0.5l0,0
				L296,413.8l-32.9-22.7v-1.6L284.4,404.3z"/>
			<path id="Path_28" class="st2" d="M284.4,453.4l-21.3,14.1v-28.8L284.4,453.4z"/>
			<path id="Path_29" class="st3" d="M266.5,523.3v37.9l-28-19.3L266.5,523.3z"/>
			<path id="Path_30" class="st2" d="M266.5,510.7l-20.6,13.7c-0.6-4-1.9-6.2-3.7-7.2l0.2-0.3l-15.1-10.5l-1.1-0.1
				c4.7-3.5,9.8-6.6,15.1-9.1c0.5-0.2,1-0.5,1.6-0.7c0.7-0.3,1.4-0.6,2.1-0.8L266.5,510.7z"/>
			<path id="Path_31" class="st3" d="M254.1,381.8v16.6l-12.3-8.5L254.1,381.8z"/>
			<path id="Path_32" class="st2" d="M254.1,398.4l-40,26.5l-12.3-8.5l40-26.5L254.1,398.4z"/>
			<path id="Path_33" class="st3" d="M253.5,457.3V474l-12.3-8.5L253.5,457.3z"/>
			<path id="Path_34" class="st2" d="M253.5,474l-2.5,1.7l-10.5,6.9l-48.2,32v-46.3l21.9,15.2l27.1-17.9l0,0L253.5,474z"/>
			<path id="Path_35" class="st0" d="M249.5,322v4c0,8-0.8,15.6-3.9,23.2c-2.1,5.4-5.6,10.2-10.2,13.9c-4.1,3.2-10.3,7.4-15.6,3.2
				c-3.8-4.3-4.5-12.6-4.5-17.6V342c0.4-9.8,1.9-18.3,7.5-26.8c2.5-4,5.9-7.3,9.8-9.9c3.3-2.2,7.9-4.2,11.8-2.1
				c0.4,0.2,0.9,0.5,1.3,0.8C249.3,308.1,249.5,317.3,249.5,322z"/>
			<path id="Path_36" class="st3" d="M247.7,422.7v16.6l-12.3-8.5L247.7,422.7z"/>
			<path id="Path_37" class="st2" d="M247.7,439.3l-33.5,22.2l-21.9-15.1v-16.6l21.9,15.2l21.3-14.1L247.7,439.3z"/>
			<path id="Path_38" class="st3" d="M256.1,494.3c7.6,1.9,9.9,9.9,10.3,16.4l-21.6-14.9c0.7-0.3,1.5-0.5,2.2-0.7s1.3-0.4,2-0.5
				c1.2-0.3,2.5-0.4,3.7-0.5C253.9,494.1,255,494.1,256.1,494.3L256.1,494.3z"/>
			<path id="Path_39" class="st4" d="M245.2,552.1l-14.8,9.8v-14.6l4-2.7L245.2,552.1z"/>
			<path id="Path_40" class="st4" d="M227.7,291.6l16.7,11.5v0.1c-3.9-2-8.5-0.1-11.8,2.1c-3.9,2.6-7.3,6-9.8,9.9
				c-5.5,8.5-7.1,17-7.5,26.8v6.6c0,5,0.8,13.3,4.5,17.6l-25.2-17.4l0,0c0.7-5.6,2-11,3.9-16.3c3-9.1,7.6-17.5,13.5-24.9
				C216.6,301.6,221.9,296.2,227.7,291.6L227.7,291.6z"/>
			<path id="Path_41" class="st1" d="M227.1,506.5l15.1,10.5l-0.2,0.3c-2.8-1.4-6.7,0.1-11.1,3.1c-6.2,4.1-9.8,9.3-12.9,15.8
				c-3,7.3-4.5,15.1-4.5,22.9v5.3c0,6.4-0.3,12.1,4.5,17.6l-25.3-17.5h-0.1c1.5-15.7,7.6-28.7,17-42c4.7-6,10.2-11.4,16.3-16.1
				L227.1,506.5z"/>
			<path id="Path_42" class="st3" d="M219.8,366.2c5.4,4.2,11.6,0,15.6-3.2c4.5-3.7,8-8.5,10.2-13.9c3.1-7.6,3.9-15.1,3.9-23.2v-4
				c0-4.7-0.2-13.9-3.9-18c-0.4-0.3-0.8-0.6-1.3-0.8V303l-16.7-11.5c7.6-6,16.4-10.8,25-11.6c5.5-0.2,10.7,2.3,14.2,6.5
				c4.2,6.7,4.5,13.5,4.5,20.9v4c0,9.2-1.5,18.3-4.5,26.9c-3.3,8.9-7.8,17.3-13.5,24.9c-8,9.8-21.4,21.8-34.1,25.6
				c-18.4,5.6-25.2-8.5-25.2-24.8v-5.3c0-3.3,0.2-6.6,0.6-9.9l0,0L219.8,366.2z"/>
			<path id="Path_43" class="st2" d="M218.1,582c4.6,3.6,11.9-1.3,15.4-3.5c4.7-3,8.7-7,11.7-11.8v-14.6l-10.8-7.5l4.1-2.7l28,19.3
				c-3.8,7.1-8.8,12.9-14.2,18.7c-8.4,8.2-33.4,31.8-49,24.5c-9.3-3.4-10.6-15.7-11-23.3v-8c0-2.9,0.1-5.8,0.4-8.7h0.1L218.1,582z"
				/>
			<path id="Path_44" class="st4" d="M214.1,461.5v21.9l-21.9-15.2v-21.9L214.1,461.5z"/>
			<path id="Path_45" class="st4" d="M214.1,424.9v19.9l-21.9-15.2v-6.9l9.7-6.4L214.1,424.9z"/>
			<path id="Path_46" class="st6" d="M137.4,505.9c-7.6-6.2-16.5-11.2-25.1-11.7c-6.4-0.7-10,1.4-13.3,6.8c-4.6,6.5-4.4,13-4.4,20.2
				v5.3c0.3,17.2,6.6,35,16.6,48.9c9.2,12.7,24.7,27.1,41.5,29.8c6.1,0.2,9.8-1.7,13.3-6.8c0.4-0.7,0.8-1.3,1.1-2
				c0.2-0.4,0.3-0.7,0.5-1c1.7-4.4,2.6-9,2.8-13.7c0.1-1.4,0.1-2.8,0.1-4.2v-4c0-1.5,0-3-0.1-4.6c-0.1-1.6-0.2-3-0.4-4.6
				c0-0.1,0-0.1,0-0.2l-0.1-0.8c-0.7-5.7-2-11.4-3.9-16.9c-3.6-9-8.3-17.6-13.9-25.5C147.8,515.5,142.8,510.4,137.4,505.9
				L137.4,505.9z M181,298.9v341.9L-24.7,498.7V156.8L181,298.9z M170.3,514.6v-91.7l-20.8-14.4V445l-18.7-12.9l-12.3-8.5v-36.5
				L97,372.3V464l21.5,14.8v-38.5l30.9,21.4v38.5L170.3,514.6z M170.3,407.8v-91.7l-20.8-14.4v57.2l-19.7-50.6l-10.7-27.5L97.6,266
				v91.7l21.5,14.8v-57.1l30.3,78.1L170.3,407.8z M92.6,354.1l-10.8-26.2L63,282.4l29.7-20l-0.9-0.6l-0.9-0.6l-3.8-2.6l-16.3-11.3
				l-4-2.8l-25.9,22.6v-40.5l-21.5-14.8v91.7l21.5,14.8v-23.9l0.9-0.5l7.3-3.8l18.9,47L92.6,354.1z M84.4,385.3l4.4-18.8L68,352.1
				l-10.1,50.8l-7.6-41.8l-1.6-8.6l-2.8-15.7l-17.7-12.2l-12,49.5L6.1,309.3l-20.8-14.4L4.2,399.7l21.5,14.8l8.9-35l2.5-9.6l12,60.8
				l21.5,14.9l8-34.4L84.4,385.3z M88.3,489.6V473L74,463.2l-20.8-14.4l-25.9-17.9L15,422.4V439l25.9,17.9V532l20.8,14.4v-75.1
				L88.3,489.6z"/>
			<path id="Path_47" class="st2" d="M144,581.6l25.9-17.2c0.2,1.5,0.3,3,0.4,4.6c0.1,1.6,0.1,3,0.1,4.6v4c0,1.4,0,2.8-0.1,4.2
				c-0.1,4.7-1,9.3-2.8,13.7c-0.1,0.4-0.3,0.7-0.5,1c-0.3,0.7-0.7,1.4-1.1,2c-3.4,5-7.2,6.9-13.3,6.8c-16.8-2.8-32.4-17.1-41.5-29.8
				c-10-13.9-16.3-31.7-16.6-48.9v-5.3c0-7.2-0.2-13.7,4.4-20.2c3.3-5.4,6.9-7.5,13.3-6.8c8.7,0.5,17.5,5.5,25.1,11.7l-15.8,10.5
				c-5,1.8-5.9,10.2-6.2,16.6v6.6c0,8.1,1.5,16.1,4.4,23.6c2.5,5.4,5.4,10.1,10,14C133.3,580.2,139.3,584.8,144,581.6L144,581.6z"/>
			<path id="Path_48" class="st3" d="M170.3,486.3v28.2l-20.8-14.4L170.3,486.3z"/>
			<path id="Path_49" class="st4" d="M170.3,447.8v38.5l-20.8,13.8v-38.5L170.3,447.8z"/>
			<path id="Path_50" class="st3" d="M170.3,431.2v16.6l-20.8,13.8l-31-21.4l12.3-8.1l18.7,12.9L170.3,431.2z"/>
			<path id="Path_51" class="st1" d="M170.3,422.9v8.3L149.5,445v-36.5L170.3,422.9z"/>
			<path id="Path_52" class="st3" d="M170.3,379.6v28.2l-20.8-14.4L170.3,379.6z"/>
			<path id="Path_53" class="st4" d="M170.3,345v34.6l-20.8,13.8l-30.3-78.1l10.7-7.1l19.7,50.6L170.3,345z"/>
			<path id="Path_54" class="st1" d="M170.3,316.1V345l-20.8,13.8v-57.1L170.3,316.1z"/>
			<path id="Path_55" class="st0" d="M121.6,516.4c1.7-0.6,3.9-0.5,6.8,0.7c7.4,3.3,13.7,11.4,16.7,18.4c3,7.6,3.8,15.2,3.8,23.2v4
				c0,4.6-0.2,13.9-3.8,18c-0.3,0.3-0.7,0.6-1.1,0.9c-4.7,3.2-10.7-1.4-14.2-4.4c-4.6-4-7.5-8.6-10-14c-2.9-7.5-4.4-15.6-4.4-23.6
				V533C115.7,526.5,116.6,518.2,121.6,516.4z"/>
			<path id="Path_56" class="st4" d="M169.9,564.2c0,0.1,0,0.1,0,0.2L144,581.6l0,0c0.4-0.3,0.8-0.6,1.1-0.9
				c3.6-4.1,3.8-13.4,3.8-18v-4c0-8.1-0.8-15.6-3.8-23.2c-3-7-9.4-15.1-16.7-18.4c-2.8-1.3-5-1.4-6.8-0.7l15.8-10.5
				c5.4,4.5,10.4,9.6,14.7,15.1c5.6,7.9,10.3,16.5,13.9,25.5c1.9,5.5,3.2,11.1,3.9,16.9L169.9,564.2z"/>
			<path id="Path_57" class="st2" d="M130.7,432.1l-12.3,8.1v9.5l-21.5,14.2v-91.7l21.5,14.8v36.6L130.7,432.1z"/>
			<path id="Path_58" class="st2" d="M119.1,280.8l10.7,27.5l-10.7,7.1v28.1l-21.5,14.2V266L119.1,280.8z"/>
			<path id="Path_59" class="st3" d="M119.1,343.4v29.1l-21.5-14.8L119.1,343.4z"/>
			<path id="Path_60" class="st3" d="M118.5,449.7v29.1L97,464L118.5,449.7z"/>
			<path id="Path_61" class="st3" d="M81.7,327.9l10.8,26.2l-24.6-17L81.7,327.9z"/>
			<path id="Path_62" class="st3" d="M90.8,261.2l-50.1,33.2v23.9l-21.5-14.8l67.7-44.9L90.8,261.2z"/>
			<path id="Path_63" class="st1" d="M88.8,366.6l-4.4,18.8L57.8,403l10.1-50.8L88.8,366.6z"/>
			<path id="Path_64" class="st3" d="M88.3,472.9v16.6l-26.5-18.3l12.3-8.1L88.3,472.9z"/>
			<path id="Path_65" class="st2" d="M87,258.6l-67.7,44.9v-91.7l21.5,14.8v40.5l29.9-19.8L87,258.6z"/>
			<path id="Path_66" class="st4" d="M84.4,385.3l-6,25.9L49,430.7l-12-60.8l13.3-8.8l7.6,41.8L84.4,385.3z"/>
			<path id="Path_67" class="st4" d="M62.9,282.4l18.8,45.5L67.9,337L49,290l42.7-28.3l0.9,0.6L62.9,282.4z"/>
			<path id="Path_68" class="st3" d="M78.4,411.2l-8,34.4l-21.5-14.8L78.4,411.2z"/>
			<path id="Path_69" class="st4" d="M53.2,448.7L74,463.1l-12.3,8.1v46.9l-20.8,13.8v-75.1L53.2,448.7z"/>
			<path id="Path_70" class="st1" d="M70.7,247.3l-29.9,19.8l25.9-22.6L70.7,247.3z"/>
			<path id="Path_71" class="st3" d="M61.7,518.1v28.2l-20.8-14.4L61.7,518.1z"/>
			<path id="Path_72" class="st3" d="M27.3,430.8l25.9,17.9l-12.3,8.1L15,438.9L27.3,430.8z"/>
			<path id="Path_73" class="st2" d="M50.3,361.2L37,370l-2.5,9.6L4.1,399.7L-14.8,295L6,309.4l10.1,64.8l32.5-21.6L50.3,361.2z"/>
			<path id="Path_74" class="st1" d="M45.8,336.9l2.9,15.7l-32.5,21.6l12-49.5L45.8,336.9z"/>
			<path id="Path_75" class="st3" d="M34.5,379.6l-8.9,35L4.1,399.8L34.5,379.6z"/>
			<path id="Path_76" class="st2" d="M27.3,430.8L15,438.9v-16.6L27.3,430.8z"/>
			<path id="Path_77" class="st7" d="M181,640.9l236.5-156.8V142.2"/>
		</g>
	</g>
</g>
</svg>
