<svg id="Group_36" data-name="Group 36" xmlns="http://www.w3.org/2000/svg" viewBox="0 0 1440 811">
  <defs>
    <style>
      .cls-1 {
        fill: #fff;
      }

      .cls-2 {
        fill: #ffd1c9;
      }

      .cls-3 {
        fill: #17bcbc;
      }

      .cls-4 {
        fill: #4f54ff;
      }

      .cls-5 {
        fill: #ff9695;
      }

      .cls-6 {
        fill: #fbe834;
      }

      .cls-7 {
        fill: #ffefef;
      }

      .cls-8 {
        fill: none;
        stroke: #ffd1c9;
        stroke-linecap: round;
        stroke-miterlimit: 10;
        stroke-width: 2.12px;
      }
    </style>
  </defs>
  <rect id="Rectangle_28" data-name="Rectangle 28" class="cls-1" width="1440" height="810"/>
  <g id="Group_4" data-name="Group 4" transform="translate(17365.941 5119.003) rotate(-90)">
    <path id="Shape" class="cls-2" d="M44.319,29.707l-29.188,14.9L0,14.9,29.188,0Z" transform="translate(4770.726 -16815.221)"/>
    <path id="Shape-2" data-name="Shape" class="cls-3" d="M33.419,24.931,8.492,33.425,0,8.493,24.927,0Z" transform="translate(4861.029 -17338.102)"/>
    <path id="Shape-3" data-name="Shape" class="cls-4" d="M31.887,47.331,0,31.893,15.436,0,47.323,15.438Z" transform="translate(4877.386 -17037.125)"/>
    <path id="Shape-4" data-name="Shape" class="cls-5" d="M30.436,44.476,0,30.441,14.032,0,44.468,14.035Z" transform="translate(4765.229 -15995.158)"/>
    <path id="Shape-5" data-name="Shape" class="cls-2" d="M37.839,18.923,18.92,37.846,0,18.923,18.92,0Z" transform="translate(4935.11 -17208.711)"/>
    <path id="Shape-6" data-name="Shape" class="cls-6" d="M26.758,26.763H0V0H26.758Z" transform="matrix(0.616, 0.788, -0.788, 0.616, 4753.864, -17134.313)"/>
    <path id="Shape-7" data-name="Shape" class="cls-3" d="M47.371,30.441,16.936,47.38,0,16.939,30.436,0Z" transform="translate(4790.493 -16531.268)"/>
    <path id="Shape-8" data-name="Shape" class="cls-5" d="M24.823,36.249,0,24.827,11.419,0,36.242,11.421Z" transform="translate(4906.952 -16646.09)"/>
    <path id="Shape-9" data-name="Shape" class="cls-6" d="M26.855,28.989,0,27.344,1.645,0,28.5,1.646Z" transform="translate(4989.565 -16784.715)"/>
    <path id="Shape-10" data-name="Shape" class="cls-6" d="M26.855,28.989,0,27.344,1.645,0,28.5,1.646Z" transform="translate(4922.565 -16138.715)"/>
    <path id="Shape-11" data-name="Shape" class="cls-4" d="M20.649,30.65,0,20.653,10,0,30.645,10Z" transform="translate(4935.386 -16409.125)"/>
    <path id="Shape-12" data-name="Shape" class="cls-2" d="M35.013,23.469,11.954,35.241,0,11.772,23.059,0Z" transform="translate(4586.808 -17046.93) rotate(180)"/>
    <path id="Shape-13" data-name="Shape" class="cls-4" d="M31.887,47.331,0,31.893,15.436,0,47.323,15.438Z" transform="translate(4406.454 -16272.658) rotate(180)"/>
    <path id="Shape-14" data-name="Shape" class="cls-5" d="M24.652,36.025,0,24.657,11.366,0,36.018,11.368Z" transform="translate(4609.61 -17291.076) rotate(180)"/>
    <path id="Shape-15" data-name="Shape" class="cls-2" d="M37.839,18.923,18.92,37.846,0,18.923,18.92,0Z" transform="translate(4408.729 -16626.072) rotate(180)"/>
    <path id="Shape-16" data-name="Shape" class="cls-6" d="M26.758,26.763H0V0H26.758Z" transform="matrix(-0.616, -0.788, 0.788, -0.616, 4579.976, -16166.471)"/>
    <path id="Shape-17" data-name="Shape" class="cls-6" d="M26.855,28.989,0,27.344,1.645,0,28.5,1.646Z" transform="translate(4361.274 -17171.068) rotate(180)"/>
    <path id="Shape-18" data-name="Shape" class="cls-4" d="M20.649,30.65,0,20.653,10,0,30.645,10Z" transform="translate(4531.454 -16781.658) rotate(180)"/>
    <path id="Shape-19" data-name="Shape" class="cls-6" d="M26.855,28.989,0,27.344,1.645,0,28.5,1.646Z" transform="translate(4563.565 -16498.715)"/>
    <path id="Shape-20" data-name="Shape" class="cls-4" d="M20.649,30.65,0,20.653,10,0,30.645,10Z" transform="translate(4732.386 -16661.125)"/>
    <path id="Shape-21" data-name="Shape" class="cls-2" d="M37.839,18.923,18.92,37.846,0,18.923,18.92,0Z" transform="translate(4601.11 -16630.711)"/>
  </g>
  <rect id="Rectangle_14" data-name="Rectangle 14" class="cls-6" width="1440" height="244" transform="translate(0 567)"/>
  <g id="Know_Where_To_Go_-_logo" data-name="Know Where To Go - logo" transform="translate(921.959 125.669)">
    <g id="Layer_01" data-name="Layer 01">
      <g id="_Group_" data-name="&lt;Group&gt;">
        <path id="Path_1" data-name="Path 1" class="cls-2" d="M442.208,142.2,205.731,298.949,0,156.754,236.48,0Z"/>
        <path id="Path_2" data-name="Path 2" class="cls-4" d="M1199.343,796.32v16.613l-12.263-8.481Z" transform="translate(-768.293 -515.388)"/>
        <path id="Path_3" data-name="Path 3" class="cls-3" d="M1125.981,827.851,1086,854.359l-12.267-8.484,39.989-26.5Z" transform="translate(-694.931 -530.306)"/>
        <path id="Path_4" data-name="Path 4" class="cls-4" d="M1197.51,1010.36v16.616l-12.27-8.481Z" transform="translate(-767.102 -653.918)"/>
        <path id="Path_5" data-name="Path 5" class="cls-3" d="M1107.618,1041.9l-61.269,40.616v-46.3l21.926,15.152,27.073-17.946Z" transform="translate(-677.211 -668.842)"/>
        <path id="Path_6" data-name="Path 6" class="cls-4" d="M1181.079,912.05v16.606l-12.259-8.481Z" transform="translate(-756.475 -590.29)"/>
        <path id="Path_7" data-name="Path 7" class="cls-3" d="M1101.815,941.626l-33.539,22.229-21.926-15.149V932.09l21.926,15.159,21.28-14.1Z" transform="translate(-677.211 -603.26)"/>
        <path id="Path_8" data-name="Path 8" class="cls-4" d="M1033.976,537.55l-18.7,104.1L983.21,619.485l-2.12-7.67L967.62,602.5l1.679-9.045,33.074,22.857,10.319-64.645Z" transform="translate(-626.256 -347.909)"/>
        <path id="Path_9" data-name="Path 9" class="cls-2" d="M1068.276,994.339v21.929l-21.926-15.152V979.19Z" transform="translate(-677.211 -633.744)"/>
        <path id="Path_10" data-name="Path 10" class="cls-2" d="M1068.276,902.984V922.92l-21.926-15.159v-6.855l9.659-6.407Z" transform="translate(-677.211 -578.931)"/>
        <path id="Path_11" data-name="Path 11" class="cls-3" d="M1043.871,791.966,1021.942,806.5l-10.132-36.7Z" transform="translate(-654.856 -498.224)"/>
        <path id="Path_12" data-name="Path 12" class="cls-2" d="M993.2,619.95l12.252,49.69L972.38,646.783l2.766-14.856Z" transform="translate(-629.336 -401.239)"/>
        <path id="Path_13" data-name="Path 13" class="cls-5" d="M952.312,1131.472v.667L916,1107.035h0a27.4,27.4,0,0,0,7.271-6.855l10.347,7.151Z" transform="translate(-592.847 -712.05)"/>
        <path id="Path_14" data-name="Path 14" class="cls-1" d="M949.138,1327.49v3.99c0,8.04-.79,15.561-3.881,23.16a34.033,34.033,0,0,1-10.153,13.872c-4.061,3.238-10.273,7.408-15.639,3.228-3.764-4.29-4.516-12.57-4.516-17.6v-6.646c.353-9.751,1.919-18.3,7.458-26.759a33.938,33.938,0,0,1,9.807-9.938c3.285-2.194,7.853-4.166,11.787-2.138a7.743,7.743,0,0,1,1.256.8C948.906,1313.6,949.138,1322.837,949.138,1327.49Z" transform="translate(-592.167 -846.429)"/>
        <path id="Path_15" data-name="Path 15" class="cls-1" d="M629.88,552.461a90.353,90.353,0,0,0-15.646,16,78.9,78.9,0,0,0-13.54,24.924,74.145,74.145,0,0,0-3.948,16.32,76.056,76.056,0,0,0-.568,9.931v5.316c0,16.4,6.795,30.442,25.228,24.847,12.75-3.881,26.148-15.875,34.111-25.644a97.533,97.533,0,0,0,13.54-24.924,80.386,80.386,0,0,0,4.516-26.907V568.34c0-7.451-.31-14.182-4.516-20.931a17.546,17.546,0,0,0-14.189-6.544C646.277,541.648,637.478,546.435,629.88,552.461Zm7.683,139.2-21.276,14.112V685.832l39.981-26.5V642.711L644,650.825l-39.985,26.519-9.659,6.4v91.7l48.24-31.98,10.481-6.95,2.547-1.686V718.225l-12.259,8.114h0L616.3,744.285V722.356l33.539-22.226V683.518Zm5.779,66.525a84.956,84.956,0,0,0-15.142,9.063A90.092,90.092,0,0,0,611.856,783.3c-9.388,13.381-15.484,26.3-17.015,42.035a78.56,78.56,0,0,0-.4,8.714v7.969c.378,7.567,1.686,19.89,10.957,23.284,15.664,7.218,40.666-16.274,49.037-24.515,5.383-5.793,10.439-11.6,14.189-18.7V784.217L640.64,802.76l-4.107,2.727-4.039,2.671v14.623l14.817-9.836v14.623a38.952,38.952,0,0,1-11.737,11.773c-3.415,2.233-10.742,7.112-15.357,3.528-4.812-5.489-4.509-11.176-4.509-17.6v-5.324a59.909,59.909,0,0,1,4.509-22.931c3.08-6.484,6.7-11.737,12.863-15.833,4.417-2.935,8.375-4.523,11.148-3.076,1.813.945,3.122,3.175,3.726,7.172l20.642-13.685c-.441-6.523-2.681-14.464-10.326-16.412a15.975,15.975,0,0,0-3.362-.187,21.952,21.952,0,0,0-3.708.473q-1.012.215-2,.5c-.741.212-1.471.452-2.2.706s-1.411.519-2.117.815q-.748.335-1.542.7ZM789.773,590.763l-21.28,14.112V584.931l39.985-26.5V541.81l-12.263,8.114-39.988,26.508-9.659,6.4v91.7l61.261-40.6V617.321l-12.27,8.135L768.486,643.4V621.473l33.539-22.226V582.638Zm-95.831,26.971-20.109,13.335-8.53,5.645v91.7L686.59,714.3v-31.9l11.61-7.7,15.135,21.167h0l.325.466,12.683-8.407,10.541-6.985v-.667l-18.7-24.148A66.236,66.236,0,0,0,729.8,637.786a43.879,43.879,0,0,0,3.863-18.588c0-6.057-1.122-14.076-9.024-14.538-8.047-1.118-18.659,5.055-24.515,8.936Zm40.44-85.279,10.132,36.69,21.929-14.528,18.7-104.1-21.287,14.112-10.308,64.652-12.252-49.673-18.056,11.96-2.766,14.852-1.679,9.046L710.985,557.5l-10.326-50.967-21.284,14.112,4.438,18.087,6.142,25.048,8.767,35.755,21.936-14.538,11.6-60.186ZM819.64,403.08v341.9L583.16,901.738V559.827ZM751.81,758.309a80.484,80.484,0,0,0,4.516-26.918v-3.979c0-7.461-.31-14.186-4.516-20.938a17.54,17.54,0,0,0-14.189-6.537c-9.807.882-16.87,5.313-24.289,11l-.73.565h0c-.184.148-.353.3-.55.441a81.137,81.137,0,0,0-7.73,7.088c-.261.264-.519.536-.773.8q-3.45,3.7-6.555,7.694a78.926,78.926,0,0,0-13.54,24.924,73.939,73.939,0,0,0-3.948,16.313,76.679,76.679,0,0,0-.568,9.938v5.313c0,16.4,6.795,30.439,25.228,24.847,12.75-3.881,26.149-15.875,34.1-25.637a97.462,97.462,0,0,0,13.54-24.917Z" transform="translate(-377.428 -260.878)"/>
        <path id="Path_16" data-name="Path 16" class="cls-4" d="M936.9,988.906a43.88,43.88,0,0,1-3.863,18.588,66.239,66.239,0,0,1-11.614,18.345l-10.347-7.151a25.383,25.383,0,0,0,2.9-5.366c1.7-4.286,3.27-11.938-1.58-15.385L897.18,987.421l6.181-4.1c5.856-3.881,16.468-10.054,24.515-8.936C935.778,974.83,936.893,982.849,936.9,988.906Z" transform="translate(-580.666 -630.548)"/>
        <path id="Path_17" data-name="Path 17" class="cls-5" d="M916.918,730.967l-11.6,60.186-30.7-21.217L868.47,744.9l27.172,18.775,7.807-42.028Z" transform="translate(-562.085 -467.061)"/>
        <path id="Path_18" data-name="Path 18" class="cls-3" d="M916.583,879.736l-21.936,14.539L885.88,858.52Z" transform="translate(-573.353 -555.645)"/>
        <path id="Path_19" data-name="Path 19" class="cls-4" d="M889.026,1255.54c7.409-5.687,14.482-10.118,24.289-11a17.565,17.565,0,0,1,14.189,6.537c4.205,6.752,4.516,13.477,4.516,20.938v3.979a80.493,80.493,0,0,1-4.516,26.917,97.462,97.462,0,0,1-13.547,24.925c-7.956,9.776-21.354,21.771-34.1,25.637-18.433,5.592-25.228-8.467-25.228-24.847v-5.313a76.682,76.682,0,0,1,.568-9.938h.028l25.207,17.406c5.366,4.191,11.579,0,15.639-3.228a34.1,34.1,0,0,0,10.153-13.872c3.083-7.6,3.881-15.12,3.881-23.161v-3.979c0-4.653-.233-13.885-3.881-18.031a7.75,7.75,0,0,0-1.256-.8l.032-.063-16.69-11.533h0Z" transform="translate(-553.123 -805.482)"/>
        <path id="Path_20" data-name="Path 20" class="cls-2" d="M889.353,1277.321l16.69,11.522-.032.064c-3.934-2.028-8.5-.056-11.786,2.138a33.933,33.933,0,0,0-9.808,9.938c-5.539,8.467-7.094,17.008-7.458,26.759v6.647c0,5.034.752,13.314,4.516,17.6l-25.207-17.417h-.028a73.923,73.923,0,0,1,3.948-16.313,78.923,78.923,0,0,1,13.54-24.924c2.067-2.667,4.255-5.221,6.555-7.694.254-.268.511-.54.773-.8a81.136,81.136,0,0,1,7.73-7.087c.187-.145.353-.293.55-.441h0Z" transform="translate(-554.169 -826.691)"/>
        <path id="Path_21" data-name="Path 21" class="cls-2" d="M877.174,696.31,887.5,747.277,860.328,728.5l-4.438-18.088Z" transform="translate(-553.943 -450.661)"/>
        <path id="Path_22" data-name="Path 22" class="cls-3" d="M875.495,1022.053c-2.822-1.037-7.017,1.333-9.031,2.657l-13.536,8.985-12.757-8.82,20.109-13.336Z" transform="translate(-543.769 -654.681)"/>
        <path id="Path_23" data-name="Path 23" class="cls-1" d="M898.9,1040.871c4.851,3.447,3.285,11.1,1.581,15.385a25.377,25.377,0,0,1-2.9,5.365,27.384,27.384,0,0,1-7.271,6.855c-.148.109-.3.2-.445.3l-13.536,8.985v-25.252l13.536-8.985C891.881,1042.2,896.079,1039.834,898.9,1040.871Z" transform="translate(-567.172 -673.5)"/>
        <path id="Path_24" data-name="Path 24" class="cls-5" d="M848.887,1131.344l-11.61,7.7-21.287-14.711V1108.61Z" transform="translate(-528.119 -717.506)"/>
        <path id="Path_25" data-name="Path 25" class="cls-2" d="M837.277,1167.891v31.9l-21.287-14.708v-31.9Z" transform="translate(-528.119 -746.353)"/>
        <path id="Path_26" data-name="Path 26" class="cls-2" d="M837.277,1058.153v25.252l-21.287-14.718v-13.709l8.53-5.648Z" transform="translate(-528.119 -679.139)"/>
        <path id="Path_27" data-name="Path 27" class="cls-3" d="M837.284,1118.918l13.537-8.986c.148-.1.3-.194.444-.3h0l36.319,25.1-10.541,6.985-12.676,8.414-.325-.465h0L848.908,1128.5,816,1105.756V1104.2Z" transform="translate(-528.125 -714.652)"/>
        <path id="Path_28" data-name="Path 28" class="cls-3" d="M837.277,1258.307l-21.287,14.1V1243.6Z" transform="translate(-528.119 -804.873)"/>
        <path id="Path_29" data-name="Path 29" class="cls-4" d="M774.066,1483.44v37.875l-27.976-19.333Z" transform="translate(-482.879 -960.101)"/>
        <path id="Path_30" data-name="Path 30" class="cls-3" d="M751.265,1420.26l-20.641,13.685c-.6-3.987-1.912-6.227-3.725-7.172l.155-.286-15.135-10.457-1.058-.117A84.949,84.949,0,0,1,726,1406.851q.779-.353,1.573-.706c.706-.3,1.411-.564,2.117-.815Z" transform="translate(-460.078 -909.547)"/>
        <path id="Path_31" data-name="Path 31" class="cls-4" d="M767.886,1082.31v16.616l-12.266-8.481Z" transform="translate(-489.047 -700.484)"/>
        <path id="Path_32" data-name="Path 32" class="cls-3" d="M694.531,1113.851l-39.981,26.505-12.27-8.481,39.985-26.505Z" transform="translate(-415.692 -715.409)"/>
        <path id="Path_33" data-name="Path 33" class="cls-4" d="M766.079,1296.38v16.605L753.82,1304.5Z" transform="translate(-487.882 -839.034)"/>
        <path id="Path_34" data-name="Path 34" class="cls-3" d="M676.169,1327.891l-2.547,1.686-10.481,6.95-48.24,31.98v-46.3l21.929,15.152L663.9,1319.41h.011Z" transform="translate(-397.971 -853.939)"/>
        <path id="Path_35" data-name="Path 35" class="cls-1" d="M714.569,876.6v3.976c0,8.04-.79,15.568-3.881,23.168a34.053,34.053,0,0,1-10.157,13.871c-4.057,3.239-10.27,7.409-15.636,3.232-3.764-4.29-4.516-12.58-4.516-17.608V896.6c.353-9.751,1.919-18.3,7.458-26.77a34.125,34.125,0,0,1,9.807-9.931c3.281-2.2,7.853-4.173,11.787-2.145a8.187,8.187,0,0,1,1.256.8C714.336,862.713,714.569,871.938,714.569,876.6Z" transform="translate(-440.351 -554.602)"/>
        <path id="Path_36" data-name="Path 36" class="cls-4" d="M749.633,1198.04v16.606l-12.263-8.481Z" transform="translate(-477.235 -775.387)"/>
        <path id="Path_37" data-name="Path 37" class="cls-3" d="M670.369,1227.616l-33.539,22.229L614.9,1234.7V1218.08l21.929,15.159,21.277-14.1Z" transform="translate(-397.971 -788.357)"/>
        <path id="Path_38" data-name="Path 38" class="cls-4" d="M775.448,1400.75c7.645,1.933,9.878,9.878,10.326,16.412l-21.594-14.92c.727-.254,1.457-.494,2.2-.706q.988-.285,2-.5a21.9,21.9,0,0,1,3.708-.473,15.957,15.957,0,0,1,3.362.187Z" transform="translate(-494.587 -906.449)"/>
        <path id="Path_39" data-name="Path 39" class="cls-5" d="M737.845,1551.181l-14.835,9.836v-14.623l4.036-2.674Z" transform="translate(-467.941 -999.115)"/>
        <path id="Path_40" data-name="Path 40" class="cls-5" d="M654.8,826.51l16.669,11.519-.032.053c-3.933-2.029-8.506-.053-11.787,2.145a34.117,34.117,0,0,0-9.807,9.931c-5.539,8.467-7.095,17.018-7.458,26.769v6.643c0,5.027.751,13.318,4.516,17.608L621.7,883.757h-.028a74.145,74.145,0,0,1,3.948-16.32,78.892,78.892,0,0,1,13.54-24.924,90.353,90.353,0,0,1,15.646-16Z" transform="translate(-402.353 -534.928)"/>
        <path id="Path_41" data-name="Path 41" class="cls-2" d="M650.7,1435.446l15.135,10.457-.155.286c-2.773-1.446-6.731.141-11.148,3.076-6.163,4.1-9.783,9.349-12.863,15.833a59.91,59.91,0,0,0-4.509,22.931v5.323c0,6.428-.3,12.115,4.509,17.6l-25.337-17.533h-.06c1.531-15.731,7.627-28.654,17.015-42.035a90.11,90.11,0,0,1,16.345-16.059Z" transform="translate(-398.858 -928.963)"/>
        <path id="Path_42" data-name="Path 42" class="cls-4" d="M645.858,879.9c5.366,4.184,11.578,0,15.635-3.232A34.148,34.148,0,0,0,671.65,862.8c3.083-7.6,3.881-15.128,3.881-23.167v-3.979c0-4.664-.233-13.889-3.881-18.042a8.188,8.188,0,0,0-1.256-.8l.032-.053-16.669-11.519c7.6-6.026,16.4-10.813,24.988-11.6a17.57,17.57,0,0,1,14.189,6.544c4.205,6.749,4.516,13.48,4.516,20.931v3.99a80.381,80.381,0,0,1-4.516,26.907,97.535,97.535,0,0,1-13.54,24.924c-7.963,9.783-21.361,21.774-34.111,25.644-18.433,5.6-25.228-8.467-25.228-24.847v-5.32a76.024,76.024,0,0,1,.568-9.931h.028Z" transform="translate(-401.306 -513.654)"/>
        <path id="Path_43" data-name="Path 43" class="cls-3" d="M640.909,1576.1c4.615,3.588,11.942-1.291,15.357-3.528A38.96,38.96,0,0,0,668,1560.8v-14.623l-10.8-7.458,4.107-2.727,27.976,19.333c-3.75,7.109-8.82,12.919-14.189,18.7-8.357,8.241-33.36,31.751-49.037,24.515-9.271-3.408-10.584-15.731-10.957-23.284v-7.966a78.533,78.533,0,0,1,.4-8.714h.06Z" transform="translate(-398.099 -994.112)"/>
        <path id="Path_44" data-name="Path 44" class="cls-5" d="M636.829,1280.329v21.929L614.9,1287.106V1265.18Z" transform="translate(-397.971 -818.84)"/>
        <path id="Path_45" data-name="Path 45" class="cls-5" d="M636.829,1188.981v19.936L614.9,1193.757V1186.9l9.659-6.4Z" transform="translate(-397.971 -764.034)"/>
        <path id="Path_46" data-name="Path 46" class="cls-7" d="M162.116,793.473c-7.585-6.181-16.468-11.176-25.122-11.695-6.41-.706-9.959,1.411-13.268,6.777-4.586,6.484-4.413,12.99-4.413,20.2v5.313c.31,17.188,6.6,35,16.581,48.868,9.172,12.725,24.734,27.062,41.534,29.835,6.1.169,9.822-1.736,13.261-6.777a22.234,22.234,0,0,0,1.1-2.014c.155-.353.3-.66.452-1A39.968,39.968,0,0,0,195,869.312c.078-1.411.106-2.791.106-4.184v-3.99c0-1.517-.028-3.034-.106-4.561s-.194-3.045-.353-4.562a1.038,1.038,0,0,0,0-.18l-.092-.811A82.954,82.954,0,0,0,190.7,834.16a121.185,121.185,0,0,0-13.9-25.545,93.344,93.344,0,0,0-14.69-15.141Zm43.615-206.949V928.435L0,786.237V444.33ZM195,802.145v-91.7l-20.846-14.4v36.542L155.47,719.67,143.2,711.2V674.654l-21.471-14.842v91.679L143.2,766.33V727.8l30.95,21.4V787.74Zm0-106.757V603.673l-20.846-14.4v57.151L154.5,595.8l-10.665-27.479-21.478-14.842v91.693l21.478,14.849V602.873l30.315,78.1ZM117.305,641.7l-10.834-26.173-18.846-45.51L117.305,550l-.882-.614-.85-.589-3.814-2.628L95.45,534.88l-4.036-2.787L65.52,554.724V514.2L44.042,499.354v91.7L65.52,605.9V581.97l.907-.473,7.306-3.817,18.945,46.984Zm-8.139,31.222,4.353-18.8-20.843-14.4L82.552,690.547l-7.581-41.795L73.4,640.169l-2.847-15.724-17.685-12.22-11.995,49.51-10.1-64.793L9.938,582.534l18.945,104.8L50.36,702.172l8.908-35,2.47-9.649,11.995,60.8L95.2,733.178l7.962-34.358Zm3.824,104.217V760.519l-14.26-9.85L77.888,736.261,52,718.361l-12.27-8.467v16.613l25.895,17.9v75.087L86.465,833.9V758.8Z" transform="translate(0 -287.576)"/>
        <path id="Path_47" data-name="Path 47" class="cls-3" d="M387.618,1487.992l25.909-17.17c.155,1.517.272,3.045.353,4.562s.106,3.044.106,4.561v3.99c0,1.411-.028,2.787-.106,4.184a39.967,39.967,0,0,1-2.766,13.671c-.148.353-.3.663-.452,1a22.274,22.274,0,0,1-1.1,2.014c-3.44,5.041-7.158,6.946-13.261,6.777-16.8-2.773-32.375-17.11-41.534-29.835-9.973-13.865-16.264-31.68-16.581-48.868v-5.313c0-7.211-.169-13.717,4.413-20.2,3.309-5.37,6.858-7.468,13.268-6.777,8.654.519,17.537,5.514,25.122,11.7L365.2,1422.744c-5.02,1.827-5.927,10.185-6.174,16.581v6.646a65.5,65.5,0,0,0,4.413,23.625c2.5,5.4,5.4,10.066,10,14.018,3.44,2.942,9.433,7.542,14.168,4.367Z" transform="translate(-218.879 -906.394)"/>
        <path id="Path_48" data-name="Path 48" class="cls-4" d="M514.486,1378.58V1406.8L493.64,1392.4Z" transform="translate(-319.49 -892.234)"/>
        <path id="Path_49" data-name="Path 49" class="cls-5" d="M514.486,1269.33v38.542l-20.846,13.815v-38.538Z" transform="translate(-319.49 -821.526)"/>
        <path id="Path_50" data-name="Path 50" class="cls-4" d="M457.706,1222.26v16.606l-20.846,13.819-30.95-21.393,12.27-8.135,18.68,12.912Z" transform="translate(-262.71 -791.062)"/>
        <path id="Path_51" data-name="Path 51" class="cls-2" d="M514.486,1172.224v8.329l-20.846,13.808V1157.82Z" transform="translate(-319.49 -749.356)"/>
        <path id="Path_52" data-name="Path 52" class="cls-4" d="M514.486,1075.97v28.223l-20.846-14.408Z" transform="translate(-319.49 -696.381)"/>
        <path id="Path_53" data-name="Path 53" class="cls-5" d="M458.871,910.509v34.555L438.025,958.88l-30.315-78.1,10.665-7.073,19.65,50.618Z" transform="translate(-263.875 -565.476)"/>
        <path id="Path_54" data-name="Path 54" class="cls-2" d="M514.486,869.614v28.922L493.64,912.354V855.21Z" transform="translate(-319.49 -553.503)"/>
        <path id="Path_55" data-name="Path 55" class="cls-1" d="M403.454,1462.937c1.729-.643,3.934-.512,6.777.744,7.359,3.253,13.709,11.377,16.733,18.394,3.013,7.631,3.785,15.17,3.785,23.224v3.983c0,4.586-.208,13.865-3.785,17.992a7.441,7.441,0,0,1-1.108.914c-4.734,3.175-10.728-1.411-14.168-4.368-4.586-3.951-7.5-8.622-9.991-14.005a65.52,65.52,0,0,1-4.417-23.637v-6.646C397.534,1473.122,398.434,1464.764,403.454,1462.937Z" transform="translate(-257.125 -946.586)"/>
        <path id="Path_56" data-name="Path 56" class="cls-5" d="M463.087,1492.351a1.039,1.039,0,0,1,0,.18l-25.909,17.17h0a7.43,7.43,0,0,0,1.108-.914c3.577-4.113,3.785-13.385,3.785-17.992v-3.987c0-8.051-.773-15.593-3.785-23.224-3.013-7.006-9.363-15.121-16.719-18.387-2.843-1.256-5.048-1.387-6.777-.745L430.574,1434a93.364,93.364,0,0,1,14.669,15.142,121.183,121.183,0,0,1,13.9,25.546,82.95,82.95,0,0,1,3.856,16.863Z" transform="translate(-268.457 -928.103)"/>
        <path id="Path_57" data-name="Path 57" class="cls-3" d="M378.791,1114.974l-12.27,8.135v9.462L345.05,1146.81v-91.7l21.471,14.838V1106.5Z" transform="translate(-223.321 -682.88)"/>
        <path id="Path_58" data-name="Path 58" class="cls-3" d="M368.308,768.592l10.665,27.479-10.665,7.073v28.071L346.83,845.443V753.75Z" transform="translate(-224.473 -487.836)"/>
        <path id="Path_59" data-name="Path 59" class="cls-4" d="M368.308,973.33V1002.4L346.83,987.558Z" transform="translate(-224.473 -629.951)"/>
        <path id="Path_60" data-name="Path 60" class="cls-4" d="M366.521,1274.68v29.08l-21.471-14.842Z" transform="translate(-223.321 -824.989)"/>
        <path id="Path_61" data-name="Path 61" class="cls-4" d="M276.494,929.59l10.834,26.173L262.7,938.731Z" transform="translate(-170.023 -601.642)"/>
        <path id="Path_62" data-name="Path 62" class="cls-4" d="M196.371,735.615l-50.053,33.173v23.926L124.84,777.872l67.718-44.892Z" transform="translate(-80.798 -474.394)"/>
        <path id="Path_63" data-name="Path 63" class="cls-2" d="M264.994,1012.588l-4.353,18.789-26.6,17.629,10.111-50.826Z" transform="translate(-151.474 -646.034)"/>
        <path id="Path_64" data-name="Path 64" class="cls-4" d="M271.62,1322.52v16.616L245.09,1320.8l12.27-8.132Z" transform="translate(-158.625 -849.576)"/>
        <path id="Path_65" data-name="Path 65" class="cls-3" d="M192.558,647.108,124.84,692V600.3l21.478,14.842v40.532l29.93-19.844Z" transform="translate(-80.798 -388.522)"/>
        <path id="Path_66" data-name="Path 66" class="cls-5" d="M222.4,1047.946l-6,25.895-29.433,19.509-12.005-60.785,13.261-8.785,7.581,41.795Z" transform="translate(-113.236 -662.603)"/>
        <path id="Path_67" data-name="Path 67" class="cls-5" d="M222.886,762.737l18.846,45.513-13.794,9.141L208.99,770.407l42.694-28.3.882.614Z" transform="translate(-135.261 -480.303)"/>
        <path id="Path_68" data-name="Path 68" class="cls-4" d="M238.423,1165.68l-7.962,34.358-21.471-14.849Z" transform="translate(-135.261 -754.443)"/>
        <path id="Path_69" data-name="Path 69" class="cls-5" d="M198.276,1271.83l20.846,14.408-12.27,8.132v46.861l-20.843,13.819v-75.087Z" transform="translate(-120.388 -823.145)"/>
        <path id="Path_70" data-name="Path 70" class="cls-2" d="M215.65,695.9l-29.93,19.844,25.895-22.631Z" transform="translate(-120.2 -448.59)"/>
        <path id="Path_71" data-name="Path 71" class="cls-4" d="M206.853,1468.55v28.227l-20.843-14.408Z" transform="translate(-120.388 -950.464)"/>
        <path id="Path_72" data-name="Path 72" class="cls-4" d="M124.88,1221.09l25.891,17.9-12.266,8.132-25.895-17.9Z" transform="translate(-72.883 -790.305)"/>
        <path id="Path_73" data-name="Path 73" class="cls-3" d="M93.217,902.3l-13.261,8.785L77.5,920.731,47.115,940.879,28.17,836.08l20.843,14.408,10.1,64.793,32.541-21.566Z" transform="translate(-18.232 -541.122)"/>
        <path id="Path_74" data-name="Path 74" class="cls-2" d="M145.567,932.46l2.854,15.724L115.88,969.75l12.005-49.51Z" transform="translate(-74.999 -595.591)"/>
        <path id="Path_75" data-name="Path 75" class="cls-4" d="M112.256,1076.03l-8.908,34.986L81.87,1096.178Z" transform="translate(-52.987 -696.42)"/>
        <path id="Path_76" data-name="Path 76" class="cls-3" d="M124.88,1205.531l-12.27,8.132V1197.05Z" transform="translate(-72.883 -774.746)"/>
        <path id="Path_77" data-name="Path 77" class="cls-8" d="M583.16,901.742,819.637,744.984V403.08" transform="translate(-377.428 -260.878)"/>
      </g>
    </g>
  </g>
</svg>
