<?xml version="1.0" encoding="utf-8"?>
<!-- Generator: Adobe Illustrator 22.1.0, SVG Export Plug-In . SVG Version: 6.00 Build 0)  -->
<svg version="1.1" id="Layer_1" xmlns="http://www.w3.org/2000/svg" xmlns:xlink="http://www.w3.org/1999/xlink" x="0px" y="0px"
	 viewBox="0 0 320 816" style="enable-background:new 0 0 320 816;" xml:space="preserve">
<style type="text/css">
	.st0{fill:#FFFFFF;}
	.st1{fill:#FFD1C9;}
	.st2{fill:#17BCBC;}
	.st3{fill:#4F54FF;}
	.st4{fill:#FF9695;}
	.st5{fill:#FBE834;}
	.st6{fill:#FFEFEF;}
	.st7{fill:none;stroke:#FFD1C9;stroke-width:2.12;stroke-linecap:round;stroke-miterlimit:10;}
</style>
<g id="Group_26" transform="translate(0 -46.5)">
	<rect id="Rectangle_29" y="46.5" class="st0" width="320" height="816"/>
	<g id="Group_20" transform="translate(4600.774 -16664.74) rotate(180)">
		<path id="Shape" class="st1" d="M4514.5-17097.5l-12.7,6.5l-6.6-12.9l12.7-6.5L4514.5-17097.5z"/>
		<path id="Shape-2" class="st2" d="M4549.1-17327.2l-10.8,3.7l-3.7-10.9l10.9-3.7L4549.1-17327.2z"/>
		<path id="Shape-3" class="st3" d="M4555.5-17186.5l-13.9-6.7l6.7-13.9l13.9,6.7L4555.5-17186.5z"/>
		<path id="Shape-4" class="st4" d="M4506.1-16734.1l-13.3-6.1l6.1-13.3l13.3,6.1L4506.1-16734.1z"/>
		<path id="Shape-5" class="st1" d="M4583.2-17273.5l-8.2,8.2l-8.2-8.2l8.2-8.2L4583.2-17273.5z"/>
		<path id="Shape-6" class="st5" d="M4485.8-17233l-7.2-9.2l9.2-7.2l7.2,9.2L4485.8-17233z"/>
		<path id="Shape-7" class="st4" d="M4560.3-16997.1l-10.8-5l5-10.8l10.8,5L4560.3-16997.1z"/>
		<path id="Shape-8" class="st5" d="M4592.2-17089.6l-11.7-0.7l0.7-11.9l11.7,0.7L4592.2-17089.6z"/>
		<path id="Shape-9" class="st2" d="M4573-16803.3l-11.7-0.7l0.7-11.9l11.7,0.7L4573-16803.3z"/>
		<path id="Shape-10" class="st3" d="M4575.9-16920.3l-9-4.4l4.4-9l9,4.4L4575.9-16920.3z"/>
		<path id="Shape-11" class="st1" d="M4399.9-17221.6l10-5.1l5.2,10.2l-10,5.1L4399.9-17221.6z"/>
		<path id="Shape-12" class="st3" d="M4322.7-16894.9l13.9,6.7l-6.7,13.9l-13.9-6.7L4322.7-16894.9z"/>
		<path id="Shape-13" class="st4" d="M4414.3-17333.3l10.7,4.9l-4.9,10.7l-10.7-4.9L4414.3-17333.3z"/>
		<path id="Shape-14" class="st1" d="M4321.1-17036.4l8.2-8.2l8.2,8.2l-8.2,8.2L4321.1-17036.4z"/>
		<path id="Shape-15" class="st5" d="M4414.2-16844.4l7.2,9.2l-9.2,7.2l-7.2-9.2L4414.2-16844.4z"/>
		<path id="Shape-16" class="st4" d="M4293.8-16813.5l10.8,5l-5,10.8l-10.8-5L4293.8-16813.5z"/>
		<path id="Shape-17" class="st5" d="M4305.5-16971.8l11.7,0.7l-0.7,11.9l-11.7-0.7L4305.5-16971.8z"/>
		<path id="Shape-18" class="st5" d="M4305.3-17278l11.7,0.7l-0.7,11.9l-11.7-0.7L4305.3-17278z"/>
		<path id="Shape-19" class="st3" d="M4382-17109.2l9,4.4l-4.4,9l-9-4.4L4382-17109.2z"/>
		<path id="Shape-20" class="st3" d="M4487.5-17016l-9-4.4l4.4-9l9,4.4L4487.5-17016z"/>
		<path id="Shape-21" class="st2" d="M4393.8-16988.9l-8.2,8.2l-8.2-8.2l8.2-8.2L4393.8-16988.9z"/>
	</g>
	<rect id="Rectangle_23" y="557.5" class="st5" width="320" height="305"/>
	<g id="Know_Where_To_Go_-_logo" transform="translate(29.959 345.168)">
		<g id="Layer_01">
			<g id="_Group_">
				<path id="Path_1" class="st1" d="M261.1,84l-139.6,92.5L0,92.5L139.6,0L261.1,84z"/>
				<path id="Path_2" class="st3" d="M254.5,165.9v9.8l-7.2-5L254.5,165.9z"/>
				<path id="Path_3" class="st2" d="M254.5,175.7l-23.6,15.7l-7.2-5l23.6-15.6L254.5,175.7z"/>
				<path id="Path_4" class="st3" d="M254.1,210.4v9.8l-7.2-5L254.1,210.4z"/>
				<path id="Path_5" class="st2" d="M254.1,220.2l-36.2,24v-27.3l12.9,8.9l16-10.6L254.1,220.2z"/>
				<path id="Path_6" class="st3" d="M250.7,190v9.8l-7.2-5L250.7,190z"/>
				<path id="Path_7" class="st2" d="M250.7,199.8l-19.8,13.1l-12.9-8.9v-9.8l12.9,9l12.6-8.3L250.7,199.8z"/>
				<path id="Path_8" class="st3" d="M240.7,112l-11,61.5l-18.9-13.1l-1.3-4.5l-8-5.5l1-5.3l19.5,13.5l6.1-38.2L240.7,112z"/>
				<path id="Path_9" class="st1" d="M230.9,212.9v12.9l-12.9-8.9v-12.9L230.9,212.9z"/>
				<path id="Path_10" class="st1" d="M230.9,191.3v11.8l-12.9-9v-4l5.7-3.8L230.9,191.3z"/>
				<path id="Path_11" class="st2" d="M229.7,173.4l-12.9,8.6l-6-21.7L229.7,173.4z"/>
				<path id="Path_12" class="st1" d="M214.8,129.1l7.2,29.3L202.5,145l1.6-8.8L214.8,129.1z"/>
				<path id="Path_13" class="st4" d="M212.2,247.6v0.4l-21.4-14.8l0,0c1.7-1.1,3.1-2.4,4.3-4l6.1,4.2L212.2,247.6z"/>
				<path id="Path_14" class="st0" d="M210.7,284v2.4c0.2,4.7-0.6,9.3-2.3,13.7c-1.3,3.2-3.3,6-6,8.2c-2.4,1.9-6.1,4.4-9.2,1.9
					c-2.2-2.5-2.7-7.4-2.7-10.4v-3.9c0.2-5.8,1.1-10.8,4.4-15.8c1.5-2.3,3.5-4.3,5.8-5.9c1.9-1.3,4.6-2.5,7-1.3
					c0.3,0.1,0.5,0.3,0.7,0.5C210.6,275.8,210.7,281.3,210.7,284z"/>
				<path id="Path_15" class="st0" d="M149,172.1c-3.5,2.8-6.6,5.9-9.2,9.4c-3.5,4.4-6.2,9.4-8,14.7c-1.1,3.1-1.9,6.3-2.3,9.6
					c-0.2,1.9-0.4,3.9-0.3,5.9v3.1c0,9.7,4,18,14.9,14.7c7.5-2.3,15.4-9.4,20.1-15.1c3.4-4.5,6.1-9.4,8-14.7
					c1.8-5.1,2.7-10.5,2.7-15.9v-2.4c0-4.4-0.2-8.4-2.7-12.4c-2-2.5-5.1-4-8.4-3.9C158.7,165.8,153.5,168.6,149,172.1z M153.6,254.3
					l-12.6,8.3v-11.8l23.6-15.6v-9.8l-7.2,4.8l-23.6,15.7l-5.7,3.8v54.1l28.5-18.9l6.2-4.1l1.5-1V270l-7.2,4.8l0,0l-16,10.6v-13
					l19.8-13.1v-9.8L153.6,254.3z M157,293.6c-3.2,1.5-6.2,3.3-8.9,5.4c-3.6,2.7-6.9,5.9-9.7,9.5c-5.5,7.9-9.1,15.5-10,24.8
					c-0.2,1.7-0.3,3.4-0.2,5.1v4.7c0.2,4.5,1,11.7,6.5,13.7c9.2,4.3,24-9.6,29-14.5c3.3-3.3,6.1-7,8.4-11V309l-16.5,10.9l-2.4,1.6
					l-2.4,1.6v8.6l8.7-5.8v8.6c-1.8,2.8-4.1,5.2-6.9,7c-2,1.3-6.3,4.2-9.1,2.1c-2.8-3.2-2.7-6.6-2.7-10.4v-3.1
					c0-4.6,0.9-9.2,2.7-13.5c1.8-3.8,4-6.9,7.6-9.3c2.6-1.7,4.9-2.7,6.6-1.8c1.1,0.6,1.8,1.9,2.2,4.2l12.2-8.1
					c-0.3-3.9-1.6-8.5-6.1-9.7c-0.7-0.1-1.3-0.1-2-0.1c-0.7,0-1.5,0.1-2.2,0.3c-0.4,0.1-0.8,0.2-1.2,0.3c-0.4,0.1-0.9,0.3-1.3,0.4
					s-0.8,0.3-1.3,0.5C157.6,293.3,157.3,293.5,157,293.6L157,293.6z M243.4,194.8l-12.6,8.3v-11.8l23.6-15.6v-9.8l-7.2,4.8
					l-23.6,15.6l-5.7,3.8v54.1l36.2-24v-9.8l-7.2,4.8l-16,10.6v-12.9l19.8-13.1V190L243.4,194.8z M186.9,210.7l-11.9,7.9l-5,3.3V276
					l12.6-8.3v-18.8l6.9-4.5l8.9,12.5l0,0l0.2,0.3l7.5-5l6.2-4.1v-0.4l-11-14.3c2.9-3.2,5.2-6.9,6.9-10.8c1.6-3.4,2.3-7.2,2.3-11
					c0-3.6-0.7-8.3-5.3-8.6c-4.8-0.7-11,3-14.5,5.3L186.9,210.7z M210.7,160.3l6,21.7l12.9-8.6l11-61.5l-12.6,8.3l-6.1,38.2
					l-7.2-29.3l-10.7,7.1l-1.6,8.8l-1,5.3l-4.6,24.8l-6.1-30.1l-12.6,8.3l2.6,10.7l3.6,14.8l5.2,21.1l13-8.6l6.8-35.5L210.7,160.3z
					 M261.1,84v201.9l-139.6,92.5V176.5L261.1,84z M221,293.7c1.8-5.1,2.7-10.5,2.7-15.9v-2.3c0-4.4-0.2-8.4-2.7-12.4
					c-2-2.5-5.1-4-8.4-3.9c-5.8,0.5-10,3.1-14.3,6.5l-0.4,0.3l0,0c-0.1,0.1-0.2,0.2-0.3,0.3c-1.6,1.3-3.1,2.7-4.6,4.2
					c-0.2,0.2-0.3,0.3-0.5,0.5c-1.4,1.5-2.6,3-3.9,4.5c-3.5,4.4-6.2,9.4-8,14.7c-1.1,3.1-1.9,6.3-2.3,9.6c-0.2,1.9-0.4,3.9-0.3,5.9
					v3.1c0,9.7,4,18,14.9,14.7c7.5-2.3,15.4-9.4,20.1-15.1C216.4,303.9,219.1,298.9,221,293.7L221,293.7z"/>
				<path id="Path_16" class="st3" d="M210.3,211.6c0,3.8-0.7,7.5-2.3,11c-1.7,4-4,7.6-6.9,10.8l-6.1-4.2c0.7-1,1.3-2,1.7-3.2
					c1-2.5,1.9-7-0.9-9.1l-9-6.2l3.6-2.4c3.5-2.3,9.7-5.9,14.5-5.3C209.7,203.3,210.3,208,210.3,211.6z"/>
				<path id="Path_17" class="st4" d="M209.5,155.8l-6.8,35.5l-18.1-12.5l-3.6-14.8l16,11.1l4.6-24.8L209.5,155.8z"/>
				<path id="Path_18" class="st2" d="M202.6,191.3l-13,8.6l-5.2-21.1L202.6,191.3z"/>
				<path id="Path_19" class="st3" d="M198.3,265.7c4.4-3.4,8.5-6,14.3-6.5c3.2-0.1,6.3,1.3,8.4,3.9c2.5,4,2.7,8,2.7,12.4v2.3
					c0,5.4-0.9,10.8-2.7,15.9c-1.9,5.3-4.6,10.2-8,14.7c-4.7,5.8-12.6,12.9-20.1,15.1c-10.9,3.3-14.9-5-14.9-14.7v-3.1
					c0-2,0.1-3.9,0.3-5.9h0l14.9,10.3c3.2,2.5,6.8,0,9.2-1.9c2.7-2.2,4.7-5,6-8.2c1.7-4.4,2.4-9,2.3-13.7V284
					c0-2.7-0.1-8.2-2.3-10.6c-0.2-0.2-0.5-0.3-0.7-0.5l0,0l-9.9-6.8l0,0L198.3,265.7z"/>
				<path id="Path_20" class="st1" d="M197.9,266l9.9,6.8l0,0c-2.3-1.2-5,0-7,1.3c-2.3,1.5-4.3,3.5-5.8,5.9c-3.3,5-4.2,10-4.4,15.8
					v3.9c0,3,0.4,7.9,2.7,10.4l-14.9-10.3h0c0.4-3.3,1.2-6.5,2.3-9.6c1.8-5.3,4.5-10.3,8-14.7c1.2-1.6,2.5-3.1,3.9-4.5
					c0.2-0.2,0.3-0.3,0.5-0.5c1.4-1.5,3-2.9,4.6-4.2C197.7,266.2,197.8,266.1,197.9,266L197.9,266L197.9,266z"/>
				<path id="Path_21" class="st1" d="M190.8,145l6.1,30.1l-16-11.1l-2.6-10.7L190.8,145z"/>
				<path id="Path_22" class="st2" d="M195.8,216.9c-1.7-0.6-4.1,0.8-5.3,1.6l-8,5.3l-7.5-5.2l11.9-7.9L195.8,216.9z"/>
				<path id="Path_23" class="st0" d="M195.8,216.9c2.9,2,1.9,6.6,0.9,9.1c-0.4,1.1-1,2.2-1.7,3.2c-1.2,1.6-2.6,3-4.3,4
					c-0.1,0.1-0.2,0.1-0.3,0.2l-8,5.3v-14.9l8-5.3C191.7,217.7,194.2,216.3,195.8,216.9z"/>
				<path id="Path_24" class="st4" d="M189.4,244.3l-6.9,4.5l-12.6-8.7v-9.3L189.4,244.3z"/>
				<path id="Path_25" class="st1" d="M182.5,248.9v18.8L170,259v-18.8L182.5,248.9z"/>
				<path id="Path_26" class="st1" d="M182.5,223.8v14.9L170,230v-8.1l5-3.3L182.5,223.8z"/>
				<path id="Path_27" class="st2" d="M182.5,238.7l8-5.3c0.1-0.1,0.2-0.1,0.3-0.2l0,0l21.4,14.8l-6.2,4.1l-7.5,5l-0.2-0.3l0,0
					l-8.9-12.5L170,230.9V230L182.5,238.7z"/>
				<path id="Path_28" class="st2" d="M182.5,267.7L170,276v-17L182.5,267.7z"/>
				<path id="Path_29" class="st3" d="M171.9,309v22.4l-16.5-11.4L171.9,309z"/>
				<path id="Path_30" class="st2" d="M171.9,301.5l-12.2,8.1c-0.4-2.4-1.1-3.7-2.2-4.2l0.1-0.2l-8.9-6.2l-0.6-0.1
					c2.8-2.1,5.8-3.9,8.9-5.3c0.3-0.1,0.6-0.3,0.9-0.4c0.4-0.2,0.8-0.3,1.3-0.5L171.9,301.5z"/>
				<path id="Path_31" class="st3" d="M164.6,225.4v9.8l-7.2-5L164.6,225.4z"/>
				<path id="Path_32" class="st2" d="M164.6,235.2L141,250.9l-7.2-5l23.6-15.6L164.6,235.2z"/>
				<path id="Path_33" class="st3" d="M164.2,270v9.8l-7.2-5L164.2,270z"/>
				<path id="Path_34" class="st2" d="M164.2,279.8l-1.5,1l-6.2,4.1l-28.5,18.9v-27.3l12.9,8.9l16-10.6h0L164.2,279.8z"/>
				<path id="Path_35" class="st0" d="M161.9,190.1v2.3c0.2,4.7-0.6,9.3-2.3,13.7c-1.3,3.2-3.3,6-6,8.2c-2.4,1.9-6.1,4.4-9.2,1.9
					c-2.2-2.5-2.7-7.4-2.7-10.4v-3.9c0.2-5.8,1.1-10.8,4.4-15.8c1.5-2.3,3.5-4.3,5.8-5.9c1.9-1.3,4.6-2.5,7-1.3
					c0.3,0.1,0.5,0.3,0.7,0.5C161.8,181.9,161.9,187.3,161.9,190.1z"/>
				<path id="Path_36" class="st3" d="M160.8,249.5v9.8l-7.2-5L160.8,249.5z"/>
				<path id="Path_37" class="st2" d="M160.8,259.3L141,272.5l-12.9-8.9v-9.8l12.9,8.9l12.6-8.3L160.8,259.3z"/>
				<path id="Path_38" class="st3" d="M165.8,291.8c4.5,1.1,5.8,5.8,6.1,9.7l-12.7-8.8c0.4-0.2,0.9-0.3,1.3-0.4
					c0.4-0.1,0.8-0.2,1.2-0.3c0.7-0.2,1.5-0.2,2.2-0.3C164.5,291.7,165.2,291.7,165.8,291.8z"/>
				<path id="Path_39" class="st4" d="M159.3,325.9l-8.8,5.8v-8.6l2.4-1.6L159.3,325.9z"/>
				<path id="Path_40" class="st4" d="M149,172.1l9.8,6.8l0,0c-2.3-1.2-5,0-7,1.3c-2.3,1.5-4.3,3.5-5.8,5.9c-3.3,5-4.2,10-4.4,15.8
					v3.9c0,3,0.4,7.9,2.7,10.4l-14.9-10.3h0c0.4-3.3,1.2-6.5,2.3-9.6c1.8-5.3,4.5-10.3,8-14.7C142.5,178.1,145.6,174.9,149,172.1
					L149,172.1z"/>
				<path id="Path_41" class="st1" d="M148.7,299l8.9,6.2l-0.1,0.2c-1.6-0.9-4,0.1-6.6,1.8c-3.6,2.4-5.8,5.5-7.6,9.3
					c-1.8,4.3-2.7,8.9-2.7,13.5v3.1c0,3.8-0.2,7.2,2.7,10.4l-15-10.4h0c0.9-9.3,4.5-16.9,10-24.8c2.8-3.6,6-6.7,9.7-9.5L148.7,299z"
					/>
				<path id="Path_42" class="st3" d="M144.4,216.2c3.2,2.5,6.8,0,9.2-1.9c2.7-2.2,4.7-5,6-8.2c1.7-4.4,2.4-9,2.3-13.7v-2.3
					c0-2.8-0.1-8.2-2.3-10.7c-0.2-0.2-0.5-0.3-0.7-0.5l0,0l-9.8-6.8c4.5-3.6,9.7-6.4,14.8-6.8c3.2-0.1,6.3,1.3,8.4,3.9
					c2.5,4,2.7,8,2.7,12.4v2.4c0,5.4-0.9,10.8-2.7,15.9c-1.9,5.3-4.6,10.2-8,14.7c-4.7,5.8-12.6,12.9-20.1,15.1
					c-10.9,3.3-14.9-5-14.9-14.7v-3.1c0-2,0.1-3.9,0.3-5.9h0L144.4,216.2z"/>
				<path id="Path_43" class="st2" d="M143.3,343.6c2.7,2.1,7-0.8,9.1-2.1c2.8-1.8,5.1-4.2,6.9-6.9v-8.6l-6.4-4.4l2.4-1.6l16.5,11.4
					c-2.3,4-5.1,7.7-8.4,11c-4.9,4.9-19.7,18.7-29,14.5c-5.5-2-6.2-9.3-6.5-13.7v-4.7c0-1.7,0.1-3.4,0.2-5.1h0L143.3,343.6z"/>
				<path id="Path_44" class="st4" d="M141,272.5v12.9l-12.9-8.9v-12.9L141,272.5z"/>
				<path id="Path_45" class="st4" d="M141,250.9v11.8l-12.9-8.9v-4l5.7-3.8L141,250.9z"/>
				<path id="Path_46" class="st6" d="M95.7,298.7c-4.5-3.6-9.7-6.6-14.8-6.9c-3.8-0.4-5.9,0.8-7.8,4c-2.7,3.8-2.6,7.7-2.6,11.9v3.1
					c0.3,10.4,3.7,20.4,9.8,28.9c5.4,7.5,14.6,16,24.5,17.6c3.2,0.3,6.2-1.2,7.8-4c0.2-0.4,0.5-0.8,0.6-1.2c0.1-0.2,0.2-0.4,0.3-0.6
					c1-2.6,1.6-5.3,1.6-8.1c0-0.8,0.1-1.6,0.1-2.5v-2.4c0-0.9,0-1.8-0.1-2.7s-0.1-1.8-0.2-2.7c0,0,0-0.1,0-0.1l-0.1-0.5
					c-0.4-3.4-1.2-6.7-2.3-10c-2.1-5.3-4.9-10.4-8.2-15.1C101.8,304.3,98.9,301.3,95.7,298.7L95.7,298.7z M121.5,176.5v201.9
					L0,294.4V92.5L121.5,176.5z M115.1,303.8v-54.1l-12.3-8.5v21.6l-11-7.6l-7.2-5v-21.6l-12.7-8.8v54.1l12.7,8.8v-22.7l18.3,12.6
					v22.8L115.1,303.8z M115.1,240.8v-54.2l-12.3-8.5v33.7L91.2,182l-6.3-16.2L72.2,157v54.1l12.7,8.8v-33.7l17.9,46.1L115.1,240.8z
					 M69.3,209.1l-6.4-15.5l-11.1-26.9l17.5-11.8l-0.5-0.4l-0.5-0.3l-2.3-1.6l-9.6-6.7l-2.4-1.6l-15.3,13.4v-23.9L26,125v54.1
					l12.7,8.8v-14.1l0.5-0.3l4.3-2.3L54.7,199L69.3,209.1z M64.5,227.5l2.6-11.1l-12.3-8.5l-6,30l-4.5-24.7l-0.9-5.1l-1.7-9.3
					l-10.4-7.2l-7.1,29.2l-6-38.3l-12.3-8.5L17.1,236l12.7,8.8l5.3-20.7l1.5-5.7l7.1,35.9l12.7,8.8l4.7-20.3L64.5,227.5z M66.7,289
					v-9.8l-8.4-5.8L46,264.9l-15.3-10.6l-7.2-5v9.8l15.3,10.6V314l12.3,8.5v-44.3L66.7,289z"/>
				<path id="Path_47" class="st2" d="M99.6,343.4l15.3-10.1c0.1,0.9,0.2,1.8,0.2,2.7s0.1,1.8,0.1,2.7v2.4c0,0.8,0,1.6-0.1,2.5
					c-0.1,2.8-0.6,5.5-1.6,8.1c-0.1,0.2-0.2,0.4-0.3,0.6c-0.2,0.4-0.4,0.8-0.6,1.2c-1.6,2.8-4.7,4.3-7.8,4
					c-9.9-1.6-19.1-10.1-24.5-17.6c-6-8.4-9.5-18.5-9.8-28.9v-3.1c0-4.3-0.1-8.1,2.6-11.9c2-3.2,4-4.4,7.8-4
					c5.1,0.3,10.4,3.3,14.8,6.9l-9.3,6.2c-3,1.1-3.5,6-3.6,9.8v3.9c0,4.8,0.9,9.5,2.6,13.9c1.3,3.2,3.3,6,5.9,8.3
					C93.3,342.5,96.8,345.2,99.6,343.4L99.6,343.4z"/>
				<path id="Path_48" class="st3" d="M115.1,287.1v16.7l-12.3-8.5L115.1,287.1z"/>
				<path id="Path_49" class="st4" d="M115.1,264.4v22.8l-12.3,8.2v-22.8L115.1,264.4z"/>
				<path id="Path_50" class="st3" d="M115.1,254.6v9.8l-12.3,8.2l-18.3-12.6l7.2-4.8l11,7.6L115.1,254.6z"/>
				<path id="Path_51" class="st1" d="M115.1,249.7v4.9l-12.3,8.2v-21.6L115.1,249.7z"/>
				<path id="Path_52" class="st3" d="M115.1,224.1v16.7l-12.3-8.5L115.1,224.1z"/>
				<path id="Path_53" class="st4" d="M115.1,203.7v20.4l-12.3,8.2l-17.9-46.1l6.3-4.2l11.6,29.9L115.1,203.7z"/>
				<path id="Path_54" class="st1" d="M115.1,186.6v17.1l-12.3,8.2v-33.7L115.1,186.6z"/>
				<path id="Path_55" class="st0" d="M86.4,304.8c1.3-0.4,2.8-0.2,4,0.4c4.3,1.9,8.1,6.7,9.9,10.9c1.6,4.4,2.4,9,2.2,13.7v2.4
					c0,2.7-0.1,8.2-2.2,10.6c-0.2,0.2-0.4,0.4-0.7,0.5c-2.8,1.9-6.3-0.8-8.4-2.6c-2.6-2.3-4.6-5.1-5.9-8.3c-1.7-4.5-2.6-9.2-2.6-14
					v-3.9C82.9,310.9,83.4,305.9,86.4,304.8z"/>
				<path id="Path_56" class="st4" d="M114.9,333.1c0,0,0,0.1,0,0.1l-15.3,10.1l0,0c0.2-0.2,0.5-0.3,0.7-0.5
					c2.1-2.4,2.2-7.9,2.2-10.6v-2.4c0.1-4.7-0.6-9.3-2.2-13.7c-1.8-4.1-5.5-8.9-9.9-10.9c-1.2-0.7-2.7-0.8-4-0.4l9.3-6.2
					c3.2,2.6,6.1,5.6,8.7,8.9c3.3,4.7,6.1,9.7,8.2,15.1c1.1,3.2,1.9,6.6,2.3,10L114.9,333.1z"/>
				<path id="Path_57" class="st2" d="M91.8,255.1l-7.2,4.8v5.6l-12.7,8.4v-54.1l12.7,8.8v21.6L91.8,255.1z"/>
				<path id="Path_58" class="st2" d="M84.9,165.8l6.3,16.2l-6.3,4.2v16.6l-12.7,8.4V157L84.9,165.8z"/>
				<path id="Path_59" class="st3" d="M84.9,202.7v17.2l-12.7-8.8L84.9,202.7z"/>
				<path id="Path_60" class="st3" d="M84.5,265.5v17.2l-12.7-8.8L84.5,265.5z"/>
				<path id="Path_61" class="st3" d="M62.9,193.6l6.4,15.5L54.7,199L62.9,193.6z"/>
				<path id="Path_62" class="st3" d="M68.2,154.2l-29.6,19.6v14.1L26,179.2l40-26.5L68.2,154.2z"/>
				<path id="Path_63" class="st1" d="M67,216.4l-2.6,11.1l-15.7,10.4l6-30L67,216.4z"/>
				<path id="Path_64" class="st3" d="M66.7,279.2v9.8L51,278.2l7.2-4.8L66.7,279.2z"/>
				<path id="Path_65" class="st2" d="M66,152.7l-40,26.5V125l12.7,8.8v23.9L56.4,146L66,152.7z"/>
				<path id="Path_66" class="st4" d="M64.4,227.5l-3.5,15.3l-17.4,11.5l-7.1-35.9l7.8-5.2l4.5,24.7L64.4,227.5z"/>
				<path id="Path_67" class="st4" d="M51.7,166.7l11.1,26.9l-8.1,5.4l-11.2-27.7l25.2-16.7l0.5,0.4L51.7,166.7z"/>
				<path id="Path_68" class="st3" d="M60.9,242.8l-4.7,20.3l-12.7-8.8L60.9,242.8z"/>
				<path id="Path_69" class="st4" d="M46,264.9l12.3,8.5l-7.2,4.8v27.7L38.7,314v-44.3L46,264.9z"/>
				<path id="Path_70" class="st1" d="M56.4,146l-17.7,11.7L54,144.4L56.4,146z"/>
				<path id="Path_71" class="st3" d="M51,305.9v16.7L38.7,314L51,305.9z"/>
				<path id="Path_72" class="st3" d="M30.7,254.3L46,264.9l-7.2,4.8l-15.3-10.6L30.7,254.3z"/>
				<path id="Path_73" class="st2" d="M44.3,213.2l-7.8,5.2l-1.5,5.7L17.1,236L5.9,174.1l12.3,8.5l6,38.3l19.2-12.7L44.3,213.2z"/>
				<path id="Path_74" class="st1" d="M41.7,198.9l1.7,9.3l-19.2,12.7l7.1-29.2L41.7,198.9z"/>
				<path id="Path_75" class="st3" d="M35,224.1l-5.3,20.7L17.1,236L35,224.1z"/>
				<path id="Path_76" class="st2" d="M30.7,254.3l-7.2,4.8v-9.8L30.7,254.3z"/>
				<path id="Path_77" class="st7" d="M121.5,378.4l139.6-92.5V84"/>
			</g>
		</g>
	</g>
</g>
</svg>
