<svg id="learning-outcomes" xmlns="http://www.w3.org/2000/svg" viewBox="0 0 100 100">
  <defs>
    <style>
      .cls-1 {
        fill: #f9cd17;
      }

      .cls-2 {
        fill: #fff;
      }
    </style>
  </defs>
  <circle id="Oval_6" data-name="Oval 6" class="cls-1" cx="50" cy="50" r="50"/>
  <g id="noun_learn_1572159_546ae8" transform="translate(23 25)">
    <path id="Shape" class="cls-2" d="M52.747,51a1.329,1.329,0,0,1-1.089-.545,13.047,13.047,0,0,0-7.6-4.6,1.276,1.276,0,0,1-.854-.569,1.258,1.258,0,0,1-.2-.991,1.356,1.356,0,0,1,1.292-.967,1.153,1.153,0,0,1,.363.057,18.961,18.961,0,0,1,5.2,2.071l-2.733-7.728a14.708,14.708,0,0,0-10.31-3.944,16.468,16.468,0,0,0-8.541,2.589V46.63a17.8,17.8,0,0,1,10.893-3.924h.034A1.327,1.327,0,0,1,40.5,43.941a1.274,1.274,0,0,1-.357.9,1.294,1.294,0,0,1-.888.419c-4.649.149-9.148,2.23-11.194,5.179a1.358,1.358,0,0,1-2.129,0c-2.15-3.1-6.891-5.179-11.8-5.179-4.8,0-9.648,2.138-11.8,5.2A1.329,1.329,0,0,1,1.253,51a1.237,1.237,0,0,1-.561-.131A1.322,1.322,0,0,1,.071,49.3l.059-.165C.9,46.975,4.739,36.2,4.854,36.073A16.172,16.172,0,0,1,12.33,31.85a14.909,14.909,0,0,1,5.282-8.194,15.148,15.148,0,0,1,18.776,0A14.906,14.906,0,0,1,41.67,31.85a16.173,16.173,0,0,1,7.476,4.223c.118.127,4.253,11.74,4.724,13.064l.059.163a1.322,1.322,0,0,1-.621,1.57A1.237,1.237,0,0,1,52.747,51ZM14.138,42.706A18.2,18.2,0,0,1,25.714,46.63V36.372a16.462,16.462,0,0,0-8.541-2.589A14.709,14.709,0,0,0,6.863,37.726L4.11,45.554a18.563,18.563,0,0,1,4.651-2.079A19.154,19.154,0,0,1,14.138,42.706Zm3.035-11.473A18.5,18.5,0,0,1,27,34.2a18.5,18.5,0,0,1,9.827-2.968,19.018,19.018,0,0,1,2.01.12,12.537,12.537,0,0,0-23.674,0A19.558,19.558,0,0,1,17.173,31.233ZM27,17.847a8.974,8.974,0,0,1-9-8.923A9,9,0,0,1,36,8.924,8.974,8.974,0,0,1,27,17.847Zm0-15.3a6.374,6.374,0,1,0,6.431,6.374A6.41,6.41,0,0,0,27,2.55Z"/>
  </g>
</svg>
