<svg id="Group_8" data-name="Group 8" xmlns="http://www.w3.org/2000/svg" viewBox="0 0 100 100">
  <defs>
    <style>
      .cls-1 {
        fill: #4f54ff;
      }

      .cls-2 {
        fill: #fff;
      }
    </style>
  </defs>
  <circle id="Oval_2" data-name="Oval 2" class="cls-1" cx="50" cy="50" r="50"/>
  <g id="noun_lightbulb_1262982_546ae8" transform="translate(29 25)">
    <path id="Shape" class="cls-2" d="M13,40a3.745,3.745,0,0,1-3.4-2.7,3.019,3.019,0,0,1-2.784-3.023V29.031a8.456,8.456,0,0,0-2.652-6.12A13.276,13.276,0,0,1,12.079.032C12.375.011,12.685,0,13,0s.625.011.921.032a13.276,13.276,0,0,1,7.918,22.879,8.454,8.454,0,0,0-2.653,6.12v5.246A3.019,3.019,0,0,1,16.4,37.3,3.745,3.745,0,0,1,13,40Zm-1.636-2.688A2.056,2.056,0,0,0,13,38.351a2.029,2.029,0,0,0,1.637-1.04ZM8.547,34.826a1.363,1.363,0,0,0,1.249.836H16.2a1.362,1.362,0,0,0,1.248-.836Zm-.113-2.485v.836h9.13v-.836Zm0-2.485v.836h9.13v-.836ZM15.5,17.682V28.207h2.1a10.091,10.091,0,0,1,3.137-6.5A11.62,11.62,0,0,0,13.81,1.678c-.274-.019-.546-.029-.81-.029s-.536.01-.81.029A11.62,11.62,0,0,0,5.264,21.7a10.094,10.094,0,0,1,3.137,6.5h2.1V17.682H9.435a2.732,2.732,0,1,1,2.686-2.731v1.082h1.76V14.952a2.686,2.686,0,1,1,2.686,2.731Zm-3.382,0V28.207h1.76V17.682Zm4.447-3.814A1.076,1.076,0,0,0,15.5,14.952v1.082h1.066a1.083,1.083,0,0,0,0-2.165Zm-7.132,0a1.083,1.083,0,0,0,0,2.165H10.5V14.952A1.075,1.075,0,0,0,9.434,13.868Z" transform="translate(9 10)"/>
    <path id="Shape-2" data-name="Shape" class="cls-2" d="M0,.94V5.06A.974.974,0,0,0,1,6a.974.974,0,0,0,1-.94V.94A.974.974,0,0,0,1,0,.975.975,0,0,0,0,.94Z" transform="translate(21)"/>
    <path id="Shape-3" data-name="Shape" class="cls-2" d="M3.641.171a.86.86,0,0,0-1.222.2L.166,3.569A.923.923,0,0,0,.36,4.829a.86.86,0,0,0,1.222-.2l2.253-3.2A.924.924,0,0,0,3.641.171Z" transform="translate(32 4)"/>
    <path id="Shape-4" data-name="Shape" class="cls-2" d="M1.061,2.956,4.44,1.745A.92.92,0,0,0,4.961.618.8.8,0,0,0,3.939.044L.56,1.255A.92.92,0,0,0,.039,2.382.8.8,0,0,0,1.061,2.956Z" transform="translate(38 15)"/>
    <path id="Shape-5" data-name="Shape" class="cls-2" d="M.56,1.745,3.939,2.956a.8.8,0,0,0,1.022-.574A.92.92,0,0,0,4.44,1.255L1.061.044A.8.8,0,0,0,.039.618.92.92,0,0,0,.56,1.745Z" transform="translate(38 28)"/>
    <path id="Shape-6" data-name="Shape" class="cls-2" d="M1.581.371A.86.86,0,0,0,.36.171a.924.924,0,0,0-.194,1.26l2.253,3.2a.86.86,0,0,0,1.222.2.923.923,0,0,0,.194-1.26Z" transform="translate(32 37)"/>
    <path id="Shape-7" data-name="Shape" class="cls-2" d="M.359,4.829a.86.86,0,0,0,1.222-.2l2.253-3.2A.923.923,0,0,0,3.64.171a.86.86,0,0,0-1.222.2L.166,3.569A.924.924,0,0,0,.359,4.829Z" transform="translate(8 37)"/>
    <path id="Shape-8" data-name="Shape" class="cls-2" d="M1.061,2.956,4.44,1.745A.92.92,0,0,0,4.961.618h0A.8.8,0,0,0,3.939.044L.56,1.255A.92.92,0,0,0,.039,2.382.8.8,0,0,0,1.061,2.956Z" transform="translate(0 28)"/>
    <path id="Shape-9" data-name="Shape" class="cls-2" d="M.56,1.745,3.939,2.956a.8.8,0,0,0,1.022-.574A.92.92,0,0,0,4.44,1.255L1.061.044A.8.8,0,0,0,.039.618.92.92,0,0,0,.56,1.745Z" transform="translate(0 15)"/>
    <path id="Shape-10" data-name="Shape" class="cls-2" d="M1.581.371A.86.86,0,0,0,.36.171a.923.923,0,0,0-.194,1.26l2.253,3.2a.86.86,0,0,0,1.221.2.923.923,0,0,0,.194-1.26Z" transform="translate(8 4)"/>
    <path id="Shape-11" data-name="Shape" class="cls-2" d="M.766,1.631A7.265,7.265,0,0,1,4.824,2.874.729.729,0,0,0,5.232,3a.756.756,0,0,0,.649-.38A.846.846,0,0,0,5.642,1.5,8.726,8.726,0,0,0,.767,0,.792.792,0,0,0,0,.815.792.792,0,0,0,.766,1.631Z" transform="translate(21 13)"/>
    <path id="Shape-12" data-name="Shape" class="cls-2" d="M1.308,3.444A.88.88,0,0,0,2.122,4a.865.865,0,0,0,.333-.067.9.9,0,0,0,.48-1.167A10.727,10.727,0,0,0,1.578.353.868.868,0,0,0,.347.183.906.906,0,0,0,.179,1.436,8.88,8.88,0,0,1,1.308,3.444Z" transform="translate(28 16)"/>
  </g>
</svg>
