<?xml version="1.0" encoding="utf-8"?>
<!-- Generator: Adobe Illustrator 22.1.0, SVG Export Plug-In . SVG Version: 6.00 Build 0)  -->
<svg version="1.1" id="Layer_1" xmlns="http://www.w3.org/2000/svg" xmlns:xlink="http://www.w3.org/1999/xlink" x="0px" y="0px"
	 viewBox="0 0 321 494" style="enable-background:new 0 0 321 494;" xml:space="preserve">
<style type="text/css">
	.st0{fill:#FFFFFF;}
	.st1{fill:#FF9695;}
	.st2{fill:#4F54FF;}
	.st3{fill:#F9CD17;}
	.st4{fill:#17BCBC;}
</style>
<g id="generative-bg-small" transform="translate(30 30)">
	<g transform="matrix(1, 0, 0, 1, -30, -30)">
		<rect id="Rectangle_6-2" x="-1" class="st0" width="322" height="494"/>
	</g>
	<g id="noun_Research_1764589_ffffff" transform="matrix(0.996, 0.087, -0.087, 0.996, 50.886, 407.83)">
		<path id="Shape" class="st1" d="M-12.9,0.7h-13.4c-0.3,0-0.6-0.2-0.6-0.6c0-0.3,0.2-0.6,0.6-0.6c0,0,0,0,0,0
			c1.6,0,2.9-1.3,2.9-2.9l-8.4,0c-1,0-1.7-0.8-1.7-1.7v-16.3c0-1,0.8-1.7,1.7-1.7h2.3v1.2h-2.3c-0.3,0-0.6,0.3-0.6,0.6v16.3
			c0,0.3,0.3,0.6,0.6,0.6h21.3l-1.7-1.7c-3.1,1.8-7.1,0.6-8.9-2.5c-0.2-0.3-0.3-0.6-0.5-1h-7.9v-1.2h1.2v-11.6
			c0-0.2,0.1-0.3,0.2-0.4L-24-27c0,0,0.1-0.1,0.2-0.1l0,0l0,0c0,0,0.1,0,0.2,0h0h0l0,0h12.2c0.3,0,0.6,0.3,0.6,0.6v10c0,0,0,0,0,0
			c0,0,0,0,0,0c2.1,2.1,2.5,5.2,1.1,7.8l2.9,2.9v-15.5c0-0.3-0.3-0.6-0.6-0.6h-2.3v-1.2h2.3c1,0,1.7,0.8,1.7,1.7V-4l0,0
			c0,1-0.8,1.8-1.8,1.7c-0.5,0-0.9-0.2-1.2-0.5l-0.6-0.6h-6.5c0,1.6,1.3,2.9,2.9,2.9c0.3,0,0.6,0.3,0.6,0.6
			C-12.3,0.4-12.6,0.7-12.9,0.7L-12.9,0.7z M-22.2-3.4c0,1.1-0.5,2.1-1.2,2.9l7.8,0c-0.8-0.8-1.2-1.8-1.2-2.9H-22.2z M-8.7-6.1
			L-8.7-6.1l-0.9,0.9l1.7,1.7c0.2,0.2,0.6,0.2,0.9,0l0,0c0.2-0.2,0.2-0.6,0-0.9L-8.7-6.1L-8.7-6.1z M-10.3-7.8L-10.3-7.8l-0.9,0.9
			l0.9,0.9l0.9-0.9L-10.3-7.8z M-15.4-17.3c-3,0-5.4,2.4-5.4,5.3c0,3,2.4,5.4,5.3,5.4h0c3,0,5.4-2.4,5.4-5.4S-12.4-17.3-15.4-17.3
			L-15.4-17.3z M-24.2-25.2l-2.9,2.9v11.4h5.3c-0.1-0.3-0.1-0.7-0.1-1c0-0.6,0.1-1.3,0.3-1.9h-3.8V-15h4.2c0.3-0.6,0.7-1.1,1.2-1.6
			c0,0,0.1-0.1,0.1-0.1c0,0,0.1-0.1,0.1-0.1h-5.6v-1.2h7.3c1.9-0.9,4.2-0.8,6,0.4V-26h-11v3.5c0,0.3-0.3,0.6-0.6,0.6l0,0h-1.7v-1.2
			h1.2V-25.2z"/>
		<path id="Shape-2" class="st1" d="M-18.4-15.1l0.8,0.7c1.2-1,3-1,4.3,0l0.8-0.7C-14.2-16.6-16.7-16.6-18.4-15.1z"/>
		<path id="Shape-3" class="st1" d="M-31.2-8.9v2.6c0,0.4,0.3,0.6,0.6,0.6h2.6V-7h-1.9v-1.9H-31.2z"/>
		
			<rect id="Rectangle-path" x="-27.1" y="-6.6" transform="matrix(2.536971e-06 1 -1 2.536971e-06 -32.8261 20.4676)" class="st1" width="0.9" height="0.9"/>
		
			<rect id="Rectangle-path-2" x="-19.8" y="-26.3" transform="matrix(2.536970e-06 1 -1 2.536970e-06 -39.6791 -1.0033)" class="st1" width="0.9" height="11.9"/>
	</g>
	<g id="noun_design_1171265_546ae8" transform="translate(39.662 75.074) rotate(-8)">
		
			<ellipse id="Oval" transform="matrix(-0.9903 -0.1392 0.1392 -0.9903 -44.558 -52.3446)" class="st2" cx="-24.1" cy="-24.6" rx="0.7" ry="0.7"/>
		<path id="Shape-4" class="st2" d="M-4.4-15.2l-21.1,0c-0.6-0.1-1.1-0.6-1-1.2l0-16.4c-0.1-0.6,0.4-1.2,1-1.2l23.3,0
			c0.6,0.1,1.1,0.6,1,1.2l0,16.3l-1.4-1.4l0-14.8l-18.8,0l0,16.2l15.8,0L-4.4-15.2z M-24.9-19.5c-0.2,0-0.3,0.2-0.3,0.5
			c0,0.3,0.2,0.5,0.3,0.5h1.5c0.2,0,0.3-0.2,0.3-0.5c0-0.3-0.2-0.5-0.3-0.5H-24.9z M-24.9-21.6c-0.2,0-0.3,0.2-0.3,0.5
			c0,0.3,0.2,0.5,0.3,0.5l1.5,0c0.2,0,0.3-0.2,0.3-0.5c0-0.3-0.2-0.5-0.3-0.5L-24.9-21.6z M-24.1-26.3c-0.9,0-1.7,0.8-1.7,1.7
			c0,0.9,0.8,1.7,1.7,1.7c0.9,0,1.7-0.8,1.7-1.7c0,0,0,0,0,0C-22.4-25.6-23.2-26.3-24.1-26.3z M-24.9-28.6c-0.2,0-0.3,0.2-0.3,0.5
			s0.2,0.5,0.3,0.5h1.5c0.2,0,0.3-0.2,0.3-0.5s-0.2-0.5-0.3-0.5H-24.9z M-24.9-30.7c-0.2,0-0.3,0.2-0.3,0.5c0,0.3,0.2,0.5,0.3,0.5
			h1.5c0.2,0,0.3-0.2,0.3-0.5s-0.2-0.5-0.3-0.5H-24.9z"/>
		<path id="Shape-5" class="st2" d="M-7.6-22.2L-7.6-22.2l-2.3-0.8l0.8,2.4l0,0l9.5,9.5l1.5-1.5L-7.6-22.2z"/>
		<path id="Shape-6" class="st2" d="M-11.3-24.2c-0.3,0.6,0.7,1.1,1,0.4c0.3-0.6,0.9-1.8-0.2-2c-0.6-0.1-1.2-0.1-1.8,0
			c-0.8,0,0.1-1.5,0.2-1.9c0.4-1.4-0.8-1.8-1.9-1.8c-1.5,0-3,0.8-3.8,2.1c-0.3,0.6,0.7,1.1,1,0.4c0.4-0.7,1.1-1.1,1.8-1.3
			c0.2-0.1,1.9-0.5,1.8,0.1c-0.1,0.9-0.8,1.5-0.7,2.5c0.1,0.8,1,0.9,1.6,0.9c0.3,0,0.7,0,1,0c0.1,0,0.1,0,0.2,0c0,0,0,0,0,0.1
			C-11.1-24.5-11.2-24.4-11.3-24.2z"/>
	</g>
	<g id="noun_Research_741951_ffffff" transform="translate(239.55 140.289) rotate(8)">
		
			<rect id="Rectangle-path-3" x="-11.6" y="-22.7" transform="matrix(2.438032e-06 1 -1 2.438032e-06 -33.3132 -11.0781)" class="st3" width="0.9" height="0.9"/>
		
			<rect id="Rectangle-path-4" x="-9.7" y="-20.8" transform="matrix(2.438032e-06 1 -1 2.438032e-06 -29.6582 -11.0791)" class="st3" width="0.9" height="0.9"/>
		
			<rect id="Rectangle-path-5" x="-11.6" y="-19" transform="matrix(2.438032e-06 1 -1 2.438032e-06 -29.6582 -7.4231)" class="st3" width="0.9" height="0.9"/>
		
			<rect id="Rectangle-path-6" x="-11.6" y="-20.8" transform="matrix(2.438032e-06 1 -1 2.438032e-06 -31.4862 -9.2511)" class="st3" width="0.9" height="0.9"/>
		<path id="Shape-7" class="st3" d="M-12.3,4.8l-17,0c-1.6,0-2.8-1.3-2.8-2.8l0-23.2c0-0.3,0.2-0.5,0.5-0.5l17,0
			c0.3,0,0.5,0.2,0.5,0.5l0,9.9l6.6,0c1.6,0,2.8,1.3,2.8,2.8l0,6.2c0,0.3-0.2,0.5-0.5,0.5l-4.3,0v3.8C-9.4,3.5-10.7,4.8-12.3,4.8z
			 M-14.2-10.4l0,12.3c0,1,0.8,1.9,1.8,1.9c1,0,1.9-0.8,1.9-1.8c0,0,0-0.1,0-0.1l0-10.4c0-0.7,0.3-1.4,0.7-1.9L-14.2-10.4z
			 M-31.2-20.8l0,22.7c0,1,0.8,1.9,1.9,1.9l14.9,0c-0.5-0.5-0.7-1.2-0.7-1.9l0-22.7H-31.2z M-7.6-10.4c-1,0-1.9,0.8-1.9,1.9l0,5.7
			l3.8,0l0-5.7C-5.7-9.5-6.5-10.4-7.6-10.4z"/>
		<path id="Shape-8" class="st3" d="M-17.6-2.3c-0.1,0-0.2,0-0.3-0.1l-4.3-4.3c-0.2-0.2-0.2-0.5,0-0.7c0,0,0,0,0,0l0.6-0.6l-1.3-1.3
			c-0.7,0.5-1.6,0.8-2.5,0.8c-2.4,0-4.3-1.9-4.3-4.3c0-2.4,1.9-4.3,4.3-4.3c2.4,0,4.3,1.9,4.3,4.3c0,1-0.4,2-1,2.8l1.3,1.3l0.6-0.6
			c0.2-0.2,0.5-0.2,0.7,0c0,0,0,0,0,0l4.3,4.3c0.2,0.2,0.2,0.5,0,0.7l-1.9,1.9C-17.4-2.4-17.5-2.3-17.6-2.3z M-20-8.3L-20-8.3
			l-1.2,1.2l3.6,3.6l1.2-1.2L-20-8.3z M-25.4-16c-1.8,0-3.3,1.5-3.3,3.3c0,1.8,1.5,3.3,3.3,3.3c1.8,0,3.3-1.5,3.3-3.3
			C-22.1-14.5-23.6-16-25.4-16z"/>
		<path id="Shape-9" class="st3" d="M-24.4-14.9l-1.8,0c-0.3,0-0.5,0.2-0.5,0.5c0,0,0,0,0,0v1.4h0.9V-14h0.9v0.7l-0.8,0.8
			c-0.1,0.1-0.1,0.2-0.1,0.3v0.9h0.9V-12l0.8-0.8c0.1-0.1,0.1-0.2,0.1-0.3v-1.4C-23.9-14.7-24.1-14.9-24.4-14.9
			C-24.4-14.9-24.4-14.9-24.4-14.9z"/>
		
			<rect id="Rectangle-path-7" x="-25.7" y="-10.8" transform="matrix(2.438034e-06 1 -1 2.438034e-06 -35.5971 14.9619)" class="st3" width="0.9" height="0.9"/>
		
			<rect id="Rectangle-path-8" x="-18.7" y="-17.9" transform="matrix(2.438032e-06 1 -1 2.438032e-06 -33.9981 2.3989)" class="st3" width="0.9" height="4.1"/>
		
			<rect id="Rectangle-path-9" x="-19.1" y="-22" transform="matrix(2.438032e-06 1 -1 2.438032e-06 -38.1096 -0.7996)" class="st3" width="0.9" height="5"/>
		
			<rect id="Rectangle-path-10" x="-18.7" y="-15.6" transform="matrix(2.438032e-06 1 -1 2.438032e-06 -31.7141 4.6829)" class="st3" width="0.9" height="4.1"/>
		
			<rect id="Rectangle-path-11" x="-18.7" y="-13.7" transform="matrix(2.438032e-06 1 -1 2.438032e-06 -29.8861 6.5109)" class="st3" width="0.9" height="4.1"/>
		
			<rect id="Rectangle-path-12" x="-28.2" y="-8.7" transform="matrix(2.438032e-06 1 -1 2.438032e-06 -34.4551 21.1298)" class="st3" width="0.9" height="4.1"/>
		
			<rect id="Rectangle-path-13" x="-26.2" y="-8.9" transform="matrix(2.438032e-06 1 -1 2.438032e-06 -30.5726 20.9013)" class="st3" width="0.9" height="8.2"/>
		
			<rect id="Rectangle-path-14" x="-20" y="-21.5" transform="matrix(2.438033e-06 1 -1 2.438033e-06 -37.1961 1.9429)" class="st3" width="0.9" height="7.8"/>
		
			<rect id="Rectangle-path-15" x="-28.2" y="-5.1" transform="matrix(2.438033e-06 1 -1 2.438033e-06 -30.8001 24.7848)" class="st3" width="0.9" height="4.1"/>
		
			<rect id="Rectangle-path-16" x="-22.8" y="-5.1" transform="matrix(2.438032e-06 1 -1 2.438032e-06 -25.3171 19.3018)" class="st3" width="0.9" height="4.1"/>
		
			<rect id="Rectangle-path-17" x="-29.4" y="-1.6" transform="matrix(2.438032e-06 1 -1 2.438032e-06 -29.6586 28.2113)" class="st3" width="0.9" height="1.8"/>
		
			<rect id="Rectangle-path-18" x="-19.3" y="-3.5" transform="matrix(2.438033e-06 1 -1 2.438033e-06 -19.6071 18.1598)" class="st3" width="0.9" height="5.5"/>
		
			<rect id="Rectangle-path-19" x="-18.2" y="-0.5" transform="matrix(2.438033e-06 1 -1 2.438033e-06 -16.6381 18.8448)" class="st3" width="0.9" height="3.2"/>
		
			<rect id="Rectangle-path-20" x="-28.2" y="-1" transform="matrix(2.438032e-06 1 -1 2.438032e-06 -26.6891 28.8958)" class="st3" width="0.9" height="4.1"/>
		
			<rect id="Rectangle-path-21" x="-25.1" y="-2.8" transform="matrix(2.438032e-06 1 -1 2.438032e-06 -25.3181 23.8708)" class="st3" width="0.9" height="4.1"/>
		
			<rect id="Rectangle-path-22" x="-23.5" y="-20.4" transform="matrix(2.438033e-06 1 -1 2.438033e-06 -42.4506 3.5414)" class="st3" width="0.9" height="1.8"/>
		
			<rect id="Rectangle-path-23" x="-29.8" y="-18.5" transform="matrix(2.438032e-06 1 -1 2.438032e-06 -47.0176 11.7644)" class="st3" width="0.9" height="1.8"/>
		
			<rect id="Rectangle-path-24" x="-28.2" y="-22" transform="matrix(2.438032e-06 1 -1 2.438032e-06 -47.2466 8.3374)" class="st3" width="0.9" height="5"/>
		
			<rect id="Rectangle-path-25" x="-22.8" y="-1" transform="matrix(2.438032e-06 1 -1 2.438032e-06 -21.2061 23.4128)" class="st3" width="0.9" height="4.1"/>
		<path id="Shape-10" class="st3" d="M-32.1-23.6v-0.9H-33v-0.9H-34v0.9h-0.9v0.9h0.9v0.9h0.9v-0.9H-32.1z"/>
	</g>
	<g id="noun_interview_229056_ffffff" transform="translate(216.07 373.607)">
		<path id="Shape-11" class="st4" d="M-20.7-14.4c-0.2,0-0.3-0.1-0.4-0.2c-0.1-0.1-0.2-0.3-0.1-0.5c0-0.2,0.1-0.5,0.1-0.8
			c0.1-0.7,0.2-1.7,0.3-2.3h-2.5c-2.3,0-4.2-1.9-4.2-4.2v-3.4c0-2.3,1.9-4.2,4.2-4.2c0,0,0,0,0,0h10.7c2.3,0,4.2,1.9,4.2,4.2
			c0,0,0,0,0,0v3.4c0,1.1-0.4,2.2-1.2,3c-0.8,0.8-1.9,1.2-3,1.2h-3.2c-0.3,0.8-0.7,1.5-1.3,2.1c-0.5,0.5-1,0.8-1.6,1.1
			C-19.4-14.6-20.1-14.4-20.7-14.4z M-23.4-28.9c-1.7,0-3.1,1.4-3.1,3.1v3.4c0,1.7,1.4,3.1,3.1,3.1h3.1c0.2,0,0.3,0.1,0.4,0.2
			c0.1,0.1,0.1,0.3,0.1,0.5c0,0.1-0.1,1.8-0.3,3c1.6-0.5,2.8-1.7,3.2-3.2c0.1-0.2,0.3-0.4,0.5-0.4h3.7c1.7,0,3.1-1.4,3.1-3.1v-3.4
			c0-1.7-1.4-3.1-3.1-3.1H-23.4z"/>
		<path id="Shape-12" class="st4" d="M-12.1-22.3c0-0.3-0.3-0.5-0.6-0.5h-10.6c-0.3,0-0.5,0.2-0.5,0.5c0,0.3,0.3,0.5,0.5,0.6h10.6
			C-12.4-21.7-12.1-21.9-12.1-22.3C-12.1-22.3-12.1-22.3-12.1-22.3z"/>
		<path id="Shape-13" class="st4" d="M-23.2-24.9h7.4c0.3,0,0.5-0.2,0.5-0.6c0-0.3-0.2-0.5-0.5-0.5h-7.4c-0.3,0-0.5,0.2-0.6,0.5
			C-23.8-25.2-23.6-24.9-23.2-24.9C-23.3-24.9-23.3-24.9-23.2-24.9z"/>
		<path id="Shape-14" class="st4" d="M-9.1-9.1c-1.8,0-3.2-1.4-3.2-3.2c0,0,0,0,0,0c0-1.8,1.4-3.2,3.2-3.2c1.8,0,3.2,1.4,3.2,3.2
			C-5.9-10.5-7.3-9.1-9.1-9.1C-9-9.1-9.1-9.1-9.1-9.1z M-9.1-14.3c-1.1,0-2.1,0.9-2.1,2.1c0,1.1,0.9,2.1,2.1,2.1
			c1.1,0,2.1-0.9,2.1-2.1c0,0,0,0,0,0C-7-13.4-7.9-14.3-9.1-14.3L-9.1-14.3z"/>
		<path id="Shape-15" class="st4" d="M-4.2,4.1c-0.3,0-0.5-0.2-0.5-0.5V0.3c0,0-0.1,0.1-0.1,0.2C-4.9,0.5-5,0.6-5,0.7
			c-0.8,1-1.9,1.7-3.1,2.2c-1,0.4-2,0.7-3,0.8h-0.4c-1,0-2-0.3-2.9-0.8c-0.8-0.5-1.5-1.2-2.1-2c-1-1.5-1.6-3.2-1.9-5
			c-0.2-0.6-0.1-1.2,0.2-1.8c0.2-0.2,0.4-0.4,0.6-0.5l-0.4-1.1l0,0c-0.2,0.1-0.4,0.1-0.5,0.1c-0.7,0-1.3-0.4-1.6-1.1l-0.6-1.5
			c-0.3-0.9,0.2-1.8,1-2.1l1.1-0.4l0,0c0.2-0.1,0.4-0.1,0.5-0.1c0.7,0,1.3,0.4,1.6,1.1l0.5,1.5c0.2,0.4,0.2,0.8,0,1.2
			c-0.2,0.4-0.5,0.7-0.9,0.8h0l0.4,1.2c0.5,0,1,0.2,1.4,0.5c0.3,0.2,0.5,0.6,0.7,0.9c0.1,0.2,0.2,0.4,0.3,0.6l0,0
			c0.1,0.3,0.4,0.8,0.6,1.2C-13.1-6.1-11-8-8.5-8C-7.2-8-5.9-7.5-5-6.5c0.9,0.9,1.4,2.1,1.3,3.4v6.6C-3.7,3.8-3.9,4.1-4.2,4.1z
			 M-16.4-5.8c-0.1,0-0.2,0-0.3,0c-0.3,0.1-0.4,0.2-0.4,0.3c-0.1,0.3-0.2,0.6-0.1,1v0c0.2,0.9,0.4,1.8,0.8,2.6
			c0.5,1.6,1.6,2.9,2.9,3.8c0.3,0.1,0.7,0.3,1,0.4c0.3,0.1,0.6,0.2,1,0.2c0.1,0,0.2,0,0.3,0c0,0,0.2,0,0.6-0.1
			c1.8-0.2,3.5-1.1,4.7-2.5C-5-1.4-4.7-2.8-5-4.3v-0.1c-0.7-2-2.8-3-4.8-2.3c-1.5,0.5-2.5,2-2.5,3.6V-2c0.1,0.1,0.3,0.2,0.5,0.3h0.1
			c0.1,0,0.3,0,0.6-0.3c0.5-0.7,0.8-1.4,1-2.3l0,0c0-0.3,0.3-0.5,0.5-0.5c0,0,0.1,0,0.1,0c0.3,0,0.5,0.3,0.5,0.5v0.1
			c-0.2,1-0.6,2-1.2,2.9c-0.3,0.4-0.8,0.7-1.4,0.7c-0.1,0-0.2,0-0.3,0c0,0-0.1,0-0.1,0s-0.1,0-0.1,0l0,0c-0.2-0.1-0.4-0.2-0.5-0.3
			c-0.2-0.2-0.4-0.3-0.5-0.5c-0.7-0.9-1.2-1.9-1.6-2.9v0c-0.1-0.2-0.2-0.4-0.3-0.6v0l0,0l0,0C-15.5-5.6-15.9-5.8-16.4-5.8z
			 M-17.8-11.6c0,0-0.1,0-0.1,0c0,0,0,0-0.1,0l-1.1,0.4c-0.3,0.1-0.4,0.4-0.3,0.6c0,0,0,0,0,0l0.5,1.5c0.1,0.2,0.3,0.3,0.5,0.3
			c0.1,0,0.2,0,0.3-0.1l1.1-0.4c0.1,0,0.2-0.1,0.3-0.3c0-0.1,0-0.2,0-0.4l-0.5-1.5C-17.4-11.5-17.5-11.6-17.8-11.6z"/>
		<path id="Shape-16" class="st4" d="M-25.6-9.8c-1.8,0-3.2-1.4-3.2-3.2c0,0,0,0,0,0c0-1.8,1.4-3.2,3.2-3.2c0,0,0,0,0,0
			c1.8,0,3.2,1.4,3.2,3.2c0,0,0,0,0,0C-22.4-11.3-23.9-9.9-25.6-9.8z M-25.6-15.1c-1.1,0-2.1,0.9-2.1,2.1s0.9,2.1,2.1,2.1
			c1.1,0,2.1-0.9,2.1-2.1c0,0,0,0,0,0C-23.6-14.2-24.5-15.1-25.6-15.1L-25.6-15.1z"/>
		<path id="Shape-17" class="st4" d="M-26.1-8.8c-2.7,0-4.9,2.2-4.9,4.9v5c0,0.3,0.2,0.5,0.5,0.5c0.3,0,0.5-0.2,0.6-0.5v-5
			c0-2.1,1.7-3.8,3.8-3.8c2.1,0,3.8,1.7,3.8,3.8v5c0,0.3,0.2,0.5,0.5,0.5c0.3,0,0.5-0.3,0.5-0.5v-5c0.1-2.7-2-4.9-4.7-4.9
			C-26-8.8-26-8.8-26.1-8.8z"/>
	</g>
</g>
</svg>
