<svg xmlns="http://www.w3.org/2000/svg" viewBox="0 0 322 494">
  <defs>
    <style>
      .cls-1 {
        fill: #fff;
      }

      .cls-2 {
        fill: #ff9695;
      }

      .cls-3 {
        fill: #f9cd17;
      }

      .cls-4 {
        fill: #17bcbc;
      }

      .cls-5 {
        fill: #94ecc6;
      }

      .cls-6 {
        fill: #2731ff;
      }
    </style>
  </defs>
  <g id="Group_2" data-name="Group 2" transform="translate(2)">
    <rect id="Rectangle_6" data-name="Rectangle 6" class="cls-1" width="322" height="494" transform="translate(-2)"/>
    <g id="Group_1" data-name="Group 1">
      <g id="noun_Heart_insurance_579677_2731ff" data-name="noun_Heart insurance_579677_2731ff" transform="translate(55.266 69.211) rotate(9)">
        <path id="Shape" class="cls-2" d="M24.582,13.738A13.517,13.517,0,0,0,24.6,12a10.946,10.946,0,0,0-.783-3.393A12.725,12.725,0,0,0,17.65,1.973l0,0c-.536-.256-1.075-.479-1.584-.67l.126-.383a.7.7,0,0,0-.055-.563A.693.693,0,0,0,15.32.033L15.3.038A.7.7,0,0,0,15.039.2l-.012.012a.688.688,0,0,0-.142.22l0,.006a.99.99,0,0,0-.042.1c-.034.1,0,0-.106.316C14.2.7,13.616.553,13.036.438h0a12.658,12.658,0,0,0-8.9,1.627A10.868,10.868,0,0,0,1.489,4.318,13.514,13.514,0,0,0,.474,5.724a5.475,5.475,0,0,0-.4.573.4.4,0,0,0,.046.51.405.405,0,0,0,.38.106.327.327,0,0,0,.157-.093A1.223,1.223,0,0,1,1.444,6.5a4.735,4.735,0,0,1,2.077.241A5.664,5.664,0,0,1,5.8,7.989c.13.124.25.233.173.461a.343.343,0,0,0,.227.416.347.347,0,0,0,.475-.128.612.612,0,0,1,.534-.288,3.717,3.717,0,0,1,.42-.032s0,0,0,0c.118,0,.237,0,.354.006a5.255,5.255,0,0,1,.876.128c.211.048.422.107.631.175l.07.023a5.515,5.515,0,0,1,2.166,1.208l.033.031c.021.021.041.041.06.062-.255.774-.861,2.628-.988,3.023A4.989,4.989,0,0,1,12,13.761l1.106-3.377a5.57,5.57,0,0,1,2.386.336l.069.024a6.075,6.075,0,0,1,1.39.66,4.153,4.153,0,0,1,.605.486.616.616,0,0,1,.257.551.348.348,0,0,0,.305.387.341.341,0,0,0,.43-.2c.074-.228.235-.244.413-.266a5.641,5.641,0,0,1,2.573.364,4.751,4.751,0,0,1,1.81,1.051,1.229,1.229,0,0,1,.445.732.33.33,0,0,0,.071.169.407.407,0,0,0,.368.142c.216-.028.3-.186.34-.382A5.517,5.517,0,0,0,24.582,13.738Z"/>
        <g id="Group" transform="translate(4.774 13.568)">
          <path id="Shape-2" data-name="Shape" class="cls-2" d="M.1,3.76c.3.006.589.011.869-.009a.374.374,0,0,0,.153-.073,2.069,2.069,0,0,0,.251-.258.7.7,0,0,1,1.195.238c.168.492.594,1.753.806,2.408a.434.434,0,0,0,.037.088h.026A.606.606,0,0,0,3.5,6.063q.254-.51.507-1.02l.31-.625L4.93,3.177l.053-.107a.759.759,0,0,1,1.4.1c.337,1,1.257,3.753,1.749,5.251a.679.679,0,0,0,.06.142h.014a.868.868,0,0,0,.081-.138l.388-.779c.548-1.1,1.116-2.238,1.666-3.359a.878.878,0,0,1,.86-.531c.239,0,2.536.006,3.559.007-.026-.164-.057-.331-.1-.5A3.905,3.905,0,0,0,9.376.234,9.779,9.779,0,0,0,7.8,1.012a.811.811,0,0,1-.837,0A9.8,9.8,0,0,0,5.387.234,3.906,3.906,0,0,0,.1,3.262c-.039.168-.069.333-.1.5Z" transform="translate(0.089 0.072)"/>
          <path id="Shape-3" data-name="Shape" class="cls-2" d="M11.385.5C10.85,1.591,10.3,2.692,9.77,3.758l-.388.778A1.211,1.211,0,0,1,8.3,5.308,1.38,1.38,0,0,1,8.151,5.3a1.189,1.189,0,0,1-1.026-.923C6.74,3.206,6.093,1.266,5.669,0L5.4.53,5.1,1.154q-.254.512-.508,1.024a1.148,1.148,0,0,1-1.2.719,1.146,1.146,0,0,1-1.018-.875C2.221,1.573,1.975.838,1.782.265a1.435,1.435,0,0,1-.656.229C.794.518.47.512.155.506L0,.5A5.826,5.826,0,0,0,2.451,5c1.084.851,2.293,1.54,3.447,2.3.435.288.881.563,1.306.866a.47.47,0,0,0,.241.1v0l.009,0,.009,0v0a.465.465,0,0,0,.241-.1c.425-.3.871-.578,1.306-.866,1.154-.76,2.362-1.449,3.447-2.3A5.825,5.825,0,0,0,14.907.507C13.944.507,11.6.506,11.385.5Z" transform="translate(0.017 4.473)"/>
        </g>
      </g>
      <g id="noun_health_insurance_575938_ffffff" data-name="noun_health insurance_575938_ffffff" transform="matrix(0.996, -0.087, 0.087, 0.996, 239.003, 142.179)">
        <g id="Group-2" data-name="Group">
          <path id="Shape-4" data-name="Shape" class="cls-3" d="M25.358,14.824A10.567,10.567,0,0,1,15,23.4h-.06A10.552,10.552,0,0,1,4.472,13.584C2.267,13.06,1.78,10.176,1.76,10.048A.908.908,0,0,1,1.8,9.576C1.268,7.984.717,6.308.166,4.592A3.578,3.578,0,0,1,.433,1.808,2.869,2.869,0,0,1,2.211.372,2.52,2.52,0,0,0,2.578.244a2.4,2.4,0,0,1,.7-.2.7.7,0,0,1,.092,0,.931.931,0,0,1,.667.268.954.954,0,0,1,.268.7A1.059,1.059,0,0,1,3.173,2h-.04a1.222,1.222,0,0,1-.479-.136A.738.738,0,0,0,2.478,1.8c-.148-.036-.288.084-.435.216a1.87,1.87,0,0,0-.571,2.064c.559,1.768,1.195,3.516,1.686,4.856l.212.3a.915.915,0,0,1,.256.5l0,.012a4.539,4.539,0,0,0,.288.92c.008.02.028.06.044.1s.028.06.044.092c.3.592.679.9,1.115.92h.048l.016,0H5.22c.276,0,1.207-.148,1.51-2.028a.948.948,0,0,1,.5-.688l.156-.416q.432-1.152.863-2.316c.076-.216.168-.44.264-.672a3.84,3.84,0,0,0,.439-2.88c-.276-.628-.587-.988-.855-.988a1.161,1.161,0,0,0-.3.084A1.381,1.381,0,0,1,7.27,2a.88.88,0,0,1-.4-.1.953.953,0,0,1-.6-.776A1.109,1.109,0,0,1,6.81.152.787.787,0,0,1,7.289,0a1.919,1.919,0,0,1,.935.344c.052.028.1.06.144.084a6.964,6.964,0,0,1,1.3.852A2.767,2.767,0,0,1,10.5,3.536a4.56,4.56,0,0,1-.22,1.24c-.26.772-.531,1.548-.795,2.3-.244.692-.491,1.384-.727,2.08-.06.176-.116.352-.172.528a1.016,1.016,0,0,1,.016.364c-.379,2.3-1.578,3.128-2.341,3.428a5.805,5.805,0,0,0,.028.616,8.8,8.8,0,1,0,16-6.144,3.7,3.7,0,0,0,1.279-1.268c.164.224.316.456.459.692a10.568,10.568,0,0,1,1.333,7.456Z" transform="translate(0.157 0.034)"/>
          <ellipse id="Oval" class="cls-3" cx="2.745" cy="2.749" rx="2.745" ry="2.749" transform="translate(17.789 2.028)"/>
        </g>
        <path id="Shape-5" data-name="Shape" class="cls-3" d="M5.27,11.255h0l-.2-.117a.3.3,0,0,0-.043-.026,11.138,11.138,0,0,1-5-8.467C.019,2.583.011,2.484,0,2.379V2.364a.758.758,0,0,1,.535-.782c.4-.125,2.278-.816,3.93-1.435a2.265,2.265,0,0,1,1.6,0C7.718.765,9.6,1.456,10,1.582a.755.755,0,0,1,.535.782l-.012.156v.006c0,.047-.007.088-.009.119a11.137,11.137,0,0,1-5,8.463v0a.351.351,0,0,0-.042.026l-.2.117ZM2.435,4.685V6.233H4.5V8.307H6.035v-2.1h2.07V4.672H6.027V2.585H4.479v2.1Z" transform="translate(10.297 8.142)"/>
      </g>
      <g id="noun_Waiting_575935_2731ff" transform="matrix(0.985, 0.174, -0.174, 0.985, 251.36, 319.019)">
        <path id="Shape-6" data-name="Shape" class="cls-4" d="M11.989,5.166c-.288-.259-1.426-.11-1.8-.1-.674.013-1.347.055-2.02.1a9.639,9.639,0,0,1-1.925.1,1.763,1.763,0,0,0-.129-.23L3.184.754A1.759,1.759,0,0,0,.761.3,1.729,1.729,0,0,0,.3,2.7L3.233,6.979a1.836,1.836,0,0,0,.23.272c1.763-.089,3.523-.224,5.282-.366.858-.07,1.716-.142,2.574-.21.445-.035.622.045.772-.3A1.734,1.734,0,0,0,12,5.182Z" transform="translate(4.052 7.251)"/>
        <circle id="Oval-2" data-name="Oval" class="cls-4" cx="1.92" cy="1.92" r="1.92" transform="translate(1.92 3.199)"/>
        <path id="Shape-7" data-name="Shape" class="cls-4" d="M18.466,8.165A3.26,3.26,0,0,0,16.38,7.9q-4.716.456-9.431.907C5.728,6.85,4.525,4.878,3.3,2.919,2.83,2.166,2.268.714,1.556.185A.976.976,0,0,0,.04.739,2.712,2.712,0,0,0,.468,2.528,54.857,54.857,0,0,1,5.34,17.248l1.541-.038v-.824a2.894,2.894,0,0,1,1.262-2.476,6.273,6.273,0,0,1,3.635-.845,6.233,6.233,0,0,1,3.568.841,2.979,2.979,0,0,1,1.2,2.328c.035.381-.09.959.2,1.155.333.224,1.62,0,2.04,0a21.3,21.3,0,0,1,.306-3.037c.058-.628.112-1.261.171-1.893.029-.358.062-.711.1-1.069C19.469,10.216,19.461,8.8,18.466,8.165Z" transform="translate(0 6.612)"/>
        <path id="Shape-8" data-name="Shape" class="cls-4" d="M4.38,6.024.6.408.587.385A.682.682,0,0,0,.538.326a1.032,1.032,0,0,0-.457-.3L0,0V3.16L3.14,6.8a.73.73,0,0,0,.556.238.846.846,0,0,0,.4-.1.721.721,0,0,0,.363-.456A.572.572,0,0,0,4.38,6.024Z" transform="translate(20.475 16.209)"/>
        <g id="Group-3" data-name="Group" transform="translate(12.157)">
          <path id="Shape-9" data-name="Shape" class="cls-4" d="M.417,1.31A2.625,2.625,0,0,1,.053,2.623L0,2.614s.035-.056.09-.164a2.657,2.657,0,0,0,.192-.473,2.487,2.487,0,0,0,.1-.758A2.573,2.573,0,0,0,.151.237C.117.164.079.089.038.013L.054,0A2.623,2.623,0,0,1,.417,1.31Z" transform="translate(9.248 4.02)"/>
          <circle id="Oval-3" data-name="Oval" class="cls-4" cx="0.805" cy="0.805" r="0.805" transform="translate(8.21 8.008)"/>
          <circle id="Oval-4" data-name="Oval" class="cls-4" cx="0.681" cy="0.681" r="0.681" transform="translate(6.11 9.555)"/>
          <circle id="Oval-5" data-name="Oval" class="cls-4" cx="0.602" cy="0.602" r="0.602" transform="translate(3.55 9.736)"/>
          <path id="Shape-10" data-name="Shape" class="cls-4" d="M11.02,5.509A5.494,5.494,0,0,1,10.786,7.1L9.209,6.636A4.229,4.229,0,0,0,7.77,1.973l-.058-.045a4.4,4.4,0,0,0-.987-.563,4.294,4.294,0,0,0-.72-.22l-.094-.02L5.818,1.11c-.062-.011-.127-.022-.185-.028l-.089-.01a.952.952,0,0,0-.1-.009l-.108-.006-.054,0-.028,0H5.233a4.5,4.5,0,0,0-1.507.207A4.525,4.525,0,0,0,1.4,2.975c-.068.093-.127.189-.186.284-.029.048-.054.1-.082.144s-.052.1-.076.145a4.429,4.429,0,0,0-.243.578c-.031.1-.063.19-.087.284C.716,4.456.7,4.5.692,4.549s-.02.092-.03.138c0,.022-.01.045-.014.066S.64,4.8.636,4.82l-.021.131c-.013.086-.02.167-.03.247s-.011.172-.016.253v.016s0,0,0,0V5.5c0,.019,0,.038,0,.056,0,.038,0,.074,0,.11,0,.144.008.276.019.395a4.563,4.563,0,0,0,.084.549c.013.063.023.107.032.142s.013.052.013.052l-.5.142L.2,6.9C.191,6.868.174,6.811.154,6.742S.107,6.57.081,6.455A5.51,5.51,0,1,1,11.02,5.509Z" transform="translate(0.068 0.007)"/>
          <path id="Shape-11" data-name="Shape" class="cls-4" d="M3.706.16a.319.319,0,0,0-.431-.12c-.182.089-.358.192-.531.294L2.7.358Q2.283.6,1.866.853l-.473.281a1.015,1.015,0,0,0-.955.1A1.047,1.047,0,0,0,.3,1.345,1,1,0,0,0,1,3.059a1,1,0,0,0,.565-.175A1.008,1.008,0,0,0,2,2.024c.268-.232.681-.581,1.014-.862l.029-.024c.312-.264.558-.472.61-.52A.329.329,0,0,0,3.706.16Z" transform="translate(4.408 3.802)"/>
        </g>
      </g>
      <g id="noun_Online_Doctor_575985_2731ff" data-name="noun_Online Doctor_575985_2731ff" transform="matrix(0.996, -0.087, 0.087, 0.996, 33.788, 365.232)">
        <path id="Shape-12" data-name="Shape" class="cls-5" d="M.207,15.067a.2.2,0,0,1-.207-.2V2.9A2.88,2.88,0,0,1,.9.793,2.913,2.913,0,0,1,2.873,0h.052c.972.014,2.458.02,4.544.02,1.592,0,3.285,0,4.779-.007h.011c1.2,0,2.232-.005,3.012-.005a2.922,2.922,0,0,1,1.774.6,2.883,2.883,0,0,1,1.142,2.216c.033,1,.072,5.247-.363,6.314a5.7,5.7,0,0,1-.766,1.326,5.39,5.39,0,0,1-2.683,1.867,5.168,5.168,0,0,1-1.568.229c-.206,0-.415-.008-.637-.017-.266-.011-.541-.022-.865-.022-1.254,0-7.036,0-8.323.009a.427.427,0,0,0-.286.118l-.058.058c-.608.606-1.7,1.706-2.29,2.3A.2.2,0,0,1,.207,15.067ZM4.623,4.993V7.539h3.22v3.226h2.517V7.5h3.221V4.975H10.348V1.733H7.808V4.993Z" transform="translate(7.847 6.906)"/>
        <path id="Shape-13" data-name="Shape" class="cls-5" d="M2.5,28.564a2.338,2.338,0,0,1-2.4-1.7,3.1,3.1,0,0,1-.1-.822c0-5.231,0-10.55,0-15.695v-.026q0-3.93,0-7.86A2.383,2.383,0,0,1,.684.636,2.46,2.46,0,0,1,2.474,0L6.882,0h.037L11.3,0l1.393,0,1.4,0c.521,0,.978,0,1.4,0a2.36,2.36,0,0,1,2.367,1.932,2.2,2.2,0,0,1,.032.429v3.21H16.165V3.309H1.648V23.864H16.164V20.452h1.709c0,1.961.006,3.786.019,5.58a2.513,2.513,0,0,1-.709,1.814,2.465,2.465,0,0,1-1.8.71h-.009c-1.55-.01-3.388-.019-5.269-.019H8.868c-1.414,0-2.85.008-4.239.016l-2.119.011ZM8.9,24.785H8.895a1.426,1.426,0,0,0-1.411,1.427,1.425,1.425,0,1,0,2.85,0A1.428,1.428,0,0,0,8.9,24.785Z"/>
      </g>
      <g id="noun_Hospital_575969_2731ff" transform="matrix(0.998, -0.07, 0.07, 0.998, 160.125, 398.939)">
        <path id="Shape-14" data-name="Shape" class="cls-6" d="M5.532,3.583H3.594V5.532H1.94V3.607H0V1.948H1.917V0H3.586V1.938H5.532Z" transform="translate(5.532 4.742)"/>
        <path id="Shape-15" data-name="Shape" class="cls-6" d="M0,.017H.007V0H1.581V2.617h0v.017H0Z" transform="translate(10.8 11.59)"/>
        <path id="Shape-16" data-name="Shape" class="cls-6" d="M0,0H0V0H1.581V2.634H0v0H0Z" transform="translate(10.8 15.542)"/>
        <rect id="Rectangle-path" class="cls-6" width="1.581" height="2.634" transform="translate(10.8 19.756)"/>
        <path id="Shape-17" data-name="Shape" class="cls-6" d="M0,0H1.564V.027h.016V2.634H0v-.02H0Z" transform="translate(7.376 11.327)"/>
        <path id="Shape-18" data-name="Shape" class="cls-6" d="M.03,0V0H1.844V2.617H1.836v.017c-.572,0-1.133,0-1.7-.007A.075.075,0,0,1,.1,2.617H.03V2.55A.076.076,0,0,1,.008,2.5C0,1.675,0,.848,0,0Z" transform="translate(7.376 15.542)"/>
        <rect id="Rectangle-path-2" data-name="Rectangle-path" class="cls-6" width="1.581" height="2.634" transform="translate(7.376 19.756)"/>
        <path id="Shape-19" data-name="Shape" class="cls-6" d="M0,.017H.007V0H1.581V2.617h0v.017H0Z" transform="translate(20.02 9.22)"/>
        <path id="Shape-20" data-name="Shape" class="cls-6" d="M0,0H0V0H1.581V2.634H0v0H0Z" transform="translate(20.02 13.434)"/>
        <rect id="Rectangle-path-3" data-name="Rectangle-path" class="cls-6" width="1.581" height="2.634" transform="translate(20.02 17.912)"/>
        <path id="Shape-21" data-name="Shape" class="cls-6" d="M0,0H1.564V.027h.016V2.634H0v-.02H0Z" transform="translate(16.595 9.22)"/>
        <path id="Shape-22" data-name="Shape" class="cls-6" d="M.03,0V0H1.844V2.617H1.836v.017c-.572,0-1.133,0-1.7-.007A.075.075,0,0,1,.1,2.617H.03V2.55A.076.076,0,0,1,.008,2.5C0,1.675,0,.848,0,0Z" transform="translate(16.595 13.434)"/>
        <rect id="Rectangle-path-4" data-name="Rectangle-path" class="cls-6" width="1.581" height="2.634" transform="translate(16.595 17.912)"/>
        <path id="Shape-23" data-name="Shape" class="cls-6" d="M0,0H1.571V.023h.01V2.634H.01V2.618H0Z" transform="translate(3.951 11.327)"/>
        <path id="Shape-24" data-name="Shape" class="cls-6" d="M0,0H1.565V0h.006v.1c0,.05.006.1.006.151,0,.7,0,1.411,0,2.118a.519.519,0,0,1-.01.127v.107H1.5a.356.356,0,0,1-.148.023C.9,2.621.46,2.627,0,2.627V0Z" transform="translate(3.951 15.542)"/>
        <rect id="Rectangle-path-5" data-name="Rectangle-path" class="cls-6" width="1.581" height="2.634" transform="translate(3.951 19.756)"/>
        <path id="Shape-25" data-name="Shape" class="cls-6" d="M16.88,25.815h0v-.007H0V23.879H.4L.4,8.186C.4,8.109.4,8.016.39,7.927V7.894A2.484,2.484,0,0,1,.616,6.382a2.411,2.411,0,0,1,.622-.622c.256-.2.284-.238.284-.284L1.493,3.035a.83.83,0,0,1,.24-.6.82.82,0,0,1,.587-.246h.592A1.044,1.044,0,0,1,3.951,1.145h8.884a1.044,1.044,0,0,1,1.039,1.048l.458,0a.928.928,0,0,1,.922.931v.557h2.174V3.342c0-.231,0-.464,0-.695,0-.545,0-1.108,0-1.669a.926.926,0,0,1,.9-.978h.005a.922.922,0,0,1,.9.99c0,.38,0,.768,0,1.144v.289c0,.2,0,.409,0,.614v.642h1.4l.115,0h.013A1.879,1.879,0,0,1,22.827,5.5a1.912,1.912,0,0,1,1.81,2.253V23.981h.416c.358.005.493.144.5.511,0,.339,0,.588,0,.807,0,.361-.145.5-.5.5H23.281ZM2.887,3.59,2.9,4.854v.1c0,.267.005.463.006.509v.01a1.725,1.725,0,0,1-.832,1.4,1.384,1.384,0,0,0-.294.264,2.15,2.15,0,0,0-.012.667c.009.136.016.267.016.382l0,15.692H13.873V6.9l-.007-.523V3.59ZM15.254,7.352l.005,14.766,2.1,0h5.455V7.352H15.254Z"/>
      </g>
    </g>
  </g>
</svg>
