<?xml version="1.0" encoding="utf-8"?>
<!-- Generator: Adobe Illustrator 22.1.0, SVG Export Plug-In . SVG Version: 6.00 Build 0)  -->
<svg version="1.1" id="Layer_1" xmlns="http://www.w3.org/2000/svg" xmlns:xlink="http://www.w3.org/1999/xlink" x="0px" y="0px"
	 viewBox="0 0 189.2 246.8" style="enable-background:new 0 0 189.2 246.8;" xml:space="preserve">
<style type="text/css">
	.st0{fill:#FFFFFF;}
	.st1{opacity:0.4;fill:#848484;enable-background:new    ;}
	.st2{fill:#FFBA97;}
	.st3{fill:#FED3AA;}
	.st4{clip-path:url(#SVGID_2_);}
	.st5{fill:#FFFFFF;stroke:#E0865F;stroke-linecap:round;stroke-miterlimit:10;}
	.st6{fill:#E0865F;}
	.st7{fill:none;stroke:#E0865F;stroke-linecap:round;stroke-miterlimit:10;}
	.st8{fill:none;stroke:#FFFFFF;stroke-width:0.6;stroke-linecap:round;stroke-miterlimit:10;}
	.st9{font-family:'Avenir-Book';}
	.st10{font-size:20px;}
</style>
<g id="Group_30" transform="translate(-652 -572.115)">
	<g transform="matrix(1, 0, 0, 1, 652, 572.12)">
		<path id="Rectangle_22-2" class="st0" d="M14,6h161.2c2.8,0,5,2.2,5,5v218.8c0,2.8-2.2,5-5,5H14c-2.8,0-5-2.2-5-5V11
			C9,8.2,11.2,6,14,6z"/>
	</g>
	<g id="red_character" transform="translate(688.65 665.09)">
		<ellipse id="Ellipse_29" class="st1" cx="57.6" cy="63.9" rx="56.8" ry="9.2"/>
		<path id="Path_180" class="st2" d="M112.2,54c-0.2,0-0.3,0-0.4-0.1c-0.8-0.2-1.2-1-0.9-1.8c2.8-8.9-3.9-17.8-4-17.9
			c-0.5-0.6-0.3-1.5,0.3-2c0.6-0.4,1.5-0.3,2,0.3c0.3,0.4,7.7,10.1,4.4,20.4C113.4,53.6,112.9,54,112.2,54z"/>
		<ellipse id="Ellipse_30" class="st2" cx="111.9" cy="54.3" rx="3.3" ry="3.3"/>
		<path id="Path_181" class="st3" d="M3,54c-0.6,0-1.2-0.4-1.3-1c-3.2-10.2,4.1-19.9,4.4-20.3c0.5-0.6,1.3-0.8,2-0.3
			c0.6,0.5,0.8,1.3,0.3,2c0,0,0,0,0,0c-0.1,0.1-6.7,9-4,17.9C4.6,53,4.2,53.8,3.5,54H3z"/>
		<ellipse id="Ellipse_31" class="st3" cx="3.3" cy="54.3" rx="3.3" ry="3.3"/>
		<path id="Path_182" class="st3" d="M80.8,62.8c-0.5,0-1-0.3-1.2-0.8c-3.9-7.7-0.2-16.4,0-16.8c0.3-0.7,1.1-1.1,1.9-0.8
			c0.7,0.3,1.1,1.1,0.8,1.9c0,0,0,0,0,0l0,0c0,0.1-3.3,7.9,0,14.4c0.4,0.7,0.1,1.5-0.6,1.8c0,0-0.1,0-0.1,0
			C81.3,62.8,81,62.8,80.8,62.8z"/>
		<path id="Path_183" class="st2" d="M78.6,48.1c0.3,0.7,0.9,2,1.7,2c0.4,0,0.9-0.9,0.9-1.2l0.7-2.5c-0.3-0.6-0.9-0.9-1.6-0.9
			c-0.3-0.1-0.6-0.1-0.9,0L78.6,48.1z"/>
		<path id="Path_184" class="st3" d="M34.5,62.8c-0.5,0-1-0.3-1.2-0.8c-3.9-7.7-0.2-16.4,0-16.8c0.3-0.7,1.1-1.1,1.9-0.8
			c0.7,0.3,1.1,1.1,0.8,1.9c0,0,0,0,0,0l0,0c0,0.1-3.3,7.9,0,14.4c0.4,0.7,0.1,1.5-0.6,1.8c0,0-0.1,0-0.1,0
			C35,62.8,34.7,62.8,34.5,62.8z"/>
		<path id="Path_185" class="st2" d="M32.3,48.1c0.3,0.7,0.9,2,1.7,2c0.4,0,0.9-0.9,0.9-1.2l0.7-2.5c-0.3-0.6-0.9-0.9-1.6-0.9
			c-0.3-0.1-0.6-0.1-0.9,0L32.3,48.1z"/>
		<path id="Path_186" class="st3" d="M34.8,63.3h-8.2c-0.8,0-1.5-0.6-1.5-1.4c0-0.4,0.2-0.8,0.5-1c1.7-1.8,4.2-2.6,6.6-2.2
			c3.3,0.6,4.1,2.1,4.1,3.2C36.2,62.6,35.6,63.3,34.8,63.3C34.8,63.3,34.8,63.3,34.8,63.3L34.8,63.3z"/>
		<path id="Path_187" class="st3" d="M81,63.3h-8.2c-0.8,0-1.5-0.6-1.5-1.4c0-0.4,0.2-0.8,0.5-1c1.7-1.8,4.2-2.6,6.6-2.2
			c3.3,0.6,4.1,2.1,4.1,3.2C82.5,62.6,81.9,63.3,81,63.3C81.1,63.3,81.1,63.3,81,63.3L81,63.3z"/>
		<path id="Path_188" class="st2" d="M9.3,0h95.6c2.5,0,4.5,1.9,4.5,4.4c0,0,0,0.1,0,0.1v38.2c0,2.5-1.9,4.5-4.4,4.5
			c0,0-0.1,0-0.1,0H9.3c-2.5,0-4.5-1.9-4.5-4.4c0,0,0-0.1,0-0.1V4.5C4.7,2.1,6.7,0,9.1,0C9.2,0,9.2,0,9.3,0z"/>
		<g id="Group_19" transform="translate(4.723)">
			<g>
				<defs>
					<path id="SVGID_1_" d="M4.5,0h95.6c2.5,0,4.5,1.9,4.5,4.4c0,0,0,0.1,0,0.1v38.2c0,2.5-1.9,4.5-4.4,4.5c0,0-0.1,0-0.1,0H4.5
						c-2.5,0-4.5-1.9-4.5-4.4c0,0,0-0.1,0-0.1V4.5C0,2.1,1.9,0,4.4,0C4.5,0,4.5,0,4.5,0z"/>
				</defs>
				<clipPath id="SVGID_2_">
					<use xlink:href="#SVGID_1_"  style="overflow:visible;"/>
				</clipPath>
				<g id="Group_18" class="st4">
					<path id="Path_189" class="st3" d="M0.6,0h95.6c2.5,0,4.5,1.9,4.5,4.4c0,0,0,0.1,0,0.1v38.2c0,2.5-1.9,4.5-4.4,4.5
						c0,0-0.1,0-0.1,0H0.6c-2.5,0-4.5-1.9-4.5-4.4c0,0,0-0.1,0-0.1V4.5C-4,2-1.9,0,0.6,0z"/>
				</g>
			</g>
		</g>
		<path id="Path_191" class="st2" d="M44.3,25.2c-0.1,0.5-2.2,0.5-3.4,0.2s-2.2-0.9-2.1-1.4s1.2-0.7,2.5-0.4S44.4,24.7,44.3,25.2z"
			/>
		<path id="Path_192" class="st2" d="M67.2,25.2c0.1,0.5,2.2,0.5,3.4,0.2s2.2-0.9,2.1-1.4s-1.2-0.7-2.6-0.4S67.1,24.7,67.2,25.2z"/>
		<ellipse id="Ellipse_32" class="st2" cx="55.7" cy="32.6" rx="1.9" ry="0.9"/>
		<ellipse id="Ellipse_33" class="st5" cx="67.8" cy="20.6" rx="4" ry="4"/>
		<ellipse id="Ellipse_34" class="st6" cx="68.1" cy="20.9" rx="2.1" ry="2.1"/>
		<path id="Path_193" class="st7" d="M65.6,14.2c1.7-0.9,3.7-0.7,5.1,0.7"/>
		<ellipse id="Ellipse_35" class="st5" cx="43.6" cy="20.6" rx="4" ry="4"/>
		<ellipse id="Ellipse_36" class="st6" cx="43.9" cy="20.9" rx="2.1" ry="2.1"/>
		<path id="Path_194" class="st7" d="M45.9,14.2c-1.7-0.9-3.7-0.7-5.1,0.7"/>
		<path id="Path_195" class="st7" d="M53.4,29.3c1.3,1.2,3.3,1.2,4.6,0"/>
		<path id="Path_196" class="st8" d="M66.5,20.1c0.1-0.4,0.4-0.7,0.8-0.9"/>
		<path id="Path_197" class="st8" d="M42.3,20.1c0.1-0.4,0.4-0.7,0.8-0.9"/>
	</g>
	<text transform="matrix(1 0 0 1 700.791 779.236)" class="st9 st10">What I Did</text>
</g>
</svg>
