<svg id="novelty" xmlns="http://www.w3.org/2000/svg" viewBox="0 0 100 100">
  <defs>
    <style>
      .cls-1 {
        fill: #4f54ff;
      }

      .cls-2 {
        fill: #fff;
      }
    </style>
  </defs>
  <circle id="Oval_6" data-name="Oval 6" class="cls-1" cx="50" cy="50" r="50"/>
  <path id="Shape" class="cls-2" d="M31.526,51a1.517,1.517,0,0,1-1.549-1.4,9.03,9.03,0,0,0-8.333-8.332,1.529,1.529,0,0,1,0-3.046,9.032,9.032,0,0,0,8.333-8.333,1.529,1.529,0,0,1,3.046,0,9.032,9.032,0,0,0,8.333,8.333,1.529,1.529,0,0,1,0,3.046,9.03,9.03,0,0,0-8.333,8.332A1.506,1.506,0,0,1,31.526,51ZM14.27,33a1.506,1.506,0,0,1-1.539-1.418A11.97,11.97,0,0,0,1.418,20.268a1.522,1.522,0,0,1,0-3.037A11.968,11.968,0,0,0,12.731,5.918a1.522,1.522,0,0,1,3.037,0A11.97,11.97,0,0,0,27.082,17.231a1.522,1.522,0,0,1,0,3.037A11.972,11.972,0,0,0,15.768,31.582,1.5,1.5,0,0,1,14.27,33ZM41.25,19.5a1.437,1.437,0,0,1-1.5-1.5A6.758,6.758,0,0,0,33,11.25a1.438,1.438,0,0,1-1.5-1.5A1.438,1.438,0,0,1,33,8.25,6.758,6.758,0,0,0,39.75,1.5a1.5,1.5,0,1,1,3,0A6.758,6.758,0,0,0,49.5,8.25,1.437,1.437,0,0,1,51,9.75a1.437,1.437,0,0,1-1.5,1.5A6.758,6.758,0,0,0,42.75,18,1.437,1.437,0,0,1,41.25,19.5Z" transform="translate(21 24)"/>
</svg>
