<?xml version="1.0" encoding="UTF-8"?>
<svg width="100px" height="100px" viewBox="0 0 100 100" version="1.1" xmlns="http://www.w3.org/2000/svg" xmlns:xlink="http://www.w3.org/1999/xlink">
    <!-- Generator: Sketch 51.2 (57519) - http://www.bohemiancoding.com/sketch -->
    <title>Group 4</title>
    <desc>Created with Sketch.</desc>
    <defs></defs>
    <g id="Page-1" stroke="none" stroke-width="1" fill="none" fill-rule="evenodd">
        <g id="Desktop-HD-Copy-3" transform="translate(-572.000000, -1058.000000)">
            <g id="Group-2" transform="translate(569.000000, 1058.000000)">
                <g id="Group-4" transform="translate(3.000000, 0.000000)">
                    <circle id="Oval-2" fill="#4F54FF" cx="50" cy="50" r="50"></circle>
                    <g id="noun_hide_878115_546ae8" transform="translate(20.000000, 33.000000)" fill="#FFFFFF" fill-rule="nonzero">
                        <path d="M30,0 C17.443,0 6.65,7.076 0.7,17 C6.645,26.915 17.433,34 30,34 C42.558,34 53.35,26.924 59.3,17 C53.354,7.085 42.567,0 30,0 Z M30,30 C27.1,30 24.5,29.1 22.3,27.5 L40.4,9.4 C42,11.6 42.9,14.2 42.9,17.1 C43,24.2 37.2,30 30,30 Z M30,4 C32.9,4 35.5,4.9 37.7,6.5 L19.5,24.7 C17.9,22.5 17,19.9 17,17 C17,9.8 22.8,4 30,4 Z M5.4,17 C6.8,15.1 10.2,10.9 15.7,7.8 C14,10.5 13,13.6 13,17 C13,20.4 14,23.5 15.7,26.2 C10.3,23.1 6.8,18.9 5.4,17 Z M44.3,26.2 C46,23.5 47,20.4 47,17 C47,13.6 46,10.5 44.3,7.8 C49.7,10.9 53.2,15.1 54.6,17 C53.2,18.9 49.7,23.1 44.3,26.2 Z" id="Shape"></path>
                    </g>
                </g>
            </g>
        </g>
    </g>
</svg>