<?xml version="1.0" encoding="utf-8"?>
<!-- Generator: Adobe Illustrator 22.1.0, SVG Export Plug-In . SVG Version: 6.00 Build 0)  -->
<svg version="1.1" id="Layer_1" xmlns="http://www.w3.org/2000/svg" xmlns:xlink="http://www.w3.org/1999/xlink" x="0px" y="0px"
	 viewBox="0 0 517 852" style="enable-background:new 0 0 517 852;" xml:space="preserve">
<style type="text/css">
	.st0{filter:url(#Adobe_OpacityMaskFilter);}
	.st1{fill:#FFFFFF;}
	.st2{mask:url(#mask-2_1_);fill:#4F54FF;fill-opacity:0.3;}
	.st3{filter:url(#Adobe_OpacityMaskFilter_1_);}
	.st4{mask:url(#mask-2_2_);fill:#4F54FF;}
	.st5{filter:url(#Adobe_OpacityMaskFilter_2_);}
	.st6{mask:url(#mask-2_3_);}
	.st7{fill:#F1F1F1;}
</style>
<title>Group 15</title>
<desc>Created with Sketch.</desc>
<g id="Page-2">
	<g id="Desktop-HD-Copy-3" transform="translate(0.000000, -3283.000000)">
		<g id="Group-7" transform="translate(-331.000000, 3243.000000)">
			<g id="Group-15">
				<g id="Rectangle-5">
				</g>
				<defs>
					<filter id="Adobe_OpacityMaskFilter" filterUnits="userSpaceOnUse" x="40.6" y="40.3" width="807" height="807">
						<feColorMatrix  type="matrix" values="1 0 0 0 0  0 1 0 0 0  0 0 1 0 0  0 0 0 1 0"/>
					</filter>
				</defs>
				<mask maskUnits="userSpaceOnUse" x="40.6" y="40.3" width="807" height="807" id="mask-2_1_">
					<g class="st0">
						<rect id="path-1_1_" x="331" y="24" class="st1" width="531" height="871"/>
					</g>
				</mask>
				<path id="Rectangle-2" class="st2" d="M505.9,68.4L819.5,382c37.5,37.5,37.5,98.3,0,135.8L518.1,819.2
					c-37.5,37.5-98.3,37.5-135.8,0L68.8,505.6c-37.5-37.5-37.5-98.3,0-135.8L370.1,68.4C407.6,30.9,468.4,30.9,505.9,68.4z"/>
				<defs>
					<filter id="Adobe_OpacityMaskFilter_1_" filterUnits="userSpaceOnUse" x="77.8" y="105.9" width="766.9" height="757.7">
						<feColorMatrix  type="matrix" values="1 0 0 0 0  0 1 0 0 0  0 0 1 0 0  0 0 0 1 0"/>
					</filter>
				</defs>
				<mask maskUnits="userSpaceOnUse" x="77.8" y="105.9" width="766.9" height="757.7" id="mask-2_2_">
					<g class="st3">
						<rect id="path-1_2_" x="331" y="24" class="st1" width="531" height="871"/>
					</g>
				</mask>
				<path id="Rectangle-2_1_" class="st4" d="M377.9,113.5l408.3,173.3c48.8,20.7,71.6,77.1,50.9,125.9L670.5,805
					c-20.7,48.8-77.1,71.6-125.9,50.9L136.3,682.6c-48.8-20.7-71.6-77.1-50.9-125.9L252,164.4C272.7,115.6,329.1,92.8,377.9,113.5z"
					/>
				<defs>
					<filter id="Adobe_OpacityMaskFilter_2_" filterUnits="userSpaceOnUse" x="385" y="175.1" width="415" height="734.8">
						<feColorMatrix  type="matrix" values="1 0 0 0 0  0 1 0 0 0  0 0 1 0 0  0 0 0 1 0"/>
					</filter>
				</defs>
				<mask maskUnits="userSpaceOnUse" x="385" y="175.1" width="415" height="734.8" id="mask-2_3_">
					<g class="st5">
						<rect id="path-1_3_" x="331" y="24" class="st1" width="531" height="871"/>
					</g>
				</mask>
				<g id="Group-9" class="st6">
					<g transform="translate(385.000000, 174.000000)">
						<g transform="matrix(1 0 0 1 0 0)" style="enable-background:new    ;">
							
								<image style="overflow:visible;" width="549" height="972" id="iPhone7-minimal-mockup" xlink:href="72428934D37B9DBC.png"  transform="matrix(0.7559 0 0 0.7559 0 1.123)">
							</image>
						</g>
						<rect id="Rectangle-3" x="65" y="110" class="st1" width="281" height="101.8"/>
						<rect id="Rectangle-4" x="154" y="129" class="st7" width="109" height="10"/>
						<rect id="Rectangle-3_1_" x="65" y="411" class="st1" width="284" height="205"/>
						<circle id="Oval-4" class="st7" cx="104" cy="174" r="13"/>
						<circle id="Oval-4_1_" class="st7" cx="156" cy="174" r="13"/>
						<circle id="Oval-4_2_" class="st7" cx="208" cy="174" r="13"/>
						<circle id="Oval-4_3_" class="st7" cx="260" cy="174" r="13"/>
						<circle id="Oval-4_4_" class="st7" cx="312" cy="174" r="13"/>
						<g style="enable-background:new    ;">
							
								<image style="overflow:visible;" width="742" height="525" id="conditional-trivia-screen" xlink:href="72428934D37B9DBD.png"  transform="matrix(0.3801 0 0 0.3801 65 212.2358)">
							</image>
						</g>
						<rect id="Rectangle-22" x="75" y="431" class="st7" width="263" height="75"/>
						<rect id="Rectangle-22_1_" x="75" y="517" class="st7" width="263" height="75"/>
						<rect id="Rectangle-22_2_" x="75" y="603" class="st7" width="263" height="13"/>
					</g>
				</g>
			</g>
		</g>
	</g>
</g>
</svg>
