<?xml version="1.0" encoding="utf-8"?>
<!-- Generator: Adobe Illustrator 22.1.0, SVG Export Plug-In . SVG Version: 6.00 Build 0)  -->
<svg version="1.1" id="Layer_1" xmlns="http://www.w3.org/2000/svg" xmlns:xlink="http://www.w3.org/1999/xlink" x="0px" y="0px"
	 viewBox="0 0 189.2 246.8" style="enable-background:new 0 0 189.2 246.8;" xml:space="preserve">
<style type="text/css">
	.st0{fill:#FFFFFF;}
	.st1{opacity:0.4;fill:#848484;enable-background:new    ;}
	.st2{fill:#6FA4C1;}
	.st3{fill:#73BCE4;}
	.st4{fill:none;stroke:#5B879E;stroke-linecap:round;}
	.st5{fill:#5B879E;}
	.st6{fill:#A5CCE1;}
	.st7{fill:#DCF3FF;}
	.st8{fill:#595959;}
	.st9{font-family:'ArialMT';}
	.st10{font-size:7px;}
	.st11{font-family:'Avenir-Book';}
	.st12{font-size:20px;}
</style>
<g id="Group_27" transform="translate(-26 -572.115)">
	<g transform="matrix(1, 0, 0, 1, 26, 572.12)">
		<path id="Rectangle_19-2" class="st0" d="M14,6h161.2c2.8,0,5,2.2,5,5v218.8c0,2.8-2.2,5-5,5H14c-2.8,0-5-2.2-5-5V11
			C9,8.2,11.2,6,14,6z"/>
	</g>
	<g id="guilty_flu_" transform="translate(67.671 629.4)">
		<ellipse id="Ellipse_28" class="st1" cx="51.7" cy="101.7" rx="41" ry="6.7"/>
		<ellipse id="Oval-4" class="st2" cx="53.7" cy="49" rx="36.1" ry="36.1"/>
		<ellipse id="Oval-4_1_" class="st3" cx="53.7" cy="52.5" rx="36.1" ry="36.1"/>
		<path id="Stroke-54" class="st4" d="M56.4,61.1c-1.4-1.8-3.9-2.2-5.7-0.9"/>
		<path id="Fill-60" d="M53.1,62.7c-0.9-0.2-1.5-0.7-1.4-1.1s0.9-0.7,1.7-0.5s1.5,0.7,1.4,1.1S54,62.9,53.1,62.7z"/>
		<g id="Group-45" transform="translate(39.675 46.067)">
			<path id="Fill-39" class="st5" d="M24.6,1.8c1,0,1.8,0.8,1.8,1.8c0,1-0.8,1.8-1.8,1.8c-1,0-1.8-0.8-1.8-1.8c0,0,0,0,0,0
				C22.8,2.6,23.6,1.8,24.6,1.8C24.6,1.8,24.6,1.8,24.6,1.8"/>
			<path id="Fill-41" class="st0" d="M5.6,3.6c0-1-0.8-1.8-1.8-1.8C2.8,1.8,2,2.6,2,3.6c0,1,0.8,1.8,1.8,1.8
				C4.8,5.4,5.6,4.6,5.6,3.6 M7,3.4C6.8,5.1,5.7,6.6,4,7.1C3,7.5,1.8,7.2,1,6.4c-0.9-0.7-1.2-2-0.8-3C0.6,1.6,1.7,0,3.5,0
				C5.4,0,6.9,1.5,7,3.4C7,3.3,7,3.4,7,3.4L7,3.4z"/>
			<path id="Fill-41_1_" class="st0" d="M22.8,3.6c0-1,0.8-1.8,1.8-1.8c1,0,1.8,0.8,1.8,1.8s-0.8,1.8-1.8,1.8l0,0
				C23.6,5.4,22.8,4.6,22.8,3.6 M21.5,3.4c0.1,1.7,1.3,3.2,3,3.7c1.1,0.4,2.2,0.1,3-0.7c0.9-0.7,1.2-2,0.8-3C27.9,1.6,26.8,0,24.9,0
				C23,0,21.5,1.5,21.5,3.4C21.5,3.4,21.5,3.4,21.5,3.4z"/>
			<path id="Fill-43" class="st5" d="M3.8,1.8c1,0,1.8,0.8,1.8,1.8S4.8,5.4,3.8,5.4S2,4.6,2,3.6l0,0C2,2.6,2.8,1.8,3.8,1.8"/>
		</g>
		<path id="Rectangle-3" class="st5" d="M35.3,46.6l12.2-3.3l-9.3,5.2L35.3,46.6z"/>
		<path id="Rectangle-3_1_" class="st5" d="M72,46.6l-12.2-3.3l9.3,5.2L72,46.6z"/>
		<path id="Fill-5" class="st3" d="M63.3,100.9c-0.5,0-0.9-0.3-1.1-0.7c-3.3-6.6-0.2-14.1,0-14.4c0.3-0.6,1-0.9,1.6-0.7
			c0.6,0.3,0.9,1,0.7,1.6c0,0.1-2.8,6.8,0,12.4c0.3,0.6,0.1,1.3-0.5,1.6c0,0,0,0-0.1,0C63.6,100.9,63.5,100.9,63.3,100.9"/>
		<path id="Fill-9" class="st3" d="M45.9,100.9c-0.5,0-0.9-0.3-1.1-0.7c-3.3-6.6-0.2-14.1,0-14.4c0.3-0.6,1-0.9,1.6-0.7
			c0.6,0.3,0.9,1,0.7,1.6c0,0.1-2.8,6.8,0,12.4c0.3,0.6,0.1,1.3-0.5,1.6c0,0,0,0-0.1,0C46.2,100.9,46,100.9,45.9,100.9"/>
		<path id="Fill-23" class="st3" d="M39.3,101c-0.7,0-1.3-0.6-1.3-1.3c0-0.3,0.1-0.7,0.4-0.9c1.5-1.5,3.6-2.3,5.7-1.9
			c2.8,0.5,3.5,1.7,3.5,2.7c0,0.7-0.5,1.3-1.1,1.3c0,0-0.1,0-0.1,0L39.3,101L39.3,101z"/>
		<path id="Fill-25" class="st3" d="M63.8,101h-7c-0.7,0-1.3-0.6-1.3-1.3c0-0.3,0.1-0.7,0.4-0.9c1.5-1.5,3.6-2.3,5.7-1.9
			c2.8,0.5,3.5,1.7,3.5,2.7c0.1,0.7-0.4,1.3-1.1,1.3C63.8,101,63.8,101,63.8,101"/>
		<g id="Group-4" transform="matrix(0.719, -0.695, 0.695, 0.719, 19.217, 23.191)">
			<path id="Rectangle-2" class="st6" d="M0.7,1.7h0.7c0.5,5.7,0.7,8.6,0.6,8.7c-0.3,0.1-0.6,0.2-0.9,0.2c-0.3,0-0.6,0-0.9-0.2
				C0,10.4,0.2,7.4,0.7,1.7z"/>
			<circle id="Oval-5" class="st6" cx="1.1" cy="1.1" r="1.1"/>
		</g>
		<g id="Group-4_1_" transform="matrix(-0.719, -0.695, 0.695, -0.719, 23.643, 84.705)">
			<path id="Rectangle-2_1_" class="st6" d="M0.7,1.8h0.7c0.5,5.7,0.7,8.6,0.6,8.7c-0.3,0.1-0.6,0.2-0.9,0.2c-0.3,0-0.6,0-0.9-0.2
				C0,10.4,0.2,7.4,0.7,1.8z"/>
			
				<ellipse id="Oval-5_1_" transform="matrix(0.719 -0.695 0.695 0.719 -0.4504 1.0619)" class="st6" cx="1.1" cy="1.1" rx="1.1" ry="1.1"/>
		</g>
		<g id="Group-4_2_" transform="translate(96.356 38.621) rotate(63)">
			<path id="Rectangle-2_2_" class="st6" d="M0.7,1.8l0.7,0c0.5,5.7,0.7,8.6,0.6,8.7c-0.3,0.1-0.6,0.2-0.9,0.2c-0.3,0-0.6,0-0.9-0.2
				C0,10.4,0.2,7.4,0.7,1.8z"/>
			
				<ellipse id="Oval-5_2_" transform="matrix(-0.454 0.891 -0.891 -0.454 2.5514 0.6125)" class="st6" cx="1.1" cy="1.1" rx="1.1" ry="1.1"/>
		</g>
		<g id="Group-4_3_" transform="translate(65.541 0) rotate(10)">
			<path id="Rectangle-2_3_" class="st6" d="M1.4,3.3l1.2,0c1,10.7,1.3,16.1,1,16.4C3.2,19.9,2.6,20,2,20c-0.6,0.1-1.1,0-1.6-0.3
				C0.1,19.4,0.4,14,1.4,3.3z"/>
			
				<ellipse id="Oval-5_3_" transform="matrix(-0.9848 0.1737 -0.1737 -0.9848 4.414 3.7038)" class="st6" cx="2" cy="2" rx="2" ry="2"/>
		</g>
		<g id="Group-4_4_" transform="translate(93.068 19.343) rotate(57)">
			<path id="Rectangle-2_4_" class="st6" d="M1.4,3.3l1.2,0c1,10.7,1.3,16.1,1,16.4C3.2,19.9,2.6,20,2,20c-0.6,0.1-1.1,0-1.6-0.3
				C0.1,19.4,0.4,14,1.4,3.3z"/>
			
				<ellipse id="Oval-5_4_" transform="matrix(-0.5446 0.8387 -0.8387 -0.5446 4.8739 1.4437)" class="st6" cx="2" cy="2" rx="2" ry="2"/>
		</g>
		<g id="Group-4_5_" transform="matrix(0.259, -0.966, 0.966, 0.259, 1.884, 40.604)">
			<path id="Rectangle-2_5_" class="st6" d="M1.4,3.4h1.3c1,10.8,1.4,16.4,1,16.6c-0.5,0.2-1.1,0.4-1.7,0.3c-0.6,0.1-1.2,0-1.7-0.3
				C0.1,19.8,0.4,14.2,1.4,3.4z"/>
			
				<ellipse id="Oval-5_5_" transform="matrix(-0.259 -0.9659 0.9659 -0.259 0.6123 4.6477)" class="st6" cx="2.1" cy="2.1" rx="2.1" ry="2.1"/>
		</g>
		<g id="Group-4_6_" transform="translate(22.798 7.006) rotate(-33)">
			<path id="Rectangle-2_6_" class="st6" d="M1.4,3.3l1.2,0c1,10.7,1.3,16.1,1,16.4C3.2,19.9,2.6,20,2,20c-0.6,0.1-1.1,0-1.6-0.3
				C0.1,19.5,0.4,14,1.4,3.3z"/>
			
				<ellipse id="Oval-5_6_" transform="matrix(-0.8387 -0.5446 0.5446 -0.8387 2.6463 4.8739)" class="st6" cx="2" cy="2" rx="2" ry="2"/>
		</g>
		<g id="Group-4_7_" transform="translate(1.196 64.372) rotate(-107)">
			<path id="Rectangle-2_7_" class="st6" d="M1.4,3.3l1.2,0c1,10.7,1.4,16.1,1,16.4C3.2,19.9,2.6,20,2,20c-0.6,0.1-1.1,0-1.6-0.3
				C0.1,19.5,0.4,14,1.4,3.3z"/>
			
				<ellipse id="Oval-5_7_" transform="matrix(0.2924 -0.9563 0.9563 0.2924 -0.5085 3.4027)" class="st6" cx="2" cy="2" rx="2" ry="2"/>
		</g>
		<g id="Group-4_8_" transform="translate(105.085 53.186) rotate(97)">
			<path id="Rectangle-2_8_" class="st6" d="M1.4,3.3l1.2,0c1,10.7,1.3,16.1,1,16.4C3.2,19.9,2.6,20,2,20c-0.6,0.1-1.1,0-1.6-0.3
				C0.1,19.5,0.4,14,1.4,3.3z"/>
			
				<ellipse id="Oval-5_8_" transform="matrix(0.1219 0.9925 -0.9925 0.1219 3.8255 -0.234)" class="st6" cx="2" cy="2" rx="2" ry="2"/>
		</g>
		<g id="Group-4_9_" transform="matrix(-0.515, 0.857, -0.857, -0.515, 84.885, 77.823)">
			<path id="Rectangle-2_9_" class="st6" d="M0.8,2l0.7,0c0.6,6.4,0.8,9.7,0.6,9.7c-0.3,0.1-0.7,0.2-1,0.2c-0.3,0-0.7,0-1-0.2
				C0,11.6,0.3,8.4,0.8,2z"/>
			
				<ellipse id="Oval-5_9_" transform="matrix(0.5151 0.8571 -0.8571 0.5151 1.6346 -0.4534)" class="st6" cx="1.2" cy="1.2" rx="1.2" ry="1.2"/>
		</g>
		<path id="Rectangle-5" class="st7" d="M20.6,62.5H85c1.4,0,2.6,1.2,2.6,2.6V86c0,1.4-1.2,2.6-2.6,2.6H20.6c-1.4,0-2.6-1.2-2.6-2.6
			V65.1C18,63.7,19.2,62.5,20.6,62.5z"/>
		<g id="Group_17" transform="translate(41.08 68.172)">
			<text transform="matrix(1 0 0 1 7.080078e-06 7)" class="st8 st9 st10">Guilty</text>
		</g>
		<g id="Group-6" transform="translate(84.595 59.123)">
			<path id="Fill-27" class="st3" d="M3.6,18.6c-0.7-0.1-1-0.6-0.8-1C4,15.1,5.6,13.1,6,9.7c0.3-2.8-1-5.5-3.3-7
				C2.3,2.4,3,0.3,3.5,0.1s0,0.1,0.4,0.5C4.1,0.8,8.1,4,8.3,8.4c0.1,3-1.5,6.3-3.2,9.7c-0.3,0.4-0.7,0.6-1.2,0.6
				C3.8,18.6,3.7,18.6,3.6,18.6z"/>
			<path id="Fill-29" class="st3" d="M5.7,19.3c0,1.6-1.3,2.8-2.8,2.8c0,0,0,0,0,0c-1.6,0-2.9-1.3-2.9-2.8c0-1.6,1.3-2.8,2.8-2.8
				c0,0,0,0,0,0C4.4,16.4,5.7,17.7,5.7,19.3"/>
		</g>
		<g id="Group-5" transform="translate(21.498 80.356) rotate(180)">
			<path id="Fill-27_1_" class="st3" d="M3,5c3.4,2.4,5,4.4,4.8,6.1c-0.3,1.7-2.3,4.3-6.1,7.8c0.1,0.4,0.2,0.9,0.2,1.3
				c0,0.9-2,1.1-1.5,1.3c0.6,0.3,1.3,0.2,1.8-0.1c0.3-0.2,7.1-5.4,7.7-10.8c0.3-2.1-1.5-4.3-5.2-6.7C4.3,3.4,3.7,3,3,2.8
				C2.9,3.5,2.9,4.3,3,5z"/>
			<path id="Fill-29_1_" class="st3" d="M5.7,2.8C5.7,1.3,4.4,0,2.9,0c0,0,0,0,0,0C1.3,0,0,1.3,0,2.8c0,1.6,1.3,2.8,2.8,2.8
				c0,0,0,0,0,0C4.4,5.7,5.7,4.4,5.7,2.8"/>
		</g>
	</g>
	<text transform="matrix(1 0 0 1 82.756 779.236)" class="st11 st12">Problem</text>
</g>
</svg>
