<?xml version="1.0" encoding="utf-8"?>
<!-- Generator: Adobe Illustrator 22.1.0, SVG Export Plug-In . SVG Version: 6.00 Build 0)  -->
<svg version="1.1" id="Layer_1" xmlns="http://www.w3.org/2000/svg" xmlns:xlink="http://www.w3.org/1999/xlink" x="0px" y="0px"
	 viewBox="0 0 1440 807" style="enable-background:new 0 0 1440 807;" xml:space="preserve">
<style type="text/css">
	.st0{fill:#FFFFFF;}
	.st1{fill:#2731FF;}
	.st2{fill:#F9CD17;}
	.st3{fill:#17BCBC;}
	.st4{fill:#FF9695;}
	.st5{fill:#94ECC6;}
</style>
<g id="problem_bg" transform="translate(30 30)">
	<g transform="matrix(1, 0, 0, 1, -30, -30)">
		<rect id="Rectangle-2" class="st0" width="1440" height="807"/>
	</g>
	<g id="noun_Hospital_575969_2731ff" transform="matrix(0.998, -0.07, 0.07, 0.998, 170.543, 623.635)">
		<path id="Shape" class="st1" d="M3.8-8.5h-5.5V-3h-4.7v-5.4H-12v-4.7h5.5v-5.5h4.8l0,5.5h5.6V-8.5z"/>
		<path id="Shape-2" class="st1" d="M3,0.8L3,0.8L3,0.8l4.5,0v7.4h0v0H3V0.8z"/>
		<path id="Shape-3" class="st1" d="M3,11.9L3,11.9L3,11.9l4.5,0v7.4H3.1v0h0V11.9z"/>
		
			<rect id="Rectangle-path" x="3" y="23.9" transform="matrix(-1 2.533678e-06 -2.533678e-06 -1 10.5974 55.1609)" class="st1" width="4.5" height="7.4"/>
		<path id="Shape-4" class="st1" d="M-6.7,0l4.5,0v0.1h0v7.4h-4.5V7.4h0V0z"/>
		<path id="Shape-5" class="st1" d="M-6.7,11.9L-6.7,11.9l5.2,0v7.4h0v0c-1.6,0-3.2,0-4.9,0c0,0-0.1,0-0.1,0h-0.2v-0.2
			c0,0-0.1-0.1-0.1-0.1C-6.7,16.7-6.7,14.3-6.7,11.9L-6.7,11.9z"/>
		
			<rect id="Rectangle-path-2" x="-6.7" y="23.9" transform="matrix(-1 2.533678e-06 -2.533678e-06 -1 -8.9706 55.1609)" class="st1" width="4.5" height="7.4"/>
		<path id="Shape-6" class="st1" d="M29.4-5.9L29.4-5.9L29.4-5.9l4.5,0v7.4h0v0h-4.5V-5.9z"/>
		<path id="Shape-7" class="st1" d="M29.4,6L29.4,6L29.4,6l4.5,0v7.4h-4.5v0h0V6z"/>
		
			<rect id="Rectangle-path-3" x="29.4" y="18.6" transform="matrix(-1 2.533678e-06 -2.533678e-06 -1 63.2773 44.7328)" class="st1" width="4.5" height="7.4"/>
		<path id="Shape-8" class="st1" d="M19.6-5.9h4.5v0.1h0v7.4h-4.5V1.5h0V-5.9z"/>
		<path id="Shape-9" class="st1" d="M19.7,6L19.7,6l5.2,0v7.4h0v0c-1.6,0-3.2,0-4.9,0c0,0-0.1,0-0.1,0h-0.2v-0.2
			c0,0-0.1-0.1-0.1-0.1C19.6,10.7,19.6,8.4,19.7,6L19.7,6z"/>
		
			<rect id="Rectangle-path-4" x="19.6" y="18.6" transform="matrix(-1 2.533678e-06 -2.533678e-06 -1 43.7093 44.7328)" class="st1" width="4.5" height="7.4"/>
		<path id="Shape-10" class="st1" d="M-16.5,0l4.5,0v0.1h0v7.4h-4.5v0h0V0z"/>
		<path id="Shape-11" class="st1" d="M-16.5,11.9h4.5v0h0v0.3c0,0.1,0,0.3,0,0.4c0,2,0,4,0,6c0,0.1,0,0.2,0,0.4v0.3h-0.2
			c-0.1,0.1-0.3,0.1-0.4,0.1c-1.3,0-2.5,0-3.9,0V11.9z"/>
		
			<rect id="Rectangle-path-5" x="-16.5" y="23.9" transform="matrix(-1 2.533678e-06 -2.533678e-06 -1 -28.5366 55.1609)" class="st1" width="4.5" height="7.4"/>
		<path id="Shape-12" class="st1" d="M20.4,41L20.4,41L20.4,41l-48.2,0v-5.5h1.2l0-44.4c0-0.2,0-0.5,0-0.8v0c-0.2-1.5,0-3,0.7-4.3
			c0.5-0.7,1.1-1.3,1.8-1.8c0.7-0.6,0.8-0.7,0.8-0.8l-0.1-6.9c0-1.3,1-2.4,2.3-2.4c0,0,0,0,0,0h1.7c0-1.6,1.3-3,3-3H8.9
			c1.6,0,3,1.3,3,3v0h1.3c1.5,0,2.6,1.2,2.6,2.6v1.6H22v-1c0-0.7,0-1.3,0-2c0-1.5,0-3.1,0-4.7c0-0.7,0.3-1.4,0.7-2
			c0.5-0.5,1.1-0.8,1.8-0.8h0c1.4,0,2.6,1.2,2.6,2.7c0,0,0,0.1,0,0.1c0,1.3,0,2.7,0,4v0c0,0.6,0,1.2,0,1.8v1.8h3.5
			c0.2,0,0.3,0,0.3,0h0.1c0.1,0,0.2,0,0.3,0h0c3.6,0.1,5.4,1.7,5.9,5.2c1.5,0.2,3,0.9,4,2c0.9,1.3,1.3,2.8,1.1,4.4v45.9h0.8
			c0.1,0,0.2,0,0.4,0c1,0,1.4,0.4,1.4,1.4c0,0.8,0,1.5,0,2.3c0,1-0.4,1.4-1.4,1.4c-0.6,0-1.1,0-1.7,0h-1.3h-1.9l-4.2,0h-0.2l-4,0
			h-0.7L20.4,41L20.4,41z M-19.6-21.9l0,3.6c0,0.5,0,0.9,0,1.2c0,0.2,0,0.4,0,0.5v0c0,0,0,0,0,0c-0.1,1.6-1,3.1-2.4,4l0,0
			c-0.3,0.2-0.6,0.5-0.8,0.7c-0.1,0.6-0.1,1.3,0,1.9c0,0.4,0,0.8,0,1.1l0,44.4h34.5l0-48l0-1.5v-7.9H-19.6z M15.8-11.2l0,41.8l6,0
			h15.6V-0.7v-2.7v-5.2v-2.7H15.8z"/>
	</g>
	<g id="noun_health_insurance_575938_ffffff" transform="matrix(0.996, -0.087, 0.087, 0.996, 663.973, 188.669)">
		<g id="Group">
			<path id="Shape-13" class="st2" d="M52.6,13.7c-3,15.5-16.6,26.7-32.5,26.7H20C2.8,40.3-11.5,27-12.8,9.9
				c-6.9-1.6-8.4-10.6-8.5-11c-0.1-0.5,0-1,0.1-1.5c-1.7-5-3.4-10.2-5.1-15.5c-0.9-2.9-0.6-6,0.8-8.7c1.2-2.2,3.2-3.8,5.6-4.5
				c0.4-0.1,0.8-0.2,1.1-0.4c0.7-0.3,1.4-0.5,2.2-0.6c0.1,0,0.2,0,0.3,0c1.6,0,2.9,1.2,2.9,2.8c0,0.1,0,0.1,0,0.2
				c-0.1,1.8-1.7,3.2-3.5,3.1c0,0,0,0,0,0H-17c-0.5,0-1-0.2-1.5-0.4c-0.2-0.1-0.4-0.2-0.6-0.2c-0.5-0.1-0.9,0.3-1.4,0.7
				c-1.9,1.5-2.6,4.1-1.8,6.4c1.8,5.5,3.7,10.9,5.3,15.1l0.7,0.9c0.4,0.4,0.7,1,0.8,1.5l0,0c0.2,1,0.5,1.9,0.9,2.9
				c0,0.1,0.1,0.2,0.1,0.3c0,0.1,0.1,0.2,0.1,0.3c0.9,1.8,2.1,2.8,3.5,2.9h0.2l0.1,0h0.1c0.9,0,3.8-0.5,4.7-6.3
				C-5.6-3-5-3.8-4.2-4.2l0.5-1.3c0.9-2.4,1.8-4.8,2.7-7.2c0.2-0.7,0.5-1.4,0.8-2.1c1.3-3.1,2.6-6.2,1.4-9c-0.9-2-1.8-3.1-2.7-3.1
				c-0.3,0-0.6,0.1-1,0.3c-0.5,0.2-1.1,0.4-1.6,0.4c-0.4,0-0.9-0.1-1.3-0.3c-1-0.4-1.7-1.3-1.9-2.4c0-1.2,0.6-2.4,1.7-3
				c0.4-0.3,1-0.5,1.5-0.5c1.1,0.1,2.1,0.5,2.9,1.1c0.2,0.1,0.3,0.2,0.5,0.3c1.5,0.7,2.8,1.6,4.1,2.7c1.9,1.8,2.9,4.4,2.6,7
				c0,1.3-0.3,2.6-0.7,3.9c-0.8,2.4-1.7,4.8-2.5,7.1C2.2-8.2,1.4-6.1,0.6-3.9C0.5-3.4,0.3-2.8,0.1-2.3c0.1,0.4,0.1,0.8,0.1,1.1
				C-1,6-4.8,8.6-7.2,9.5c0,0.6,0,1.3,0.1,1.9c0.8,5.8,3.5,11.2,7.7,15.4C11.2,37.7,28.5,38,39.4,27.4C49,18.1,50.5,3.3,43-7.7
				c1.6-1,3-2.3,4-3.9c0.5,0.7,1,1.4,1.4,2.2c2.1,3.4,3.5,7.2,4.2,11.1C53.4,5.6,53.4,9.7,52.6,13.7z"/>
			
				<ellipse id="Oval" transform="matrix(-1 2.533393e-06 -2.533393e-06 -1 74.0573 -35.2931)" class="st2" cx="37" cy="-17.6" rx="8.6" ry="8.6"/>
		</g>
		<path id="Shape-14" class="st2" d="M21.5,27.8L21.5,27.8l-0.6-0.4c0,0-0.1-0.1-0.1-0.1l0,0v0c-9.1-5.9-14.5-15-15.7-26.3
			C5,0.9,5,0.6,5,0.2C4.9-0.9,5.6-1.9,6.6-2.3C7.9-2.7,13.9-4.8,19-6.7c1.6-0.6,3.4-0.6,5,0c5,1.9,11,4.1,12.3,4.5
			C37.3-1.9,38-0.9,38,0.2l0,0.3c0,0.2,0,0.4,0,0.6c-1.2,11.3-6.6,20.4-15.7,26.3v0l0,0h0c0,0-0.1,0-0.1,0.1L21.5,27.8L21.5,27.8z
			 M12.6,7.4v4.8h6.5v6.5h4.8v-6.5h6.5V7.4h-6.5V0.9l-4.8,0v6.5L12.6,7.4z"/>
	</g>
	<g id="noun_Waiting_575935_2731ff" transform="matrix(0.985, 0.174, -0.174, 0.985, 585.293, 471.639)">
		<path id="Shape-15" class="st3" d="M16.2,15.1c-0.9-0.8-4.5-0.4-5.7-0.3c-2.1,0-4.3,0.2-6.4,0.3c-0.6,0-5.9,0.7-6.1,0.3
			c-0.1-0.3-0.3-0.5-0.4-0.7l-9.3-13.6c-1.7-2.5-5.2-3.1-7.7-1.5c-2.5,1.7-3.2,5.1-1.5,7.6c0,0,0,0,0,0l9.3,13.6
			c0.2,0.3,0.5,0.6,0.7,0.9c5.6-0.3,11.2-0.7,16.8-1.2c2.7-0.2,5.5-0.5,8.2-0.7c1.4-0.1,2,0.1,2.5-0.9
			C16.9,18.2,16.8,15.8,16.2,15.1C16.3,15.2,16.2,15.1,16.2,15.1z"/>
		
			<ellipse id="Oval-2" transform="matrix(2.542869e-06 1 -1 2.542869e-06 -30.6103 14.4988)" class="st3" cx="-22.6" cy="-8.1" rx="6.1" ry="6.1"/>
		<path id="Shape-16" class="st3" d="M23.9,22.6c-1.9-1.2-4.4-1-6.6-0.8c-10,1-20,1.9-30,2.9c-3.9-6.2-7.7-12.5-11.6-18.7
			c-1.5-2.4-3.3-7-5.5-8.7c-1.4-1-3.3-0.7-4.3,0.7c-0.2,0.3-0.4,0.7-0.5,1.1c-0.5,1.9,0.5,3.9,1.4,5.7c7.3,14.8,12.6,30.5,15.5,46.8
			l4.9-0.1v-2.6c-0.1-3.1,1.4-6.1,4-7.9c3.3-2.3,7.5-2.7,11.6-2.7c3.9,0,8.1,0.4,11.3,2.7c2.5,1.8,3.6,4.4,3.8,7.4
			c0.1,1.2-0.3,3,0.6,3.7c1.1,0.7,5.1,0,6.5,0c-0.5,0,0.9-9,1-9.6c0.2-2,0.4-4,0.5-6c0.1-1.1,0.2-2.3,0.3-3.4
			C27.1,29.1,27.1,24.6,23.9,22.6z"/>
		<path id="Shape-17" class="st3" d="M44.2,46.3l-12-17.8l-0.1-0.1c0-0.1-0.1-0.1-0.2-0.2c-0.4-0.4-0.9-0.8-1.4-1l-0.3-0.1v10
			l10,11.6c0.5,0.5,1.1,0.8,1.8,0.8c0.4,0,0.9-0.1,1.3-0.3c0.6-0.3,1-0.8,1.2-1.5C44.6,47.3,44.5,46.7,44.2,46.3z"/>
		<g id="Group-2" transform="translate(38.628)">
			<path id="Shape-18" class="st3" d="M-4.6-7.4c0,1.4-0.2,2.8-0.7,4.2l-0.1,0c0,0,0.1-0.2,0.2-0.5c0.1-0.5,0.3-1,0.3-1.5
				c0.1-0.8,0.2-1.6,0.2-2.4c0-1.1-0.2-2.1-0.4-3.1c-0.1-0.2-0.1-0.5-0.2-0.7l0,0C-4.8-10.2-4.6-8.8-4.6-7.4z"/>
			
				<ellipse id="Oval-3" transform="matrix(-0.9848 0.174 -0.174 -0.9848 -11.4797 8.3685)" class="st3" cx="-6.1" cy="3.7" rx="2.6" ry="2.6"/>
			
				<ellipse id="Oval-4" transform="matrix(-0.9848 0.174 -0.174 -0.9848 -24.7238 18.5673)" class="st3" cx="-13.2" cy="8.2" rx="2.2" ry="2.2"/>
			
				<ellipse id="Oval-5" transform="matrix(2.542791e-06 1 -1 2.542791e-06 -13.0344 30.0847)" class="st3" cx="-21.6" cy="8.5" rx="1.9" ry="1.9"/>
			<path id="Shape-19" class="st3" d="M0.5-6.8c0,1.7-0.2,3.4-0.7,5.1l-5-1.5C-3.5-8.6-5.3-14.6-9.8-18c-0.1,0-0.1-0.1-0.2-0.1
				c-1-0.7-2-1.3-3.1-1.8c-0.7-0.3-1.5-0.5-2.3-0.7l-0.3-0.1l-0.3,0c-0.2,0-0.4-0.1-0.6-0.1l-0.3,0c-0.1,0-0.2,0-0.3,0l-0.3,0
				l-0.2,0l-0.1,0h0h0c-1.6-0.1-3.2,0.2-4.8,0.7c-3,1-5.6,2.9-7.4,5.5c-0.2,0.3-0.4,0.6-0.6,0.9c-0.1,0.2-0.2,0.3-0.3,0.5
				s-0.2,0.3-0.2,0.5c-0.3,0.6-0.6,1.2-0.8,1.8c-0.1,0.3-0.2,0.6-0.3,0.9c0,0.1-0.1,0.3-0.1,0.4c0,0.1-0.1,0.3-0.1,0.4
				c0,0.1,0,0.1,0,0.2s0,0.1,0,0.2c0,0.1,0,0.3-0.1,0.4c0,0.3-0.1,0.5-0.1,0.8s0,0.5-0.1,0.8v0v0v0.1c0,0.1,0,0.1,0,0.2
				c0,0.1,0,0.2,0,0.4c0,0.5,0,0.9,0.1,1.3c0.1,0.6,0.1,1.2,0.3,1.7c0,0.2,0.1,0.3,0.1,0.5s0,0.2,0,0.2l-1.6,0.5c0,0,0-0.1-0.1-0.2
				S-34-2.7-34-2.9c-0.1-0.2-0.1-0.5-0.2-0.9C-35.9-13.3-29.6-22.4-20-24c7-1.2,14.1,1.9,17.9,8C-0.4-13.3,0.5-10.1,0.5-6.8z"/>
			<path id="Shape-20" class="st3" d="M-9-11.7c-0.3-0.5-0.9-0.7-1.4-0.4c-0.6,0.3-1.1,0.6-1.7,0.9l-0.1,0.1c-0.9,0.5-1.8,1-2.7,1.6
				l-1.5,0.9c-1-0.4-2.1-0.3-3,0.3c-0.2,0.1-0.3,0.2-0.4,0.4c-1.3,1.2-1.3,3.3,0,4.5c0.6,0.6,1.4,0.9,2.3,0.9c0.6,0,1.3-0.2,1.8-0.6
				c0.9-0.6,1.4-1.6,1.4-2.7c0.9-0.7,2.2-1.8,3.2-2.7l0.1-0.1c1-0.8,1.8-1.5,1.9-1.7C-8.7-10.6-8.6-11.3-9-11.7z"/>
		</g>
	</g>
	<g id="noun_Heart_insurance_579677_2731ff" transform="translate(219.707 156.783) rotate(9)">
		<path id="Shape-21" class="st4" d="M38.6,16.2c0.1-1.7,0.2-3.5,0.1-5.2c-0.2-3.5-1-6.9-2.3-10.2C32.8-7.8,26.3-14.9,18-19l0,0
			c-1.6-0.8-3.2-1.4-4.7-2l0.4-1.1c0.2-0.6,0.1-1.2-0.2-1.7c-0.2-0.5-0.7-0.8-1.1-1c-0.4-0.1-0.9-0.1-1.3,0l-0.1,0
			c-0.3,0.1-0.6,0.3-0.8,0.5l0,0c-0.2,0.2-0.3,0.4-0.4,0.7l0,0c0,0.1-0.1,0.2-0.1,0.3c-0.1,0.3,0,0-0.3,0.9c-1.6-0.5-3.3-0.9-5-1.3
			h0c-9.2-1.5-18.1-0.2-26.4,4.9c-3,1.8-5.6,4.1-7.8,6.7c-1.1,1.3-2.1,2.7-3,4.2c-0.4,0.5-0.8,1.1-1.2,1.7C-34.4-5.6-34.4-5-34-4.6
			c0.3,0.3,0.7,0.4,1.1,0.3c0.2,0,0.3-0.1,0.5-0.3c0.6-0.6,1.5-0.9,2.3-1c2.1-0.2,4.2,0,6.2,0.7c2.5,0.7,4.8,2,6.8,3.7
			c0.4,0.4,0.7,0.7,0.5,1.4c-0.1,0.5,0.2,1.1,0.7,1.2c0.5,0.3,1.1,0.1,1.4-0.4c0,0,0,0,0,0c0.3-0.5,0.9-0.9,1.6-0.9
			c0.4-0.1,0.8-0.1,1.2-0.1l0,0c0.4,0,0.7,0,1,0c0.9,0.1,1.7,0.2,2.6,0.4C-7.4,0.8-6.8,1-6.2,1.2c0.1,0,0.1,0,0.2,0.1
			C-3.6,2-1.4,3.2,0.4,4.9L0.5,5C0.6,5,0.7,5.1,0.7,5.2C0,7.5-1.8,13-2.2,14.2c1.2,0.5,2.4,1.2,3.5,2.1L4.5,6.2
			c2.4-0.2,4.8,0.2,7.1,1l0.2,0.1c1.5,0.5,2.8,1.1,4.1,2c0.6,0.4,1.2,0.9,1.8,1.5c0.5,0.4,0.8,1,0.8,1.6c-0.1,0.6,0.3,1.1,0.9,1.2
			c0.5,0.2,1.1-0.1,1.3-0.6c0.2-0.7,0.7-0.7,1.2-0.8c2.6-0.2,5.2,0.1,7.6,1.1c2,0.6,3.8,1.7,5.4,3.2c0.7,0.5,1.2,1.3,1.3,2.2
			c0,0.2,0.1,0.4,0.2,0.5c0.3,0.3,0.7,0.5,1.1,0.4c0.6-0.1,0.9-0.6,1-1.1C38.6,17.6,38.6,16.9,38.6,16.2z"/>
		<g id="Group-3" transform="translate(14.153 40.629)">
			<path id="Shape-22" class="st4" d="M-33.8-13.5c0.9,0,1.7,0,2.6,0c0.2,0,0.3-0.1,0.5-0.2c0.3-0.2,0.5-0.5,0.7-0.8
				c0.5-0.6,1.2-0.8,2-0.7c0.7,0.2,1.3,0.7,1.6,1.4c0.5,1.5,1.8,5.2,2.4,7.2c0,0.1,0.1,0.2,0.1,0.3h0c0,0,0,0,0.1,0
				c0.1-0.1,0.1-0.2,0.2-0.3c0.5-1,1-2,1.5-3.1c0.3-0.6,0.6-1.2,0.9-1.9c0.6-1.2,1.2-2.5,1.8-3.7l0.2-0.3c0.5-1.1,1.9-1.6,3-1
				c0.6,0.3,1,0.7,1.2,1.3c1,3,3.7,11.2,5.2,15.7c0,0.1,0.1,0.3,0.2,0.4h0h0c0.1-0.1,0.2-0.3,0.2-0.4l1.2-2.3
				C-6.7-5.1-5-8.5-3.4-11.9c0.4-1,1.4-1.7,2.6-1.6c0.7,0,7.5,0,10.6,0c-0.1-0.5-0.2-1-0.3-1.5c-2-8.7-9.1-11.2-15.7-9.1
				c-1.6,0.6-3.2,1.4-4.7,2.3c-0.8,0.5-1.7,0.5-2.5,0c-1.5-0.9-3.1-1.7-4.7-2.3c-6.6-2.1-13.7,0.4-15.7,9.1c-0.1,0.5-0.2,1-0.3,1.5
				L-33.8-13.5z"/>
			<path id="Shape-23" class="st4" d="M-0.5-10c-1.6,3.3-3.2,6.6-4.8,9.7L-6.5,2C-7,3.4-8.2,4.3-9.7,4.3c-0.1,0-0.3,0-0.4,0
				c-1.5-0.2-2.7-1.3-3-2.8c-1.1-3.5-3.1-9.3-4.3-13.1l-0.8,1.6l-0.9,1.9c-0.5,1-1,2-1.5,3.1c-0.7,1.8-2.7,2.6-4.5,1.9
				c-1-0.4-1.8-1.3-2.1-2.4c-0.4-1.3-1.2-3.5-1.7-5.3c-0.6,0.4-1.3,0.6-1.9,0.7c-1,0.1-1.9,0.1-2.9,0l-0.5,0
				c0.2,5.3,2.7,9.9,7.3,13.5c3.2,2.5,6.8,4.6,10.2,6.9c1.3,0.9,2.6,1.7,3.9,2.6c0.2,0.2,0.5,0.3,0.7,0.3v0c0,0,0,0,0,0c0,0,0,0,0,0
				v0c0.3,0,0.5-0.1,0.7-0.3c1.3-0.9,2.6-1.7,3.9-2.6C-4.1,8-0.6,6,2.7,3.4C7.2-0.2,9.8-4.7,9.9-10C7.1-10,0.1-10-0.5-10z"/>
		</g>
	</g>
	<g id="noun_Online_Doctor_575985_2731ff" transform="matrix(0.996, -0.087, 0.087, 0.996, 1227.155, 595.831)">
		<path id="Shape-24" class="st5" d="M-8.1,19.8c-0.3,0-0.5-0.2-0.5-0.5c0,0,0,0,0,0V-9.2c0-1.9,0.8-3.7,2.1-5
			c1.3-1.2,2.9-1.9,4.7-1.9h0.1c2.3,0,6,0,11,0c3.8,0,7.7,0,11.3,0h0c2.8,0,5.2,0,7.1,0c3.7,0,6.8,3,6.9,6.7
			c0.1,2.4,0.2,12.5-0.9,15c-0.5,1.1-1.1,2.2-1.8,3.2c-1.6,2.1-3.8,3.7-6.4,4.4c-1.2,0.4-2.5,0.6-3.7,0.5c-0.5,0-1,0-1.5,0
			c-0.6,0-1.3-0.1-2.1-0.1c-3,0-16.7,0-19.8,0c-0.3,0-0.5,0.1-0.7,0.3l-0.1,0.1c-1.5,1.5-4.1,4.1-5.5,5.5C-7.9,19.8-8,19.8-8.1,19.8
			z M2.4-4.2v6.1h7.7v7.7h6V1.8h7.7v-6H16v-7.7h-6v7.8H2.4z"/>
		<path id="Shape-25" class="st5" d="M-21.3,35.5c-1.3,0-2.6-0.4-3.6-1.1c-1-0.7-1.7-1.8-2-3c-0.2-0.6-0.2-1.3-0.2-2
			c0-12.5,0-25.2,0-37.4c0-6.2,0-12.5,0-18.7c-0.1-1.6,0.5-3.2,1.6-4.4c1.2-1.1,2.7-1.6,4.3-1.5c3.5,0,7.1,0,10.5,0h0
			c3.4,0,7,0,10.5,0c1.1,0,2.2,0,3.3,0s2.2,0,3.3,0c1.2,0,2.3,0,3.3,0c2.8-0.1,5.1,1.9,5.6,4.6c0.1,0.3,0.1,0.7,0.1,1v7.6h-4.1v-5.4
			h-34.5v48.9h34.5v-8.1h4.1c0,4.9,0,9.3,0,13.3c0,1.6-0.6,3.2-1.7,4.3c-1.1,1.1-2.7,1.7-4.3,1.7h0c-5,0-9,0-12.7,0h-2.7
			c-3.3,0-6.7,0-9.9,0C-17.8,35.5-19.6,35.5-21.3,35.5L-21.3,35.5z M-6.1,26.5L-6.1,26.5c-1.9,0-3.4,1.5-3.4,3.4
			c0,1.9,1.4,3.4,3.3,3.5c1.9,0,3.4-1.4,3.5-3.3c0-0.1,0-0.1,0-0.2C-2.7,28-4.2,26.5-6.1,26.5C-6.1,26.5-6.1,26.5-6.1,26.5z"/>
	</g>
</g>
</svg>
