<svg xmlns="http://www.w3.org/2000/svg" xmlns:xlink="http://www.w3.org/1999/xlink" viewBox="0 0 915.71 688.45"><defs><style>.cls-1{fill:#f2de8c;}.cls-16,.cls-2,.cls-24,.cls-25,.cls-32,.cls-34,.cls-47,.cls-50,.cls-51,.cls-52,.cls-59,.cls-61,.cls-62,.cls-64,.cls-65{fill:none;}.cls-3{fill:#4d4d4d;}.cls-4{isolation:isolate;}.cls-5{fill:#b2b2b2;opacity:0.4;}.cls-31,.cls-6,.cls-60{fill:#d8d8d8;}.cls-30,.cls-6,.cls-66{mix-blend-mode:multiply;}.cls-45,.cls-63,.cls-7{fill:#fff;}.cls-8{fill:#17bcbc;}.cls-9{fill:#18a09c;}.cls-10{fill:#ffec5f;}.cls-11{fill:#fd0;}.cls-12{fill:#f7d64a;}.cls-13{fill:#ce6574;}.cls-14{fill:#666;}.cls-15{fill:#dbf0f9;}.cls-16{stroke:#dbf0f9;stroke-width:0.32px;}.cls-16,.cls-24,.cls-25,.cls-32,.cls-34,.cls-45,.cls-47,.cls-51,.cls-52,.cls-59,.cls-61,.cls-62,.cls-63,.cls-64,.cls-65{stroke-miterlimit:10;}.cls-17{fill:#fed3aa;}.cls-18{clip-path:url(#clip-path);}.cls-19{fill:#c7d9dd;}.cls-20{fill:#1e8db7;}.cls-21{fill:#1ea2dc;}.cls-22{clip-path:url(#clip-path-2);}.cls-23{fill:#d3aa00;}.cls-24{stroke:#d3aa00;}.cls-24,.cls-25,.cls-32,.cls-34,.cls-45,.cls-47,.cls-50,.cls-59,.cls-62,.cls-65{stroke-linecap:round;}.cls-24,.cls-45,.cls-47,.cls-51,.cls-59{stroke-width:1.46px;}.cls-25,.cls-52{stroke:#fff;}.cls-25{stroke-width:0.88px;}.cls-26{fill:#686868;}.cls-27{fill:#878787;}.cls-28{clip-path:url(#clip-path-3);}.cls-29{fill:#d8c850;}.cls-32{stroke:#686868;stroke-width:1.83px;}.cls-33{fill:#89555f;}.cls-34{stroke:#724c55;stroke-width:1.1px;}.cls-35{fill:#ea687b;}.cls-36{fill:#c64453;}.cls-37{fill:#b74e62;}.cls-38{fill:#d089a9;}.cls-39{fill:#ad515f;}.cls-40{clip-path:url(#clip-path-4);}.cls-41{fill:#c687a7;}.cls-42{fill:#fde9f1;}.cls-43{fill:#edcce6;}.cls-44{clip-path:url(#clip-path-5);}.cls-45,.cls-47{stroke:#e286bb;}.cls-46{fill:#e286bb;}.cls-48{fill:#efefef;}.cls-49{fill:#ffc5df;}.cls-50,.cls-51{stroke:#dddddc;}.cls-50{stroke-linejoin:round;}.cls-50,.cls-61,.cls-62,.cls-63,.cls-64,.cls-65{stroke-width:0.73px;}.cls-52{stroke-width:4.39px;}.cls-53{fill:#bddbed;}.cls-54{fill:#e5f4fa;}.cls-55{fill:#d7ecf4;}.cls-56,.cls-66{fill:#018389;}.cls-57{clip-path:url(#clip-path-6);}.cls-58{fill:#7eb3ce;}.cls-59{stroke:#7eb3ce;}.cls-60{opacity:0.47;}.cls-61,.cls-62{stroke:#d8d8d8;}.cls-63{fill-opacity:0.47;}.cls-63,.cls-64,.cls-65{stroke:#7a7a7a;}.cls-67{fill:#02bacd;}</style><clipPath id="clip-path" transform="translate(0 -0.24)"><path class="cls-1" d="M552,270.45h21a1.29,1.29,0,0,0,1.29-1.39l-.07-1a1.89,1.89,0,0,0-1.61-1.74l-19.35-2.89a2.65,2.65,0,0,0-3,3l.43,2.88A1.34,1.34,0,0,0,552,270.45Z"/></clipPath><clipPath id="clip-path-2" transform="translate(0 -0.24)"><rect class="cls-2" x="514.17" y="156.03" width="111.11" height="111.11" rx="7.07" ry="7.07" transform="translate(1139.46 423.17) rotate(-180)"/></clipPath><clipPath id="clip-path-3" transform="translate(0 -0.24)"><rect class="cls-3" x="604.05" y="248.57" width="14.48" height="3.66" rx="1.06" ry="1.06"/></clipPath><clipPath id="clip-path-4" transform="translate(0 -0.24)"><path class="cls-2" d="M541.37,154.95s-4.43.16-11,.67c-5.25.41-10.93.89-10.93.89l-.29-7.3s5.82-.66,10.93-1c4.54-.26,11-.61,11-.61l3.8,3.51Z"/></clipPath><clipPath id="clip-path-5" transform="translate(0 -0.24)"><path class="cls-2" d="M477.93,483l-86.62,52.17a6.07,6.07,0,0,0,0,10.4l86.62,52.17a6.07,6.07,0,0,0,6.27,0l86.62-52.17a6.07,6.07,0,0,0,0-10.4L484.2,483A6.07,6.07,0,0,0,477.93,483Z"/></clipPath><clipPath id="clip-path-6" transform="translate(0 -0.24)"><path class="cls-2" d="M775.28,185.74,839.72,93.5a6.34,6.34,0,0,1,10.4,0l64.44,92.24a6.34,6.34,0,0,1-5.2,10H780.48A6.34,6.34,0,0,1,775.28,185.74Z"/></clipPath></defs><title>rememberThatTime</title><g class="cls-4"><g id="Layer_2" data-name="Layer 2"><g id="Layer_1-2" data-name="Layer 1"><ellipse class="cls-5" cx="839.79" cy="256.54" rx="65.74" ry="12.43"/><polygon class="cls-6" points="554 189.96 480.39 231.34 441 205.92 712.82 59.52 752.21 84.94 614.23 156.1 554 189.96"/><polygon class="cls-6" points="333.39 492.34 226 422.92 285.82 387.52 393.21 456.94 333.39 492.34"/><polygon class="cls-6" points="245.39 368.34 22 226.92 81.82 192.52 305.21 333.94 245.39 368.34"/><polygon class="cls-6" points="113 551.96 39.39 593.34 0 567.92 208.82 450.52 248.21 475.94 173.23 518.1 113 551.96"/><polygon class="cls-7" points="384.27 558.38 324.24 592.13 324.19 592.1 152 480.96 151.57 481.19 78.39 522.34 78.14 522.17 39.03 496.94 39.03 496.89 247.82 379.52 287.21 404.95 212.22 447.1 287.01 495.38 384.46 558.27 384.27 558.38"/><polygon class="cls-8" points="384.27 654.64 384.3 654.69 324.24 688.45 324.19 688.42 324.19 592.1 324.24 592.13 384.27 558.38 384.27 654.64"/><polygon class="cls-9" points="324.19 592.1 324.19 688.42 152 577.28 151.57 577.52 151.57 481.19 152 480.96 324.19 592.1"/><polygon class="cls-8" points="287.21 404.95 287.21 495.07 287.01 495.38 212.22 447.1 287.21 404.95"/><polygon class="cls-8" points="151.57 481.19 151.57 577.52 78.39 618.66 78.14 618.5 78.14 522.17 78.39 522.34 151.57 481.19"/><polygon class="cls-9" points="78.14 522.17 78.14 618.5 39.03 593.26 39.03 496.94 78.14 522.17"/><polygon class="cls-8" points="305.66 80.83 305.66 333.52 244.92 368.77 244.92 116.09 244.94 116.08 305.66 80.83"/><polygon class="cls-7" points="305.66 80.83 244.94 116.08 244.92 116.04 205.82 90.8 205.82 90.34 266.2 55.3 266.27 55.41 305.66 80.83"/><polygon class="cls-9" points="244.92 116.04 244.94 116.08 244.92 116.09 244.92 368.77 205.59 343.38 205.82 343.02 205.82 90.8 244.92 116.04"/><polygon class="cls-8" points="889.63 89.9 889.63 188.13 844.78 212.83 844.78 114.6 889.63 89.9"/><polygon class="cls-7" points="648.44 222.33 648.31 222.41 479.78 132.68 720.77 0 889.63 89.9 844.78 114.6 734.89 56.1 684.08 84.07 776.83 133.45 733.79 157.14 641.04 107.76 583.45 139.48 693 197.8 648.44 222.33"/><polygon class="cls-9" points="844.78 114.6 844.78 212.83 776.83 176.65 776.83 133.45 684.08 84.07 734.89 56.1 844.78 114.6"/><polygon class="cls-8" points="776.83 176.65 776.83 231.68 733.79 255.37 733.79 157.14 776.83 133.45 776.83 176.65"/><polygon class="cls-9" points="733.79 157.14 733.79 255.37 693 233.65 693 197.8 583.45 139.48 641.04 107.76 733.79 157.14"/><polygon class="cls-8" points="693 233.65 693 296.03 648.48 320.54 648.44 320.47 648.44 222.33 693 197.8 693 233.65"/><polygon class="cls-9" points="648.44 320.47 648.48 320.54 648.31 320.64 479.78 230.91 479.78 132.68 648.31 222.41 648.44 222.33 648.44 320.47"/><ellipse class="cls-5" cx="591.29" cy="357.54" rx="101.24" ry="12.43"/><path class="cls-10" d="M620.43,250.06c-20.32,0-36.26-14.93-37-15.65a2.19,2.19,0,0,1,3-3.18c.19.18,19.38,18.09,41.06,13.74a2.19,2.19,0,1,1,.86,4.3A40.28,40.28,0,0,1,620.43,250.06Z" transform="translate(0 -0.24)"/><circle class="cls-10" cx="632.03" cy="246.71" r="5.12" transform="translate(320.28 849.07) rotate(-83.97)"/><path class="cls-10" d="M599.75,331.49l11,6.28a2.26,2.26,0,0,0,3.3-2.59,11.54,11.54,0,0,0-7.16-8c-4.81-1.78-7-.36-7.93,1.16A2.27,2.27,0,0,0,599.75,331.49Z" transform="translate(0 -0.24)"/><path class="cls-10" d="M601.16,331.47a2.19,2.19,0,0,1-1.88-3.32,94.78,94.78,0,0,1,6.37-8.93c5.85-7.57,11.37-14.72,9.45-23.84-4.28-20.33-26.31-30.52-26.54-30.62a2.19,2.19,0,1,1,1.81-4c1,.45,24.29,11.23,29,33.71,2.34,11.11-4.07,19.41-10.27,27.43A90.13,90.13,0,0,0,603,330.4,2.19,2.19,0,0,1,601.16,331.47Z" transform="translate(0 -0.24)"/><path class="cls-11" d="M597.1,270.06a59.15,59.15,0,0,0-5.11-3.54l3.74-3.25,4.77,3.51a2.7,2.7,0,0,1-.43,2.6C599.08,270.46,597.1,270.06,597.1,270.06Z" transform="translate(0 -0.24)"/><rect class="cls-12" x="580.66" y="307.75" width="58.85" height="1.86" transform="translate(-48.21 493.19) rotate(-42.52)"/><polygon class="cls-13" points="510.97 302.43 508.02 301.06 510.4 296.81 513.17 299.35 510.97 302.43"/><path class="cls-3" d="M648.73,292.48a34.58,34.58,0,1,1-34.56,34.6A34.58,34.58,0,0,1,648.73,292.48Zm33,34.56a33,33,0,1,0-33,33A33.05,33.05,0,0,0,681.76,327Z" transform="translate(0 -0.24)"/><path class="cls-14" d="M648.73,294a33,33,0,1,1-33,33A33.05,33.05,0,0,1,648.73,294Zm29.11,33a29.1,29.1,0,1,0-29.08,29.11A29.13,29.13,0,0,0,677.84,327Z" transform="translate(0 -0.24)"/><path class="cls-12" d="M648.73,298a29.1,29.1,0,1,1-29.08,29.11A29.13,29.13,0,0,1,648.73,298ZM676.28,327a27.53,27.53,0,1,0-27.52,27.55A27.56,27.56,0,0,0,676.28,327Z" transform="translate(0 -0.24)"/><path class="cls-1" d="M648.73,299.52a27.53,27.53,0,1,1-27.52,27.55A27.56,27.56,0,0,1,648.73,299.52ZM675.49,327a26.75,26.75,0,1,0-26.73,26.76A26.78,26.78,0,0,0,675.49,327Z" transform="translate(0 -0.24)"/><path class="cls-15" d="M612.71,339.9a38.24,38.24,0,0,1,36-51.07v1.39A36.85,36.85,0,0,0,614,339.44Z" transform="translate(0 -0.24)"/><path class="cls-3" d="M539.07,292.53a34.58,34.58,0,1,1-34.56,34.6A34.58,34.58,0,0,1,539.07,292.53Zm33,34.56a33,33,0,1,0-33,33A33.05,33.05,0,0,0,572.1,327.1Z" transform="translate(0 -0.24)"/><path class="cls-14" d="M539.07,294.1a33,33,0,1,1-33,33A33.05,33.05,0,0,1,539.07,294.1Zm29.11,33a29.1,29.1,0,1,0-29.08,29.11A29.13,29.13,0,0,0,568.19,327.1Z" transform="translate(0 -0.24)"/><path class="cls-12" d="M539.07,298A29.1,29.1,0,1,1,510,327.13,29.13,29.13,0,0,1,539.07,298Zm27.55,29.08a27.53,27.53,0,1,0-27.52,27.55A27.56,27.56,0,0,0,566.62,327.1Z" transform="translate(0 -0.24)"/><path class="cls-1" d="M539.07,299.58a27.53,27.53,0,1,1-27.52,27.55A27.56,27.56,0,0,1,539.07,299.58Zm26.76,27.52a26.75,26.75,0,1,0-26.73,26.76A26.78,26.78,0,0,0,565.84,327.1Z" transform="translate(0 -0.24)"/><path class="cls-15" d="M577.31,327.09h-1.39A36.83,36.83,0,0,0,505,313.16l-1.29-.53a38.23,38.23,0,0,1,73.6,14.46Z" transform="translate(0 -0.24)"/><line class="cls-16" x1="539.29" y1="323.36" x2="588.27" y2="321.4"/><line class="cls-16" x1="539.29" y1="328.51" x2="586.18" y2="339.19"/><rect class="cls-14" x="559.74" y="266.4" width="1.86" height="9.56" transform="translate(-62.14 270.62) rotate(-25.78)"/><rect class="cls-15" x="531.38" y="286.6" width="0.93" height="38.96" transform="translate(-75.68 219.49) rotate(-21.83)"/><path class="cls-15" d="M516.9,286.95h34a.27.27,0,0,1,.27.27v.68a.28.28,0,0,1-.28.28h-34a.27.27,0,0,1-.27-.27v-.68a.28.28,0,0,1,.28-.28Z"/><rect class="cls-15" x="545.96" y="287.78" width="0.93" height="2.3"/><rect class="cls-15" x="523.17" y="297" width="0.93" height="35.96" transform="translate(-14.71 603.87) rotate(-59.27)"/><rect class="cls-15" x="611.19" y="326.23" width="35.32" height="0.93" transform="translate(-6.68 12.95) rotate(-1.2)"/><rect class="cls-12" x="576.93" y="297.82" width="56.73" height="1.86" transform="translate(-63.71 388.3) rotate(-33.91)"/><path class="cls-17" d="M552,270.45h21a1.29,1.29,0,0,0,1.29-1.39l-.07-1a1.89,1.89,0,0,0-1.61-1.74s-7-.51-9.25-1c-5.87-1.17-10.1-1.92-10.1-1.92a2.65,2.65,0,0,0-3,3l.43,2.88A1.34,1.34,0,0,0,552,270.45Z" transform="translate(0 -0.24)"/><path class="cls-1" d="M552,270.45h21a1.29,1.29,0,0,0,1.29-1.39l-.07-1a1.89,1.89,0,0,0-1.61-1.74l-19.35-2.89a2.65,2.65,0,0,0-3,3l.43,2.88A1.34,1.34,0,0,0,552,270.45Z" transform="translate(0 -0.24)"/><g class="cls-18"><path class="cls-12" d="M552,270.83h21a1.29,1.29,0,0,0,1.29-1.39l-.07-1a1.89,1.89,0,0,0-1.61-1.74,51.55,51.55,0,0,1-9.25-.56,57.34,57.34,0,0,1-10.1-2.33,2.65,2.65,0,0,0-3,3l.43,2.88A1.34,1.34,0,0,0,552,270.83Z" transform="translate(0 -0.24)"/></g><rect class="cls-12" x="574.18" y="272.55" width="2.78" height="58.94" transform="translate(-74.07 280.16) rotate(-25.78)"/><path class="cls-19" d="M588.39,340.33a9.56,9.56,0,1,1,9.56-9.57A9.58,9.58,0,0,1,588.39,340.33Z" transform="translate(0 -0.24)"/><path class="cls-15" d="M588.39,339.87a9.1,9.1,0,1,1,9.1-9.11A9.11,9.11,0,0,1,588.39,339.87Z" transform="translate(0 -0.24)"/><circle class="cls-20" cx="588.39" cy="330.52" r="2.21"/><circle class="cls-21" cx="588.39" cy="330.52" r="1.74"/><polygon class="cls-12" points="540.53 325.04 538.69 323.61 567.03 284.93 568.86 286.35 540.53 325.04"/><circle class="cls-15" cx="539.05" cy="326.08" r="3.42"/><circle class="cls-20" cx="539.16" cy="326.14" r="2.21"/><path class="cls-10" d="M582.88,331.47a2.19,2.19,0,0,1-1.88-3.32,94.77,94.77,0,0,1,6.37-8.93c5.85-7.57,11.37-14.72,9.45-23.84-4.27-20.28-26.32-30.52-26.54-30.62a2.19,2.19,0,0,1,1.81-4c1,.45,24.29,11.23,29,33.71,2.34,11.11-4.07,19.41-10.27,27.43a90.29,90.29,0,0,0-6.08,8.51A2.19,2.19,0,0,1,582.88,331.47Z" transform="translate(0 -0.24)"/><path class="cls-11" d="M578.82,270.06a59.15,59.15,0,0,0-5.11-3.54l3.74-3.25,4.77,3.51a2.7,2.7,0,0,1-.43,2.6C580.8,270.46,578.82,270.06,578.82,270.06Z" transform="translate(0 -0.24)"/><rect class="cls-11" x="514.17" y="156.03" width="111.11" height="111.11" rx="7.02" ry="7.02" transform="translate(1139.46 422.93) rotate(-180)"/><g class="cls-22"><rect class="cls-10" x="559.49" y="156.03" width="111.11" height="111.11" rx="7.07" ry="7.07" transform="translate(1230.1 422.93) rotate(-180)"/></g><ellipse class="cls-11" cx="594.87" cy="208.42" rx="2.92" ry="1.46"/><path class="cls-11" d="M612.23,196.47c.18.79,3.34.74,5.31.3s3.42-1.44,3.24-2.23-1.92-1.07-3.89-.62S612.06,195.68,612.23,196.47Z" transform="translate(0 -0.24)"/><path class="cls-11" d="M576.94,196.47c-.18.79-3.34.74-5.31.3s-3.42-1.44-3.24-2.23,1.92-1.07,3.89-.62S577.12,195.68,576.94,196.47Z" transform="translate(0 -0.24)"/><path class="cls-7" d="M575.85,183.24a6.13,6.13,0,1,0,6.13,6.14A6.14,6.14,0,0,0,575.85,183.24Zm-3.67,6.55a3.27,3.27,0,1,1,3.26,3.26A3.27,3.27,0,0,1,572.18,189.79Z" transform="translate(0 -0.24)"/><path class="cls-23" d="M575.45,186.52a3.27,3.27,0,1,0,3.27,3.27A3.27,3.27,0,0,0,575.45,186.52Z" transform="translate(0 -0.24)"/><path class="cls-7" d="M613.31,183.24a6.13,6.13,0,1,0,6.13,6.14A6.13,6.13,0,0,0,613.31,183.24Zm-3.68,6.55a3.27,3.27,0,1,1,3.27,3.26A3.27,3.27,0,0,1,609.63,189.79Z" transform="translate(0 -0.24)"/><path class="cls-23" d="M612.9,186.52a3.27,3.27,0,1,0,3.26,3.27A3.27,3.27,0,0,0,612.9,186.52Z" transform="translate(0 -0.24)"/><path class="cls-24" d="M569.73,189.38a6.13,6.13,0,1,0,6.13-6.14A6.13,6.13,0,0,0,569.73,189.38Z" transform="translate(0 -0.24)"/><path class="cls-24" d="M579.36,179.4s-3.77-2.56-7.88,1.05" transform="translate(0 -0.24)"/><path class="cls-24" d="M619.44,189.38a6.13,6.13,0,1,1-6.13-6.14A6.13,6.13,0,0,1,619.44,189.38Z" transform="translate(0 -0.24)"/><path class="cls-24" d="M609.8,179.4s3.77-2.56,7.88,1.05" transform="translate(0 -0.24)"/><path class="cls-24" d="M598.24,202.82a5.23,5.23,0,0,1-7.21,0" transform="translate(0 -0.24)"/><path class="cls-25" d="M577.93,188.69a1.76,1.76,0,0,0-1.23-1.32" transform="translate(0 -0.24)"/><path class="cls-25" d="M615.39,188.69a1.76,1.76,0,0,0-1.23-1.32" transform="translate(0 -0.24)"/><path class="cls-10" d="M581.48,331.49l11,6.28a2.26,2.26,0,0,0,3.3-2.59,11.54,11.54,0,0,0-7.16-8c-4.81-1.78-7-.36-7.93,1.16A2.27,2.27,0,0,0,581.48,331.49Z" transform="translate(0 -0.24)"/><polygon class="cls-26" points="623.1 272.88 620.77 268.17 627.19 260.33 622.56 251.09 618.54 251.09 618.54 249.23 623.7 249.23 629.39 260.58 622.96 268.42 624.76 272.06 623.1 272.88"/><rect class="cls-12" x="634.13" y="266.59" width="2.32" height="59.56" transform="translate(-65.69 303.91) rotate(-25.65)"/><rect class="cls-27" x="604.05" y="248.33" width="14.48" height="3.66" rx="1.06" ry="1.06"/><rect class="cls-3" x="604.05" y="248.33" width="14.48" height="3.66" rx="1.06" ry="1.06"/><g class="cls-28"><rect class="cls-14" x="603.66" y="247.79" width="14.48" height="3.66" rx="0.67" ry="0.67"/></g><circle class="cls-15" cx="648.08" cy="325.14" r="3.42"/><circle class="cls-20" cx="648.19" cy="325.19" r="2.21"/><path class="cls-29" d="M514.17,150.91H625.28v19s-17.54-1.46-48.25-1.46c-24.85,0-62.87,1.46-62.87,1.46Z" transform="translate(0 -0.24)"/><path class="cls-6" d="M624.55,200.33c-7.42,10.57-18.8,14.08-27.19,15.14-15.83,2-33.33-3-43.54-12.52-10.39-9.67-17.73-24.08-20.14-39.53l-8.32,1.3c2.69,17.29,11,33.48,22.72,44.4,10.22,9.51,26.5,15.21,42.38,15.21a63.21,63.21,0,0,0,8-.5c10.64-1.35,19.86-5.42,26.86-11.72l.39-13.68Z" transform="translate(0 -0.24)"/><g class="cls-30"><path class="cls-31" d="M588.77,254.84c-14.69,0-26.83-8.42-33.12-13.83a2.08,2.08,0,0,1,2.71-3.15c5.23,4.51,19.12,14.76,35.14,12.5a2.08,2.08,0,1,1,.58,4.12A38,38,0,0,1,588.77,254.84Z" transform="translate(0 -0.24)"/><circle class="cls-31" cx="597.69" cy="252.23" r="4.85" transform="translate(251.55 800.66) rotate(-80.63)"/></g><circle class="cls-3" cx="631.81" cy="250.03" r="2.19"/><circle class="cls-27" cx="631.8" cy="250.02" r="1.63"/><path class="cls-11" d="M590.21,253.71c-21.48,0-37.69-17.05-38.42-17.84a2.19,2.19,0,0,1,3.2-3c.18.19,18.29,19.19,40.2,16.1a2.19,2.19,0,1,1,.61,4.34A40.07,40.07,0,0,1,590.21,253.71Z" transform="translate(0 -0.24)"/><circle class="cls-11" cx="599.61" cy="250.96" r="5.12" transform="translate(254.41 801.49) rotate(-80.63)"/><line class="cls-32" x1="628.33" y1="260.48" x2="631.81" y2="250.06"/><path class="cls-33" d="M625.28,195.5c.73,0,1.12,1.46,1.12,1.46v13.33c-7,6.5-16.41,10.7-27.25,12.08a63.21,63.21,0,0,1-8,.5c-15.87,0-32.16-5.7-42.38-15.21-11.74-10.93-20-27.11-22.72-44.4l8.32-1.3c2.41,15.46,9.75,29.87,20.14,39.53C564.76,211,582.26,216,598.09,214c8.39-1.07,19.77-4.58,27.19-15.14Z" transform="translate(0 -0.24)"/><path class="cls-34" d="M534.41,162c2.41,15.46,9.75,29.87,20.14,39.53C564.76,211,582.26,216,598.09,214c8.39-1.07,19.77-4.58,27.19-15.14v-2.64" transform="translate(0 -0.24)"/><path class="cls-35" d="M513.08,163.7c0-14.23,5.12-33.8,15.51-43.13s24.57-14.14,40.39-15.23c23-1.59,34.64,6,44.25,13,13.89,10.23,13.52,28.13,13.52,44.59,0,0-17.91-1.46-56.65-1.46C537.92,161.51,513.08,163.7,513.08,163.7Z" transform="translate(0 -0.24)"/><path class="cls-36" d="M513.08,165.17c0-14.23,5.12-33.8,15.51-43.13S553.16,107.9,569,106.81c23-1.59,34.64,6,44.25,13,13.89,10.23,13.52,28.13,13.52,44.59,0,0-17.91-1.46-56.65-1.46C537.92,163,513.08,165.17,513.08,165.17Z" transform="translate(0 -0.24)"/><path class="cls-35" d="M547.78,128.1l-5.8-8.79c7.51-5,16.81-7.84,27.63-8.59,16.58-1.14,26.07,3.73,33.18,8.65l-6,8.65c-5.88-4.08-13.15-7.73-26.46-6.81C561.34,121.85,553.75,124.16,547.78,128.1Z" transform="translate(0 -0.24)"/><path class="cls-37" d="M525.87,162.61s-3.75-9.83,8-14.62c3.93-1.6,13.67-1.46,20.47-1.46,31.43,0,37.28,15.29,37.28,15.29Z" transform="translate(0 -0.24)"/><path class="cls-38" d="M513.07,166.33a2.63,2.63,0,0,1-.23-5.25c.25,0,25.33-2.2,57.25-2.2,38.41,0,56.69,1.46,56.87,1.47a2.63,2.63,0,0,1-.43,5.25c-.18,0-18.29-1.45-56.44-1.45-31.69,0-56.54,2.16-56.79,2.18Z" transform="translate(0 -0.24)"/><path class="cls-39" d="M544.87,151.14v.74l-3.51,3.8s-4.43.16-11,.67c-5.25.41-10.58.89-10.58.89l-.34-.73Z" transform="translate(0 -0.24)"/><path class="cls-38" d="M541.37,154.95s-4.43.16-11,.67c-5.25.41-10.93.89-10.93.89l-.29-7.3s5.82-.66,10.93-1c4.54-.26,11-.61,11-.61l3.8,3.51Z" transform="translate(0 -0.24)"/><g class="cls-40"><path class="cls-41" d="M525.87,162.61s-3.75-9.83,8-14.62c3.93-1.6,13.67-1.46,20.47-1.46,31.43,0,37.28,15.29,37.28,15.29Z" transform="translate(0 -0.24)"/></g><polygon class="cls-8" points="666.15 344.08 666.15 596.74 605.56 631.9 605.56 379.6 605.33 379.47 605.41 379.31 666.12 344.06 666.15 344.08"/><polygon class="cls-8" points="666.12 344.06 605.41 379.31 605.33 379.47 525.4 338.24 586.04 303.04 586.41 302.95 666.12 344.06"/><polygon class="cls-7" points="544.58 539.69 550.37 424.02 489.56 571.62 489.28 572.3 449.01 551.53 433.98 499.57 387.76 339.95 393.66 463.96 393.66 522.95 393.65 522.96 332.74 491.54 332.74 239.07 332.93 238.96 412.75 280.13 469.15 485.03 510.32 377.56 510.32 377.55 525.37 338.26 525.4 338.24 605.33 379.47 605.56 379.6 605.56 631.9 605.56 632.28 544.47 600.76 544.47 541.76 544.58 539.69"/><polygon class="cls-9" points="550.37 424.02 544.58 539.69 489.56 571.62 550.37 424.02"/><polygon class="cls-8" points="473.78 244.84 510.32 377.55 510.32 377.56 469.15 485.03 412.75 280.13 412.77 280.13 473.51 244.87 473.57 244.74 473.78 244.84"/><polygon class="cls-8" points="393.78 203.57 473.57 244.74 473.51 244.87 412.77 280.13 412.75 280.13 332.93 238.96 393.4 203.86 393.78 203.57"/><polygon class="cls-9" points="387.76 339.95 433.98 499.57 393.66 522.95 393.66 463.96 387.76 339.95"/><ellipse class="cls-5" cx="483.08" cy="616.87" rx="78.22" ry="12.43"/><path class="cls-42" d="M496.67,615.65a2.19,2.19,0,0,1-2-3.17c8.89-17.78,0-38.88-.05-39.09a2.19,2.19,0,0,1,4-1.73c.4.94,9.73,23.2-.05,42.78A2.19,2.19,0,0,1,496.67,615.65Z" transform="translate(0 -0.24)"/><path class="cls-43" d="M503,591.53c-.47,1.3-1.9,1.46-3.07,1.46-.54,0-1.31-1.92-1.39-2.45-.29-1.94-1.1-7.32-1.1-7.32.51-1.14,1.4.19,2.49.19a8.3,8.3,0,0,1,2.49,0Z" transform="translate(0 -0.24)"/><path class="cls-42" d="M497.23,616.38H509.9a2.26,2.26,0,0,0,1.58-3.88,11.54,11.54,0,0,0-10.21-3.43c-5.05.84-6.23,3.14-6.31,4.94A2.27,2.27,0,0,0,497.23,616.38Z" transform="translate(0 -0.24)"/><path class="cls-42" d="M458.66,615.65a2.19,2.19,0,0,1-2-3.17c8.87-17.73,0-38.88-.05-39.09a2.19,2.19,0,0,1,4-1.73c.4.94,9.74,23.2-.05,42.78A2.19,2.19,0,0,1,458.66,615.65Z" transform="translate(0 -0.24)"/><path class="cls-43" d="M464.95,591.53c-.47,1.3-1.9,1.46-3.07,1.46-.54,0-1.31-1.92-1.39-2.45-.29-1.94-1.1-7.32-1.1-7.32.51-1.14,1.4.19,2.49.19a8.3,8.3,0,0,1,2.49,0Z" transform="translate(0 -0.24)"/><path class="cls-43" d="M397.88,583.06a2.19,2.19,0,0,1-2.09-1.54c-5-15.93,6.35-30.93,6.83-31.56a2.19,2.19,0,0,1,3.48,2.67c-.15.2-10.41,13.88-6.13,27.57a2.19,2.19,0,0,1-2.09,2.85Z" transform="translate(0 -0.24)"/><circle class="cls-43" cx="398.28" cy="583.24" r="5.12"/><path class="cls-43" d="M477.93,483l-86.62,52.17a6.07,6.07,0,0,0,0,10.4l86.62,52.17a6.07,6.07,0,0,0,6.27,0l86.62-52.17a6.07,6.07,0,0,0,0-10.4L484.2,483A6.07,6.07,0,0,0,477.93,483Z" transform="translate(0 -0.24)"/><path class="cls-42" d="M459.22,616.38h12.67a2.26,2.26,0,0,0,1.58-3.88,11.54,11.54,0,0,0-10.21-3.43c-5.05.84-6.23,3.14-6.31,4.94A2.27,2.27,0,0,0,459.22,616.38Z" transform="translate(0 -0.24)"/><g class="cls-44"><path class="cls-42" d="M486.22,483.34,399.6,535.52a6.07,6.07,0,0,0,0,10.4l86.62,52.17a6.07,6.07,0,0,0,6.27,0l86.62-52.17a6.07,6.07,0,0,0,0-10.4l-86.62-52.17A6.07,6.07,0,0,0,486.22,483.34Z" transform="translate(0 -0.24)"/></g><path class="cls-43" d="M500.38,525.74c.18.93,3.34.88,5.31.35s3.42-1.7,3.24-2.63-1.92-1.26-3.89-.73S500.21,524.81,500.38,525.74Z" transform="translate(0 -0.24)"/><path class="cls-43" d="M465.09,525.74c-.18.93-3.34.88-5.31.35s-3.42-1.7-3.24-2.63,1.92-1.26,3.89-.73S465.27,524.81,465.09,525.74Z" transform="translate(0 -0.24)"/><path class="cls-42" d="M566.82,583.06a2.19,2.19,0,0,1-2.09-2.85c4.31-13.78-6-27.44-6.12-27.57a2.19,2.19,0,1,1,3.48-2.67c.49.63,11.82,15.63,6.83,31.56A2.19,2.19,0,0,1,566.82,583.06Z" transform="translate(0 -0.24)"/><circle class="cls-42" cx="566.41" cy="583.24" r="5.12"/><ellipse class="cls-43" cx="482.73" cy="537.92" rx="2.92" ry="1.46"/><circle class="cls-45" cx="463.62" cy="518.64" r="6.13"/><circle class="cls-46" cx="465.4" cy="517.58" r="3.27"/><path class="cls-47" d="M467.13,508.89s-3.78-2.55-7.88,1.07" transform="translate(0 -0.24)"/><circle class="cls-45" cx="501.07" cy="518.64" r="6.13"/><circle class="cls-46" cx="502.86" cy="517.58" r="3.27"/><path class="cls-47" d="M497.56,508.89s3.78-2.55,7.88,1.07" transform="translate(0 -0.24)"/><path class="cls-47" d="M486,532.31a5.23,5.23,0,0,1-7.21,0" transform="translate(0 -0.24)"/><path class="cls-25" d="M467.89,516.73a1.77,1.77,0,0,0-1.23-1.31" transform="translate(0 -0.24)"/><path class="cls-25" d="M505.34,516.73a1.77,1.77,0,0,0-1.23-1.31" transform="translate(0 -0.24)"/><path class="cls-48" d="M391.31,535.16a6,6,0,0,0-2.81,6.42l.28-.06,27.65-16-6.08-1.9Z" transform="translate(0 -0.24)"/><path class="cls-7" d="M388.78,541.52l-.28.06a6,6,0,0,0,2.81,4L466.6,590.9l0,0V564.25l-5.74-9.14,1.44-5.12.19.05-2.11-3.71,3.29-5.92,2.73.75-50-15.67Z" transform="translate(0 -0.24)"/><polygon class="cls-7" points="463.71 540.18 460.42 546.1 462.52 549.8 462.33 549.75 460.89 554.87 466.63 564.01 466.63 563.57 466.63 545.38 466.63 540.99 466.44 540.93 463.71 540.18"/><path class="cls-49" d="M466.63,590.86l0,0,11.33,6.83a6.06,6.06,0,0,0,6.26,0l13.87-8.36V545.59h0l-5.63,1.86a31.83,31.83,0,0,1-19.48.15l-6.32-2v45.24Z" transform="translate(0 -0.24)"/><path class="cls-7" d="M498.06,541.21h0l2.92-.8,3.29,5.92L502.17,550l.19-.05,1.44,5.12-5.74,9.14v25.12l72.75-43.82a6.07,6.07,0,0,0,0-10.4l-19.39-11.55Z" transform="translate(0 -0.24)"/><polygon class="cls-7" points="498.06 545.35 498.06 564.01 503.8 554.87 502.36 549.75 502.17 549.8 504.28 546.1 500.99 540.18 498.06 540.98 498.06 545.35"/><line class="cls-50" x1="448.72" y1="547.85" x2="430.45" y2="547.85"/><polyline class="cls-50" points="466.63 563.57 466.63 545.38 466.63 540.99 466.63 540.98 466.44 540.93 463.71 540.18 460.42 546.1 462.52 549.8 462.33 549.75"/><polyline class="cls-50" points="462.33 549.75 460.89 554.87 466.63 564.01"/><polyline class="cls-50" points="502.36 549.75 503.8 554.87 498.06 564.01 498.06 545.35 498.06 540.98 500.99 540.18 504.28 546.1 502.17 549.8 502.36 549.75"/><polyline class="cls-50" points="466.63 563.57 466.63 564.01 466.63 590.62"/><polyline class="cls-50" points="498.06 564.3 498.06 589.13 498.06 589.15"/><path class="cls-51" d="M550.7,522.38s3.15,5.79-7.88,19.16" transform="translate(0 -0.24)"/><path class="cls-51" d="M410.43,523.25s-7.17,5.4,5.54,22.89" transform="translate(0 -0.24)"/><circle class="cls-51" cx="418.14" cy="549.13" r="4.01" transform="translate(-243.89 353.67) rotate(-36.28)"/><path class="cls-51" d="M538.3,550.22l1,.84s6.51-6.81,3.48-9.44-9.09,4.57-9.09,4.57l1.17,1" transform="translate(0 -0.24)"/><path class="cls-52" d="M565.72,571.44c-.66-10.25-7.06-18.72-7.13-18.81l3.48-2.67c.3.39,7.27,9.58,8,21.2Z" transform="translate(0 -0.24)"/><path class="cls-52" d="M399.51,571.44l-4.38-.28c.75-11.62,7.73-20.81,8-21.2l3.48,2.67-1.74-1.34,1.74,1.33C406.57,552.72,400.17,561.19,399.51,571.44Z" transform="translate(0 -0.24)"/><path class="cls-53" d="M775.28,185.74,839.72,93.5a6.34,6.34,0,0,1,10.4,0l64.44,92.24a6.34,6.34,0,0,1-5.2,10H780.48A6.34,6.34,0,0,1,775.28,185.74Z" transform="translate(0 -0.24)"/><path class="cls-53" d="M905.9,223a2.19,2.19,0,0,1-1.91-3.27c7-12.44,0-28-.12-28.13a2.19,2.19,0,0,1,4-1.85c.33.72,8.1,17.7,0,32.14A2.19,2.19,0,0,1,905.9,223Z" transform="translate(0 -0.24)"/><circle class="cls-53" cx="905.65" cy="221.76" r="5.12"/><path class="cls-54" d="M787,223a2.19,2.19,0,0,1-1.91-1.12c-8.14-14.43-.37-31.42,0-32.14a2.19,2.19,0,1,1,4,1.86c-.12.27-7.11,15.73-.12,28.13A2.19,2.19,0,0,1,787,223Z" transform="translate(0 -0.24)"/><circle class="cls-54" cx="787.23" cy="221.76" r="5.12"/><path class="cls-54" d="M831.14,257.09a2.19,2.19,0,0,1-2-1.21c-14.12-28.25-.63-60.43-.05-61.79a2.19,2.19,0,0,1,4,1.73c-.13.31-13.26,31.7-.05,58.1a2.19,2.19,0,0,1-2,3.17Z" transform="translate(0 -0.24)"/><path class="cls-55" d="M827.14,199.34c.47,1,2,2.92,3.22,2.92.54,0,1.14-1.46,1.17-1.87l1.36-4a2.92,2.92,0,0,0-2.53-1.46,3.68,3.68,0,0,0-1.46,0Z" transform="translate(0 -0.24)"/><path class="cls-56" d="M831.48,257.82H818.81a2.26,2.26,0,0,1-1.58-3.88,11.54,11.54,0,0,1,10.21-3.43c5.05.84,6.23,3.14,6.31,4.94A2.27,2.27,0,0,1,831.48,257.82Z" transform="translate(0 -0.24)"/><path class="cls-54" d="M860.38,257.09a2.19,2.19,0,0,1-2-1.21c-14.12-28.25-.63-60.43-.05-61.79a2.19,2.19,0,0,1,4,1.73c-.13.31-13.26,31.7-.05,58.1a2.19,2.19,0,0,1-2,3.17Z" transform="translate(0 -0.24)"/><path class="cls-55" d="M856.38,199.34c.47,1,2,2.92,3.22,2.92.54,0,1.14-1.46,1.17-1.87l1.36-4a2.92,2.92,0,0,0-2.53-1.46,3.68,3.68,0,0,0-1.46,0Z" transform="translate(0 -0.24)"/><path class="cls-56" d="M860.72,257.82H848a2.26,2.26,0,0,1-1.58-3.88,11.54,11.54,0,0,1,10.21-3.43c5.05.84,6.23,3.14,6.31,4.94A2.27,2.27,0,0,1,860.72,257.82Z" transform="translate(0 -0.24)"/><g class="cls-57"><path class="cls-54" d="M757.26,186,821.7,93.74a6.34,6.34,0,0,1,10.4,0L896.53,186a6.34,6.34,0,0,1-5.2,10H762.46A6.34,6.34,0,0,1,757.26,186Z" transform="translate(0 -0.24)"/></g><ellipse class="cls-55" cx="837.34" cy="168.67" rx="2.92" ry="1.46"/><path class="cls-55" d="M820,156.72c-.18.79-3.34.74-5.31.3s-3.42-1.44-3.24-2.23,1.92-1.07,3.89-.62S820.16,155.93,820,156.72Z" transform="translate(0 -0.24)"/><path class="cls-55" d="M855.28,156.72c.18.79,3.34.74,5.31.3s3.42-1.44,3.24-2.23-1.92-1.07-3.89-.62S855.1,155.93,855.28,156.72Z" transform="translate(0 -0.24)"/><path class="cls-7" d="M856.36,143.5a6.13,6.13,0,1,1-6.13,6.13A6.12,6.12,0,0,1,856.36,143.5Zm1.48,5.07a3.27,3.27,0,1,0-3.26,3.26A3.27,3.27,0,0,0,857.84,148.57Z" transform="translate(0 -0.24)"/><path class="cls-58" d="M854.58,145.3a3.27,3.27,0,1,1-3.27,3.27A3.27,3.27,0,0,1,854.58,145.3Z" transform="translate(0 -0.24)"/><path class="cls-7" d="M818.91,143.5a6.13,6.13,0,1,1-6.13,6.13A6.11,6.11,0,0,1,818.91,143.5Zm1.49,5.07a3.27,3.27,0,1,0-3.27,3.26A3.27,3.27,0,0,0,820.4,148.57Z" transform="translate(0 -0.24)"/><path class="cls-58" d="M817.12,145.3a3.27,3.27,0,1,1-3.26,3.27A3.27,3.27,0,0,1,817.12,145.3Z" transform="translate(0 -0.24)"/><path class="cls-59" d="M862.49,149.63a6.13,6.13,0,1,1-6.13-6.13A6.13,6.13,0,0,1,862.49,149.63Z" transform="translate(0 -0.24)"/><path class="cls-59" d="M852.85,139.64s3.77-2.54,7.88,1.07" transform="translate(0 -0.24)"/><path class="cls-59" d="M812.78,149.63a6.13,6.13,0,1,0,6.13-6.13A6.13,6.13,0,0,0,812.78,149.63Z" transform="translate(0 -0.24)"/><path class="cls-59" d="M822.42,139.64s-3.77-2.54-7.88,1.07" transform="translate(0 -0.24)"/><path class="cls-59" d="M834,163.06a5.23,5.23,0,0,0,7.21,0" transform="translate(0 -0.24)"/><path class="cls-25" d="M852.09,147.48a1.78,1.78,0,0,1,1.23-1.32" transform="translate(0 -0.24)"/><path class="cls-25" d="M814.64,147.48a1.78,1.78,0,0,1,1.23-1.32" transform="translate(0 -0.24)"/><g class="cls-30"><circle class="cls-60" cx="816.44" cy="150.39" r="9.14"/><circle class="cls-60" cx="853.72" cy="150.39" r="9.14"/><path class="cls-61" d="M844.58,150.27s-2.92-1.46-9.5-1.46c-7.31,0-9.5,1.46-9.5,1.46" transform="translate(0 -0.24)"/><line class="cls-61" x1="862.85" y1="150.76" x2="883.86" y2="141.26"/><line class="cls-62" x1="807.3" y1="149.3" x2="805.69" y2="142.28"/></g><circle class="cls-63" cx="815.7" cy="149.66" r="9.14"/><circle class="cls-63" cx="852.99" cy="149.66" r="9.14"/><path class="cls-64" d="M843.85,149.54s-2.92-1.46-9.5-1.46c-7.31,0-9.5,1.46-9.5,1.46" transform="translate(0 -0.24)"/><line class="cls-65" x1="862.12" y1="150.03" x2="883.13" y2="140.53"/><line class="cls-65" x1="806.57" y1="150.03" x2="804.96" y2="143.01"/><path class="cls-56" d="M823.24,243.76c-6-25.1,4.1-49.23,4.54-50.25l6.72,2.88-3.36-1.44,3.36,1.44c-.1.23-9.62,23-4.15,45.66Z" transform="translate(0 -0.24)"/><path class="cls-56" d="M852.48,243.76c-6-25.1,4.1-49.23,4.54-50.25l6.72,2.88-3.36-1.44,3.36,1.44c-.1.23-9.62,23-4.15,45.66Z" transform="translate(0 -0.24)"/><path class="cls-66" d="M828.36,206.92a3.66,3.66,0,0,1-3.52-4.63,75.38,75.38,0,0,1,2.94-8.77,3.65,3.65,0,0,1,6.72,2.88h0a70.13,70.13,0,0,0-2.62,7.85A3.66,3.66,0,0,1,828.36,206.92Z" transform="translate(0 -0.24)"/><path class="cls-66" d="M857.62,206.83a3.66,3.66,0,0,1-3.52-4.64,75.26,75.26,0,0,1,2.92-8.69,3.66,3.66,0,0,1,6.72,2.88h0a69.71,69.71,0,0,0-2.6,7.77A3.66,3.66,0,0,1,857.62,206.83Z" transform="translate(0 -0.24)"/><path class="cls-48" d="M912.89,209.35l-7.3-.45a39,39,0,0,0-3-16.63l6.63-3.09A45.88,45.88,0,0,1,912.89,209.35Z" transform="translate(0 -0.24)"/><path class="cls-7" d="M780,209.34a45.87,45.87,0,0,1,3.71-20.17l6.62,3.1L787,190.72l3.31,1.54a38.94,38.94,0,0,0-3,16.63Z" transform="translate(0 -0.24)"/><path class="cls-48" d="M914.55,185.75a6.34,6.34,0,0,1-5.2,10h-5.56v-.12l-20.23-28.28,15.66-3.52Z" transform="translate(0 -0.24)"/><polygon class="cls-7" points="903.79 195.35 903.79 195.47 862.49 195.47 862.49 194.99 868.23 185.85 866.79 180.73 866.6 180.78 868.7 177.08 865.78 171.23 862.49 171.96 862.49 171.82 883.56 167.08 903.79 195.35"/><polygon class="cls-7" points="865.78 171.23 868.7 177.08 866.6 180.78 866.79 180.73 868.23 185.85 862.49 194.99 862.49 171.96 865.78 171.23"/><polygon class="cls-67" points="862.49 171.96 862.49 194.99 862.49 195.47 824.84 195.47 824.84 194.99 824.84 172.32 824.84 172.01 842.39 176.34 862.49 171.82 862.49 171.96"/><path class="cls-7" d="M824.84,195.23v.49H780.48a6.34,6.34,0,0,1-5.2-10l15.33-22,32.16,7.95-1.22-.27-2.92,5.85,2.11,3.7-.19,0-1.44,5.12Z" transform="translate(0 -0.24)"/><polygon class="cls-7" points="824.84 172.32 824.84 194.99 819.1 185.85 820.54 180.73 820.73 180.78 818.63 177.08 821.55 171.23 822.77 171.5 824.84 172.01 824.84 172.32"/><polyline class="cls-50" points="820.54 180.73 819.1 185.85 824.84 194.99 824.84 172.32 824.84 172.01 824.84 171.96 822.77 171.5 821.55 171.23 818.63 177.08 820.73 180.78 820.54 180.73"/><polyline class="cls-50" points="866.79 180.73 868.23 185.85 862.49 194.99 862.49 171.96 865.78 171.23 868.7 177.08 866.6 180.78 866.79 180.73"/><line class="cls-50" x1="876.01" y1="177.81" x2="888.44" y2="177.81"/><polygon class="cls-56" points="838.73 175.47 842.39 176.24 846.04 175.5 842.39 179.68 838.73 175.47"/><polygon class="cls-56" points="842.39 199.37 839.16 195.93 842.39 179.81 845.61 195.93 842.39 199.37"/><path class="cls-2" d="M904.16,196" transform="translate(0 -0.24)"/><path class="cls-2" d="M883.69,167.45" transform="translate(0 -0.24)"/><path class="cls-51" d="M790.48,163.59s-3.15,5.79,7.88,19.16" transform="translate(0 -0.24)"/><path class="cls-51" d="M897.85,162.27s7.17,5.4-5.54,22.89" transform="translate(0 -0.24)"/><circle class="cls-51" cx="890.14" cy="188.15" r="4.01" transform="translate(211.72 794.12) rotate(-53.72)"/><path class="cls-51" d="M802.89,191.43l-1,.84s-6.51-6.81-3.48-9.44,9.09,4.57,9.09,4.57l-1.17,1" transform="translate(0 -0.24)"/></g></g></g></svg>