<?xml version="1.0" encoding="UTF-8"?>
<svg width="587px" height="484px" viewBox="0 0 587 484" version="1.1" xmlns="http://www.w3.org/2000/svg" xmlns:xlink="http://www.w3.org/1999/xlink">
    <!-- Generator: Sketch 51.2 (57519) - http://www.bohemiancoding.com/sketch -->
    <title>Group 12</title>
    <desc>Created with Sketch.</desc>
    <defs>
        <rect id="path-1" x="138" y="0.969266193" width="603" height="486"></rect>
        <polygon id="path-3" points="0.470711407 0.924634766 22.133 0.924634766 22.133 67.4879 0.470711407 67.4879"></polygon>
        <polygon id="path-5" points="0.79299761 0.44 168.796383 0.44 168.796383 168.443594 0.79299761 168.443594"></polygon>
        <polygon id="path-7" points="0.79299761 0.44 168.796383 0.44 168.796383 168.443594 0.79299761 168.443594"></polygon>
        <path d="M84.719,0.44 C65.55,0.446 46.286,6.979 30.511,20.337 C-4.892,50.317 -9.289,103.321 20.691,138.724 C50.669,174.128 103.674,178.526 139.077,148.546 C174.482,118.566 178.879,65.563 148.899,30.159 C132.297,10.553 108.632,0.456 84.808,0.44" id="path-9"></path>
        <rect id="path-11" x="270.614192" y="92.583458" width="63" height="63" rx="12"></rect>
        <filter x="-47.6%" y="-47.6%" width="195.2%" height="195.2%" filterUnits="objectBoundingBox" id="filter-12">
            <feOffset dx="0" dy="0" in="SourceAlpha" result="shadowOffsetOuter1"></feOffset>
            <feGaussianBlur stdDeviation="10" in="shadowOffsetOuter1" result="shadowBlurOuter1"></feGaussianBlur>
            <feColorMatrix values="0 0 0 0 0.309803922   0 0 0 0 0.329411765   0 0 0 0 1  0 0 0 0.4 0" type="matrix" in="shadowBlurOuter1"></feColorMatrix>
        </filter>
        <rect id="path-13" x="36.5553099" y="234.524576" width="203.407497" height="203.407497" rx="18"></rect>
        <filter x="-14.7%" y="-14.7%" width="129.5%" height="129.5%" filterUnits="objectBoundingBox" id="filter-14">
            <feOffset dx="0" dy="0" in="SourceAlpha" result="shadowOffsetOuter1"></feOffset>
            <feGaussianBlur stdDeviation="10" in="shadowOffsetOuter1" result="shadowBlurOuter1"></feGaussianBlur>
            <feColorMatrix values="0 0 0 0 0.309803922   0 0 0 0 0.329411765   0 0 0 0 1  0 0 0 0.4 0" type="matrix" in="shadowBlurOuter1"></feColorMatrix>
        </filter>
        <rect id="path-15" x="515.260914" y="25.3261617" width="31.2693507" height="31.2693507" rx="5"></rect>
        <filter x="-95.9%" y="-95.9%" width="291.9%" height="291.9%" filterUnits="objectBoundingBox" id="filter-16">
            <feOffset dx="0" dy="0" in="SourceAlpha" result="shadowOffsetOuter1"></feOffset>
            <feGaussianBlur stdDeviation="10" in="shadowOffsetOuter1" result="shadowBlurOuter1"></feGaussianBlur>
            <feColorMatrix values="0 0 0 0 0.309803922   0 0 0 0 0.329411765   0 0 0 0 1  0 0 0 0.204908288 0" type="matrix" in="shadowBlurOuter1"></feColorMatrix>
        </filter>
    </defs>
    <g id="Page-1" stroke="none" stroke-width="1" fill="none" fill-rule="evenodd">
        <g id="Desktop-HD-Copy-3" transform="translate(0.000000, -7609.000000)">
            <g id="Group-12" transform="translate(-138.000000, 7606.030734)">
                <mask id="mask-2" fill="white">
                    <use xlink:href="#path-1"></use>
                </mask>
                <g id="Rectangle-6"></g>
                <g id="Group-89" mask="url(#mask-2)">
                    <g transform="translate(464.000000, 136.030734)">
                        <g id="Group-14" transform="translate(14.000000, 0.560000)">
                            <path d="M30,168.9996 C30,178.3896 55.52,185.9996 87,185.9996 C118.48,185.9996 144,178.3896 144,168.9996 C144,159.6106 118.48,151.9996 87,151.9996 C55.52,151.9996 30,159.6106 30,168.9996" id="Fill-1" fill="#848484"></path>
                            <g id="Group-5" transform="translate(160.000000, 84.000000)">
                                <mask id="mask-4" fill="white">
                                    <use xlink:href="#path-3"></use>
                                </mask>
                                <g id="Clip-4"></g>
                                <path d="M16.7441,67.4879 C16.4471,67.4879 16.1451,67.4429 15.8471,67.3499 C14.2651,66.8549 13.3851,65.1719 13.8801,63.5909 C22.9451,34.6379 1.3121,6.0389 1.0931,5.7539 C0.0831,4.4399 0.3281,2.5559 1.6411,1.5469 C2.9541,0.5379 4.8381,0.7809 5.8481,2.0949 C6.8231,3.3619 29.5931,33.4849 19.6061,65.3839 C19.2041,66.6659 18.0201,67.4879 16.7441,67.4879" id="Fill-3" fill="#E0E33C" mask="url(#mask-4)"></path>
                            </g>
                            <path d="M134.3213,169.4908 C133.7753,169.4908 133.2223,169.3428 132.7263,169.0298 C119.7023,160.8368 102.5573,166.0708 102.3843,166.1248 C100.8083,166.6218 99.1223,165.7448 98.6233,164.1648 C98.1263,162.5868 98.9983,160.9038 100.5763,160.4038 C101.3833,160.1468 120.5073,154.2538 135.9223,163.9518 C137.3243,164.8338 137.7463,166.6858 136.8633,168.0888 C136.2933,168.9948 135.3183,169.4908 134.3213,169.4908" id="Fill-6" fill="#CFD836"></path>
                            <g id="Group-10">
                                <mask id="mask-6" fill="white">
                                    <use xlink:href="#path-5"></use>
                                </mask>
                                <g id="Clip-9"></g>
                                <path d="M20.6904,138.7242 C50.6694,174.1282 103.6734,178.5262 139.0774,148.5462 C174.4814,118.5662 178.8784,65.5632 148.8994,30.1592 C118.9194,-5.2448 65.9164,-9.6428 30.5114,20.3372 C-4.8926,50.3172 -9.2886,103.3212 20.6904,138.7242" id="Fill-8" fill="#E0E33C" mask="url(#mask-6)"></path>
                            </g>
                            <g id="Group-13">
                                <mask id="mask-8" fill="white">
                                    <use xlink:href="#path-7"></use>
                                </mask>
                                <g id="Clip-12"></g>
                                <path d="M20.6904,138.7242 C50.6694,174.1282 103.6734,178.5262 139.0774,148.5462 C174.4814,118.5662 178.8784,65.5632 148.8994,30.1592 C118.9194,-5.2448 65.9164,-9.6428 30.5114,20.3372 C-4.8926,50.3172 -9.2886,103.3212 20.6904,138.7242" id="Fill-11" fill="#CFD836" mask="url(#mask-8)"></path>
                            </g>
                        </g>
                        <g id="Group-17" transform="translate(14.000000, 0.560000)">
                            <mask id="mask-10" fill="white">
                                <use xlink:href="#path-9"></use>
                            </mask>
                            <g id="Clip-16"></g>
                            <path d="M29.8896,139.3004 C59.8686,174.7034 112.8726,179.1014 148.2766,149.1214 C183.6806,119.1424 188.0776,66.1384 158.0986,30.7344 C128.1186,-4.6696 75.1156,-9.0666 39.7116,20.9134 C4.3076,50.8924 -0.0894,103.8964 29.8896,139.3004" id="Fill-15" fill="#E0E33C" mask="url(#mask-10)"></path>
                        </g>
                        <g id="Group-88" transform="translate(0.000000, 49.560000)">
                            <path d="M152.251,118.4342 L153.946,101.1842 C154.218,98.4192 150.993,96.7192 148.87,98.5102 C145.678,101.2032 142.411,105.5582 142.84,111.9472 C143.311,118.9402 146.283,120.8422 148.718,121.1992 C150.469,121.4552 152.078,120.1952 152.251,118.4342" id="Fill-18" fill="#CFD836"></path>
                            <path d="M5.8359,102.4879 C4.5599,102.4879 3.3759,101.6659 2.9739,100.3839 C-7.0121,68.4849 15.7569,38.3619 16.7319,37.0949 C17.7409,35.7829 19.6249,35.5369 20.9389,36.5469 C22.2509,37.5559 22.4969,39.4379 21.4889,40.7519 C21.2699,41.0379 -0.3431,69.7069 8.6999,98.5909 C9.1949,100.1719 8.3149,101.8549 6.7329,102.3499 C6.4349,102.4429 6.1329,102.4879 5.8359,102.4879" id="Fill-20" fill="#CFD836"></path>
                            <path d="M0,104.9996 C0,108.8656 3.134,111.9996 7,111.9996 C10.866,111.9996 14,108.8656 14,104.9996 C14,101.1346 10.866,97.9996 7,97.9996 C3.134,97.9996 0,101.1346 0,104.9996" id="Fill-22" fill="#CFD836"></path>
                            <path d="M182,102.9996 C182,106.8656 185.134,109.9996 189,109.9996 C192.866,109.9996 196,106.8656 196,102.9996 C196,99.1346 192.866,95.9996 189,95.9996 C185.134,95.9996 182,99.1346 182,102.9996" id="Fill-24" fill="#E0E33C"></path>
                            <path d="M124.1475,26.5426 C124.3915,28.4046 128.7225,28.3006 131.4165,27.2476 C134.1095,26.1956 136.0955,23.8326 135.8525,21.9696 C135.6085,20.1056 133.2285,19.4486 130.5345,20.5016 C127.8415,21.5546 123.9045,24.6796 124.1475,26.5426" id="Fill-26" fill="#CFD836"></path>
                            <path d="M75.8618,26.5426 C75.6188,28.4046 71.2868,28.3006 68.5928,27.2476 C65.8998,26.1956 63.9138,23.8326 64.1568,21.9696 C64.4008,20.1056 66.7808,19.4486 69.4748,20.5016 C72.1688,21.5546 76.1058,24.6796 75.8618,26.5426" id="Fill-28" fill="#CFD836"></path>
                            <g id="Group-42" transform="translate(66.000000, 7.000000)">
                                <path d="M5.3599,11.1803 C5.3599,8.7003 7.3599,6.7003 9.8199,6.7003 C12.2999,6.7003 14.2999,8.7003 14.2999,11.1803 C14.2999,13.6403 12.2999,15.6403 9.8199,15.6403 C7.3599,15.6403 5.3599,13.6403 5.3599,11.1803 Z M0.0399,7.9593 C-0.0001,8.1803 -0.0001,8.4003 -0.0001,8.6193 C-0.0001,13.2403 3.7599,16.9993 8.3799,16.9993 C13.0199,16.9993 16.7599,13.2403 16.7599,8.6193 C16.7599,5.7803 15.3599,3.2603 13.1999,1.7403 L12.9999,1.9993 L0.9999,7.9993 L0.0399,7.9593 Z" id="Fill-30" fill="#FFFFFF"></path>
                                <path d="M0.04,7.9596 L1,7.9996 L13,1.9996 L13.2,1.7396 C11.84,0.8006 10.18,0.2396 8.38,0.2396 C3.98,0.2396 0.36,3.6196 0.04,7.9596" id="Fill-32" fill="#FFFFFF"></path>
                                <path d="M9.8198,6.6998 C7.3598,6.6998 5.3598,8.6998 5.3598,11.1798 C5.3598,13.6398 7.3598,15.6398 9.8198,15.6398 C12.2998,15.6398 14.2998,13.6398 14.2998,11.1798 C14.2998,8.6998 12.2998,6.6998 9.8198,6.6998" id="Fill-34" fill="#A1A41C"></path>
                                <path d="M54.5801,11.1803 C54.5801,8.7003 56.5801,6.7003 59.0601,6.7003 C61.5201,6.7003 63.5201,8.7003 63.5201,11.1803 C63.5201,13.6403 61.5201,15.6403 59.0601,15.6403 C56.5801,15.6403 54.5801,13.6403 54.5801,11.1803 Z M54.8001,1.7403 C52.6401,3.2603 51.2401,5.7803 51.2401,8.6193 C51.2401,13.2403 54.9801,16.9993 59.6201,16.9993 C64.2401,16.9993 68.0001,13.2403 68.0001,8.6193 C68.0001,8.4003 68.0001,8.1803 67.9601,7.9593 L67.0001,7.9993 L55.0001,1.9993 L54.8001,1.7403 Z" id="Fill-36" fill="#FFFFFF"></path>
                                <path d="M54.7998,1.7399 L54.9998,1.9999 L66.9998,7.9999 L67.9598,7.9599 C67.6398,3.6199 64.0198,0.2399 59.6198,0.2399 C57.8198,0.2399 56.1598,0.8009 54.7998,1.7399" id="Fill-38" fill="#FFFFFF"></path>
                                <path d="M59.0601,6.6998 C56.5801,6.6998 54.5801,8.6998 54.5801,11.1798 C54.5801,13.6398 56.5801,15.6398 59.0601,15.6398 C61.5201,15.6398 63.5201,13.6398 63.5201,11.1798 C63.5201,8.6998 61.5201,6.6998 59.0601,6.6998" id="Fill-40" fill="#A1A41C"></path>
                            </g>
                            <path d="M66.04,14.9596 C66,15.1806 66,15.3996 66,15.6196 C66,20.2396 69.76,23.9996 74.38,23.9996 C79.02,23.9996 82.76,20.2396 82.76,15.6196 C82.76,12.7796 81.36,10.2606 79.2,8.7396 C77.84,7.8006 76.18,7.2396 74.38,7.2396 C69.98,7.2396 66.36,10.6196 66.04,14.9596 Z" id="Stroke-43" stroke="#A1A41C" stroke-width="2" stroke-linecap="round"></path>
                            <path d="M78.2002,1.3199 C78.2002,1.3199 73.0202,-0.3001 67.4002,1.9999" id="Stroke-45" stroke="#A1A41C" stroke-width="2" stroke-linecap="round"></path>
                            <path d="M133.96,14.9596 C134,15.1806 134,15.3996 134,15.6196 C134,20.2396 130.24,23.9996 125.62,23.9996 C120.98,23.9996 117.24,20.2396 117.24,15.6196 C117.24,12.7796 118.64,10.2606 120.8,8.7396 C122.16,7.8006 123.82,7.2396 125.62,7.2396 C130.02,7.2396 133.64,10.6196 133.96,14.9596 Z" id="Stroke-47" stroke="#A1A41C" stroke-width="2" stroke-linecap="round"></path>
                            <path d="M120.8198,1.3199 C120.8198,1.3199 125.9798,-0.3001 131.5998,1.9999" id="Stroke-49" stroke="#A1A41C" stroke-width="2" stroke-linecap="round"></path>
                            <path d="M94,35.5201 C94,35.5201 100,32.8601 107,35.5201" id="Stroke-51" stroke="#A1A41C" stroke-width="2" stroke-linecap="round"></path>
                            <path d="M79.2202,16.6803 C79.2202,16.6803 79.0002,15.3403 77.5402,14.8803" id="Stroke-53" stroke="#FFFFFF" stroke-width="1.2" stroke-linecap="round"></path>
                            <path d="M128.46,16.6803 C128.46,16.6803 128.24,15.3403 126.78,14.8803" id="Stroke-55" stroke="#FFFFFF" stroke-width="1.2" stroke-linecap="round"></path>
                            <path d="M121,8.9996 L133,14.9996" id="Stroke-57" stroke="#A1A41C" stroke-width="2" stroke-linecap="round"></path>
                            <path d="M79,8.9996 L67,14.9996" id="Stroke-59" stroke="#A1A41C" stroke-width="2" stroke-linecap="round"></path>
                            <path d="M96,39.9996 C96,41.1036 97.791,41.9996 100,41.9996 C102.209,41.9996 104,41.1036 104,39.9996 C104,38.8956 102.209,37.9996 100,37.9996 C97.791,37.9996 96,38.8956 96,39.9996" id="Fill-61" fill="#CFD836"></path>
                            <g id="Group-67" transform="translate(71.000000, 98.000000)" fill="#838383">
                                <path d="M35.6338,23.441 C35.0208,23.441 34.4028,23.254 33.8688,22.865 C21.3788,13.755 3.9768,17.845 3.8018,17.886 C2.1958,18.276 0.5698,17.29 0.1788,15.679 C-0.2132,14.07 0.7758,12.447 2.3858,12.056 C3.2078,11.857 22.6938,7.288 37.4048,18.017 C38.7428,18.994 39.0368,20.87 38.0608,22.209 C37.4738,23.014 36.5598,23.441 35.6338,23.441" id="Fill-63"></path>
                                <path d="M39.4897,21.651 L42.3627,4.558 C42.8227,1.818 39.7227,-0.099 37.4817,1.543 C34.1127,4.009 30.5547,8.13 30.5457,14.534 C30.5357,21.543 33.3707,23.644 35.7757,24.167 C37.5047,24.543 39.1967,23.396 39.4897,21.651" id="Fill-65"></path>
                            </g>
                            <path d="M105.6338,119.441 C105.0208,119.441 104.4028,119.254 103.8688,118.865 C91.3788,109.755 73.9768,113.845 73.8018,113.886 C72.1948,114.276 70.5698,113.289 70.1788,111.679 C69.7868,110.07 70.7758,108.447 72.3858,108.056 C73.2068,107.857 92.6928,103.288 107.4048,114.017 C108.7428,114.994 109.0368,116.87 108.0608,118.209 C107.4738,119.014 106.5598,119.441 105.6338,119.441" id="Fill-68" fill="#CFD836"></path>
                            <path d="M109.4897,117.651 L112.3627,100.558 C112.8227,97.818 109.7227,95.901 107.4817,97.543 C104.1127,100.009 100.5547,104.13 100.5457,110.534 C100.5357,117.543 103.3707,119.644 105.7757,120.167 C107.5047,120.543 109.1967,119.396 109.4897,117.651" id="Fill-70" fill="#CFD836"></path>
                            <path d="M89.4741,102.607 C89.4741,107.179 93.1811,110.886 97.7531,110.886 C102.3261,110.886 106.0331,107.179 106.0331,102.607 C106.0331,98.034 102.3261,94.328 97.7531,94.328 C93.1811,94.328 89.4741,98.034 89.4741,102.607" id="Fill-72" fill="#D7D7D7"></path>
                            <path d="M88.5,103.5807 C88.5,108.1527 92.207,111.8597 96.779,111.8597 C101.352,111.8597 105.059,108.1527 105.059,103.5807 C105.059,99.0087 101.352,95.3017 96.779,95.3017 C92.207,95.3017 88.5,99.0087 88.5,103.5807" id="Fill-74" fill="#C58B5C"></path>
                            <path d="M100.1802,99.1656 L101.3382,103.5546" id="Stroke-76" stroke="#C54453" stroke-width="0.584" stroke-linecap="round"></path>
                            <path d="M97.7129,98.3824 L98.8709,102.7724" id="Stroke-78" stroke="#C54453" stroke-width="0.584" stroke-linecap="round"></path>
                            <path d="M95.2456,97.6002 L96.4026,101.9902" id="Stroke-80" stroke="#C54453" stroke-width="0.584" stroke-linecap="round"></path>
                            <path d="M104.9893,94.8404 L107.5003,93.0564" id="Stroke-82" stroke="#D2A900" stroke-width="0.779" stroke-linecap="round"></path>
                            <path d="M103.3579,93.6803 L104.9529,91.0453" id="Stroke-84" stroke="#D2A900" stroke-width="0.779" stroke-linecap="round"></path>
                            <path d="M101.4199,93.1246 L101.2559,90.0496" id="Stroke-86" stroke="#D2A900" stroke-width="0.779" stroke-linecap="round"></path>
                        </g>
                    </g>
                </g>
                <g id="Group-5" mask="url(#mask-2)">
                    <g transform="translate(324.000000, 371.228384)">
                        <path d="M395.029432,35 L5.97056787,35 C2.6731482,35 0,30.188 0,24.25 C0,18.313 2.6731482,13.5 5.97056787,13.5 L395.029432,13.5 C398.326852,13.5 401,18.313 401,24.25 C401,30.188 398.326852,35 395.029432,35" id="Fill-1" fill="#E1E1E0"></path>
                        <path d="M279,24 C279,37.255 268.255,48 255,48 C241.745,48 231,37.255 231,24 C231,10.745 241.745,0 255,0 C268.255,0 279,10.745 279,24" id="Fill-3" fill="#FBCE3F"></path>
                    </g>
                </g>
                <g id="Rectangle-24" mask="url(#mask-2)" transform="translate(302.114192, 124.083458) rotate(53.000000) translate(-302.114192, -124.083458) ">
                    <use fill="black" fill-opacity="1" filter="url(#filter-12)" xlink:href="#path-11"></use>
                    <use fill="#4F54FF" fill-rule="evenodd" xlink:href="#path-11"></use>
                </g>
                <g id="Rectangle-24" mask="url(#mask-2)" transform="translate(138.259058, 336.228325) rotate(119.000000) translate(-138.259058, -336.228325) ">
                    <use fill="black" fill-opacity="1" filter="url(#filter-14)" xlink:href="#path-13"></use>
                    <use fill="#4F54FF" fill-rule="evenodd" xlink:href="#path-13"></use>
                </g>
                <g id="Rectangle-24" mask="url(#mask-2)" transform="translate(530.895589, 40.960837) rotate(70.000000) translate(-530.895589, -40.960837) ">
                    <use fill="black" fill-opacity="1" filter="url(#filter-16)" xlink:href="#path-15"></use>
                    <use fill="#B9BBFF" fill-rule="evenodd" xlink:href="#path-15"></use>
                </g>
            </g>
        </g>
    </g>
</svg>