<?xml version="1.0" encoding="utf-8"?>
<!-- Generator: Adobe Illustrator 22.1.0, SVG Export Plug-In . SVG Version: 6.00 Build 0)  -->
<svg version="1.1" id="Layer_1" xmlns="http://www.w3.org/2000/svg" xmlns:xlink="http://www.w3.org/1999/xlink" x="0px" y="0px"
	 viewBox="0 0 1500 867" style="enable-background:new 0 0 1500 867;" xml:space="preserve">
<style type="text/css">
	.st0{fill:#FFFFFF;}
	.st1{fill:#17BCBC;}
	.st2{fill:#B4FCDD;}
	.st3{fill:#F9CD17;}
	.st4{fill:#2731FF;}
	.st5{fill:#FF9695;}
</style>
<g id="bg_pic" transform="translate(30 30)">
	<g id="Group_2">
		<g transform="matrix(1, 0, 0, 1, -30, -30)">
			<rect id="Rectangle-4" x="-23.5" class="st0" width="1547" height="867"/>
		</g>
	</g>
	<g id="noun_Social_1792131_2731ff" transform="translate(538 465.166) rotate(-11)">
		<path id="Shape" class="st1" d="M4.1,21.2c-2.4,0-4.3-1.9-4.3-4.3c0-2.3,1.9-4.3,4.2-4.3c0,0,0.1,0,0.1,0c2.4,0,4.3,1.9,4.3,4.3
			C8.4,19.3,6.5,21.2,4.1,21.2z M4.1,15c-1.1,0-2,0.9-2,2c0,1.1,0.9,2,2,2c0,0,0,0,0,0c1.1,0,2-0.9,2-2C6.1,15.9,5.2,15,4.1,15
			C4.1,15,4.1,15,4.1,15z"/>
		<path id="Shape-2" class="st1" d="M4.1,58.8c-2.3,0-4.3-1.9-4.3-4.2c0,0,0-0.1,0-0.1c0-2.3,1.9-4.3,4.2-4.3c0,0,0.1,0,0.1,0
			c2.3,0,4.3,1.9,4.3,4.2c0,0,0,0.1,0,0.1C8.4,56.9,6.6,58.8,4.1,58.8C4.2,58.8,4.1,58.8,4.1,58.8z M4.1,52.5c-1.1,0-2,0.8-2,1.9
			c0,0,0,0,0,0c0,1.1,0.9,2,2,2s2-0.9,2-2C6.1,53.4,5.2,52.5,4.1,52.5C4.1,52.5,4.1,52.5,4.1,52.5z"/>
		<path id="Shape-3" class="st1" d="M39.6,40.6c-2.3,0-4.3-1.9-4.3-4.2c0,0,0-0.1,0-0.1c0-2.3,1.9-4.3,4.2-4.3c0,0,0.1,0,0.1,0
			c2.4,0,4.3,1.9,4.3,4.3C43.9,38.6,42,40.6,39.6,40.6C39.6,40.6,39.6,40.6,39.6,40.6z M39.6,34.3c-1.1,0-2,0.8-2,1.9c0,0,0,0,0,0
			c0,1.1,0.9,2,2,2s2-0.9,2-2C41.6,35.2,40.7,34.3,39.6,34.3C39.6,34.3,39.6,34.3,39.6,34.3z"/>
		<path id="Shape-4" class="st1" d="M-11.2,72.8c-1.6,0-2.9-1.2-2.9-2.8c0,0,0,0,0-0.1c0-1.6,1.3-2.9,2.9-2.9c0.4,0,0.8,0.1,1.2,0.3
			l6.4-4.2C-5.2,61.3-6,59-6,56.6c0-5,3.8-9.3,8.8-9.9l0-17.2c-5.5-0.7-9.4-5.7-8.7-11.2c0.3-2.2,1.3-4.2,2.8-5.8
			c1.8-1.9,4.4-2.9,7-2.9c2.1,0,4.2,0.7,5.9,2l8.6-6.4c-0.1-0.1-0.1-0.3-0.1-0.4c0-1.6,1.3-2.9,2.9-2.9c1.6,0,2.9,1.3,2.9,2.9
			c0,1.6-1.3,2.9-2.9,2.9c-0.3,0-0.7-0.1-1-0.1l-8.5,6.3c1.2,1.6,1.8,3.5,1.9,5.5l19,10.9c1.7-1.3,3.9-2.1,6.1-2.1
			c2.6,0,5.2,1,7,2.9c1.9,1.9,2.9,4.4,2.9,7.1c0,0.8-0.1,1.5-0.2,2.2l7.4,5c0.4-0.2,0.8-0.3,1.2-0.3c1.6,0,2.8,1.2,2.8,2.8
			c0,0,0,0.1,0,0.1c0,1.6-1.3,2.9-2.9,2.9s-2.9-1.3-2.9-2.9v-0.1l-6.8-4.6c-0.9,1.5-2.1,2.7-3.5,3.5c-1.5,0.9-3.2,1.4-4.9,1.4
			c-2.1,0-4.2-0.7-5.8-2l-19.2,11h-0.1c-0.1,5.4-4.6,9.7-10,9.5c-1.8,0-3.6-0.6-5.1-1.6l-7,4.7v0.2C-8.3,71.5-9.6,72.8-11.2,72.8
			C-11.2,72.8-11.2,72.8-11.2,72.8z M1.5,60.7c-0.5,0.1-0.9,0.4-1.2,0.7c-0.4,0.4-0.7,1-0.8,1.6c1.3,0.9,2.7,1.3,4.3,1.3
			c1.7,0,3.4-0.6,4.7-1.6c-0.2-0.5-0.4-0.9-0.8-1.3c-0.3-0.4-0.7-0.6-1.2-0.7C6,61,5.4,61.2,4.8,61.3c-0.1,0.1-0.2,0.1-0.3,0.1H3.6
			c-0.1,0-0.1,0-0.1,0h0c0,0-0.1,0-0.1,0C2.7,61.2,2.1,61,1.5,60.7z M3.7,49c-4.1,0.1-7.4,3.5-7.4,7.7c0,1.6,0.5,3.2,1.5,4.5
			c0.2-0.5,0.5-0.9,0.9-1.3c0.8-0.8,1.9-1.3,3-1.5c0.3,0,0.6,0.1,0.8,0.2C3,59,3.6,59.2,4.1,59.2c0.6,0,1.1-0.2,1.6-0.5
			c0.2-0.2,0.5-0.2,0.8-0.2c1.2,0.1,2.2,0.6,3,1.5c0.3,0.3,0.5,0.6,0.8,1c0.8-1.2,1.3-2.7,1.2-4.2c0-4.1-3.3-7.5-7.4-7.7L3.7,49
			L3.7,49z M13.4,21.9c-0.4,1.9-1.4,3.7-2.8,5.1L10.4,27l-0.1,0.1c-1.5,1.3-3.3,2.2-5.3,2.4l0,17.2c4.2,0.5,7.7,3.6,8.5,7.8
			l17.8-10.1c-1.5-1.8-2.3-4-2.2-6.3c0-2.2,0.8-4.4,2.2-6.2L13.4,21.9z M36.6,42.2c-0.5,0.1-0.9,0.4-1.2,0.7c-0.4,0.4-0.7,1-0.8,1.6
			c2.7,1.9,6.4,1.8,9-0.4c-0.1-0.5-0.4-0.9-0.8-1.2c-0.3-0.4-0.7-0.6-1.2-0.7c-0.6,0.3-1.2,0.5-1.8,0.6c-0.1,0.1-0.2,0.1-0.3,0.1
			h-0.9c-0.1,0-0.1,0-0.1,0h0c0,0-0.1,0-0.1,0C37.8,42.7,37.2,42.5,36.6,42.2z M38.9,30.5c-4.2,0-7.6,3.5-7.6,7.7
			c0,1.6,0.5,3.2,1.5,4.5c0.2-0.5,0.5-0.9,0.9-1.3c0.8-0.8,1.9-1.3,3-1.5c0.3,0,0.5,0.1,0.8,0.2c0.5,0.3,1.1,0.5,1.6,0.5
			c0.6,0,1.1-0.2,1.6-0.5c0.2-0.2,0.5-0.2,0.8-0.2c1.2,0.1,2.2,0.6,3,1.5c0.3,0.3,0.6,0.6,0.8,1c0.8-1.3,1.2-2.7,1.2-4.2
			C46.5,34,43.1,30.5,38.9,30.5z M1.5,23.7c-0.5,0.1-0.9,0.4-1.2,0.7c-0.4,0.4-0.7,1-0.8,1.6c1.3,0.8,2.8,1.3,4.3,1.3
			c1.7,0,3.3-0.6,4.6-1.6c-0.2-0.5-0.4-0.9-0.8-1.3c-0.3-0.4-0.7-0.6-1.2-0.7C6,24,5.4,24.2,4.8,24.3c-0.1,0.1-0.2,0.1-0.3,0.1H3.6
			c0,0-0.1,0-0.1,0h0c0,0-0.1,0-0.1,0C2.7,24.2,2.1,24,1.5,23.7z M3.8,12c-4.2,0-7.6,3.5-7.6,7.7c0,1.6,0.5,3.2,1.5,4.5
			c0.2-0.5,0.5-0.9,0.8-1.3c0.8-0.8,1.9-1.3,3-1.5c0.3,0,0.6,0.1,0.8,0.2c0.5,0.3,1.1,0.5,1.6,0.5c0.6,0,1.1-0.2,1.6-0.5
			c0.2-0.2,0.5-0.2,0.8-0.2c1.2,0.1,2.2,0.6,3,1.5c0.3,0.3,0.5,0.7,0.8,1c2.3-3.5,1.4-8.3-2.2-10.6C6.8,12.5,5.3,12.1,3.8,12L3.8,12
			z"/>
	</g>
	<g id="noun_computer_science_1655146_2731ff" transform="matrix(0.985, 0.174, -0.174, 0.985, 965.261, 592.861)">
		<path id="Shape-5" class="st2" d="M66.9,69.8H42.7v-4.2h5.9v-2.6H29.4c-5,0-9.1-4-9.1-9V19.7c0-5,4.1-9,9.1-9h50.6
			c5,0,9.1,4,9.1,9v34.2c0,5-4.1,9-9.1,9H61v2.6h5.9L66.9,69.8L66.9,69.8z M29.4,14.3c-3,0-5.4,2.4-5.4,5.4l0,34.2
			c0,3,2.4,5.4,5.4,5.4h50.6c3,0,5.4-2.4,5.4-5.4V19.7c0-3-2.4-5.4-5.4-5.4H29.4z"/>
		<path id="Shape-6" class="st2" d="M78.4,31.5c0-2-1.5-3.6-3.5-3.6c-1.8,0-3.3,1.3-3.6,3.1h-7.5l-21,21.3h-6.8
			c-0.2-1.8-1.7-3.2-3.5-3.2c-2,0-3.6,1.7-3.6,3.7c0,2,1.6,3.5,3.6,3.6c1.8,0,3.3-1.4,3.5-3.2h7.1l21-21.3h7.1
			c0.1,1.7,1.5,3.1,3.2,3.3v16.7c-2,0.2-3.4,1.9-3.2,3.9c0.2,2,1.9,3.4,3.9,3.2c2-0.2,3.4-1.9,3.2-3.9c-0.2-1.6-1.4-3-3.1-3.2V35
			C77.1,34.8,78.4,33.3,78.4,31.5z"/>
		<path id="Shape-7" class="st2" d="M68.7,44.4c0-2.1-1.7-3.7-3.8-3.7c-2.1,0-3.7,1.6-3.8,3.7c0,1.9,1.5,3.5,3.4,3.7v4.6
			c-2,0.1-3.6,1.8-3.5,3.9c0.1,2,1.8,3.6,3.9,3.5c2,0,3.7-1.6,3.8-3.6c0-1.9-1.4-3.5-3.2-3.7v-4.7C67.3,47.9,68.7,46.3,68.7,44.4z"
			/>
		<path id="Shape-8" class="st2" d="M74.8,20.3c-1.8,0-3.3,1.3-3.5,3h-7.5l-21,20.9h-6.8c-0.2-2-2-3.4-3.9-3.1s-3.4,2-3.1,3.9
			c0.2,2,2,3.4,3.9,3.1c1.6-0.2,2.9-1.5,3.1-3.1h7.1l21-20.9h7.1c0.2,2,1.9,3.4,3.8,3.3c2-0.2,3.4-1.9,3.3-3.8
			C78.2,21.8,76.7,20.3,74.8,20.3z"/>
		<path id="Shape-9" class="st2" d="M32.6,26.8c1.9,0,3.4-1.5,3.6-3.3h5c0.1,2,1.8,3.5,3.8,3.4c2-0.1,3.5-1.8,3.4-3.8
			c0.1-2-1.4-3.7-3.4-3.8c-1.9-0.1-3.6,1.4-3.8,3.3h-5c-0.2-1.9-1.7-3.3-3.6-3.3c-2,0-3.6,1.7-3.6,3.8
			C28.9,25.1,30.6,26.7,32.6,26.8z"/>
	</g>
	<g id="noun_Architecture_1303347_2731ff" transform="translate(1050.821 219.768) rotate(-13)">
		<path id="Shape-10" class="st3" d="M78.5,50.2H57.2c-0.6,0-1.1-0.5-1.1-1.1V27.7c0-0.6,0.5-1.1,1.1-1.1c0.3,0,0.6,0.1,0.8,0.3
			l21.3,21.3c0.5,0.4,0.6,1.1,0.2,1.6C79.2,50.1,78.9,50.2,78.5,50.2z M58.3,47.1V48h17.5L58.3,30.4v4.5h1c0.6,0,1.1,0.5,1.1,1.1
			s-0.5,1.1-1.1,1.1h-1v1.3h2.9c0.6,0,1.1,0.5,1.1,1.1s-0.5,1.1-1.1,1.1h-2.9v0.8h1c0.6,0,1.1,0.5,1.1,1.1c0,0.6-0.5,1.1-1.1,1.1
			l-1,0v1h2.9c0.6,0,1.1,0.5,1.1,1.1s-0.5,1.1-1.1,1.1l0,0L58.3,47.1z"/>
		<path id="Shape-11" class="st3" d="M49.5,50.2h-7.4c-0.6,0-1.1-0.5-1.1-1.2l0-28.8c0-0.6,0.5-1.2,1.1-1.2h7.4
			c0.6,0,1.1,0.5,1.1,1.2l0,28.8C50.7,49.7,50.2,50.2,49.5,50.2z M43.3,43.4v4.4h5.1V21.4h-5.1v2.2h1.8c0.6,0,1.2,0.5,1.2,1.2
			S45.7,26,45.1,26h-1.8v2h1.8c0.6,0,1.2,0.5,1.2,1.2c0,0.6-0.5,1.2-1.2,1.2h-1.8v2h1.8c0.6,0,1.2,0.5,1.2,1.2
			c0,0.6-0.5,1.2-1.2,1.2h-1.8v2h1.8c0.6,0,1.1,0.6,1.1,1.2c0,0.6-0.5,1.1-1.1,1.1h-1.8v2h1.8c0.6,0,1.2,0.5,1.2,1.2
			c0,0.6-0.5,1.2-1.2,1.2L43.3,43.4z"/>
		<path id="Shape-12" class="st3" d="M85.4,58.8l-50.2,0c-0.6,0-1.2-0.5-1.2-1.2V25.4l-5.8,0c-0.3,0-0.6-0.1-0.8-0.3
			c-0.2-0.2-0.3-0.5-0.3-0.8v-8.1c0-0.4,0.2-0.7,0.5-0.9L59.6-7.6c0.4-0.3,1-0.3,1.4,0l32.1,22.8c0.3,0.2,0.5,0.6,0.5,0.9v8.1
			c0,0.3-0.1,0.6-0.3,0.8c-0.2,0.2-0.5,0.3-0.8,0.3l-5.9,0v32.2C86.6,58.3,86.1,58.8,85.4,58.8z M35.2,23.1L35.2,23.1
			c0.3,0,0.6,0.1,0.8,0.3c0.2,0.2,0.3,0.5,0.3,0.8l0,32.2h47.9V24.3c0-0.3,0.1-0.6,0.3-0.8c0.2-0.2,0.5-0.3,0.8-0.3l5.9,0v-6.4
			l-31-22l-31,22v6.4L35.2,23.1z"/>
	</g>
	<g id="noun_commerce_1743345_2731ff" transform="translate(468 267)">
		<path id="Shape-13" class="st4" d="M25.1,12l-8.2,1.4l-1-6c-0.1-0.6-0.7-1-1.2-0.9c-0.3,0.1-0.6,0.3-0.8,0.6l-2.9,6L8.4,8.3
			C8.2,7.8,7.5,7.5,7,7.8C6.7,7.9,6.5,8.2,6.4,8.5L3.1,21.2L0.2,16c-0.2-0.4-0.7-0.6-1.1-0.5l-9.3,1.6c-0.6,0.1-0.9,0.7-0.8,1.3
			c0.1,0.5,0.6,0.9,1.2,0.8l8.5-1.4l3.8,6.8c0.2,0.3,0.5,0.5,0.9,0.5c0,0,0.1,0,0.1,0C4,25,4.4,24.7,4.5,24.3l3.3-12.5L9.9,16
			c0.2,0.4,0.6,0.6,1,0.6h0c0.4,0,0.8-0.2,1-0.6l2.4-4.9l0.6,3.8c0.1,0.6,0.7,1,1.2,0.9l9.3-1.6c0.6-0.1,1-0.6,0.9-1.2
			S25.7,11.9,25.1,12C25.1,12,25.1,12,25.1,12L25.1,12z"/>
		<path id="Shape-14" class="st4" d="M7.6,38.1c-12.3,0-22.3-10-22.3-22.3S-4.7-6.5,7.6-6.5c12.3,0,22.3,10,22.3,22.3
			C29.9,28.1,19.9,38,7.6,38.1z M7.6-4.4c-11.1,0-20.1,9-20.1,20.1s9,20.1,20.1,20.1c11.1,0,20.1-9,20.1-20.1c0,0,0,0,0,0
			C27.7,4.6,18.7-4.4,7.6-4.4z"/>
		<path id="Shape-15" class="st4" d="M38.1,59.4L38.1,59.4c-0.4,0-0.6-0.2-0.8-0.4L23.5,43.2c-0.4-0.4-0.3-1.1,0.1-1.5l1.1-1
			l-2.9-3.3C9.8,45.3-6.4,42-14.4,30S-19,1.8-7-6.2s28.2-4.6,36.2,7.4c6.5,9.8,5.6,22.7-2.1,31.5l2.9,3.3l1.2-1
			c0.2-0.2,0.5-0.3,0.7-0.3H32c0.3,0,0.5,0.2,0.7,0.4l13.8,15.8c0.4,0.4,0.3,1.1-0.1,1.5c0,0,0,0,0,0l-7.6,6.7
			C38.6,59.3,38.3,59.4,38.1,59.4z M31.8,37.4L31.8,37.4l-1.2,1l0,0l-3.7,3.2l-1.1,1l12.4,14.2l6-5.2L31.8,37.4z M7.6-8
			C-5.5-8-16.1,2.7-16.1,15.8c0,13.1,10.6,23.7,23.7,23.7s23.7-10.6,23.7-23.7c0,0,0,0,0,0C31.3,2.7,20.7-8,7.6-8z M25.9,34.6
			L25.9,34.6l-2.1,1.8l2.5,2.9l2.1-1.8L25.9,34.6L25.9,34.6z"/>
	</g>
	<g id="noun_Brain_1325493_2731ff" transform="matrix(0.995, -0.105, 0.105, 0.995, 233.896, 554.526)">
		<path id="Shape-16" class="st5" d="M5.7,8.5L5.7,8.5L5.7,8.5C0.6,7.1-4.7,7-9.8,8.2c-0.2,0-0.3,0.1-0.5,0.1l-0.3,0.1
			c-0.5,0.1-0.9,0.3-1.5,0.4c-3.4,0.9-6.5,2.4-9.4,4.3c-4.9,3.4-8.3,8.5-9.6,14.3c-0.4,1.6-0.7,3.3-0.9,4.9c-0.1,0.7-0.1,1.3,0,2
			c0.1,0.4,0.1,0.7,0.1,1.1v0c0,1.1-0.3,2.2-0.8,3.1l-3.5,6.3c-0.6,1.1-0.9,2.3-1,3.5c-0.1,2.4,1.3,4.5,3.4,5.6
			c-0.1,0.3-0.2,0.6-0.2,0.8c-0.1,1.2,0.2,2.4,0.9,3.4c-0.3,1.4,0,2.8,0.9,3.9v4.8c0,1.1,0.4,2.2,1.2,3c0.3,0.3,0.7,0.6,1.1,0.8
			c0,0,0,0,0.1,0.1l0,0c1.6,1.4,4.2,2,7.6,1.9c1.7-0.1,3.4-0.3,5-0.7c0.3-0.1,0.5-0.1,0.8-0.1l1.9,7.1c0.2,0.6,0.6,1.1,1.2,1.3
			c0.2,0.1,0.4,0.1,0.6,0.1c1,0,1.8-0.8,1.8-1.8c0-0.2,0-0.3-0.1-0.5l-2.2-8.2c-0.2-0.8-0.9-1.4-1.7-1.6c-1-0.2-2.1-0.2-3.1,0.1
			l-0.1,0c-2.8,0.7-7.6,1.1-9.4-0.4c-0.1-0.1-0.2-0.2-0.3-0.3c-0.3-0.5-0.5-1-0.4-1.6c0.2-0.6,1-3.4-0.5-5.5
			c-0.1-0.2-0.3-0.4-0.5-0.6l-0.1-0.1c-0.3-0.4-0.4-0.9-0.2-1.3l0.5-1l-0.7-0.9c-0.4-0.4-0.6-0.9-0.7-1.5c0-0.2,0.1-0.3,0.2-0.4
			c0.4-0.4,0.6-0.9,0.6-1.4v-0.6c0-0.8-0.6-1.6-1.4-1.8c-0.7-0.2-1.4-0.5-2-0.8c-0.9-0.6-1.2-1.8-0.7-2.7l4.6-8.2
			c0.2-0.2,1.2-1.9,0.7-6.5c0-0.1,0-0.3,0-0.4c0,0,0-0.1,0-0.1l0.2-2l0-0.1c1-5.3,4.8-14.6,18.1-18.2h0.1l0.4-0.1c0,0,0,0,0.1,0
			l0.3-0.1c2.3-0.4,4.6-0.7,7-0.7h0.2c1.2,0,2.4,0.1,3.6,0.3c1.9,0.3,3.8,0.9,5.6,1.6c9.9,4.2,16.6,13.7,17.1,24.4c0,1,0,2-0.1,2.9
			v0c-1,10-7.7,18.5-17.1,22c-0.2,0.1-0.4,0.2-0.6,0.3c-0.9,0.5-1.4,1.6-1.1,2.7l0.3,0.9l2.2,9.4c0.2,1,1.2,1.6,2.2,1.4
			c0.3-0.1,0.6-0.2,0.8-0.4c0.5-0.4,0.7-1.1,0.6-1.7l-2-9.6c11.1-4.6,18.4-15.4,18.5-27.5c0-0.2,0-0.4,0-0.7
			C28.2,23.6,18.9,11.8,5.7,8.5z"/>
		<path id="Shape-17" class="st5" d="M9,37.2c0.7-0.2,1.2-0.8,1.2-1.5c0-0.5-0.2-0.9-0.6-1.2c-0.4-0.3-0.9-0.4-1.4-0.3
			c-2.5,0.5-4.3,2.7-4.4,5.3c0.1,2.6,1.9,4.8,4.4,5.3c0.1,0,0.3,0.1,0.4,0.1c0.4,0,0.7-0.1,1-0.3c0.4-0.3,0.6-0.7,0.6-1.2
			c0-0.7-0.5-1.3-1.2-1.5c-1.1-0.2-1.9-1.2-2-2.4C7,38.4,7.9,37.5,9,37.2z"/>
		<path id="Shape-18" class="st5" d="M2.5,58.9c-2.1,0-4.1-1.1-5.2-2.8c-2,2.9-5.9,3.7-8.9,1.7c-1.1-0.7-1.9-1.8-2.4-3.1
			c-2-0.3-3.7-1.3-5-2.8c-1.3-1.6-2-3.5-2-5.6c0-0.5,0-1,0.1-1.5c-3.2-3.5-3-9,0.5-12.3c0.1-0.1,0.3-0.2,0.4-0.3c0-0.2,0-0.4,0-0.6
			c0-2,0.7-4,2-5.5c1-1.2,2.4-2.1,3.9-2.6c0.5-1.3,1.3-2.4,2.4-3.2c1.1-0.8,2.4-1.2,3.7-1.2c2.1,0,4.1,1.1,5.3,2.8
			c1-1.5,2.6-2.5,4.3-2.7c0.3,0,0.6-0.1,0.9-0.1c2.7,0,5,1.7,6,4.2c2,0.3,3.7,1.3,5,2.8c1.3,1.6,2,3.5,2,5.6c0,0.5,0,1-0.1,1.5
			c3.2,3.5,3,9-0.5,12.3c-0.1,0.1-0.3,0.2-0.4,0.3c0,0.2,0,0.4,0,0.6c0,2-0.7,4-2,5.5c-0.2,0.2-0.4,0.5-0.7,0.7
			c-0.9,0.9-2,1.5-3.2,1.9c-0.4,1.1-1,2-1.9,2.8c-0.8,0.7-1.8,1.3-2.9,1.5C3.4,58.9,3,58.9,2.5,58.9z M2.5,22.4
			c-0.2,0-0.4,0-0.6,0.1c-1.7,0.4-2.8,1.9-2.8,3.6l0,26c0,1.8,1.3,3.4,3.1,3.6c0.1,0,0.2,0,0.3,0c1.7,0,3.1-1.2,3.3-2.9L6,52.1
			c0-1.7-1.1-3.1-2.7-3.5C2.5,48.4,2,47.8,2,47c0-0.5,0.2-0.9,0.6-1.3c0.3-0.2,0.6-0.4,1-0.4c0.1,0,0.2,0,0.3,0
			c1.3,0.3,2.5,1,3.3,1.9c0.9,1,1.5,2.2,1.7,3.5c1.6-1,2.5-2.7,2.5-4.5c0-0.4,0-0.7-0.1-1.1l-0.2-1.2l1-0.6c2.5-1.5,3.3-4.8,1.7-7.3
			c-0.3-0.5-0.7-0.9-1.1-1.3l-0.8-0.7l0.3-1.1c0.1-0.5,0.2-1,0.2-1.5c0-2.2-1.4-4.2-3.4-4.9c-0.2,1.4-0.7,2.7-1.7,3.8
			c-0.9,1.1-2.1,1.8-3.5,2.1c-0.1,0-0.2,0-0.3,0c-0.4,0-0.7-0.1-1-0.4C2.2,32,2,31.6,2,31.1c0-0.8,0.5-1.4,1.2-1.6
			C4.9,29.1,6,27.7,6,26c0-0.1-0.1-0.6-0.1-0.8C5.6,23.6,4.2,22.4,2.5,22.4z M-8.9,45.4c0.4,0,0.7,0.1,1,0.4
			c0.4,0.3,0.6,0.8,0.6,1.3c0,0.8-0.5,1.4-1.2,1.6c-1.6,0.3-2.8,1.8-2.8,3.5c0,0.1,0.1,0.6,0.1,0.8c0.3,1.6,1.7,2.8,3.3,2.8
			c0.2,0,0.3,0,0.5,0c1.7-0.3,3-1.9,2.9-3.6v-26c0-1.8-1.3-3.4-3.1-3.6c-0.1,0-0.2,0-0.3,0c-1.7,0-3.1,1.2-3.4,2.9c0,0,0,0,0,0.1
			c0,0.1-0.1,0.5-0.1,0.7c0,0.9,0.4,1.9,1,2.5c0.5,0.5,1.1,0.8,1.7,1c0.7,0.2,1.2,0.8,1.2,1.6c0,0.5-0.2,0.9-0.6,1.3
			c-0.4,0.3-0.8,0.4-1.3,0.3c-1.3-0.3-2.4-0.9-3.3-1.9c-0.9-1-1.6-2.2-1.8-3.6c-1.6,1-2.5,2.7-2.5,4.5c0,0.4,0,0.7,0.1,1.1l0.2,1.2
			l-1,0.6c-2.5,1.5-3.3,4.8-1.7,7.3c0.3,0.5,0.7,0.9,1.1,1.3l0.8,0.7l-0.3,1.1c-0.1,0.5-0.2,1-0.2,1.5c0,2.2,1.4,4.2,3.4,4.9
			c0.2-1.4,0.7-2.7,1.7-3.8c0.9-1.1,2.1-1.8,3.5-2.1C-9.1,45.4-9,45.4-8.9,45.4z"/>
		<path id="Shape-19" class="st5" d="M-12.5,34.3c-0.5-0.1-1,0-1.4,0.3c-0.4,0.3-0.6,0.7-0.6,1.2v0c0,0.7,0.5,1.3,1.2,1.4
			c1.1,0.2,1.9,1.2,2,2.4c0,1.1-0.8,2.1-2,2.4c-0.7,0.2-1.2,0.8-1.2,1.5c0,0.5,0.2,0.9,0.6,1.2c0.3,0.2,0.6,0.3,1,0.3
			c0.1,0,0.3,0,0.4-0.1c2.5-0.5,4.3-2.7,4.4-5.3C-8.1,37-10,34.8-12.5,34.3z"/>
	</g>
</g>
</svg>
