<svg xmlns="http://www.w3.org/2000/svg" viewBox="0 0 611 326">
  <defs>
    <style>
      .cls-1 {
        fill: #fff;
      }

      .cls-2, .cls-4, .cls-5, .cls-6, .cls-8 {
        fill: none;
      }

      .cls-2 {
        stroke: #4f54ff;
        stroke-width: 3px;
      }

      .cls-2, .cls-4, .cls-5, .cls-6 {
        stroke-miterlimit: 10;
      }

      .cls-3 {
        font-size: 8px;
        font-family: Avenir-Book, Avenir;
      }

      .cls-4, .cls-5 {
        stroke: #000;
      }

      .cls-5, .cls-6 {
        stroke-linecap: round;
      }

      .cls-6 {
        stroke: #fff;
        stroke-width: 0.6px;
      }

      .cls-7 {
        stroke: none;
      }
    </style>
  </defs>
  <g id="wong-baker" transform="translate(-736 -3071)">
    <g id="Group_2" data-name="Group 2">
      <g id="Group_1" data-name="Group 1">
        <g id="Group_12" data-name="Group 12" transform="translate(736 3071)">
          <rect id="Rectangle_3" data-name="Rectangle 3" class="cls-1" width="584" height="303" transform="translate(27)"/>
          <g id="Rectangle_15" data-name="Rectangle 15" class="cls-2" transform="translate(0 9)">
            <rect class="cls-7" width="595" height="317"/>
            <rect class="cls-8" x="1.5" y="1.5" width="592" height="314"/>
          </g>
          <g id="face_iteration" data-name="face iteration" transform="translate(88 56)">
            <text id="_10_-_hurts" data-name="10 - hurts" class="cls-3" transform="translate(386 186)"><tspan x="0" y="8">10 - hurts</tspan></text>
            <text id="_8_-_hurts" data-name="8 - hurts" class="cls-3" transform="translate(313 186)"><tspan x="0" y="8">8 - hurts</tspan></text>
            <text id="_6_-_hurts" data-name="6 - hurts" class="cls-3" transform="translate(244 186)"><tspan x="0" y="8">6 - hurts</tspan></text>
            <text id="_4_-_hurts_a" data-name="4 - hurts a" class="cls-3" transform="translate(163 186)"><tspan x="0" y="8">4 - hurts a</tspan></text>
            <text id="_2_-_hurts_a" data-name="2 - hurts a" class="cls-3" transform="translate(85 186)"><tspan x="0" y="8">2 - hurts a</tspan></text>
            <text id="_0_-_no_hurt" data-name="0 - no hurt" class="cls-3" transform="translate(1 186)"><tspan x="0" y="8">0 - no hurt</tspan></text>
            <text id="_10_-_hurts-2" data-name="10 - hurts" class="cls-3" transform="translate(386 51)"><tspan x="0" y="8">10 - hurts</tspan></text>
            <text id="_8_-_hurts-2" data-name="8 - hurts" class="cls-3" transform="translate(313 51)"><tspan x="0" y="8">8 - hurts</tspan></text>
            <text id="_6_-_hurts-2" data-name="6 - hurts" class="cls-3" transform="translate(244 51)"><tspan x="0" y="8">6 - hurts</tspan></text>
            <text id="_4_-_hurts_a-2" data-name="4 - hurts a" class="cls-3" transform="translate(163 51)"><tspan x="0" y="8">4 - hurts a</tspan></text>
            <text id="_2_-_hurts_a-2" data-name="2 - hurts a" class="cls-3" transform="translate(85 51)"><tspan x="0" y="8">2 - hurts a</tspan></text>
            <text id="_0_-_no_hurt-2" data-name="0 - no hurt" class="cls-3" transform="translate(1 51)"><tspan x="0" y="8">0 - no hurt</tspan></text>
            <circle id="Oval" class="cls-4" cx="5.5" cy="5.5" r="5.5" transform="translate(196 150)"/>
            <circle id="Oval-2" data-name="Oval" cx="2.5" cy="2.5" r="2.5" transform="translate(199 152)"/>
            <circle id="Oval-3" data-name="Oval" class="cls-4" cx="5.5" cy="5.5" r="5.5" transform="translate(164 150)"/>
            <circle id="Oval-4" data-name="Oval" cx="2.5" cy="2.5" r="2.5" transform="translate(167 152)"/>
            <path id="Shape" class="cls-5" d="M6,.021a32.548,32.548,0,0,0-6,.34" transform="translate(166 146)"/>
            <path id="Shape-2" data-name="Shape" class="cls-5" d="M0,.021a32.548,32.548,0,0,1,6,.34" transform="translate(198 146)"/>
            <path id="Shape-3" data-name="Shape" class="cls-6" d="M0,.9A1.21,1.21,0,0,1,.84,0" transform="translate(200 153)"/>
            <path id="Shape-4" data-name="Shape" class="cls-6" d="M0,.9A1.21,1.21,0,0,1,.84,0" transform="translate(167 153)"/>
            <circle id="Oval-5" data-name="Oval" class="cls-4" cx="5.5" cy="5.5" r="5.5" transform="translate(416 150)"/>
            <circle id="Oval-6" data-name="Oval" class="cls-4" cx="5.5" cy="5.5" r="5.5" transform="translate(383 150)"/>
            <path id="Shape-5" data-name="Shape" class="cls-5" d="M0,6A13.472,13.472,0,0,0,6,0" transform="translate(381 146)"/>
            <path id="Shape-6" data-name="Shape" class="cls-5" d="M6,6A13.472,13.472,0,0,1,0,0" transform="translate(421 146)"/>
            <path id="Shape-7" data-name="Shape" class="cls-5" d="M9,3S4.846-3.75,0,3" transform="translate(401 167)"/>
            <circle id="Oval-7" data-name="Oval" cx="2.5" cy="2.5" r="2.5" transform="translate(417 153)"/>
            <path id="Shape-8" data-name="Shape" class="cls-6" d="M0,.9A1.21,1.21,0,0,1,.84,0" transform="translate(418 154)"/>
            <circle id="Oval-8" data-name="Oval" cx="2.5" cy="2.5" r="2.5" transform="translate(386 153)"/>
            <path id="Shape-9" data-name="Shape" class="cls-6" d="M0,.9A1.21,1.21,0,0,1,.84,0" transform="translate(387 154)"/>
            <path id="Shape-10" data-name="Shape" class="cls-5" d="M7,0,0,4" transform="translate(383 151)"/>
            <path id="Shape-11" data-name="Shape" class="cls-5" d="M0,0,7,4" transform="translate(418 151)"/>
            <circle id="Oval-9" data-name="Oval" class="cls-4" cx="5.5" cy="5.5" r="5.5" transform="translate(340 150)"/>
            <circle id="Oval-10" data-name="Oval" class="cls-4" cx="5.5" cy="5.5" r="5.5" transform="translate(307 150)"/>
            <path id="Shape-12" data-name="Shape" class="cls-5" d="M0,3A10.5,10.5,0,0,0,6,0" transform="translate(306 148)"/>
            <path id="Shape-13" data-name="Shape" class="cls-5" d="M6,3A10.5,10.5,0,0,1,0,0" transform="translate(344 148)"/>
            <path id="Shape-14" data-name="Shape" class="cls-5" d="M9,1A10.625,10.625,0,0,0,0,1" transform="translate(325 168)"/>
            <circle id="Oval-11" data-name="Oval" cx="2.5" cy="2.5" r="2.5" transform="translate(341 153)"/>
            <path id="Shape-15" data-name="Shape" class="cls-6" d="M0,.9A1.21,1.21,0,0,1,.84,0" transform="translate(342 154)"/>
            <circle id="Oval-12" data-name="Oval" cx="2.5" cy="2.5" r="2.5" transform="translate(310 153)"/>
            <path id="Shape-16" data-name="Shape" class="cls-6" d="M0,.9A1.21,1.21,0,0,1,.84,0" transform="translate(311 154)"/>
            <path id="Shape-17" data-name="Shape" class="cls-5" d="M7,0,0,4" transform="translate(307 151)"/>
            <path id="Shape-18" data-name="Shape" class="cls-5" d="M0,0,7,4" transform="translate(342 151)"/>
            <circle id="Oval-13" data-name="Oval" class="cls-4" cx="5.5" cy="5.5" r="5.5" transform="translate(274 150)"/>
            <path id="Shape-19" data-name="Shape" class="cls-5" d="M0,.278a10.68,10.68,0,0,1,6,.34" transform="translate(276 146)"/>
            <circle id="Oval-14" data-name="Oval" class="cls-4" cx="5.5" cy="5.5" r="5.5" transform="translate(241 150)"/>
            <path id="Shape-20" data-name="Shape" class="cls-5" d="M6,.278a10.68,10.68,0,0,0-6,.34" transform="translate(243 146)"/>
            <path id="Shape-21" data-name="Shape" class="cls-5" d="M9,.592a17.385,17.385,0,0,0-9,0" transform="translate(258 167)"/>
            <circle id="Oval-15" data-name="Oval" cx="2.5" cy="2.5" r="2.5" transform="translate(275 153)"/>
            <path id="Shape-22" data-name="Shape" class="cls-6" d="M0,.9A1.21,1.21,0,0,1,.84,0" transform="translate(276 154)"/>
            <circle id="Oval-16" data-name="Oval" cx="2.5" cy="2.5" r="2.5" transform="translate(244 153)"/>
            <path id="Shape-23" data-name="Shape" class="cls-6" d="M0,.9A1.21,1.21,0,0,1,.84,0" transform="translate(245 154)"/>
            <circle id="Oval-17" data-name="Oval" class="cls-4" cx="5.5" cy="5.5" r="5.5" transform="translate(117 150)"/>
            <circle id="Oval-18" data-name="Oval" cx="2.5" cy="2.5" r="2.5" transform="translate(120 152)"/>
            <path id="Shape-24" data-name="Shape" class="cls-5" d="M0,.278a10.68,10.68,0,0,1,6,.34" transform="translate(119 146)"/>
            <circle id="Oval-19" data-name="Oval" class="cls-4" cx="5.5" cy="5.5" r="5.5" transform="translate(85 150)"/>
            <circle id="Oval-20" data-name="Oval" cx="2.5" cy="2.5" r="2.5" transform="translate(87 152)"/>
            <path id="Shape-25" data-name="Shape" class="cls-5" d="M6,.278a10.68,10.68,0,0,0-6,.34" transform="translate(86 146)"/>
            <path id="Shape-26" data-name="Shape" class="cls-5" d="M0,0A17.385,17.385,0,0,0,9,0" transform="translate(102 167)"/>
            <path id="Shape-27" data-name="Shape" class="cls-6" d="M0,.9A1.21,1.21,0,0,1,.84,0" transform="translate(120 153)"/>
            <path id="Shape-28" data-name="Shape" class="cls-6" d="M0,.9A1.21,1.21,0,0,1,.84,0" transform="translate(88 153)"/>
            <circle id="Oval-21" data-name="Oval" class="cls-4" cx="5.5" cy="5.5" r="5.5" transform="translate(35 150)"/>
            <circle id="Oval-22" data-name="Oval" cx="2.5" cy="2.5" r="2.5" transform="translate(39 152)"/>
            <path id="Shape-29" data-name="Shape" class="cls-5" d="M0,.9C1.95-.629,4.421-.177,6,2" transform="translate(37 146)"/>
            <circle id="Oval-23" data-name="Oval" class="cls-4" cx="5.5" cy="5.5" r="5.5" transform="translate(3 150)"/>
            <circle id="Oval-24" data-name="Oval" cx="2.5" cy="2.5" r="2.5" transform="translate(6 152)"/>
            <path id="Shape-30" data-name="Shape" class="cls-5" d="M6,.9C4.05-.629,1.579-.177,0,2" transform="translate(4 146)"/>
            <path id="Shape-31" data-name="Shape" class="cls-5" d="M0,0A5.066,5.066,0,0,0,6,0" transform="translate(21 166)"/>
            <path id="Shape-32" data-name="Shape" class="cls-6" d="M0,.9A1.21,1.21,0,0,1,.84,0" transform="translate(40 153)"/>
            <path id="Shape-33" data-name="Shape" class="cls-6" d="M0,.9A1.21,1.21,0,0,1,.84,0" transform="translate(6 153)"/>
            <circle id="Oval-25" data-name="Oval" class="cls-4" cx="9.5" cy="9.5" r="9.5" transform="translate(410 6)"/>
            <circle id="Oval-26" data-name="Oval" class="cls-4" cx="9.5" cy="9.5" r="9.5" transform="translate(386 6)"/>
            <path id="Shape-34" data-name="Shape" class="cls-5" d="M0,11.878S9.148,14.059,14,0" transform="translate(380)"/>
            <path id="Shape-35" data-name="Shape" class="cls-5" d="M14,11.878S4.852,14.059,0,0" transform="translate(420)"/>
            <path id="Shape-36" data-name="Shape" class="cls-5" d="M28,9S15.158-11.25,0,9" transform="translate(394 32)"/>
            <circle id="Oval-27" data-name="Oval" cx="5" cy="5" r="5" transform="translate(413 16)"/>
            <path id="Shape-37" data-name="Shape" class="cls-6" d="M0,2A2.78,2.78,0,0,1,2,0" transform="translate(415 17)"/>
            <circle id="Oval-28" data-name="Oval" cx="5" cy="5" r="5" transform="translate(392 16)"/>
            <path id="Shape-38" data-name="Shape" class="cls-6" d="M0,2A2.78,2.78,0,0,1,2,0" transform="translate(393 17)"/>
            <path id="Shape-39" data-name="Shape" class="cls-4" d="M17,0,0,7" transform="translate(386 12)"/>
            <path id="Shape-40" data-name="Shape" class="cls-4" d="M0,0,17,7" transform="translate(411 12)"/>
            <circle id="Oval-29" data-name="Oval" class="cls-4" cx="9.5" cy="9.5" r="9.5" transform="translate(334 6)"/>
            <circle id="Oval-30" data-name="Oval" class="cls-4" cx="9.5" cy="9.5" r="9.5" transform="translate(310 6)"/>
            <path id="Shape-41" data-name="Shape" class="cls-5" d="M0,5.936S5.8,7.048,14,0" transform="translate(307 1)"/>
            <path id="Shape-42" data-name="Shape" class="cls-5" d="M14,5.936S8.2,7.048,0,0" transform="translate(341 1)"/>
            <path id="Shape-43" data-name="Shape" class="cls-5" d="M24,4A20.111,20.111,0,0,0,0,4" transform="translate(319 34)"/>
            <circle id="Oval-31" data-name="Oval" cx="5" cy="5" r="5" transform="translate(337 16)"/>
            <path id="Shape-44" data-name="Shape" class="cls-6" d="M0,2A2.78,2.78,0,0,1,2,0" transform="translate(338 17)"/>
            <circle id="Oval-32" data-name="Oval" cx="5" cy="5" r="5" transform="translate(316 16)"/>
            <path id="Shape-45" data-name="Shape" class="cls-6" d="M0,2A2.78,2.78,0,0,1,2,0" transform="translate(317 17)"/>
            <path id="Shape-46" data-name="Shape" class="cls-4" d="M17,0,0,7" transform="translate(310 12)"/>
            <path id="Shape-47" data-name="Shape" class="cls-4" d="M0,0,17,7" transform="translate(335 12)"/>
            <circle id="Oval-33" data-name="Oval" class="cls-4" cx="9.5" cy="9.5" r="9.5" transform="translate(266 6)"/>
            <circle id="Oval-34" data-name="Oval" class="cls-4" cx="9.5" cy="9.5" r="9.5" transform="translate(241 6)"/>
            <path id="Shape-48" data-name="Shape" class="cls-5" d="M12,1.183S8.111-1.96,0,2" transform="translate(244)"/>
            <path id="Shape-49" data-name="Shape" class="cls-5" d="M0,1.183S3.889-1.96,12,2" transform="translate(269)"/>
            <path id="Shape-50" data-name="Shape" class="cls-5" d="M29,2A53.562,53.562,0,0,0,0,2" transform="translate(248 33)"/>
            <circle id="Oval-35" data-name="Oval" cx="5" cy="5" r="5" transform="translate(269 16)"/>
            <path id="Shape-51" data-name="Shape" class="cls-6" d="M0,2A2.78,2.78,0,0,1,2,0" transform="translate(270 17)"/>
            <circle id="Oval-36" data-name="Oval" cx="5" cy="5" r="5" transform="translate(247 16)"/>
            <path id="Shape-52" data-name="Shape" class="cls-6" d="M0,2A2.78,2.78,0,0,1,2,0" transform="translate(248 17)"/>
            <circle id="Oval-37" data-name="Oval" class="cls-4" cx="9.5" cy="9.5" r="9.5" transform="translate(189 6)"/>
            <circle id="Oval-38" data-name="Oval" cx="5" cy="5" r="5" transform="translate(193 12)"/>
            <circle id="Oval-39" data-name="Oval" class="cls-4" cx="9.5" cy="9.5" r="9.5" transform="translate(164 6)"/>
            <circle id="Oval-40" data-name="Oval" cx="5" cy="5" r="5" transform="translate(169 12)"/>
            <path id="Shape-53" data-name="Shape" class="cls-5" d="M12,1.183S8.111-1.96,0,2" transform="translate(167)"/>
            <path id="Shape-54" data-name="Shape" class="cls-5" d="M0,1.183S3.889-1.96,12,2" transform="translate(192)"/>
            <path id="Shape-55" data-name="Shape" class="cls-5" d="M0,0S13.327.59,29,0" transform="translate(171 33)"/>
            <path id="Shape-56" data-name="Shape" class="cls-6" d="M0,2A2.78,2.78,0,0,1,2,0" transform="translate(195 13)"/>
            <path id="Shape-57" data-name="Shape" class="cls-6" d="M0,2A2.78,2.78,0,0,1,2,0" transform="translate(170 13)"/>
            <circle id="Oval-41" data-name="Oval" class="cls-4" cx="9.5" cy="9.5" r="9.5" transform="translate(109 6)"/>
            <circle id="Oval-42" data-name="Oval" cx="5" cy="5" r="5" transform="translate(115 12)"/>
            <circle id="Oval-43" data-name="Oval" class="cls-4" cx="9.5" cy="9.5" r="9.5" transform="translate(86 6)"/>
            <circle id="Oval-44" data-name="Oval" cx="5" cy="5" r="5" transform="translate(91 12)"/>
            <path id="Shape-58" data-name="Shape" class="cls-5" d="M12,1.183S8.111-1.96,0,2" transform="translate(88)"/>
            <path id="Shape-59" data-name="Shape" class="cls-5" d="M0,1.183S3.889-1.96,12,2" transform="translate(114)"/>
            <path id="Shape-60" data-name="Shape" class="cls-5" d="M0,0A36.542,36.542,0,0,0,29,0" transform="translate(92 31)"/>
            <path id="Shape-61" data-name="Shape" class="cls-6" d="M0,2A2.78,2.78,0,0,1,2,0" transform="translate(116 13)"/>
            <path id="Shape-62" data-name="Shape" class="cls-6" d="M0,2A2.78,2.78,0,0,1,2,0" transform="translate(92 13)"/>
            <circle id="Oval-45" data-name="Oval" class="cls-4" cx="9.5" cy="9.5" r="9.5" transform="translate(28 6)"/>
            <circle id="Oval-46" data-name="Oval" cx="5" cy="5" r="5" transform="translate(32 12)"/>
            <path id="Shape-63" data-name="Shape" class="cls-5" d="M0,1.354S5.758-2.6,12,3" transform="translate(31 0)"/>
            <circle id="Oval-47" data-name="Oval" class="cls-4" cx="9.5" cy="9.5" r="9.5" transform="translate(3 6)"/>
            <circle id="Oval-48" data-name="Oval" cx="5" cy="5" r="5" transform="translate(9 12)"/>
            <path id="Shape-64" data-name="Shape" class="cls-5" d="M12,1.354S6.242-2.6,0,3" transform="translate(6 0)"/>
            <path id="Shape-65" data-name="Shape" class="cls-5" d="M0,0S22.515,22.5,49,0" transform="translate(0 30)"/>
            <path id="Shape-66" data-name="Shape" class="cls-6" d="M0,2A2.78,2.78,0,0,1,2,0" transform="translate(33 13)"/>
            <path id="Shape-67" data-name="Shape" class="cls-6" d="M0,2A2.78,2.78,0,0,1,2,0" transform="translate(10 13)"/>
            <path id="Shape-68" data-name="Shape" class="cls-4" d="M17,0,0,7" transform="translate(241 12)"/>
            <path id="Shape-69" data-name="Shape" class="cls-4" d="M0,0,17,7" transform="translate(267 12)"/>
            <path id="Shape-70" data-name="Shape" d="M1.527,3a1.591,1.591,0,0,1-1.21-.52A2.284,2.284,0,0,1,.407.021,3.354,3.354,0,0,1,2.926,1.407a1.149,1.149,0,0,1-.741,1.465A1.721,1.721,0,0,1,1.527,3ZM.891.751A1.643,1.643,0,0,0,1,2.169a.72.72,0,0,0,.614.306.816.816,0,0,0,.319-.064.606.606,0,0,0,.35-.365.478.478,0,0,0-.057-.4A2.343,2.343,0,0,0,.917.751H.891Z" transform="translate(425 162)"/>
            <path id="Shape-71" data-name="Shape" d="M1.659,3a1.345,1.345,0,0,1-.842-.3A2.99,2.99,0,0,1,.058.066H.046A2.96,2.96,0,0,1,2.692.8,1.342,1.342,0,0,1,1.659,3ZM.724.718A2.166,2.166,0,0,0,1.3,2.18a.629.629,0,0,0,.877-.9A2.174,2.174,0,0,0,.726.719Z" transform="translate(430 162)"/>
            <path id="Shape-72" data-name="Shape" d="M1.3,3a1.275,1.275,0,0,1-.959-.445A1.423,1.423,0,0,1,.339.7,2.791,2.791,0,0,1,2.182,0a2.734,2.734,0,0,1,.768.11L2.974.086A3.154,3.154,0,0,1,2.088,2.72,1.248,1.248,0,0,1,1.3,3ZM2.144.737h0a2.055,2.055,0,0,0-1.322.489A.672.672,0,0,0,.8,2.1a.6.6,0,0,0,.462.223A.585.585,0,0,0,1.616,2.2,2.267,2.267,0,0,0,2.26.742h.012c-.037,0-.078,0-.127,0Z" transform="translate(380 162)"/>
            <path id="Shape-73" data-name="Shape" d="M1.482,3h0A1.741,1.741,0,0,1,.82,2.872,1.141,1.141,0,0,1,.075,1.413,3.35,3.35,0,0,1,2.58,0L2.554.011A2.26,2.26,0,0,1,2.7,2.483,1.6,1.6,0,0,1,1.482,3ZM2.121.76a2.342,2.342,0,0,0-1.312.91.464.464,0,0,0,0,.366.616.616,0,0,0,.349.326.818.818,0,0,0,.311.06.75.75,0,0,0,.576-.249A1.625,1.625,0,0,0,2.121.76Z" transform="translate(382 165)"/>
            <path id="Shape-74" data-name="Shape" d="M1.514,3A1.58,1.58,0,0,1,.207,2.385,2.149,2.149,0,0,1,.575.011L.562,0A3.246,3.246,0,0,1,2.942,1.5a.933.933,0,0,1-.042.745,1.366,1.366,0,0,1-.824.663A1.827,1.827,0,0,1,1.514,3ZM1.035.757h0L.969.768a1.525,1.525,0,0,0,0,1.369.711.711,0,0,0,.562.342.9.9,0,0,0,.1.005.794.794,0,0,0,.561-.218.467.467,0,0,0,.1-.555A2.255,2.255,0,0,0,1.035.757Z" transform="translate(426 167)"/>
            <path id="Shape-75" data-name="Shape" d="M1.772,4A1.81,1.81,0,0,1,.594,3.568,1.678,1.678,0,0,1,0,2.406,1.661,1.661,0,0,1,.42,1.186,4.046,4.046,0,0,1,3.288,0a4.117,4.117,0,0,1,.565.039L3.865.017a3.7,3.7,0,0,1-.8,3.441A1.811,1.811,0,0,1,1.772,4ZM3.023.937a2.935,2.935,0,0,0-1.9.844.792.792,0,0,0-.172.795.833.833,0,0,0,.628.541.876.876,0,0,0,.172.017.856.856,0,0,0,.628-.271,2.724,2.724,0,0,0,.64-1.9Z" transform="translate(381 27)"/>
            <path id="Shape-76" data-name="Shape" d="M2.1,5A1.892,1.892,0,0,1,.409,3.955,4.377,4.377,0,0,1,.542,0L.554.013A4.223,4.223,0,0,1,3.788,2.185a1.946,1.946,0,0,1-.817,2.6A1.86,1.86,0,0,1,2.1,5ZM1.156,1.209V1.22A3.184,3.184,0,0,0,1.3,3.479a.9.9,0,0,0,.756.487H2.1a.885.885,0,0,0,.753-.421.923.923,0,0,0,.038-.909A3.105,3.105,0,0,0,1.156,1.209Z" transform="translate(426 26)"/>
            <path id="Shape-77" data-name="Shape" d="M2.272,4h0a1.716,1.716,0,0,1-1.216-.5A3.856,3.856,0,0,1,.075.1L.064.084a3.827,3.827,0,0,1,3.425.96A1.728,1.728,0,0,1,2.272,4ZM.936.946a2.808,2.808,0,0,0,.753,1.888.807.807,0,0,0,1.09-1.157A2.816,2.816,0,0,0,.936.946Z" transform="translate(433 27)"/>
            <path id="Shape-78" data-name="Shape" d="M2.063,5a2,2,0,0,1-.26-.017A1.935,1.935,0,0,1,.272,3.83,4.109,4.109,0,0,1,.749,0V.023A4.281,4.281,0,0,1,3.856,2.4,1.847,1.847,0,0,1,3.6,4.269,1.971,1.971,0,0,1,2.063,5Zm-.8-3.81a2.987,2.987,0,0,0,0,2.212.905.905,0,0,0,.721.536.938.938,0,0,0,.117.007A.921.921,0,0,0,2.822,3.6a.864.864,0,0,0,.117-.875A3.112,3.112,0,0,0,1.311,1.19Z" transform="translate(428 33)"/>
            <path id="Shape-79" data-name="Shape" d="M2,5H2a2.251,2.251,0,0,1-.243-.013,2.05,2.05,0,0,1-1.392-.75A1.665,1.665,0,0,1,.014,2.983,4.085,4.085,0,0,1,2.427,0,3.816,3.816,0,0,1,3.982,3.415,1.937,1.937,0,0,1,2,5Zm.263-3.747A2.887,2.887,0,0,0,1.075,3.074a.786.786,0,0,0,.17.59.966.966,0,0,0,.658.349,1.06,1.06,0,0,0,.11.006.91.91,0,0,0,.933-.751A2.739,2.739,0,0,0,2.263,1.253Z" transform="translate(385 31)"/>
            <path id="Shape-80" data-name="Shape" class="cls-5" d="M0,0H6" transform="translate(182 167)"/>
            <path id="Shape-81" data-name="Shape" class="cls-5" d="M7,0,0,4" transform="translate(242 151)"/>
            <path id="Shape-82" data-name="Shape" class="cls-5" d="M0,0,7,4" transform="translate(276 151)"/>
          </g>
        </g>
      </g>
    </g>
  </g>
</svg>
